<svg
  xmlns="http://www.w3.org/2000/svg"
  viewBox="0 0 173.79 182.18"
>
  <defs>
    <style>.cls-1 {
        fill: #351734;
    }

    .cls-2 {
        fill: #1fa254;
    }

    .cls-3 {
        fill: #f4f3f2;
    }

    .cls-4 {
        fill: #ededed;
    }
    </style>
  </defs>
  <title>Asset 11</title>
  <g
    id="Layer_2"
  >
    <g
      id="Layer_1-2"
    >
      <path d="M108.19,16.57c-.32-1.6-.51-3.07-.91-4.48A16.59,16.59,0,0,0,91.35,0C84.27-.06,77.11,4.49,75.61,11.48c-2,9.51-10.52,13-15.49,19.78-1-.77-1.54-1-1.76-1.36-2.9-5-7.43-7.35-12.93-6.73-6,.67-9.73,4.49-11.49,10.33-.44,1.48-1.73,2.69-2.52,4.08C29.52,41,27,44.16,26,47.79s-.48,8-.19,11.93A11,11,0,0,1,22,69.37C15.67,75.28,9.61,81.48,3.58,87.7c-4.72,4.87-4.81,10.69-.06,15.47q37.55,37.71,75.27,75.24c5.24,5.2,11.08,4.93,16.24-.22q37.31-37.26,74.55-74.55c5.61-5.62,5.61-10.73,0-16.34C155.94,73.63,142.2,60,128.7,46.22c-1.63-1.67-2.45-4.48-2.87-6.9-.56-3.25.13-6.72-.57-9.92C123.3,20.49,116.19,17.84,108.19,16.57Z"/>
      <path
        class="cls-1"
        d="M108.19,16.57c8,1.27,15.11,3.92,17.07,12.83.7,3.2,0,6.67.57,9.92.42,2.42,1.24,5.23,2.87,6.9C142.2,60,155.94,73.63,169.59,87.3c5.6,5.61,5.6,10.72,0,16.34Q132.32,140.93,95,178.19c-5.16,5.15-11,5.42-16.24.22Q41,140.91,3.52,103.17c-4.75-4.78-4.66-10.6.06-15.47,6-6.22,12.09-12.42,18.41-18.33a11,11,0,0,0,3.86-9.65c-.29-4-.75-8.17.19-11.93S29.52,41,31.42,37.58c.79-1.39,2.08-2.6,2.52-4.08,1.76-5.84,5.5-9.66,11.49-10.33,5.5-.62,10,1.74,12.93,6.73.22.38.75.59,1.76,1.36,5-6.77,13.45-10.27,15.49-19.78C77.11,4.49,84.27-.06,91.35,0a16.59,16.59,0,0,1,15.93,12.09C107.68,13.5,107.87,15,108.19,16.57ZM143.85,121c7-6.89,14-13.76,21-20.68,4.27-4.24,4.24-5.48-.08-9.8-12-12-23.68-24.37-36.14-35.88-6.49-6-9.78-12.1-9-21.13.73-8.09-6.67-12.61-14.24-9.61-.73.29-1.47.55-2.17.82-.59-4.15-.71-8.19-1.81-11.94-1.32-4.54-6.19-7.3-11-6.78-4.66.51-9.08,2.77-9.32,7.52-.27,5.5-3.55,8.31-6.78,11.56Q66,33.38,57.65,41.63a36.24,36.24,0,0,1-3.26,2.51C53,38,56.64,29.66,46.66,29c-4.44-.29-6.1,2.51-8.13,10.91-2.6,2.25-6,4.65-6.5,7.58-1,5.14-.07,10.61-.31,15.92-.09,2-.59,4.51-1.88,5.87-7,7.37-14.22,14.49-21.46,21.61C5.51,93.72,4.91,96.44,8,99.46l46.75,46.4q13.89,14,27.77,28c2.8,2.82,5.52,3.26,8.56.18Q117.4,147.47,143.85,121Z"
      />
      <path
        class="cls-2"
        d="M54.7,145.86,8,99.46c-3-3-2.44-5.74.43-8.57,7.24-7.12,14.48-14.24,21.46-21.61,1.29-1.36,1.79-3.86,1.88-5.87.24-5.31-.67-10.78.31-15.92.55-2.93,3.9-5.33,6.5-7.58,2-8.4,3.69-11.2,8.13-10.91,10,.66,6.32,9,7.73,15.14a36.24,36.24,0,0,0,3.26-2.51Q66,33.38,74.26,25.05C77.49,21.8,80.77,19,81,13.49c.24-4.75,4.66-7,9.32-7.52,4.85-.52,9.72,2.24,11,6.78,1.1,3.75,1.22,7.79,1.81,11.94.7-.27,1.44-.53,2.17-.82,7.57-3,15,1.52,14.24,9.61-.82,9,2.47,15.13,9,21.13C141,66.12,152.73,78.47,164.72,90.49c4.32,4.32,4.35,5.56.08,9.8-7,6.92-14,13.79-21,20.68-1.64-2.64-2.89-5.65-5-7.87-9.39-9.93-21.8-13.43-35.69-16,.6,8.17,1.16,15.88,1.72,23.6.39,5.22-.54,10.63-5,13.27-6.92,4.09-14.33,7.92-22,9.94C70.47,145.81,62.44,145.3,54.7,145.86ZM98.28,89.4,102,89c9.65-.93,13.68-5.29,13.69-14.81q0-9.75,0-19.5c0-7.16.07-14.33,0-21.49-.06-3.76-2.17-5.95-5.93-6s-5.85,2.05-6.13,5.8c-.14,1.82-.06,3.66-.08,5.49-.09,11-.14,22-.31,33,0,2.76-.7,5.35-5,5.27v-5.5q0-25.48,0-51c0-6.82-2.26-10.15-6.84-10.26s-6.88,3.05-6.89,10q0,35,0,70c0,1.73-.17,3.46-.25,5.13-4.08.52-5-1.69-5.09-4.42q-.28-10.25-.29-20.48c0-3.84-.49-7.31-5.29-7.39S68.13,66.14,68.13,70c0,7.83.1,15.67-.1,23.49-.18,7.66,3.33,12.37,10.76,13.79,1.77.35,3.57.59,5.85,1v23.27c11.34,1.18,13.64-.81,13.64-11.28ZM52.12,67.71l-2.22,0V62.9c0-8.31.16-16.62-.13-24.92-.06-1.67-1.82-3.27-2.79-4.9a30.36,30.36,0,0,0-3.18,5.14c-.51,1.3-.1,3-.1,4.45V61.79l-1.38.13A27.36,27.36,0,0,1,41.66,58c-.12-3,.23-6-.2-9-.21-1.41-1.74-2.63-2.67-3.94-1,1.31-2.58,2.53-2.79,4-.44,2.93-.14,6-.15,9,0,7.62.48,8.31,7.85,10.54,0,2.73.18,5.56,0,8.35-.38,4.82,2,5.65,6.23,4.64v-7c7.08-2.76,7.07-2.76,7-10.13a45,45,0,0,0-.1-7c-.22-1.28-1.48-2.39-2.27-3.58-.8,1.23-2.17,2.4-2.3,3.69C51.9,61,52.12,64.34,52.12,67.71ZM39,72.79C31.69,74,26.6,78.25,26.09,82.8c-.49,4.3,2.21,8.74,8.1,10.66,9.18,3,18.63,5.1,28.31,7.67V92.3c-1-.17-1.81-.24-2.59-.43-7.07-1.78-14.28-3.14-21.14-5.51-5.39-1.86-5.77-5-2.28-9.55C37.25,75.83,37.81,74.7,39,72.79Z"
      />
      <path
        class="cls-3"
        d="M54.7,145.86c7.74-.56,15.77-.05,23.16-2,7.7-2,15.11-5.85,22-9.94,4.47-2.64,5.4-8.05,5-13.27-.56-7.72-1.12-15.43-1.72-23.6,13.89,2.61,26.3,6.11,35.69,16,2.09,2.22,3.34,5.23,5,7.87Q117.44,147.51,91,174.05c-3,3.08-5.76,2.64-8.56-.18Q68.6,159.86,54.7,145.86Z"
      />
      <path
        class="cls-3"
        d="M98.28,89.4v30.83c0,10.47-2.3,12.46-13.64,11.28V108.24c-2.28-.37-4.08-.61-5.85-1-7.43-1.42-10.94-6.13-10.76-13.79.2-7.82.12-15.66.1-23.49,0-3.86.71-7.28,5.49-7.21s5.3,3.55,5.29,7.39q0,10.25.29,20.48c.08,2.73,1,4.94,5.09,4.42.08-1.67.25-3.4.25-5.13q0-35,0-70c0-6.91,2.2-10.08,6.89-10s6.83,3.44,6.84,10.26q0,25.49,0,51v5.5c4.26.08,4.91-2.51,5-5.27.17-11,.22-22,.31-33,0-1.83-.06-3.67.08-5.49.28-3.75,2.39-5.86,6.13-5.8s5.87,2.25,5.93,6c.1,7.16,0,14.33,0,21.49q0,9.75,0,19.5c0,9.52-4,13.88-13.69,14.81Z"
      />
      <path
        class="cls-4"
        d="M52.12,67.71c0-3.37-.22-6.76.11-10.09.13-1.29,1.5-2.46,2.3-3.69.79,1.19,2,2.3,2.27,3.58a45,45,0,0,1,.1,7c.06,7.37.07,7.37-7,10.13v7c-4.26,1-6.61.18-6.23-4.64.22-2.79,0-5.62,0-8.35-7.37-2.23-7.87-2.92-7.85-10.54,0-3-.29-6,.15-9,.21-1.43,1.81-2.65,2.79-4,.93,1.31,2.46,2.53,2.67,3.94.43,2.93.08,6,.2,9a27.36,27.36,0,0,0,.66,3.88l1.38-.13V42.67c0-1.5-.41-3.15.1-4.45A30.36,30.36,0,0,1,47,33.08c1,1.63,2.73,3.23,2.79,4.9.29,8.3.13,16.61.13,24.92v4.78Z"
      />
      <path
        class="cls-3"
        d="M39,72.79c-1.17,1.91-1.73,3-2.49,4-3.49,4.55-3.11,7.69,2.28,9.55,6.86,2.37,14.07,3.73,21.14,5.51.78.19,1.58.26,2.59.43v8.83c-9.68-2.57-19.13-4.69-28.31-7.67-5.89-1.92-8.59-6.36-8.1-10.66C26.6,78.25,31.69,74,39,72.79Z"
      />
    </g>
  </g>
</svg>
