<svg xmlns="http://www.w3.org/2000/svg" viewBox="0 0 173.49 186.63"><defs><style>.cls-1{fill:#351734;}.cls-2{fill:#1fa254;}.cls-3{fill:#f4f3f2;}.cls-4{fill:#ededed;}</style></defs><title>Asset 13</title><g id="Layer_2"><g id="Layer_1-2"><path d="M96.2,17.13c-9.71-5.77-12.49-5.39-20.14,2.26-3.18,3.18-6.43,6.29-9.52,9.56C64.49,31.13,63,32,59.86,30c-7.56-5-15.46-2.31-19.24,6-.76,1.65-1,3.95-2.24,4.91C31.63,46,31.3,53.07,31.3,60.58a9.62,9.62,0,0,1-2.6,6c-7.84,8.16-15.94,16.08-23.94,24.1-6.33,6.34-6.35,12.1,0,18.58,3.6,3.7,7.22,7.38,11,10.94,2,1.87,2.58,3.52,1.94,6.49-3.54,16.39,1.85,28.94,16.84,35.87,7.45,3.44,16.15,4.46,24.41,5.78,3.45.55,6.29,1,8.72,3.72,3.2,3.61,6.73,6.93,10.2,10.28,6,5.74,11.55,5.69,17.35-.06,3-2.94,6.09-5.71,8.78-8.88,3.14-3.71,6.81-4.74,11.66-5.11A86.48,86.48,0,0,0,137.85,164c13.88-4.92,21.51-19.05,18.56-33.54-1.22-6-.43-10.49,4.69-14.23,2.78-2,5-4.87,7.47-7.35,6.61-6.62,6.57-12-.18-18.76-6-6-12.18-11.86-17.91-18.12a12.28,12.28,0,0,1-3-7.34c-.33-10.81-.06-21.64-.17-32.47-.07-7.3-5.77-14.19-12.51-14.54-3.86-.2-4.87-1.74-5.71-5.19A16.5,16.5,0,0,0,104.21,2.6C99.12,5.83,96.35,10.59,96.2,17.13Z"/><path class="cls-1" d="M96.2,17.13c.15-6.54,2.92-11.3,8-14.53a16.5,16.5,0,0,1,24.91,9.85c.84,3.45,1.85,5,5.71,5.19,6.74.35,12.44,7.24,12.51,14.54.11,10.83-.16,21.66.17,32.47a12.28,12.28,0,0,0,3,7.34c5.73,6.26,11.92,12.09,17.91,18.12,6.75,6.8,6.79,12.14.18,18.76-2.47,2.48-4.69,5.3-7.47,7.35-5.12,3.74-5.91,8.22-4.69,14.23,3,14.49-4.68,28.62-18.56,33.54a86.48,86.48,0,0,1-22.25,4.31c-4.85.37-8.52,1.4-11.66,5.11-2.69,3.17-5.83,5.94-8.78,8.88-5.8,5.75-11.4,5.8-17.35.06-3.47-3.35-7-6.67-10.2-10.28-2.43-2.73-5.27-3.17-8.72-3.72-8.26-1.32-17-2.34-24.41-5.78-15-6.93-20.38-19.48-16.84-35.87.64-3,0-4.62-1.94-6.49-3.75-3.56-7.37-7.24-11-10.94-6.32-6.48-6.3-12.24,0-18.58,8-8,16.1-15.94,23.94-24.1a9.62,9.62,0,0,0,2.6-6c0-7.51.33-14.62,7.08-19.75,1.26-1,1.48-3.26,2.24-4.91,3.78-8.28,11.68-11,19.24-6C63,32,64.49,31.13,66.54,29c3.09-3.27,6.34-6.38,9.52-9.56C83.71,11.74,86.49,11.36,96.2,17.13Zm6,13.79-1.16.5c-2-1.92-3.88-3.86-5.85-5.76-8.13-7.83-7.05-10.38-17.32.09C72.66,31,67.4,36.2,61.91,41.68,59.31,33.19,54,29.9,48.58,33.16c-5.64,3.42-3.85,12.43-11,15.16-.93.36-1.09,3.31-1.2,5.09a60,60,0,0,0,0,9c.31,3.46-.94,5.91-3.42,8.3C25.09,78.34,17.37,86.18,9.63,94c-5.24,5.29-5.21,6.19-.12,11.3,4,4,7.85,8.2,12.08,11.95,3,2.65,3.54,5.12,2.37,9-4.19,13.9.11,25,12.58,31a52.22,52.22,0,0,0,18.56,5.08c8.71.61,16.16,2.39,21.47,9.89,1.52,2.15,3.81,3.72,5.58,5.71,3.07,3.47,6,3.71,9.2.15,2.68-3,5.81-5.52,8.4-8.55,3.65-4.27,7.6-7.1,13.68-6.3a24.07,24.07,0,0,0,8.9-.86c5.44-1.4,11.14-2.53,16.06-5.07,11.71-6,15.5-17.49,11.21-32.24-.92-3.15-.51-5.13,1.94-7.35,4.68-4.26,8.93-9,13.52-13.34,3.23-3.07,3.28-5.72.05-8.85-6.47-6.25-12.64-12.82-19.17-19A12.9,12.9,0,0,1,141.49,66c.27-11,.22-22,0-33-.14-7.48-6.34-11.76-13.4-9.63-1.08.32-2.17.61-3.85,1.09,0-2.86.14-5.33,0-7.79-.44-6.24-5.57-11.18-11.37-11.1s-10.55,5-10.68,11.54C102.08,21.73,102.16,26.33,102.16,30.92Z"/><path class="cls-2" d="M102.16,30.92c0-4.59-.08-9.19,0-13.77.13-6.51,4.77-11.45,10.68-11.54s10.93,4.86,11.37,11.1c.17,2.46,0,4.93,0,7.79,1.68-.48,2.77-.77,3.85-1.09,7.06-2.13,13.26,2.15,13.4,9.63.2,11,.25,22,0,33a12.9,12.9,0,0,0,4.45,10.52c6.53,6.18,12.7,12.75,19.17,19,3.23,3.13,3.18,5.78-.05,8.85-4.59,4.36-8.84,9.08-13.52,13.34-2.45,2.22-2.86,4.2-1.94,7.35,4.29,14.75.5,26.2-11.21,32.24-4.92,2.54-10.62,3.67-16.06,5.07a24.07,24.07,0,0,1-8.9.86c-6.08-.8-10,2-13.68,6.3-2.59,3-5.72,5.59-8.4,8.55-3.23,3.56-6.13,3.32-9.2-.15-1.77-2-4.06-3.56-5.58-5.71-5.31-7.5-12.76-9.28-21.47-9.89a52.22,52.22,0,0,1-18.56-5.08c-12.47-6-16.77-17.13-12.58-31,1.17-3.89.61-6.36-2.37-9-4.23-3.75-8.08-7.94-12.08-11.95-5.09-5.11-5.12-6,.12-11.3C17.37,86.18,25.09,78.34,33,70.7c2.48-2.39,3.73-4.84,3.42-8.3a60,60,0,0,1,0-9c.11-1.78.27-4.73,1.2-5.09,7.11-2.73,5.32-11.74,11-15.16,5.4-3.26,10.73,0,13.33,8.52C67.4,36.2,72.66,31,77.83,25.75,88.1,15.28,87,17.83,95.15,25.66c2,1.9,3.9,3.84,5.85,5.76Zm17.77,45.87v-6q0-25.21,0-50.43a28.36,28.36,0,0,0-.26-5c-.68-3.67-3.22-5.48-6.75-5.37s-6,2-6.55,5.67a34.41,34.41,0,0,0-.15,5q0,34.71,0,69.42c0,1.72-.16,3.45-.25,5.18l-1.82.71c-1.07-1.81-2.93-3.57-3.06-5.45-.49-7-.51-14-.49-20.94,0-3.77-.78-6.91-5.13-7-4.66-.12-5.62,3.26-5.65,7.14-.06,8.32-.23,16.64-.19,25,0,6.13,3.74,10.75,9.77,12.26a63.07,63.07,0,0,0,7,.94v23.55c12.67.71,13.57-.12,13.57-11.9v-30c1.44-.21,2.39-.36,3.35-.48,10.73-1.37,14.21-5.22,14.24-15.88q0-19,0-38c0-5.4-2-8.06-5.91-8.19-4.08-.14-6.24,2.71-6.24,8.32,0,11.49,0,23,0,34.46C125.36,73.08,125.1,76.2,119.93,76.79ZM84.17,83.5c-5.26,0-10.23.24-15.17,0a23.27,23.27,0,0,0-18.55,7A87.12,87.12,0,0,0,27.4,129.49c-3,10.84,1.31,19.07,11.41,24.32C49.44,159.34,61,159.06,72.45,159A3.6,3.6,0,0,0,75,156.72c1.23-5.95,2.18-11.95,3.29-18.38-3.31,0-6.14.19-8.93,0-5.43-.44-11.07-.38-16.23-1.87-8.51-2.46-11.87-8.85-8.72-17,2.72-7.05,6.6-13.71,10.5-20.21,2.84-4.74,7.58-6.71,13.22-6.55,5.27.15,10.54,0,16,0Zm10.08,54.28c1.2,7.83,2.21,14.39,3.25,21.21,12.07.08,23.91.77,35.26-3.48,10.84-4.07,15.87-12.65,14-24-2.26-13.26-8.62-24.71-16.4-35.43-.83-1.15-2.71-1.55-4.45-2.48-1,8.87-.73,11.09,3,22.84,3.93,12.31-.19,19.52-13,21.16C109,138.5,102,137.78,94.25,137.78ZM56.17,79l1.64.47c1.78-2.42,4.36-4.61,5.12-7.31.86-3.07.29-6.62-.08-9.91-.15-1.33-1.42-2.54-2.19-3.8-.82,1.32-2.14,2.56-2.37,4-.54,3.18-.53,6.44-.75,9.67L56,72V66.56c0-8,.2-16-.16-24-.08-1.72-2.18-3.36-3.34-5a32.79,32.79,0,0,0-2.88,5c-.44,1.17-.08,2.63-.08,4V66.2l-1.32.15A18.39,18.39,0,0,1,47.42,63c-.1-3,.27-6-.16-9-.23-1.58-1.73-3-2.65-4.44-1,1.5-2.45,2.9-2.72,4.51-.45,2.76-.11,5.64-.13,8.47,0,7.58.31,8.09,7.48,10.56.85,11.34.85,11.34,6.5,10.67C55.88,82.21,56,80.59,56.17,79ZM82,138.58c-.71,7-1.37,13.62-2,20.18H93c-.74-6.91-1.44-13.44-2.16-20.18Z"/><path class="cls-3" d="M119.93,76.79c5.17-.59,5.43-3.71,5.43-7,0-11.49,0-23,0-34.46,0-5.61,2.16-8.46,6.24-8.32,3.93.13,5.89,2.79,5.91,8.19q0,19,0,38c0,10.66-3.51,14.51-14.24,15.88-1,.12-1.91.27-3.35.48v30c0,11.78-.9,12.61-13.57,11.9V107.9a63.07,63.07,0,0,1-7-.94c-6-1.51-9.75-6.13-9.77-12.26,0-8.32.13-16.64.19-25,0-3.88,1-7.26,5.65-7.14,4.35.11,5.15,3.25,5.13,7,0,7,0,14,.49,20.94.13,1.88,2,3.64,3.06,5.45l1.82-.71c.09-1.73.25-3.46.25-5.18q0-34.71,0-69.42a34.41,34.41,0,0,1,.15-5c.55-3.69,3-5.57,6.55-5.67s6.07,1.7,6.75,5.37a28.36,28.36,0,0,1,.26,5q0,25.22,0,50.43Z"/><path class="cls-3" d="M84.17,83.5v9.17c-5.47,0-10.74.12-16,0-5.64-.16-10.38,1.81-13.22,6.55-3.9,6.5-7.78,13.16-10.5,20.21-3.15,8.18.21,14.57,8.72,17,5.16,1.49,10.8,1.43,16.23,1.87,2.79.23,5.62,0,8.93,0-1.11,6.43-2.06,12.43-3.29,18.38A3.6,3.6,0,0,1,72.45,159c-11.48.11-23,.39-33.64-5.14-10.1-5.25-14.39-13.48-11.41-24.32A87.12,87.12,0,0,1,50.45,90.41a23.27,23.27,0,0,1,18.55-7C73.94,83.74,78.91,83.5,84.17,83.5Z"/><path class="cls-3" d="M94.25,137.78c7.71,0,14.76.72,21.6-.16,12.85-1.64,17-8.85,13-21.16-3.76-11.75-4.08-14-3-22.84,1.74.93,3.62,1.33,4.45,2.48,7.78,10.72,14.14,22.17,16.4,35.43,1.92,11.33-3.11,19.91-14,24-11.35,4.25-23.19,3.56-35.26,3.48C96.46,152.17,95.45,145.61,94.25,137.78Z"/><path class="cls-4" d="M56.17,79c-.15,1.62-.29,3.24-.43,4.81-5.65.67-5.65.67-6.5-10.67-7.17-2.47-7.53-3-7.48-10.56,0-2.83-.32-5.71.13-8.47.27-1.61,1.77-3,2.72-4.51C45.53,51,47,52.43,47.26,54c.43,2.93.06,6,.16,9a18.39,18.39,0,0,0,.76,3.37l1.32-.15V46.51c0-1.33-.36-2.79.08-4a32.79,32.79,0,0,1,2.88-5c1.16,1.67,3.26,3.31,3.34,5,.36,8,.16,16,.16,24V72l1.58.11c.22-3.23.21-6.49.75-9.67.23-1.41,1.55-2.65,2.37-4,.77,1.26,2,2.47,2.19,3.8.37,3.29.94,6.84.08,9.91-.76,2.7-3.34,4.89-5.12,7.31Z"/><path class="cls-4" d="M82,138.58h8.82c.72,6.74,1.42,13.27,2.16,20.18h-13C80.6,152.2,81.26,145.59,82,138.58Z"/></g></g></svg>
