<svg xmlns="http://www.w3.org/2000/svg" viewBox="0 0 156.32 137.68"><defs><style>.cls-1{fill:#fefefe;}.cls-2{fill:#3f213b;}.cls-3{fill:#b20c34;}.cls-4{fill:#f4f3f4;}.cls-5{fill:#391d3a;}</style></defs><title>Asset 1</title><g id="Layer_2" data-name="Layer 2"><g id="Layer_1-2" data-name="Layer 1"><path class="cls-1" d="M78.23,137.67c21.66,0,43.33,0,65,0,11.31,0,16.46-9,10.77-18.8Q121.41,62.78,88.68,6.8c-5.32-9.1-15.84-9.07-21.2.09q-32.6,55.77-65,111.65c-5.95,10.25-.64,19.12,11.28,19.12Q46,137.69,78.23,137.67Z"/><path class="cls-2" d="M78.23,137.67q-32.25,0-64.5,0c-11.92,0-17.23-8.87-11.28-19.12Q34.9,62.67,67.48,6.89c5.36-9.16,15.88-9.19,21.2-.09q32.73,56,65.31,112.05c5.69,9.8.54,18.76-10.77,18.8C121.56,137.71,99.89,137.67,78.23,137.67ZM77.76,132c20.16,0,40.33.09,60.49-.08,3.91,0,8.8,2,11.38-2.76s-1.06-8.57-3.24-12.34c-14.44-24.9-29-49.74-43.51-74.61C96.59,31.42,90.42,20.57,84.07,9.83c-3.18-5.38-8-5.45-11.51-.36C71.71,10.7,71,12,70.22,13.31Q39,67,7.86,120.85c-1.3,2.26-2.27,6.16-1.18,8s4.93,3,7.58,3.05C35.42,132.09,56.59,132,77.76,132Z"/><path class="cls-3" d="M77.76,132c-21.17,0-42.34.1-63.5-.13-2.65,0-6.44-1.15-7.58-3.05s-.12-5.7,1.18-8Q38.87,67,70.22,13.31C71,12,71.71,10.7,72.56,9.47c3.53-5.09,8.33-5,11.51.36,6.35,10.74,12.52,21.59,18.81,32.37,14.5,24.87,29.07,49.71,43.51,74.61,2.18,3.77,5.88,7.51,3.24,12.34s-7.47,2.73-11.38,2.76C118.09,132.08,97.92,132,77.76,132Zm53.5-13.74L78.12,27.1,25,118.25Z"/><path class="cls-4" d="M131.26,118.25H25L78.12,27.1ZM82.86,90c.56-11.28,1.11-22.4,1.66-33.46H71C71.56,68,72.07,79,72.58,90Zm2.6,14.48a7.67,7.67,0,1,0-15.33-.5,7.67,7.67,0,1,0,15.33.5Z"/><path class="cls-2" d="M82.86,90H72.58c-.51-11-1-22-1.54-33.46H84.52C84,67.59,83.42,78.71,82.86,90Z"/><path class="cls-5" d="M85.46,104.47a7.67,7.67,0,1,1-15.33-.5,7.67,7.67,0,1,1,15.33.5Z"/></g></g></svg>