<svg xmlns="http://www.w3.org/2000/svg" viewBox="0 0 137.99 121.25"><defs><style>.cls-1{fill:#361834;}.cls-2{fill:#b20932;}.cls-3{fill:#f6f6f6;}.cls-4{fill:#361936;}.cls-5{fill:#371a37;}</style></defs><title>Asset 2</title><g id="Layer_2" data-name="Layer 2"><g id="Layer_1-2" data-name="Layer 1"><path class="cls-1" d="M69.32,121.23c-19.5,0-39,0-58.5,0-7.46,0-12.37-6.17-10.38-13a25.86,25.86,0,0,1,2.7-5.32q19.49-33.43,39-66.85C48,26,53.77,15.88,59.71,5.85c3.17-5.37,8.63-7.31,13.57-4.7a13,13,0,0,1,4.91,4.72q29.07,49.52,57.9,99.17c4.76,8.17.18,16.13-9.28,16.17C107.65,121.28,88.48,121.23,69.32,121.23Z"/><path class="cls-2" d="M68.83,116.06H12.37c-7.18,0-9.21-3.41-5.58-9.81,5.39-9.5,11-18.86,16.54-28.3,7.18-12.3,14.3-24.63,21.5-36.92,6.27-10.73,12.53-21.46,19-32.1,3.37-5.56,7.09-5.61,10.47,0,6.61,10.9,13,22,19.4,33S106.44,63.92,112.84,75s13,22.33,19.43,33.53c2,3.43,0,7.09-4,7.55a31.4,31.4,0,0,1-3.5,0Z"/><path class="cls-3" d="M22.2,104.07,69,23.82c15.71,26.93,31.1,53.33,46.81,80.25Z"/><path class="cls-4" d="M72.47,79.23H65.1c-2.23-6.39-2.2-20.75-1.62-29.49H74A117.37,117.37,0,0,1,72.47,79.23Z"/><path class="cls-5" d="M75.45,91.91a7,7,0,0,1-6.56,6.87,6.85,6.85,0,0,1-6.89-7A6.52,6.52,0,0,1,69,85,6.65,6.65,0,0,1,75.45,91.91Z"/></g></g></svg>