<svg xmlns="http://www.w3.org/2000/svg" viewBox="0 0 173.74 189.55"><defs><style>.cls-1{fill:#351734;}.cls-2{fill:#fd7214;}.cls-3{fill:#f4f3f2;}.cls-4{fill:#faf9fa;}.cls-5{fill:#f5f5f5;}.cls-6{fill:#e9ce5c;}</style></defs><title>Asset 16</title><g id="Layer_2" ><g id="Layer_1-2" ><path d="M31.16,67.25c-1.11,1.17-2.22,2.39-3.38,3.56C20,78.6,12.21,86.35,4.46,94.15c-5.91,5.95-5.93,10.84-.14,16.67,3.65,3.66,7.11,7.53,11,10.89,3.3,2.83,3.86,5.57,2.94,9.88-2.24,10.46-.36,20.24,7.83,27.92,8,7.46,17.67,11.15,28.37,11.92,7.51.54,14.32,1.72,19,8.47,1.69,2.42,4.13,4.33,6.3,6.4,4.57,4.36,10,4.34,14.55-.11,3.72-3.58,7.15-7.48,11-10.85a13.84,13.84,0,0,1,6.46-2.8c7.32-1.29,14.88-1.55,22-3.43,14.42-3.78,26.09-15.53,23.32-31.33-2.08-11.92,2.79-18.84,10.92-25.35a13.25,13.25,0,0,0,1.07-1.05c6.86-6.92,5.78-19.27-2.36-24.68-2.48-1.65-3.13-2.91-2.14-6s1.8-7.65.23-9.72c-5.46-7.25-12.37-14.1-22.38-12.19-7.14,1.37-10.74-2-14.65-6.34-1.44-1.61-3.3-2.9-4.51-4.66s-1.85-4-2.83-6c-1.91-3.9-2.9-9-6-11.45C102,20.57,89,11.38,75.76,2.44,68.79-2.27,58.82.16,54,7c-7.81,11-15.61,21.92-23.28,33C22.47,51.8,22.6,55.73,31.16,67.25Z"/><path class="cls-1" d="M31.16,67.25C22.6,55.73,22.47,51.8,30.67,40,38.34,28.91,46.14,17.94,54,7,58.82.16,68.79-2.27,75.76,2.44,89,11.38,102,20.57,114.59,30.36c3.09,2.41,4.08,7.55,6,11.45,1,2,1.6,4.19,2.83,6s3.07,3.05,4.51,4.66c3.91,4.37,7.51,7.71,14.65,6.34,10-1.91,16.92,4.94,22.38,12.19,1.57,2.07.75,6.68-.23,9.72s-.34,4.35,2.14,6c8.14,5.41,9.22,17.76,2.36,24.68a13.25,13.25,0,0,1-1.07,1.05c-8.13,6.51-13,13.43-10.92,25.35,2.77,15.8-8.9,27.55-23.32,31.33-7.15,1.88-14.71,2.14-22,3.43a13.84,13.84,0,0,0-6.46,2.8c-3.9,3.37-7.33,7.27-11,10.85-4.6,4.45-10,4.47-14.55.11-2.17-2.07-4.61-4-6.3-6.4-4.72-6.75-11.53-7.93-19-8.47-10.7-.77-20.42-4.46-28.37-11.92-8.19-7.68-10.07-17.46-7.83-27.92.92-4.31.36-7-2.94-9.88-3.91-3.36-7.37-7.23-11-10.89-5.79-5.83-5.77-10.72.14-16.67C12.21,86.35,20,78.6,27.78,70.81,28.94,69.64,30.05,68.42,31.16,67.25Zm103.66.51c-6.53-6.45-12.95-12.71-19.21-19.13a4.83,4.83,0,0,1-.85-3.61c.82-5.47-1.46-9.15-5.87-12.21C97.68,25,86.62,17,75.49,9.12,68,3.78,62.85,4.67,57.37,12.36Q47.23,26.6,37.17,40.89C27.58,54.46,27.74,55.72,41.43,67c-1.67,1.09-3.45,1.86-4.73,3.13Q22.63,84,8.75,98c-4.1,4.12-4.08,5.2.08,9.4,4.45,4.51,8.78,9.14,13.47,13.38,3,2.7,3.53,5.16,2.31,9.09-4.2,13.51.61,24.35,13.09,30.91,8.18,4.3,17,5.36,26.07,5.84a12.42,12.42,0,0,1,6.89,2.82,143.86,143.86,0,0,1,11.71,11.59c3.27,3.52,6.14,3.29,9.22-.14,1.9-2.1,4.22-3.84,5.94-6.06,4.91-6.34,10.9-9.52,19.21-8.63,3.68.4,7.6-.69,11.31-1.52,20-4.47,27.87-17.33,22.31-36.89-1-3.43-.49-5.51,2-7.81,4.05-3.71,7.82-7.73,11.7-11.62,5.76-5.76,4.93-13.64-1.9-17.89-1.8-1.13-3.65-2.19-5.41-3.24,4-14.55,4-14.55-4.73-20.81C147.68,63.3,141.17,63.69,134.82,67.76Z"/><path class="cls-2" d="M134.82,67.76c6.35-4.07,12.86-4.46,17.22-1.32,8.7,6.26,8.7,6.26,4.73,20.81,1.76,1,3.61,2.11,5.41,3.24,6.83,4.25,7.66,12.13,1.9,17.89-3.88,3.89-7.65,7.91-11.7,11.62-2.51,2.3-3,4.38-2,7.81,5.56,19.56-2.3,32.42-22.31,36.89-3.71.83-7.63,1.92-11.31,1.52-8.31-.89-14.3,2.29-19.21,8.63-1.72,2.22-4,4-5.94,6.06-3.08,3.43-6,3.66-9.22.14a143.86,143.86,0,0,0-11.71-11.59,12.42,12.42,0,0,0-6.89-2.82c-9.06-.48-17.89-1.54-26.07-5.84-12.48-6.56-17.29-17.4-13.09-30.91,1.22-3.93.67-6.39-2.31-9.09-4.69-4.24-9-8.87-13.47-13.38-4.16-4.2-4.18-5.28-.08-9.4q13.92-14,28-27.89c1.28-1.27,3.06-2,4.73-3.13C27.74,55.72,27.58,54.46,37.17,40.89q10.09-14.26,20.2-28.53C62.85,4.67,68,3.78,75.49,9.12,86.62,17,97.68,25,108.89,32.81c4.41,3.06,6.69,6.74,5.87,12.21a4.83,4.83,0,0,0,.85,3.61C121.87,55.05,128.29,61.31,134.82,67.76Zm16.64,37.4,2.08-.71,9.67-2.15c1.3-5.88-2-8.69-6.15-9.83-7.82-2.16-13.52,2-19.46,8.8ZM91.75,123.53c-2.3-12-4.38-23.25-6.68-34.47-.68-3.31-.4-5.92,1.73-8.79C94.42,70,101.74,59.45,109.13,49c4-5.7,3.42-9.61-2.09-13.56q-16.83-12.06-33.78-24C68.13,7.83,64,8.51,60.4,13.54Q48.48,30.17,36.73,46.94c-4.39,6.24-3.75,9.71,2.54,14.2C49.7,68.59,60.22,75.91,70.55,83.49a10.22,10.22,0,0,1,3.87,5.35c2,8.9,3.49,17.91,5.27,26.86a4.28,4.28,0,0,0,1.59,2.71C84.45,120.16,87.78,121.63,91.75,123.53Zm3.51,18c.93,6.61,1.64,12.55,2.71,18.43a3.89,3.89,0,0,0,3,2.3c10.08-.73,20.41-.6,30.14-2.91,13.9-3.28,19.37-13.56,16-27.45a82.78,82.78,0,0,0-19.79-37c-2.81-3-6.79-6.16-10.65-6.82-8.4-1.44-17.07-1.32-25.84-1.84,1.82,10.79-.54,9.8,9.57,9.89,3.49,0,7,.2,10.47.35,5.47.22,9.72,2.68,11.94,7.65a189,189,0,0,1,8.05,20.29c1.94,6.18-.47,11.4-6.36,14a40.42,40.42,0,0,1-12.45,3C106.7,141.89,101.36,141.51,95.26,141.51Zm-16.2,1c-5.68-.35-10.43-.79-15.19-.91-5.8-.14-12.09-.63-15.59-5.24-3.79-5-5.83-11.36-8.36-17.25-.39-.92.37-2.65,1.07-3.68,4.48-6.58,8.61-13.5,17.06-16,3.85-1.13,7.5-3,11.36-4.51-.1-7.59-3.19-9.85-10.11-6.52a33.88,33.88,0,0,0-8.89,6.26C40.62,104.26,34,116,29.34,128.75c-5.15,14.05-.25,24.43,13.77,29.91,10.33,4,21.12,3.86,32.3,3.59C76.57,155.94,77.71,149.8,79.06,142.46ZM149,78.83c-4.11,3.62-10.92,4.73-9.22,11.17,3.84-1.13,7.5-2.38,11.24-3.26,3-.69,7.62-9.63,6.17-12.35-3.63-6.78-13.39-9.29-19.75-5-3,2-6,4.18-8.94,6.33-4,2.86-4.63,8.07-1,11.53,2.75,2.61,6.25,4.44,9.82,6.9,1.05-9,1-9-3.85-11.73ZM63.42,120.7c.14.35.27.69.4,1a44.19,44.19,0,0,0,6.93-1.33c1.28-.45,2.9-1.77,3.11-2.92a5,5,0,0,0-1.74-4,100.3,100.3,0,0,0-8.81-5.61c-5.21-3.19-7.93-2.71-11.72,2.09-1.33,1.7-2.36,3.68-3.89,5.16-4.05,3.9-1.08,7.64,1.21,9.88,1.87,1.82,6.11,2.41,8.83,1.72,1.72-.44,2.71-4.17,3.77-6.55.4-.89.06-2.11.06-3.19l5.6.81Zm1.08,6.78c1.57,3.14,2.3,7.11,4.06,7.64,5.59,1.69,11.5,3.57,17.46.59,2.43-1.22,4.22-5.67,2.11-7.11-2.85-2-6.42-3.83-9.73-3.92C74.23,124.56,70,126.27,64.5,127.48Zm26.9,12.65c-3.51,1.64-8,2.38-8.46,4.21C81.38,150,81.32,156,80.65,162.08H93.8C93.05,155.21,92.33,148.67,91.4,140.13Z"/><path class="cls-3" d="M91.75,123.53c-4-1.9-7.3-3.37-10.47-5.12a4.28,4.28,0,0,1-1.59-2.71c-1.78-9-3.28-18-5.27-26.86a10.22,10.22,0,0,0-3.87-5.35C60.22,75.91,49.7,68.59,39.27,61.14c-6.29-4.49-6.93-8-2.54-14.2Q48.49,30.19,60.4,13.54c3.6-5,7.73-5.71,12.86-2.11q17,11.92,33.78,24c5.51,3.95,6.1,7.86,2.09,13.56C101.74,59.45,94.42,70,86.8,80.27c-2.13,2.87-2.41,5.48-1.73,8.79C87.37,100.28,89.45,111.55,91.75,123.53Zm-9.28-47.2L53.55,32.89C49.26,39,45.7,44.39,41.74,49.5c-2.57,3.32-2.05,5.26,1.33,7.57,10.27,7,20.35,14.36,30.5,21.57C78.88,82.4,78.88,82.4,82.47,76.33ZM56.12,29.94c1.8,5.69,5.3,8.75,11.49,9.93a6.61,6.61,0,0,0,8.17-5.09c.6-2.52-1.5-7.22-3.82-8.6C65,22.07,61.38,23.38,56.12,29.94ZM70.75,43.88c-.16,5.14,2.36,8.21,6.48,7.42,1.55-.29,3.72-2.37,3.89-3.83C81.53,44,77.82,42.75,70.75,43.88ZM86.06,59.24c.1-.52.2-1,.31-1.56-1.57-1.1-3-2.47-4.77-3.14-.64-.25-1.93,1.18-2.92,1.84a31,31,0,0,0,4.41,3.9C83.65,60.63,85,59.62,86.06,59.24Z"/><path class="cls-3" d="M95.26,141.51c6.1,0,11.44.38,16.7-.11a40.42,40.42,0,0,0,12.45-3c5.89-2.62,8.3-7.84,6.36-14a189,189,0,0,0-8.05-20.29c-2.22-5-6.47-7.43-11.94-7.65-3.49-.15-7-.32-10.47-.35-10.11-.09-7.75.9-9.57-9.89,8.77.52,17.44.4,25.84,1.84,3.86.66,7.84,3.79,10.65,6.82a82.78,82.78,0,0,1,19.79,37c3.42,13.89-2.05,24.17-16,27.45-9.73,2.31-20.06,2.18-30.14,2.91a3.89,3.89,0,0,1-3-2.3C96.9,154.06,96.19,148.12,95.26,141.51Z"/><path class="cls-3" d="M79.06,142.46c-1.35,7.34-2.49,13.48-3.65,19.79-11.18.27-22,.45-32.3-3.59-14-5.48-18.92-15.86-13.77-29.91C34,116,40.62,104.26,50.41,94.64a33.88,33.88,0,0,1,8.89-6.26c6.92-3.33,10-1.07,10.11,6.52-3.86,1.56-7.51,3.38-11.36,4.51-8.45,2.47-12.58,9.39-17.06,16-.7,1-1.46,2.76-1.07,3.68,2.53,5.89,4.57,12.26,8.36,17.25,3.5,4.61,9.79,5.1,15.59,5.24C68.63,141.67,73.38,142.11,79.06,142.46Z"/><path class="cls-4" d="M149,78.83l-15.5,3.58c4.87,2.69,4.9,2.74,3.85,11.73-3.57-2.46-7.07-4.29-9.82-6.9-3.66-3.46-3-8.67,1-11.53,2.95-2.15,5.91-4.3,8.94-6.33,6.36-4.28,16.12-1.77,19.75,5,1.45,2.72-3.19,11.66-6.17,12.35-3.74.88-7.4,2.13-11.24,3.26C138.08,83.56,144.89,82.45,149,78.83Zm1.07-1.13-.36.27c.11.12.22.31.33.32s.25-.17.38-.27Z"/><path class="cls-5" d="M63.42,120.7l3.75-2.9-5.6-.81c0,1.08.34,2.3-.06,3.19-1.06,2.38-2,6.11-3.77,6.55-2.72.69-7,.1-8.83-1.72-2.29-2.24-5.26-6-1.21-9.88,1.53-1.48,2.56-3.46,3.89-5.16,3.79-4.8,6.51-5.28,11.72-2.09a100.3,100.3,0,0,1,8.81,5.61,5,5,0,0,1,1.74,4c-.21,1.15-1.83,2.47-3.11,2.92a44.19,44.19,0,0,1-6.93,1.33C63.69,121.39,63.56,121.05,63.42,120.7Zm-4-5,1,.9,0-1.56-1.26-1.11-1.86-1.4-.39.52,1.64,1.54Z"/><path class="cls-5" d="M64.5,127.48c5.5-1.21,9.73-2.92,13.9-2.8,3.31.09,6.88,2,9.73,3.92,2.11,1.44.32,5.89-2.11,7.11-6,3-11.87,1.1-17.46-.59C66.8,134.59,66.07,130.62,64.5,127.48Z"/><path class="cls-3" d="M91.4,140.13c.93,8.54,1.65,15.08,2.4,22H80.65c.67-6.1.73-12.13,2.29-17.74C83.45,142.51,87.89,141.77,91.4,140.13Z"/><path class="cls-4" d="M151.46,105.16l-13.86-3.89c5.94-6.83,11.64-11,19.46-8.8,4.13,1.14,7.45,4,6.15,9.83l-9.67,2.15,4.54-6.72-6.23-.64C151.72,99.76,151.59,102.46,151.46,105.16Zm-2-9.12c-.09-.1-.18-.27-.28-.28s-.22.13-.33.21c.09.1.17.27.27.28S149.38,96.12,149.49,96Z"/><path class="cls-6" d="M151.46,105.16c.13-2.7.26-5.4.39-8.07l6.23.64-4.54,6.72Z"/><path class="cls-2" d="M82.47,76.33c-3.59,6.07-3.59,6.07-8.9,2.31-10.15-7.21-20.23-14.53-30.5-21.57-3.38-2.31-3.9-4.25-1.33-7.57,4-5.11,7.52-10.52,11.81-16.61Z"/><path class="cls-2" d="M56.12,29.94C61.38,23.38,65,22.07,72,26.18c2.32,1.38,4.42,6.08,3.82,8.6a6.61,6.61,0,0,1-8.17,5.09C61.42,38.69,57.92,35.63,56.12,29.94Z"/><path class="cls-2" d="M70.75,43.88c7.07-1.13,10.78.1,10.37,3.59C81,48.93,78.78,51,77.23,51.3,73.11,52.09,70.59,49,70.75,43.88Z"/><path class="cls-2" d="M86.06,59.24c-1,.38-2.41,1.39-3,1a31,31,0,0,1-4.41-3.9c1-.66,2.28-2.09,2.92-1.84,1.74.67,3.2,2,4.77,3.14C86.26,58.2,86.16,58.72,86.06,59.24Z"/><path class="cls-2" d="M150.07,77.7l.35.32c-.13.1-.26.28-.38.27s-.22-.2-.33-.32Z"/><path class="cls-2" d="M58.53,114.58,56.89,113l.39-.52,1.86,1.4C58.93,114.13,58.73,114.35,58.53,114.58Z"/><path class="cls-2" d="M59.14,113.92,60.4,115l-1,.66-.9-1.11C58.73,114.35,58.93,114.13,59.14,113.92Z"/><path class="cls-2" d="M60.4,115l0,1.56-1-.9Z"/><path class="cls-6" d="M149.49,96c-.11.08-.23.23-.34.21s-.18-.18-.27-.28c.11-.08.23-.22.33-.21S149.4,95.94,149.49,96Z"/></g></g></svg>
