<svg xmlns="http://www.w3.org/2000/svg" viewBox="0 0 173.37 189.44"><defs><style>.cls-1{fill:#351734;}.cls-2{fill:#fd7214;}.cls-3{fill:#f4f3f2;}.cls-4{fill:#faf9fa;}.cls-5{fill:#f5f5f5;}.cls-6{fill:#ededed;}</style></defs><title>Asset 15</title><g id="Layer_2" ><g id="Layer_1-2" ><path d="M31.54,67c-1.37,1.49-2.43,2.73-3.58,3.88C19.84,79,11.66,87.06,3.59,95.24c-4.74,4.82-4.81,10.7,0,15.48Q41.12,148.42,78.82,186c4.67,4.65,11.37,4.58,16.06-.1q37.7-37.59,75.2-75.36a13.08,13.08,0,0,0,3.14-7.46c.81-8.2-1.64-15.1-8.94-18.2.53-4.87,2.71-9.93,1.06-12.69-4.05-6.74-9.78-13.79-18.61-12.84-10.2,1.09-17.16-2.55-22.84-10.28-.3-.39-.85-.65-1-1.07-.88-2-2.35-4.08-2.38-6.14A14.62,14.62,0,0,0,114,29.53Q95.84,16.41,77.45,3.59c-8.89-6.16-18-4.26-24.24,4.66-7.45,10.6-15,21.11-22.42,31.75-2.06,3-4.26,6.1-5.27,9.49C23.49,56.31,26.2,62.1,31.54,67Z"/><path class="cls-1" d="M31.54,67c-5.34-4.85-8-10.64-6-17.46,1-3.39,3.21-6.52,5.27-9.49,7.39-10.64,15-21.15,22.42-31.75C59.47-.67,68.56-2.57,77.45,3.59Q95.87,16.37,114,29.53a14.62,14.62,0,0,1,6.45,12.32c0,2.06,1.5,4.11,2.38,6.14.18.42.73.68,1,1.07,5.68,7.73,12.64,11.37,22.84,10.28,8.83-1,14.56,6.1,18.61,12.84,1.65,2.76-.53,7.82-1.06,12.69,7.3,3.1,9.75,10,8.94,18.2a13.08,13.08,0,0,1-3.14,7.46q-37.43,37.85-75.2,75.36c-4.69,4.68-11.39,4.75-16.06.1Q41.11,148.43,3.54,110.72c-4.76-4.78-4.69-10.66,0-15.48C11.66,87.06,19.84,79,28,70.83,29.11,69.68,30.17,68.44,31.54,67ZM54.5,153q14.18,14.33,28.35,28.66c2.57,2.59,5.34,2.57,7.88,0q26.55-26.62,53-53.33,10.14-10,20.29-20c5.81-5.74,4.9-13.61-2.06-17.91-1.81-1.11-3.66-2.15-5.55-3.25.38-1.25.69-2.36,1.06-3.46,3.32-9.87,3.33-9.87-4.4-16.33C149,64,142.3,63.61,137.31,66a5.47,5.47,0,0,1-4.9-.53c-5.61-5.21-11-10.69-16.27-16.22a5.11,5.11,0,0,1-1.46-3.81c1.17-5.54-1.15-9.22-5.49-12.26C97.74,25.13,86.38,17,75,8.91c-6.84-4.84-12.27-4-17.09,2.75Q47,26.89,36.22,42.21C27.73,54.33,28,56,39.47,65.33a4.88,4.88,0,0,1,.66,1.16c-1.26,1.35-2.57,2.8-4,4.19C26.89,80,17.63,89.34,8.25,98.57c-2.73,2.67-3.51,5.09-.54,8Q31.13,129.81,54.5,153Z"/><path class="cls-2" d="M54.5,153Q31.11,129.81,7.71,106.6c-3-2.94-2.19-5.36.54-8C17.63,89.34,26.89,80,36.18,70.68c1.38-1.39,2.69-2.84,4-4.19a4.88,4.88,0,0,0-.66-1.16C28,56,27.73,54.33,36.22,42.21Q47,26.88,57.88,11.66C62.7,4.93,68.13,4.07,75,8.91,86.38,17,97.74,25.13,109.19,33.16c4.34,3,6.66,6.72,5.49,12.26a5.11,5.11,0,0,0,1.46,3.81c5.3,5.53,10.66,11,16.27,16.22a5.47,5.47,0,0,0,4.9.53c5-2.37,11.64-2,15.79,1.52,7.73,6.46,7.72,6.46,4.4,16.33-.37,1.1-.68,2.21-1.06,3.46,1.89,1.1,3.74,2.14,5.55,3.25,7,4.3,7.87,12.17,2.06,17.91q-10.12,10-20.29,20c-1.63-2.66-2.83-5.74-5-7.9-12.32-12.49-28.42-15.15-45-17.34,1.29,8,1.44,15.45,8.5,20.71,4,3,3.68,7.87.67,12.14-4.87,6.92-11.39,12.15-19.51,13.8C74,151.74,64.19,152,54.5,153ZM152.39,98l4.3.28c-1.28,1.89-2.57,3.77-3.86,5.66.28.31.57.62.85.94l9.28-2.62c1.47-6-2.25-8.2-6.12-9.83-5.59-2.34-13.5,1.49-19.66,9.29l15.16,4c-.17-3-.29-5-.4-7.09Zm-96.07,2,15.1,5.37c-.1-1.18-.24-2.75-.4-4.61L56.33,99c-6-1.74-12.2-3.09-18-5.34-5.09-2-5.61-6-1.64-9.7a106.37,106.37,0,0,1,8.44-6.57l-.62-1.12c-4.9,2.55-10.13,4.64-14.62,7.78-5.64,3.94-5.28,11.34.72,14.87C38.82,103.78,47.44,107.93,56.32,99.92Zm.93,13.19,10,5.12-4.23,2.71.55,1.21c2.68-.63,5.42-1.1,8-1.92a3.52,3.52,0,0,0,.94-6.4c-4.11-2.81-8.42-5.35-12.75-7.8a3.34,3.34,0,0,0-3.12.17c-3.77,3.85-8.08,7.51-10.56,12.12-.87,1.61,2.31,6.82,4.86,8.36,2,1.19,6.77.2,8.69-1.57,3.25-3,2.07-6.92-1.23-10A7.07,7.07,0,0,1,57.36,113ZM91.67,123.6c-2.4-12.52-4.74-24-6.7-35.64a10.13,10.13,0,0,1,1.44-6.76C93.81,70.34,101.55,59.71,109.1,49c4-5.7,3.38-9.6-2.19-13.57Q90.47,23.67,73.93,12c-6.25-4.41-9.73-3.85-14.19,2.4Q48.15,30.69,36.68,47c-4.34,6.17-3.71,9.69,2.55,14.17,10.28,7.36,20.69,14.53,30.83,22.08a12.6,12.6,0,0,1,4.37,6.57c2,8.21,3.39,16.58,5.18,24.85.31,1.45,1.08,3.25,2.21,4C84.58,120.42,87.67,121.65,91.67,123.6Zm47.85-33.28c3.26-1.09,6.51-2.55,9.91-3.21,3.63-.7,9.11-8.87,7.8-12.34C154.85,68.51,144,65,138.39,68.68c-3.46,2.3-6.82,4.75-10.19,7.19-3.71,2.67-4.13,10.24-.42,12.91,2.74,2,6,3.2,9.28,4.89,1.56-6.14.73-10.45-3.78-11.41l16-3.52C145.27,82.18,138.2,83.21,139.52,90.32ZM80,136.23l.75,1c1.71-.47,3.41-1,5.13-1.39,4-1,4.08-4.88,2.53-6.56-2.25-2.45-6-4.73-9.2-4.79-4.6-.08-9.24,1.87-13.83,3,1.51,8.62,3.46,9.88,13.88,9.29,1-5.57-5-3.85-6.81-6.47l10.43,1.29ZM47.56,76.56c-.13-.1-.26-.29-.35-.27a4.45,4.45,0,0,0-.77.28c.11.11.23.32.31.3A5,5,0,0,0,47.56,76.56Z"/><path class="cls-3" d="M54.5,153c9.69-1,19.52-1.3,29-3.23,8.12-1.65,14.64-6.88,19.51-13.8,3-4.27,3.32-9.17-.67-12.14-7.06-5.26-7.21-12.75-8.5-20.71,16.53,2.19,32.63,4.85,45,17.34,2.13,2.16,3.33,5.24,5,7.9q-26.5,26.67-53,53.33c-2.54,2.54-5.31,2.56-7.88,0Q68.66,167.39,54.5,153Z"/><path class="cls-3" d="M91.67,123.6c-4-1.95-7.09-3.18-9.85-4.94-1.13-.72-1.9-2.52-2.21-4-1.79-8.27-3.16-16.64-5.18-24.85a12.6,12.6,0,0,0-4.37-6.57C59.92,75.72,49.51,68.55,39.23,61.19c-6.26-4.48-6.89-8-2.55-14.17Q48.17,30.7,59.74,14.44C64.2,8.19,67.68,7.63,73.93,12q16.51,11.64,33,23.36c5.57,4,6.2,7.87,2.19,13.57C101.55,59.71,93.81,70.34,86.41,81.2A10.13,10.13,0,0,0,85,88C86.93,99.55,89.27,111.08,91.67,123.6ZM53.53,32.93c-4.13,5.86-7.68,11.25-11.6,16.35-2.64,3.42-2.31,5.54,1.32,8,10.29,7,20.37,14.38,30.54,21.59,5,3.57,5.11,3.54,8.6-2.48C73,62.28,63.55,48,53.53,32.93ZM71,40.22c1.25-1.44,4.25-3.47,5.06-6.16,1.35-4.46-5.28-10.1-12.19-9.67-2.69.16-6.37,3.24-7.47,5.87C54.93,33.87,63,39.73,71,40.22ZM70.79,44c-1.33,4,.41,6.39,4,7a9.27,9.27,0,0,0,5.69-1.13c.6-.34.51-3.15-.17-4.31C77.8,41.34,74.11,43.37,70.79,44Zm6.56,14.16,8,1.73c-.14-1.19.13-2.73-.52-3.49C82.85,54,80.54,53.25,77.35,58.12Z"/><path class="cls-4" d="M139.52,90.32c-1.32-7.11,5.75-8.14,9.73-11.58l-16,3.52c4.51,1,5.34,5.27,3.78,11.41-3.27-1.69-6.54-2.92-9.28-4.89-3.71-2.67-3.29-10.24.42-12.91,3.37-2.44,6.73-4.89,10.19-7.19,5.61-3.73,16.46-.17,18.84,6.09,1.31,3.47-4.17,11.64-7.8,12.34C146,87.77,142.78,89.23,139.52,90.32Zm-10.61-9.85v.24h1.17v-.3Zm21.86-3.16-.31.22c.09.09.18.26.28.27s.22-.14.34-.21Z"/><path class="cls-4" d="M57.36,113a7.07,7.07,0,0,0,1.12,2.13c3.3,3,4.48,6.94,1.23,10-1.92,1.77-6.71,2.76-8.69,1.57-2.55-1.54-5.73-6.75-4.86-8.36,2.48-4.61,6.79-8.27,10.56-12.12a3.34,3.34,0,0,1,3.12-.17c4.33,2.45,8.64,5,12.75,7.8a3.52,3.52,0,0,1-.94,6.4c-2.62.82-5.36,1.29-8,1.92l-.55-1.21,4.23-2.71-10-5.12-.09-.79-.54.31Z"/><path class="cls-3" d="M56.32,99.92c-8.88,8-17.5,3.86-25.73-1-6-3.53-6.36-10.93-.72-14.87,4.49-3.14,9.72-5.23,14.62-7.78l.62,1.12A106.37,106.37,0,0,0,36.67,84c-4,3.75-3.45,7.73,1.64,9.7,5.82,2.25,12,3.6,18,5.34C56.32,99.32,56.32,99.62,56.32,99.92Z"/><path class="cls-5" d="M151.94,98.55c.11,2,.23,4.08.4,7.09l-15.16-4c6.16-7.8,14.07-11.63,19.66-9.29,3.87,1.63,7.59,3.86,6.12,9.83l-9.28,2.62c-.28-.32-.57-.63-.85-.94,1.29-1.89,2.58-3.77,3.86-5.66l-4.3-.28-2.12-.86-.74-.52.82.45Zm6.85-.91.45.11-.28-.36Z"/><path class="cls-5" d="M80,136.23l2.88-4.67-10.43-1.29c1.83,2.62,7.79.9,6.81,6.47-10.42.59-12.37-.67-13.88-9.29,4.59-1.08,9.23-3,13.83-3,3.17.06,6.95,2.34,9.2,4.79,1.55,1.68,1.47,5.54-2.53,6.56-1.72.43-3.42.92-5.13,1.39Zm5.39-5.64c-.09-.09-.15-.24-.25-.26a1.12,1.12,0,0,0-.44,0,2,2,0,0,0,.32.45S85.23,130.67,85.36,130.59Z"/><path class="cls-6" d="M56.32,99.92c0-.3,0-.6,0-.9L71,100.68c.16,1.86.3,3.43.4,4.61Z"/><path class="cls-3" d="M47.56,76.56a5,5,0,0,1-.81.31c-.08,0-.2-.19-.31-.3a4.45,4.45,0,0,1,.77-.28C47.3,76.27,47.43,76.46,47.56,76.56Z"/><path class="cls-2" d="M53.53,32.93C63.55,48,73,62.28,82.39,76.42c-3.49,6-3.57,6-8.6,2.48C63.62,71.69,53.54,64.34,43.25,57.31c-3.63-2.49-4-4.61-1.32-8C45.85,44.18,49.4,38.79,53.53,32.93Z"/><path class="cls-2" d="M71,40.22c-8-.49-16.11-6.35-14.6-10,1.1-2.63,4.78-5.71,7.47-5.87C70.82,24,77.45,29.6,76.1,34.06,75.29,36.75,72.29,38.78,71,40.22Z"/><path class="cls-2" d="M70.79,44c3.32-.59,7-2.62,9.49,1.61.68,1.16.77,4,.17,4.31A9.27,9.27,0,0,1,74.76,51C71.2,50.35,69.46,48,70.79,44Z"/><path class="cls-2" d="M77.35,58.12c3.19-4.87,5.5-4.1,7.49-1.76.65.76.38,2.3.52,3.49Z"/><path class="cls-2" d="M128.91,80.47l1.17-.06v.3h-1.17Z"/><path class="cls-2" d="M150.77,77.31l.31.28c-.12.07-.23.22-.34.21s-.19-.18-.28-.27Z"/><path class="cls-2" d="M57.36,113l-.73-.4.54-.31.09.79Z"/><path class="cls-2" d="M150.27,97.11l2.12.86-.45.58L150.35,97Z"/><path class="cls-2" d="M158.79,97.64l.17-.25.28.36Z"/><path class="cls-2" d="M150.35,97l-.82-.45.74.52Z"/><path class="cls-2" d="M85.36,130.59c-.13.08-.33.26-.37.23a2,2,0,0,1-.32-.45,1.12,1.12,0,0,1,.44,0C85.21,130.35,85.27,130.5,85.36,130.59Z"/></g></g></svg>
