<svg xmlns="http://www.w3.org/2000/svg" viewBox="0 0 173.12 191.13"><defs><style>.cls-1{fill:#351734;}.cls-2{fill:#df366e;}.cls-3{fill:#f5f5f5;}.cls-4{fill:#f4f3f2;}</style></defs><title>Asset 17</title><g id="Layer_2" ><g id="Layer_1-2" ><path d="M63,0C44.18.63,29.61,11.83,29.89,30.6c.08,4.87-1.49,9.76-1.61,14.65-.09,3.35.25,7.14,1.75,10,3.17,6.12,3,11.28-1.8,16.15-7.75,7.8-15.61,15.49-23.29,23.35C-.77,100.62-2.17,108,4.18,113c2.3,1.84,3.93,4.5,6,6.61Q42,151.5,73.81,183.26a50.7,50.7,0,0,0,4.88,4.25c6.54,5.05,11.41,4.87,17.15-.86q36.45-36.35,72.79-72.79c6.1-6.12,5.94-12.51-.25-18.78-5.61-5.69-11.12-11.51-17-16.89a12.36,12.36,0,0,1-4.44-10.92,25,25,0,0,0-6.9-19.1A35.67,35.67,0,0,0,114.12,37a10.09,10.09,0,0,1-6.06-2.44c-4.46-4-8.48-8.48-12.83-12.6-2.13-2-5.66-3.15-6.77-5.53C82.89,4.54,72.27,1.76,63,0Z"/><path class="cls-1" d="M63,0c9.29,1.76,19.91,4.54,25.48,16.45C89.57,18.83,93.1,20,95.23,22c4.35,4.12,8.37,8.61,12.83,12.6A10.09,10.09,0,0,0,114.12,37,35.67,35.67,0,0,1,140,48.17a25,25,0,0,1,6.9,19.1,12.36,12.36,0,0,0,4.44,10.92c5.9,5.38,11.41,11.2,17,16.89,6.19,6.27,6.35,12.66.25,18.78q-36.33,36.46-72.79,72.79c-5.74,5.73-10.61,5.91-17.15.86a50.7,50.7,0,0,1-4.88-4.25Q42,151.49,10.21,119.65c-2.1-2.11-3.73-4.77-6-6.61-6.35-5.07-4.95-12.42.76-18.26,7.68-7.86,15.54-15.55,23.29-23.35,4.83-4.87,5-10,1.8-16.15-1.5-2.89-1.84-6.68-1.75-10,.12-4.89,1.69-9.78,1.61-14.65C29.61,11.83,44.18.63,63,0ZM93.33,180l39.17-38.92c10.74-10.7,21.45-21.42,32.24-32.06,3.14-3.11,3.11-5.86-.05-9-7.15-7-14.25-14-21.17-21.25a10,10,0,0,1-2.45-5.56c-.51-5.17-.16-10.1-2.66-15.32-4-8.43-16-16.69-25.1-14.55-3.56.83-5.38-.22-7.82-2.34-6.92-6-11.57-14.67-20.84-18a2.76,2.76,0,0,1-1.44-1.93C82.07,12.47,75,9.81,68.41,7.33,54.55,2.1,36.51,12,35.9,29.23,35.69,35.1,37.75,41.15,34.25,47c-.81,1.34,1.14,4.44,2,6.66.32.83,1.6,1.44,1.64,2.19.43,7.46.8,14.69-5.64,20.58C24,83.92,16.39,92.12,8.45,100c-3,3-3.42,5.87-.24,9q15.28,15.09,30.51,30.24l41.07,41C85.7,187.08,87.4,187.06,93.33,180Z"/><path class="cls-2" d="M38.72,139.22Q23.48,124.1,8.21,109c-3.18-3.14-2.81-6,.24-9,7.94-7.85,15.55-16,23.78-23.58,6.44-5.89,6.07-13.12,5.64-20.58,0-.75-1.32-1.36-1.64-2.19-.84-2.22-2.79-5.32-2-6.66,3.5-5.81,1.44-11.86,1.65-17.73C36.51,12,54.55,2.1,68.41,7.33,75,9.81,82.07,12.47,83.21,21.16a2.76,2.76,0,0,0,1.44,1.93c9.27,3.31,13.92,12,20.84,18,2.44,2.12,4.26,3.17,7.82,2.34,9.1-2.14,21.07,6.12,25.1,14.55,2.5,5.22,2.15,10.15,2.66,15.32a10,10,0,0,0,2.45,5.56c6.92,7.22,14,14.26,21.17,21.25,3.16,3.1,3.19,5.85.05,9-10.79,10.64-21.5,21.36-32.24,32.06-12.91,3.66-25.79,4.24-39.17-1.13V180c-5.93,7-7.63,7.05-13.54.16V103.38c-13.74,5.09-27.11,5.06-41.07.2ZM98,87.36c0,7.17,1.06,14-.31,20.4-1.3,6-2.27,11.12.17,17.17,1.46,3.6,2.79,6.2,6.42,7.22s7.08,2.44,10.62,2.43c15.5,0,20.82-6.14,20.83-20.56,0-2.74-2.23-5.44-2.4-8.22-.39-6.13-.12-12.29-.12-18.38l4.88-.9c-.82-1.28-1.15-2.48-1.86-2.79-4.1-1.78-2.25-4.91-1.83-7.63.28-1.85,1.52-3.71,1.34-5.46a77.1,77.1,0,0,0-2.19-9.73c-1.84-7.56-12.24-14.29-20-12.25-7.19,1.9-13.84,4.12-15.85,13.49-1.15,5.37-2.58,9.83,0,15.07.9,1.84,1.39,5-2.06,6.24-.79.29-1.15,1.72-2,3.05ZM42.84,49.56c0,7.39,1.75,15-.45,21.19-2.6,7.35-.56,13.21,1.32,19.58a5,5,0,0,0,2.87,3c5.72,1.41,11.6,3.66,17.31,3.38C75.64,96.16,81,89.67,80.51,78c-.13-3.31-2.13-6.54-2.35-9.87-.4-6.13-.11-12.3-.11-18.46l4.67-.42c-.74-1.37-1-2.6-1.65-2.92-3.91-1.88-2.72-5.19-1.68-7.66C82,32.41,80.56,21.67,76,17.35c-7.78-7.32-16.86-8.21-26.2-3-4.35,2.42-5.6,6.08-7.11,10.55-1.72,5.06-2.45,9.23-.15,14.19.87,1.86,2.05,5.21-1.73,6.7-.83.32-1.26,1.67-2.19,3Z"/><path class="cls-3" d="M38.72,139.22V103.58c14,4.86,27.33,4.89,41.07-.2v76.81Z"/><path class="cls-4" d="M93.33,180V140c13.38,5.37,26.26,4.79,39.17,1.13Z"/><path class="cls-4" d="M98,87.36l-4.29-.85c.82-1.33,1.18-2.76,2-3.05,3.45-1.28,3-4.4,2.06-6.24-2.57-5.24-1.14-9.7,0-15.07,2-9.37,8.66-11.59,15.85-13.49,7.71-2,18.11,4.69,20,12.25a77.1,77.1,0,0,1,2.19,9.73c.18,1.75-1.06,3.61-1.34,5.46-.42,2.72-2.27,5.85,1.83,7.63.71.31,1,1.51,1.86,2.79l-4.88.9c0,6.09-.27,12.25.12,18.38.17,2.78,2.4,5.48,2.4,8.22,0,14.42-5.33,20.55-20.83,20.56-3.54,0-7.12-1.44-10.62-2.43s-5-3.62-6.42-7.22c-2.44-6.05-1.47-11.17-.17-17.17C99.06,101.41,98,94.53,98,87.36Zm30.38-1.82c.26-2.18.38-4.48.85-6.71.73-3.52-.77-5.85-4.08-6-6.54-.25-13.12,0-19.66.36-1.15.07-3.06,2-3.09,3.14-.08,3.17.63,6.36,1,9.19Zm-.16,23.67H103.28c-2.3,7.7-2.07,8.25,5.85,9a69.64,69.64,0,0,0,13.31.07C130.35,117.55,130.36,117.3,128.22,109.21Z"/><path class="cls-4" d="M42.84,49.56l-4.25-.76c.93-1.33,1.36-2.68,2.19-3,3.78-1.49,2.6-4.84,1.73-6.7-2.3-5-1.57-9.13.15-14.19,1.51-4.47,2.76-8.13,7.11-10.55,9.34-5.22,18.42-4.33,26.2,3,4.59,4.32,6,15.06,3.42,21.27-1,2.47-2.23,5.78,1.68,7.66.67.32.91,1.55,1.65,2.92l-4.67.42c0,6.16-.29,12.33.11,18.46.22,3.33,2.22,6.56,2.35,9.87.45,11.72-4.87,18.21-16.62,18.8-5.71.28-11.59-2-17.31-3.38a5,5,0,0,1-2.87-3C41.83,84,39.79,78.1,42.39,70.75,44.59,64.55,42.84,57,42.84,49.56Zm6-1.57H72.74c3.47-10,1.72-12.86-8.35-13.7a47.43,47.43,0,0,0-6-.1c-11.38.52-12.71,2.29-10.1,13.27C48.36,47.59,48.56,47.69,48.88,48ZM73,71.61H48.32c-2.68,7.12-2.09,8.46,5.18,9.2a81.9,81.9,0,0,0,13.92.1C74.67,80.39,75.35,79.05,73,71.61Z"/><path class="cls-2" d="M128.38,85.54h-25c-.36-2.83-1.07-6-1-9.19,0-1.12,1.94-3.07,3.09-3.14,6.54-.4,13.12-.61,19.66-.36,3.31.13,4.81,2.46,4.08,6C128.76,81.06,128.64,83.36,128.38,85.54Z"/><path class="cls-2" d="M128.22,109.21c2.14,8.09,2.13,8.34-5.78,9.09a69.64,69.64,0,0,1-13.31-.07c-7.92-.77-8.15-1.32-5.85-9Z"/><path class="cls-2" d="M48.88,48c-.32-.3-.52-.4-.55-.53-2.61-11-1.28-12.75,10.1-13.27a47.43,47.43,0,0,1,6,.1c10.07.84,11.82,3.7,8.35,13.7Z"/><path class="cls-2" d="M73,71.61c2.33,7.44,1.65,8.78-5.6,9.3a81.9,81.9,0,0,1-13.92-.1c-7.27-.74-7.86-2.08-5.18-9.2Z"/></g></g></svg>
