<svg xmlns="http://www.w3.org/2000/svg" viewBox="0 0 245.36 244.94"><defs><style>.cls-1{fill:#361733;}.cls-2{fill:#b10932;}.cls-3{fill:#f6f6f6;}.cls-4{fill:#341735;}.cls-5{fill:#f5f5f5;}.cls-6{fill:#f4f4f4;}</style></defs><title>Asset 2</title><g id="Layer_2" data-name="Layer 2"><g id="Layer_1-2" data-name="Layer 1"><path class="cls-1" d="M122.8.05c9.94-.59,17.77,3.72,24.46,10.38q44.12,44,88.08,88.1a33.43,33.43,0,0,1,0,47.72q-44.74,44.77-89.5,89.52c-12.36,12.38-34.41,12.16-46.75-.24Q54.8,191,10.3,146.74c-13.12-13-13.84-33.65-1.39-47,3.52-3.78,7.18-7.42,10.83-11.08q38.37-38.4,76.74-76.8C101.24,7.08,106.43,3,113,1.33,116.17.5,119.53.45,122.8.05Z"/><path class="cls-2" d="M236.63,122a24.83,24.83,0,0,1-7.72,17.94q-44.49,44.32-88.78,88.83a24.78,24.78,0,0,1-35.17-.11q-44.2-44.6-88.83-88.77C7,130.91,7,114,16.05,105.08c29.09-28.69,58.14-57.44,86.59-86.77,11.87-12.24,28.3-12.47,40.61.24,11.6,12,23.54,23.63,35.33,35.43,15.8,15.81,31.72,31.49,47.31,47.51,3.62,3.72,6.38,8.38,9,12.93C236.12,116.56,236.09,119.44,236.63,122Z"/><path class="cls-3" d="M123,28.78a66.76,66.76,0,0,1,6,4.74Q161.58,66,194.09,98.58c6,6,12,12,18,18,4.84,4.91,4.83,6.68-.05,11.56q-41.9,41.92-83.82,83.82c-4.66,4.66-6.49,4.7-11.16,0q-42.14-42-84.19-84.15c-4.3-4.31-4.34-6.66-.07-10.94Q75,74.65,117.37,32.45C118.82,31,120.84,30.16,123,28.78Z"/><path class="cls-4" d="M133.42,65.4l2.5-1.8,9.19,9.65-1.23,2.22c9.48,9.57,18.83,19,28.58,28.82l2.46-1.19,9.37,9.74-1.78,2.69c.12.48.1.7.2.8,5.73,5.66,2.67,11.27-.3,16.68-4.76,8.69-11.87,15.84-21.42,17.37-11.05,1.76-18.12,9.27-26.92,14.29-.82.46-1.62.93-2.43,1.4l-.79-.65c4.8-7.18,9.61-14.35,14.65-21.87L142.29,140l-36,28.5-1.15-1.11,28.93-36-4.75-3.91C113,140,97,152.21,81,164.43l-1.14-1.18C92.4,147.63,105,132,118.22,115.55l-4.33-3.8c-12.17,8.78-22.78,18.76-34.66,27L78,137.46l27.29-34.06-3.27-3.61-22,14.84-.57-.37a21.26,21.26,0,0,1,1.28-2.68c3.83-5.82,7.88-11.51,11.51-17.46a36.93,36.93,0,0,0,4.38-9.87c3.77-14.84,9.57-20.13,26.41-22.7C126,61.11,129.28,63.77,133.42,65.4Z"/><path class="cls-5" d="M146.05,89.78c-4.17,3.61-8.12,6.64-11.6,10.14s-6.56,7.49-10.2,11.72l-10.5-8.51c4.51-10.39,11.74-17.46,20.95-22.55,1.11-.62,3.72,0,4.71.93C141.85,83.89,143.75,86.82,146.05,89.78Z"/><path class="cls-6" d="M166.63,109.68l6.56,4.76c-5.83,10.28-13.81,17.79-23.87,24.3l-5.41-6.68Z"/></g></g></svg>