<svg xmlns="http://www.w3.org/2000/svg" viewBox="0 0 156.94 156.37"><defs><style>.cls-1{fill:#351734;}.cls-2{fill:#b20c34;}.cls-3{fill:#f4f3f2;}.cls-4{fill:#381d39;}.cls-5{fill:#ededed;}</style></defs><title>Asset 6</title><g id="Layer_2" ><g id="Layer_1-2" ><path class="cls-1" d="M77.84,0c6.79,0,11.65,2.08,15.76,6.2C112.42,25.1,131.32,43.9,150.13,62.8c9.12,9.15,9.07,21.47-.06,30.63Q121.84,121.76,93.51,150a21,21,0,0,1-30,.12Q35,121.71,6.56,93.2c-8.76-8.81-8.75-21.43.06-30.29Q35,34.38,63.52,6A19.17,19.17,0,0,1,77.84,0Zm.72,4.42C74.32,6.56,70,7.62,67.29,10.29,48.11,29,29.19,48.06,10.31,67.11a15.45,15.45,0,0,0,0,22Q38.72,117.68,67.27,146c6.81,6.75,15.8,6.54,22.63-.27q28-27.87,55.84-55.84c7.09-7.1,7.21-16.4.19-23.46C127.37,47.79,108.83,29.1,90,10.71,87.14,7.92,82.78,6.68,78.56,4.43Z"/><path class="cls-2" d="M78.56,4.43C82.78,6.68,87.14,7.92,90,10.71c18.83,18.39,37.37,37.08,55.93,55.74,7,7.06,6.9,16.36-.19,23.46q-27.89,28-55.84,55.84c-6.83,6.81-15.82,7-22.63.27Q38.68,117.7,10.35,89.13a15.45,15.45,0,0,1,0-22c18.88-19,37.8-38.07,57-56.82C70,7.62,74.32,6.56,78.56,4.43Zm-.22,133.63a45.61,45.61,0,0,0,4.36-3.38c17.45-17.4,34.8-34.89,52.34-52.21,3.19-3.15,3.44-5.37.15-8.62Q108.73,47.69,82.56,21.23c-3-3.07-5.34-2.94-8.32.06Q48,47.72,21.61,73.92c-3,3-3.2,5.18-.07,8.27,17.76,17.56,35.37,35.27,53.06,52.9A42.54,42.54,0,0,0,78.34,138.06Z"/><path class="cls-3" d="M78.34,138.06a42.54,42.54,0,0,1-3.74-3c-17.69-17.63-35.3-35.34-53.06-52.9-3.13-3.09-2.94-5.29.07-8.27Q48,47.73,74.24,21.29c3-3,5.28-3.13,8.32-.06q26.19,26.43,52.63,52.62c3.29,3.25,3,5.47-.15,8.62-17.54,17.32-34.89,34.81-52.34,52.21A45.61,45.61,0,0,1,78.34,138.06ZM49.27,90.55c.21-.5.42-1,.64-1.5L51,88.19l1.14-.87L72.56,71.54l1.5.37c-.17,1.45.16,3.28-.6,4.3-3.79,5.07-7.87,9.91-11.83,14.85-3.35,4.18-6.67,8.38-10,12.57l.84.82L82.3,81.67c3.6,1.32,2.8,3.1,1,5.28-5.11,6.22-10.12,12.53-15.17,18.8A9.1,9.1,0,0,0,73,103.69c5.23-4.13,10.35-8.39,15.62-12.47.84-.65,2.24-.58,3.38-.85-.12,1.14.11,2.5-.44,3.38-2.34,3.74-4.91,7.34-7.4,11a11.84,11.84,0,0,0,5.31-2.19c3.23-2,6.28-5.23,9.73-5.73,10.12-1.49,16.33-7.33,19.1-16.39,1-3.19-.63-8-2.65-11-1.76-2.62-6.53-3.12-8.64-5.66-5.09-6.13-12.87-9.68-15.34-18.59-1.5-5.38-8.91-5.78-13.71-5.7-7.52.14-13.29,4.22-15.74,12.26-1.37,4.49-4,8.63-6.2,12.84-1.3,2.48-2.92,4.8-4.39,7.19-.16.33-.31.66-.46,1l.79-.6c3.6-2.29,7.16-4.65,10.83-6.81,1-.56,2.27-.49,3.42-.71-.25,1.24-.12,2.76-.81,3.66C60.72,74.46,55.85,80.51,51,86.61c-.27.31-.53.63-.79.94-.09.53-.18,1.06-.26,1.59l-.69,1.41h0Z"/><path class="cls-4" d="M51,86.61c4.81-6.1,9.68-12.15,14.37-18.34.69-.9.56-2.42.81-3.66-1.15.22-2.47.15-3.42.71-3.67,2.16-7.23,4.52-10.83,6.81l-.34-.39c1.48-2.39,3.1-4.71,4.4-7.19,2.22-4.21,4.83-8.35,6.2-12.84,2.45-8,8.22-12.12,15.74-12.26,4.8-.08,12.21.32,13.71,5.7,2.47,8.91,10.25,12.46,15.34,18.59,2.11,2.54,6.88,3,8.64,5.66,2,3,3.63,7.83,2.65,11-2.77,9.06-9,14.9-19.1,16.39-3.45.5-6.5,3.73-9.73,5.73a11.84,11.84,0,0,1-5.31,2.19c2.49-3.64,5.06-7.24,7.4-11,.55-.88.32-2.24.44-3.38-1.14.27-2.54.2-3.38.85C83.36,95.3,78.24,99.56,73,103.69a9.1,9.1,0,0,1-4.86,2.06c5-6.27,10.06-12.58,15.17-18.8,1.78-2.18,2.58-4-1-5.28L52.46,104.45l-.84-.82c3.34-4.19,6.66-8.39,10-12.57,4-4.94,8-9.78,11.83-14.85.76-1,.43-2.85.6-4.3l-1.5-.37L52.17,87.32ZM92.26,56c-3.81-6.41-4.94-6.62-11.47-1a35.15,35.15,0,0,0-3.49,3.52c-5.53,6.4-5.31,7.75,1.91,12.28.1.07.28,0,.43,0l-1.45-1.44ZM96,89.26l15.56-15.75-4.83-3.4-14.78,14Z"/><path class="cls-5" d="M92.26,56,78.19,69.39l1.45,1.44c-.15,0-.33,0-.43,0C72,66.27,71.77,64.92,77.3,58.52A35.15,35.15,0,0,1,80.79,55C87.32,49.34,88.45,49.55,92.26,56Z"/></g></g></svg>
