<svg xmlns="http://www.w3.org/2000/svg" viewBox="0 0 173.81 183.62"><defs><style>.cls-1{fill:#351734;}.cls-2{fill:#0390d4;}.cls-3{fill:#f4f3f2;}</style></defs><title>Asset 12</title><g id="Layer_2" ><g id="Layer_1-2" ><path d="M141.7,60.8c1.21-4.94,3.43-8.78,2.71-11.95-3.17-14.06-7-28-11-41.85-1.65-5.74-8.68-9-13.24-5.7-9.64,6.89-20.33,7.06-31.42,7.13-10.25.07-20.54.71-30.26,4.84a15.08,15.08,0,0,1-7.43,1C38.8,12.75,29.62,22.65,32.62,34.53A157.18,157.18,0,0,0,36.9,49.85c1.33,3.66.11,5.81-2.39,8.26C24.28,68.14,14.18,78.29,4.1,88.47-1.34,94-1.38,99.58,4.05,105q37.05,37.15,74.2,74.19c6,6,11.24,5.83,17.26-.18q36.93-36.92,73.84-73.85c5.9-5.91,5.94-10.86.12-16.69C160,79,150.38,69.45,141.7,60.8Z"/><path class="cls-1" d="M141.7,60.8C150.38,69.45,160,79,169.47,88.49c5.82,5.83,5.78,10.78-.12,16.69Q132.44,142.11,95.51,179c-6,6-11.24,6.17-17.26.18q-37.17-37-74.2-74.19C-1.38,99.58-1.34,94,4.1,88.47,14.18,78.29,24.28,68.14,34.51,58.11c2.5-2.45,3.72-4.6,2.39-8.26a157.18,157.18,0,0,1-4.28-15.32c-3-11.88,6.18-21.78,18.46-20.25a15.08,15.08,0,0,0,7.43-1c9.72-4.13,20-4.77,30.26-4.84,11.09-.07,21.78-.24,31.42-7.13,4.56-3.26,11.59,0,13.24,5.7,4,13.86,7.81,27.79,11,41.85C145.13,52,142.91,55.86,141.7,60.8Zm2.15,61.43c7.47-7.36,15-14.69,22.38-22.09,2.82-2.81,1.67-5.25-.79-7.68-8.06-8-16-16-24.06-24-3.27-3.24-6.69-6.34-10.09-9.55,8.17-6.66,8.39-6.93,7.06-12q-4.6-17.61-9.38-35.18c-1.68-6.19-3.59-6.59-9.21-3.79a56.7,56.7,0,0,1-15.31,5.36c-6,1.06-12.25.79-18.4.95-10.23.26-20.25,1.24-29.46,6.34a6.48,6.48,0,0,1-4.5.1c-4.83-1.43-8.92-.1-12.48,3C36.5,26.51,37.22,30,38.2,33.52c1.62,5.76,3,11.61,4.87,17.27,1.28,3.8.67,6.36-2.29,9.22C29.89,70.54,19.31,81.4,8.55,92.07c-2.55,2.53-4.06,5.09-1,8.11Q31.06,123.61,54.66,147c9.44,9.58,18.85,19.19,28.35,28.71,2.49,2.5,5.17,2.56,7.81-.1Q117.31,148.88,143.85,122.23Z"/><path class="cls-2" d="M54.66,147Q31.08,123.59,7.52,100.18c-3-3-1.52-5.58,1-8.11C19.31,81.4,29.89,70.54,40.78,60c3-2.86,3.57-5.42,2.29-9.22-1.91-5.66-3.25-11.51-4.87-17.27-1-3.48-1.7-7,1.41-9.76,3.56-3.14,7.65-4.47,12.48-3a6.48,6.48,0,0,0,4.5-.1c9.21-5.1,19.23-6.08,29.46-6.34,6.15-.16,12.4.11,18.4-.95A56.7,56.7,0,0,0,119.76,8c5.62-2.8,7.53-2.4,9.21,3.79q4.75,17.56,9.38,35.18c1.33,5.05,1.11,5.32-7.06,12,3.4,3.21,6.82,6.31,10.09,9.55,8.05,8,16,16,24.06,24,2.46,2.43,3.61,4.87.79,7.68-7.43,7.4-14.91,14.73-22.38,22.09-2.44-7.53-8.4-11.91-14.82-15.44C112.54,97.7,94.2,97,76.16,95.38c-.16,7,3,10.19,9.38,12.13,5.55,1.69,10.87,5,15.51,8.62,5.35,4.14,5.92,10.05,1.12,14.77A63.42,63.42,0,0,1,85.52,143C75.89,147.65,65.2,147.55,54.66,147ZM124.23,10a40.37,40.37,0,0,1-23.62,8.24c-4.83.08-9.67-.14-14.49.14-8.94.54-17.91.86-26.22,5-4.11,2.07-5.83,4.22-4.27,9.25C59.18,44.15,62,55.84,65.28,68.11,73.58,61.32,82.8,60,92.46,60c5.48,0,11-.43,16.44-.88,7.95-.66,15.94-1.2,22.89-5.87,2.12-1.42,3.4-2.74,2.58-5.66C130.93,35.32,127.7,23,124.23,10Zm-56,118.74c2.43-.44,4.38-.71,6.29-1.16,2.5-.61,3.39-1.83,2.62-4.71Q64.23,75.23,51.7,27.48c-.8-3-2.44-3.68-5.13-2.87-3.89,1.17-5.77,3.11-4.4,7.72,3.77,12.74,7.18,25.6,10.62,38.44C57.91,89.86,62.93,109,68.18,128.77ZM54.61,101.28C54.37,94.77,53.07,91,47,90.4a26.16,26.16,0,0,1-8.45-2.78c-5.31-2.51-5.85-5.93-1.47-10,2.81-2.58,6.12-4.62,9.21-6.9a55.2,55.2,0,0,0-15.41,6.51c-6.83,4.42-6.72,12.51.52,16S46.44,98.52,54.61,101.28Z"/><path class="cls-3" d="M54.66,147c10.54.58,21.23.68,30.86-3.94a63.42,63.42,0,0,0,16.65-12.13c4.8-4.72,4.23-10.63-1.12-14.77-4.64-3.61-10-6.93-15.51-8.62-6.39-1.94-9.54-5.17-9.38-12.13,18,1.6,36.38,2.32,52.87,11.41,6.42,3.53,12.38,7.91,14.82,15.44q-26.52,26.67-53,53.35c-2.64,2.66-5.32,2.6-7.81.1C73.51,166.16,64.1,156.55,54.66,147Z"/><path class="cls-3" d="M124.23,10c3.47,13,6.7,25.29,10.14,37.57.82,2.92-.46,4.24-2.58,5.66-6.95,4.67-14.94,5.21-22.89,5.87-5.47.45-11,.87-16.44.88-9.66,0-18.88,1.31-27.18,8.1-3.29-12.27-6.1-24-9.65-35.42-1.56-5,.16-7.18,4.27-9.25,8.31-4.17,17.28-4.49,26.22-5,4.82-.28,9.66-.06,14.49-.14A40.37,40.37,0,0,0,124.23,10ZM99.7,32.32H85.83C87,37,88.08,41,89.16,45.2h14.59c-1.46-4.58-2.79-8.77-4.13-13l14.84-1.66c-1.09-4-1.9-7-2.71-10L98.24,22C98.76,25.65,99.23,29,99.7,32.32Zm-8,24c-1-3.73-1.87-6.87-2.84-10.44L75.08,47.47c1,3.72,1.73,6.71,2.59,10Zm32.8-29.68-9.66,4.35c1.16,4.25,2.26,8.31,3.36,12.37C130.47,39.68,128.74,40.29,124.55,26.59ZM71.25,34.8c-12.14,3.26-10.82,3.13-6,16.54l9.34-4.27C73.38,42.73,72.32,38.77,71.25,34.8ZM104.9,46c.26,9.23,1.14,10.07,9.6,9.17,2-.21,3.87-.69,6.13-1.11l-2.55-9.69ZM68.85,23.71c.91,3.65,1.66,6.63,2.49,9.93L85.26,32c-.91-3.38-1.75-6.5-2.7-10Z"/><path class="cls-3" d="M68.18,128.77c-5.25-19.8-10.27-38.91-15.39-58-3.44-12.84-6.85-25.7-10.62-38.44-1.37-4.61.51-6.55,4.4-7.72,2.69-.81,4.33-.16,5.13,2.87Q64.27,75.23,77.09,122.9c.77,2.88-.12,4.1-2.62,4.71C72.56,128.06,70.61,128.33,68.18,128.77Z"/><path class="cls-3" d="M54.61,101.28c-8.17-2.76-16-4.66-23.22-8.06s-7.35-11.53-.52-16a55.2,55.2,0,0,1,15.41-6.51c-3.09,2.28-6.4,4.32-9.21,6.9-4.38,4-3.84,7.45,1.47,10A26.16,26.16,0,0,0,47,90.4C53.07,91,54.37,94.77,54.61,101.28Z"/><path class="cls-2" d="M99.62,32.24c1.34,4.19,2.67,8.38,4.13,13H89.16C88.08,41,87,37,85.83,32.32H99.7Z"/><path class="cls-2" d="M99.7,32.32C99.23,29,98.76,25.65,98.24,22l13.51-1.38c.81,3,1.62,6,2.71,10L99.62,32.24Z"/><path class="cls-2" d="M91.75,56.27,77.67,57.5c-.86-3.32-1.63-6.31-2.59-10l13.83-1.64C89.88,49.4,90.74,52.54,91.75,56.27Z"/><path class="cls-2" d="M124.55,26.59c4.19,13.7,5.92,13.09-6.3,16.72-1.1-4.06-2.2-8.12-3.36-12.37Z"/><path class="cls-2" d="M71.25,34.8c1.07,4,2.13,7.93,3.3,12.27l-9.34,4.27C60.43,37.93,59.11,38.06,71.25,34.8Z"/><path class="cls-2" d="M104.9,46l13.18-1.63L120.63,54c-2.26.42-4.18.9-6.13,1.11C106,56,105.16,55.2,104.9,46Z"/><path class="cls-2" d="M68.85,23.71l13.71-1.77c1,3.51,1.79,6.63,2.7,10L71.34,33.64C70.51,30.34,69.76,27.36,68.85,23.71Z"/></g></g></svg>
