<svg xmlns="http://www.w3.org/2000/svg" viewBox="0 0 173.62 183.48"><defs><style>.cls-1{fill:#351734;}.cls-2{fill:#0390d4;}.cls-3{fill:#f4f3f2;}.cls-4{fill:#f5f5f5;}.cls-5{fill:#ededed;}</style></defs><title>Asset 14</title><g id="Layer_2" ><g id="Layer_1-2" ><path d="M139.93,59.37c5-4.47,5.22-9.32,3.48-14.62-.83-2.52-1.42-5.12-2.09-7.68-2.37-9.15-4.67-18.33-7.1-27.46C132,1.41,125-2.6,118.84,1.83c-8.22,5.89-17.06,6.49-26.5,6.48-11.45,0-22.87.46-33.77,4.86a19,19,0,0,1-8.46,1c-12.67-1.05-21.23,9.26-17.57,21.39,1.38,4.61,2.36,9.36,4,13.85,1.32,3.56.37,5.86-2.19,8.37-10.12,9.9-20.09,20-30.08,30-5.63,5.64-5.75,11.7-.27,17.52A101.42,101.42,0,0,0,14,115.15c3.8,3,4.14,6.22,3.12,10.79-2.25,10.11-.27,19.3,7.34,27.07,6.88,7,15.44,11.57,24.66,11.8,12.77.33,21.82,5.47,29.5,14.95,3.3,4.07,9.4,4.79,13.13,2.19a35.59,35.59,0,0,0,6.18-5.78c5.61-6.4,11.44-12,21.1-10.11,1.83.36,3.91-.51,5.87-.85,9.19-1.59,17.76-4.74,24.22-11.72,7.51-8.13,8.73-18.12,6.5-28.47-.89-4.09-.33-6.75,2.85-9.47,3.8-3.23,7.15-7,10.67-10.53,6-6.1,6-10.54-.09-16.66C159.49,78.83,149.92,69.33,139.93,59.37Z"/><path class="cls-1" d="M139.93,59.37c10,10,19.56,19.46,29.09,29,6.12,6.12,6.13,10.56.09,16.66-3.52,3.54-6.87,7.3-10.67,10.53-3.18,2.72-3.74,5.38-2.85,9.47,2.23,10.35,1,20.34-6.5,28.47-6.46,7-15,10.13-24.22,11.72-2,.34-4,1.21-5.87.85-9.66-1.91-15.49,3.71-21.1,10.11A35.59,35.59,0,0,1,91.72,182c-3.73,2.6-9.83,1.88-13.13-2.19-7.68-9.48-16.73-14.62-29.5-14.95-9.22-.23-17.78-4.78-24.66-11.8-7.61-7.77-9.59-17-7.34-27.07,1-4.57.68-7.74-3.12-10.79A101.42,101.42,0,0,1,4,105.31c-5.48-5.82-5.36-11.88.27-17.52,10-10,20-20.11,30.08-30,2.56-2.51,3.51-4.81,2.19-8.37-1.67-4.49-2.65-9.24-4-13.85-3.66-12.13,4.9-22.44,17.57-21.39a19,19,0,0,0,8.46-1c10.9-4.4,22.32-4.87,33.77-4.86,9.44,0,18.28-.59,26.5-6.48C125-2.6,132,1.41,134.22,9.61c2.43,9.13,4.73,18.31,7.1,27.46.67,2.56,1.26,5.16,2.09,7.68C145.15,50.05,144.89,54.9,139.93,59.37Zm-8.8-1c4.5-3,8.92-5.17,7-11.55-3.53-12-6.46-24.1-9.75-36.13-1.33-4.85-4-6-8-3.09-6.67,4.8-14.15,6.39-22.13,6.48-3.67,0-7.33.05-11,.14-10.87.28-21.62,1-31.39,6.66-1,.57-2.73.33-3.94-.1-4.61-1.62-8.56-.22-12.1,2.56s-3.05,6.29-1.92,10c1.82,6,3.29,12.21,5.26,18.21,1.08,3.29.39,5.43-2.08,7.83C30.21,70,19.55,80.81,8.85,91.55,4.41,96,4.42,97,8.7,101.29s8.58,8.88,13.13,13c2.67,2.44,3.22,4.47,1.93,8.11-5.19,14.66.14,26.91,14.41,33.25,4.65,2.07,10.07,4.67,14.74,4,13.48-1.8,21.28,5.87,28.9,14.67.32.38.72.7,1.06,1.07,2.53,2.8,5,2.78,7.68.08,3.26-3.33,6.81-6.41,9.83-9.95,3.39-4,7.16-5.76,12.54-5.37A48,48,0,0,0,126.3,159c10.51-2.26,20.22-6.59,23.09-18,1.47-5.85.61-12.52-.31-18.64-.51-3.44-.16-5.51,2.3-7.79,4.4-4.08,8.53-8.44,12.77-12.68,4.76-4.77,4.79-5.78,0-10.55C153.35,80.55,142.5,69.73,131.13,58.38Z"/><path class="cls-2" d="M131.13,58.38c11.37,11.35,22.22,22.17,33.05,33,4.76,4.77,4.73,5.78,0,10.55-4.24,4.24-8.37,8.6-12.77,12.68-2.46,2.28-2.81,4.35-2.3,7.79.92,6.12,1.78,12.79.31,18.64-2.87,11.38-12.58,15.71-23.09,18a48,48,0,0,1-13.38,1.2c-5.38-.39-9.15,1.42-12.54,5.37-3,3.54-6.57,6.62-9.83,9.95-2.64,2.7-5.15,2.72-7.68-.08-.34-.37-.74-.69-1.06-1.07-7.62-8.8-15.42-16.47-28.9-14.67-4.67.63-10.09-2-14.74-4-14.27-6.34-19.6-18.59-14.41-33.25,1.29-3.64.74-5.67-1.93-8.11-4.55-4.15-8.79-8.65-13.13-13S4.41,96,8.85,91.55C19.55,80.81,30.21,70,41.07,59.43c2.47-2.4,3.16-4.54,2.08-7.83-2-6-3.44-12.16-5.26-18.21-1.13-3.75-1.5-7.35,1.92-10s7.49-4.18,12.1-2.56c1.21.43,3,.67,3.94.1,9.77-5.64,20.52-6.38,31.39-6.66,3.67-.09,7.33-.1,11-.14,8-.09,15.46-1.68,22.13-6.48,4-2.89,6.72-1.76,8,3.09,3.29,12,6.22,24.16,9.75,36.13C140.05,53.21,135.63,55.37,131.13,58.38Zm-34,98.75c10.85-1,21.44-1,31.55-3.2,14.7-3.17,20.68-14.05,16.95-28.64a81.08,81.08,0,0,0-19.44-36.05c-3.42-3.63-8.72-7.15-13.44-7.55-13.21-1.13-26.56-.62-39.85-.72-.24,0-.48.38-.67.54,1.11,8.72,1.11,8.72,9.44,8.72s16.65,0,25,0c7,0,12.78,2.35,15.65,9.26,2.61,6.26,5.33,12.52,7.33,19,1.83,5.92-.35,11.3-6,13.69-4.76,2-10.15,2.74-15.35,3.35-4.51.53-9.13.11-14.21.11C95,142.88,96,149.25,97.1,157.13ZM65,68.21C73.61,60.93,83.26,60,93.21,60c5.31,0,10.63-.49,15.93-.93,7.62-.63,15.21-1.29,22-5.53,2.87-1.79,3.69-3.63,2.72-6.95-2.62-8.91-4.89-17.91-7.28-26.88-.83-3.1-1.64-6.21-2.6-9.82-9.1,7.15-19.1,8.59-29.65,8.48C87.53,18.3,80.6,18.3,74,19.49c-5.9,1.06-11.59,3.61-17.18,6-1.09.46-2.08,3.31-1.73,4.71C58.1,42.54,61.47,54.84,65,68.21Zm12.89,67.08c-7.08,0-13.41.43-19.66-.1-12.76-1.08-17.95-9.29-13.54-21.1,1.56-4.18,3.19-8.6,5.92-12,4.12-5.16,2.46-9.66.17-15.13C39.74,97.69,32.46,110.27,27.6,124.19c-4.4,12.6.53,22.68,12.8,28,10.88,4.73,22.29,4.25,33.9,3.83C75.49,149.24,76.62,142.75,77.92,135.29Zm-10-7.28c9.22.42,10.2-1,8.08-8.7C67.7,89.2,59.75,59,51.75,28.79c-.82-3.09-1.6-5.51-5.58-4.12-3.27,1.14-5.65,2.46-4.47,6.79C50.49,63.5,59.15,95.59,67.94,128Zm24.65,28c-.79-6.85-1.53-13.38-2.29-20H81.62c-.76,6.84-1.49,13.34-2.23,20Z"/><path class="cls-3" d="M97.1,157.13C96,149.25,95,142.88,94,135.65c5.08,0,9.7.42,14.21-.11,5.2-.61,10.59-1.35,15.35-3.35,5.7-2.39,7.88-7.77,6-13.69-2-6.48-4.72-12.74-7.33-19-2.87-6.91-8.63-9.25-15.65-9.26q-12.48,0-25,0c-8.33,0-8.33,0-9.44-8.72.19-.16.43-.55.67-.54,13.29.1,26.64-.41,39.85.72,4.72.4,10,3.92,13.44,7.55a81.08,81.08,0,0,1,19.44,36.05c3.73,14.59-2.25,25.47-16.95,28.64C118.54,156.11,108,156.11,97.1,157.13Z"/><path class="cls-3" d="M65,68.21c-3.56-13.37-6.93-25.67-10-38-.35-1.4.64-4.25,1.73-4.71,5.59-2.36,11.28-4.91,17.18-6,6.65-1.19,13.58-1.19,20.37-1.12,10.55.11,20.55-1.33,29.65-8.48,1,3.61,1.77,6.72,2.6,9.82,2.39,9,4.66,18,7.28,26.88,1,3.32.15,5.16-2.72,6.95-6.78,4.24-14.37,4.9-22,5.53-5.3.44-10.62.91-15.93.93C83.26,60,73.61,60.93,65,68.21ZM114.44,30.6c1.25,4.38,2.45,8.58,3.63,12.73,10.83-2.74,11.82-5.81,5.9-16.46l-9.43,3.89c-1.15-3.68-2.15-6.92-3.15-10.11L97.68,22c.83,3.64,1.55,6.79,2.38,10.46H85.79c1,4.71,2,9,2.95,13.19l-14,1.9c1,3.69,1.88,6.77,2.79,10l13.82-1.32c-.86-3.68-1.56-6.7-2.34-10.07l14.21-1-3.18-12.7ZM70.86,34.22a62.13,62.13,0,0,0-7.46,3.32,4.15,4.15,0,0,0-1.77,3.35c.65,3.52,1.81,7,2.83,10.61l9.85-4.35C73.15,42.82,72.06,38.73,70.86,34.22ZM82.38,21.94,68.6,23.74c1,3.74,1.71,6.7,2.54,10L85,31.89C84.08,28.48,83.29,25.46,82.38,21.94ZM104.31,46.1c1.64,10.68,3.81,11.64,16,7.46-.87-3.09-1.74-6.18-2.6-9.25Z"/><path class="cls-4" d="M77.92,135.29c-1.3,7.46-2.43,14-3.62,20.74-11.61.42-23,.9-33.9-3.83-12.27-5.33-17.2-15.41-12.8-28,4.86-13.92,12.14-26.5,23.21-37.25,2.29,5.47,3.95,10-.17,15.13-2.73,3.42-4.36,7.84-5.92,12-4.41,11.81.78,20,13.54,21.1C64.51,135.72,70.84,135.29,77.92,135.29Z"/><path class="cls-3" d="M67.94,128C59.15,95.59,50.49,63.5,41.7,31.46c-1.18-4.33,1.2-5.65,4.47-6.79,4-1.39,4.76,1,5.58,4.12,8,30.2,16,60.41,24.27,90.52C78.14,127,77.16,128.43,67.94,128Z"/><path class="cls-5" d="M92.59,156H79.39c.74-6.66,1.47-13.16,2.23-20H90.3C91.06,142.59,91.8,149.12,92.59,156Z"/><path class="cls-2" d="M114.44,30.6l-14.36,1.88,3.18,12.7-14.21,1c.78,3.37,1.48,6.39,2.34,10.07L77.57,57.56c-.91-3.25-1.76-6.33-2.79-10l14-1.9c-.95-4.23-1.9-8.48-2.95-13.19h14.27c-.83-3.67-1.55-6.82-2.38-10.46l13.71-1.34c1,3.19,2,6.43,3.15,10.11L124,26.87c5.92,10.65,4.93,13.72-5.9,16.46C116.89,39.18,115.69,35,114.44,30.6Z"/><path class="cls-2" d="M70.86,34.22c1.2,4.51,2.29,8.6,3.45,12.93L64.46,51.5c-1-3.66-2.18-7.09-2.83-10.61a4.15,4.15,0,0,1,1.77-3.35A62.13,62.13,0,0,1,70.86,34.22Z"/><path class="cls-2" d="M82.38,21.94c.91,3.52,1.7,6.54,2.59,10l-13.83,1.8c-.83-3.25-1.58-6.21-2.54-9.95Z"/><path class="cls-2" d="M104.31,46.1l13.43-1.79c.86,3.07,1.73,6.16,2.6,9.25C108.12,57.74,106,56.78,104.31,46.1Z"/></g></g></svg>
