<svg xmlns="http://www.w3.org/2000/svg" viewBox="0 0 270.19 270.69"><defs><style>.cls-1{fill:#361733;}.cls-2{fill:#b10932;}.cls-3{fill:#f6f6f6;}.cls-4{fill:#161616;}.cls-5{fill:#191919;}</style></defs><title>Asset 3</title><g id="Layer_2" data-name="Layer 2"><g id="Layer_1-2" data-name="Layer 1"><path class="cls-1" d="M270.18,135.32c1.19,73.19-59.45,135.38-134.86,135.37C61,270.68-2,210.44.05,131.53,1.94,59.75,59.3.11,135.31,0,211.89-.11,271.18,62.58,270.18,135.32Z"/><path class="cls-2" d="M135.31,10.64c67.81-.44,126.7,55.18,124.5,128.78-2,66.32-54.52,120.29-124.71,120.91-34.82.31-65.49-12.84-89.9-38.62-23.78-25.11-34.91-55-34.49-89.58C11.51,66.54,66.41,10.3,135.31,10.64Z"/><path class="cls-3" d="M232.75,135.53a97.2,97.2,0,0,1-96.85,97.66c-56.38.21-99.1-45.41-98.34-99.38.73-52,43-96.11,97.56-96.26C189.34,37.4,233.55,82.3,232.75,135.53Z"/><path class="cls-4" d="M151.76,173.9c-.22,2.32-.39,3.78-.5,5.24-.49,6.81-5.43,11.76-12.29,11.8q-27.5.17-55,0A12.44,12.44,0,0,1,71.65,178.5q-.12-42,0-84c0-7,6.07-13,13.71-13.1,17.49-.24,35-.34,52.48,0a13.8,13.8,0,0,1,13.59,14.18c-.38,20.33-.13,40.66-.13,61v5.47l7.1.33V102.08h12.28V161.9h7.16V115.3h11.71c.21,3.26.4,6.31.63,10.1h18.88v36.72H190V173.9Z"/><path class="cls-3" d="M125.51,158.14c.14,11.5-9.34,20.65-21,20.79-11.22.13-20.84-9.69-20.94-21a21,21,0,1,1,41.91.19Z"/><path class="cls-5" d="M104.35,144.39c7.8-.28,13.8,4.87,14,13.59.18,8.08-6.54,13.72-14,14-7.18.23-14.21-7.09-13.94-13.9C90.77,150,96.21,144.37,104.35,144.39Z"/></g></g></svg>