<svg xmlns="http://www.w3.org/2000/svg" viewBox="0 0 340 306"><defs><style>.cls-1{fill:#fefefe;}.cls-2{fill:#361733;}.cls-3{fill:#b10932;}.cls-4{fill:#f6f6f6;}.cls-5{fill:#161616;}.cls-6{fill:#f4f4f4;}</style></defs><title>Asset 2</title><g id="Layer_2" data-name="Layer 2"><g id="Layer_1-2" data-name="Layer 1"><ellipse class="cls-1" cx="170" cy="153" rx="240.42" ry="216.37"/><path class="cls-2" d="M160.42,286.12c-76.07,0-141.54-62.07-138.91-144.07C23.87,68.7,82.63,7.78,160.87,7.54,238,7.31,303.05,71,299.9,152.94,297.17,223.75,238.45,286.29,160.42,286.12Z"/><path class="cls-3" d="M32.84,147.24C30.4,77.2,91.27,18.37,160.56,18.5,233,18.65,287.87,77.9,289.08,143c1.44,77.08-58.58,132.59-128.61,132.54C91,275.51,31.75,219.52,32.84,147.24Z"/><path class="cls-4" d="M261.13,147.35c0,55.11-45.46,100.79-100.33,100.35A101.44,101.44,0,0,1,60,145.06c.44-53.41,46.35-98.91,100.66-99C216.09,46,261.12,91.38,261.13,147.35Z"/><path class="cls-5" d="M177.33,174.49h7.33V112.57h12.56v60.88c2.57,1.75,4.67,1.27,7.38.78V126.29h12.09l.67,10.28H236.7v38H217.18v12H178.24c-4.14,17.38-4.45,17.61-22.35,17.61-15.33,0-30.66,0-46,0-9.45,0-14.72-5.37-14.73-14.81q0-41.49,0-83c0-8.58,5.87-15,14.5-15.1q26.74-.33,53.49,0c8.42.1,14.15,6.39,14.16,14.78C177.36,128.68,177.33,151.31,177.33,174.49Z"/><path class="cls-6" d="M150.71,170.78a21.73,21.73,0,0,1-21.51,21.07c-11.62-.06-22-10.63-21.75-22.12a21.64,21.64,0,1,1,43.26,1.05Z"/><path class="cls-5" d="M128.48,184.37c-7.88-.1-13.86-6.4-13.77-14.5s6.15-13.81,14.45-13.71a14.26,14.26,0,0,1,14.37,14.08C143.63,177.86,136.59,184.47,128.48,184.37Z"/></g></g></svg>