<svg xmlns="http://www.w3.org/2000/svg" viewBox="0 0 277.25 277.13"><defs><style>.cls-1{fill:#351733;}.cls-2{fill:#b10932;}.cls-3{fill:#f6f6f6;}.cls-4{fill:#341735;}.cls-5{fill:#f5f5f5;}.cls-6{fill:#371b38;}</style></defs><title>Asset 1</title><g id="Layer_2" data-name="Layer 2"><g id="Layer_1-2" data-name="Layer 1"><path class="cls-1" d="M.05,138.19c0-17.32.07-34.65,0-52a11.65,11.65,0,0,1,3.62-8.89Q40.41,40.63,77.11,3.84A12.23,12.23,0,0,1,86.42,0q51.48.15,103,0a15,15,0,0,1,11.51,4.73q35.42,35.61,71,71a16.65,16.65,0,0,1,5.33,12.81q-.27,50,0,100a16.39,16.39,0,0,1-5,12.5q-35.76,35.63-71.39,71.36a15.37,15.37,0,0,1-11.56,4.76q-51-.14-102,0a14,14,0,0,1-10.69-4.31Q40.51,236.54,4.22,200.4A13.4,13.4,0,0,1,0,190.17c.12-17.32.05-34.65.05-52Z"/><path class="cls-2" d="M138.53,266.14c-16.16,0-32.33-.08-48.49.07a10.56,10.56,0,0,1-8.35-3.33Q47.88,228.82,13.83,195a10.09,10.09,0,0,1-3.31-7.85q.18-48.48,0-97a10.07,10.07,0,0,1,3.22-7.88Q48,48.29,82,14.07A9.56,9.56,0,0,1,89.43,11q49,.13,98,0a10.09,10.09,0,0,1,7.83,3.37q33.85,34,67.88,67.86a10.09,10.09,0,0,1,3.3,7.85q-.18,48.75,0,97.48a9,9,0,0,1-2.85,7Q229,228.94,194.61,263.49A8.48,8.48,0,0,1,188,266.2C171.53,266.09,155,266.14,138.53,266.14Z"/><path class="cls-3" d="M138.71,36c13,0,26,0,39,0a7.81,7.81,0,0,1,6.16,2.46Q211,65.7,238.29,92.8a9,9,0,0,1,3,6.94q-.15,38.49,0,77a9,9,0,0,1-2.89,7q-27.33,27.09-54.44,54.4a9,9,0,0,1-6.94,3.07q-38.73-.16-77.47,0A8.44,8.44,0,0,1,93,238.41Q65.88,211.11,38.55,184a8.55,8.55,0,0,1-2.77-6.57q.07-38.73,0-77.47a9,9,0,0,1,2.93-7Q65.84,66,92.76,38.89a9.46,9.46,0,0,1,7.46-3C113.05,36,125.88,36,138.71,36Z"/><path class="cls-4" d="M66.44,158.19c0-11,.35-22-.12-33-.36-8.32,6.19-13.34,13.37-13.11,13.48.43,27,.11,40.48.13,9.17,0,13.45,4.23,13.46,13.23,0,16.66,0,33.32.05,50,0,1.53-.77,3.44,1.22,4.46,2.53,1.31,4.55-.15,4.57-3.52.07-9.66,0-19.32,0-29,0-4.66,0-9.33,0-14,0-5.27,0-5.27,5.11-5.25,4.91,0,4.94,0,4.94,5.51q0,19.74,0,39.48c0,1.17.06,2.34,0,3.5-.11,2.19.59,3.47,3.07,3.47s2.46-1.69,2.47-3.39q0-10.25,0-20.5c0-4,.23-8-.07-12-.28-3.6.63-5.06,4.58-4.87,3.38.17,5.23.55,5,4.65-.34,5.2,0,5.22,5,5.23a33.84,33.84,0,0,0,3.49,0c2.74-.28,3.87.68,3.81,3.62-.17,8.16-.14,16.33,0,24.49,0,2.68-1.07,3.61-3.54,3.49-1-.06-2,0-3,0-5.58,0-5.76,0-5.75,5.64,0,2.84-.93,3.79-3.73,3.74-7.83-.13-15.66.05-23.49-.1-2.74,0-3.76.68-3.82,3.61-.13,6.26-4.24,10.85-10.5,11q-23,.45-46,0c-6.4-.11-10.54-4.95-10.59-11.55C66.37,181.52,66.44,169.86,66.44,158.19Z"/><path class="cls-4" d="M173.59,93.73c0,5.49,0,11,0,16.49,0,2.8-.6,5.89,4,5.7,4.75-.19,3-3.69,3-5.88.2-8.83.12-17.66.05-26.49,0-2.68-.14-4.77,3.73-4.85s3.91,1.82,3.88,4.62q-.14,14,0,28c0,1.9-1,4.52,2.73,4.61,3.55.1,4.15-1.77,4.12-4.68-.08-6.83,0-13.66,0-20.49,0-2-.29-4.12,2.8-4.22,2.81-.08,3.93,1.06,3.65,3.87-.26,2.58,1.12,3.38,3.63,3.46,5.39.19,5.39.32,5.41,5.76,0,4.33-.09,8.66,0,13,.09,2.75-.88,4.12-3.74,3.81-3.42-.37-5.93.12-5.5,4.6.27,2.78-2.09,2.5-3.88,2.51q-9.49.06-19,0c-2.82,0-5.53-.1-5,4.09.18,1.55-1,2.42-2.55,2.43-4.49.05-9,0-13.49.06-1.7,0-2.38-.85-2.36-2.46,0-1,0-2,0-3,0-5.61,0-5.61-5.85-5.59-5.39,0-5.39,0-5.88-5.57a11.32,11.32,0,0,0-11.16-10.59c-1.34,0-2.67-.06-4,0-2.18,0-3.45-.74-3.43-3.18.06-8.33-.14-16.66.12-25,.15-4.77,3.28-7.53,8.13-7.57q16.23-.15,32.48,0c5.27,0,7.85,2.69,8,8.08.16,6.16,0,12.32,0,18.49Z"/><path class="cls-5" d="M117.7,176.6a20.49,20.49,0,0,1-20.24,20.33c-10.56.16-20.35-9.81-20.31-20.46,0-9.64,9.09-20,20.64-19.91C108.26,156.62,118.31,167.15,117.7,176.6Z"/><path class="cls-6" d="M97.55,188.22A11.42,11.42,0,0,1,85.86,176.6a11.58,11.58,0,0,1,11.92-11.43,11.39,11.39,0,0,1,11.29,11.91A11.24,11.24,0,0,1,97.55,188.22Z"/></g></g></svg>