<svg xmlns="http://www.w3.org/2000/svg"
     viewBox="0 0 142.51 142.52">
    <defs>
        <style>
            .cls-1{fill:#351734;}.cls-2{fill:#b20c34;}.cls-3{fill:#f4f3f2;}.cls-4{fill:#1b1b1b;}.cls-5{fill:#ededed;}
        </style>
    </defs>
    <title>
        Asset
        2
    </title>
    <g id="Layer_2"
       >
        <g id="Layer_1-2"
           >
            <path class="cls-1"
                  d="M71.36,142.52C31.71,142.25-.58,111.35,0,70.79.61,29.42,31.31.08,71.25,0c40.67-.08,71.6,31.45,71.26,72.24A70.79,70.79,0,0,1,71.36,142.52ZM136.8,71.71c1.71-34.93-28.56-66.54-65.71-66.39C35.34,5.47,5.43,35.23,5.39,71.14c0,35.11,27.8,66.25,66.31,66.15C110,137.19,138,105,136.8,71.71Z"/>
            <path class="cls-2"
                  d="M136.8,71.71C138,105,110,137.19,71.7,137.29c-38.51.1-66.35-31-66.31-66.15,0-35.91,30-65.67,65.7-65.82C108.24,5.17,138.51,36.78,136.8,71.71Zm-14-.12A51.74,51.74,0,0,0,71.34,19.52C43.18,19.46,19.69,42.83,19.62,71A52,52,0,0,0,71.21,123C99.36,123.23,122.75,99.9,122.79,71.59Z"/>
            <path class="cls-3"
                  d="M122.79,71.59c0,28.31-23.43,51.64-51.58,51.45A52,52,0,0,1,19.62,71c.07-28.13,23.56-51.5,51.72-51.44A51.74,51.74,0,0,1,122.79,71.59Zm-39.34-18V85.42L81.72,86c-.64-1.43-1.82-2.85-1.84-4.29-.16-10.16,0-20.32-.1-30.48,0-5.34-2.51-8.34-7.62-8.46q-13.48-.33-27,0c-4.91.14-7.52,3.14-7.54,8.08q-.09,21,0,42c0,5.4,2.52,7.81,8,7.86,8,.07,16,0,24,0s9.15-1,10.72-8.94h19.4c.26-2.27.48-4.16.73-6.39h9.61V65.86h-9.57c-.32-2.06-.57-3.63-.8-5.07H93.66V85.27L92,85.85c-.6-1.27-1.7-2.53-1.72-3.82-.15-9.42-.08-18.86-.08-28.39Z"/>
            <path class="cls-4"
                  d="M83.45,53.64h6.7c0,9.53-.07,19,.08,28.39,0,1.29,1.12,2.55,1.72,3.82l1.71-.58V60.79h6.08c.23,1.44.48,3,.8,5.07h9.57v19.5H100.5c-.25,2.23-.47,4.12-.73,6.39H80.37c-1.57,8-2.76,8.93-10.72,8.94s-16,0-24,0c-5.5,0-8-2.46-8-7.86q-.09-21,0-42c0-4.94,2.63-7.94,7.54-8.08q13.49-.34,27,0c5.11.12,7.6,3.12,7.62,8.46,0,10.16-.06,20.32.1,30.48,0,1.44,1.2,2.86,1.84,4.29l1.73-.56ZM55,72.07A11.3,11.3,0,0,0,43.93,83.23a11.57,11.57,0,0,0,11.2,11.12A11.14,11.14,0,0,0,55,72.07Z"/>
            <path class="cls-5"
                  d="M55,72.07a11.14,11.14,0,0,1,.11,22.28,11.57,11.57,0,0,1-11.2-11.12A11.3,11.3,0,0,1,55,72.07Zm7.36,11.17a7.24,7.24,0,0,0-7.29-7.18A7,7,0,0,0,47.64,83a7.23,7.23,0,0,0,7.42,7.53A7.49,7.49,0,0,0,62.38,83.24Z"/>
            <path class="cls-4"
                  d="M62.38,83.24a7.49,7.49,0,0,1-7.32,7.27A7.23,7.23,0,0,1,47.64,83a7,7,0,0,1,7.45-6.92A7.24,7.24,0,0,1,62.38,83.24Z"/>
        </g>
    </g>
</svg>
