<svg xmlns="http://www.w3.org/2000/svg" viewBox="0 0 178.37 174.25"><defs><style>.cls-1{fill:#351734;}.cls-2{fill:#b42fad;}.cls-3{fill:#faf9fa;}.cls-4{fill:#f5f5f5;}.cls-5{fill:#f4f3f2;}</style></defs><title>Asset 18</title><g id="Layer_2" ><g id="Layer_1-2" ><path d="M89.18,0c-3.45,2.23-6.65,3.61-9,5.89C56,29.94,31.91,54.18,7.67,78.26,1.79,84.1,2.26,92,.06,99.1a4.09,4.09,0,0,0,.48,2.4c1.76,4.3,3,9,5.49,12.78,7.86,11.94,18.18,19.66,33.59,17.58,1.28-.17,3.08,1,4.14,2Q61.93,151.34,79.9,169C87,176,92,176,99,169c23-23,45.89-46,69-68.89,8.21-8.13,11.79-17.75,10-29-3.27-20.45-18.41-28.78-36.43-27.29-3.38.28-5.16-.43-7.24-2.52C122.62,29.61,111,17.88,99.16,6.42,96.57,3.91,93,2.41,89.18,0Z"/><path class="cls-1" d="M89.18,0c3.83,2.41,7.39,3.91,10,6.42C111,17.88,122.62,29.61,134.25,41.3c2.08,2.09,3.86,2.8,7.24,2.52,18-1.49,33.16,6.84,36.43,27.29,1.79,11.28-1.79,20.9-10,29-23.07,22.87-46,45.92-69,68.89-7,7-12,6.93-19.06,0q-18-17.65-36.14-35.18c-1.06-1-2.86-2.15-4.14-2C24.21,133.94,13.89,126.22,6,114.28,3.52,110.47,2.3,105.8.54,101.5a4.09,4.09,0,0,1-.48-2.4c2.2-7.06,1.73-15,7.61-20.84C31.91,54.18,56,29.94,80.23,5.89,82.53,3.61,85.73,2.23,89.18,0Zm39,44.88a18.12,18.12,0,0,0-1.91-2.77Q110.26,26,94.14,10.05c-3.93-3.91-6.13-3.92-10.06,0Q47.72,46.38,11.44,82.79c-1.28,1.29-2,3.29-2.59,5.08a64.94,64.94,0,0,0-2,7.41c-.35,1.56-.92,3.31-.55,4.77C9.62,113.32,17.8,122.2,31,126.11c1.82.54,4.46.9,5.78,0,4.13-2.87,7.08-1.4,10,1.58l5,5q15.63,15.78,31.26,31.54c5.65,5.68,6.9,5.67,12.55,0q32.14-32.13,64.24-64.31c4.63-4.67,8.72-9.1,11-16.33,2.81-9,.81-15.91-3-23-4.45-8.28-19.48-13.5-27-10.48-2.09.84-4.79.15-7.21.17Z"/><path class="cls-2" d="M46.81,127.67c-2.94-3-5.89-4.45-10-1.58-1.32.92-4,.56-5.78,0C17.8,122.2,9.62,113.32,6.26,100.05c-.37-1.46.2-3.21.55-4.77a64.94,64.94,0,0,1,2-7.41c.63-1.79,1.31-3.79,2.59-5.08Q47.68,46.34,84.08,10.06c3.93-3.93,6.13-3.92,10.06,0q16.11,16,32.15,32.06a18.12,18.12,0,0,1,1.91,2.77c-2,2.36-4,4.73-6.21,7.26l4.52,4.33,7.13-6.15c2.42,0,5.12.67,7.21-.17,7.51-3,22.54,2.2,27,10.48,3.79,7.07,5.79,13.94,3,23-2.24,7.23-6.33,11.66-11,16.33q-32,32.28-64.24,64.31c-5.65,5.65-6.9,5.66-12.55,0q-15.64-15.75-31.26-31.54l6.73-7.46L54,120.89Zm75.27-52.44c-3.63,3.56-7,7-10.54,10.29-1.94,1.81-3.88,4.44-6.18,4.89-8.71,1.7-9.14,9.88-12.91,15.41-.33.49.14,1.59.36,2.37,3,10.68,10,17.43,20.44,20.68.91.28,2.28.67,2.83.24,4.11-3.24,10.25-3.33,13.11-8.41,1.41-2.49,2.29-5.4,4.1-7.54,3.86-4.56,8.17-8.74,12.32-13.12l4.31,3c.4-1.32,1.12-2.37.87-3-1.62-4.31,1.42-5.36,4.33-6.64,1.29-.57,2.85-1.08,3.64-2.11a106.55,106.55,0,0,0,6-9.1c4.54-7.52,1.31-18.74-6-23.85-10.19-7.12-25.9-2.27-30.35,9.29-.86,2.23-2.66,5.28-6.49,3.28-.61-.31-1.9.67-4.23,1.58ZM69,95.46c.43-1.64,1-2.56.77-3.13C67.94,88,71.28,87,74,85.52c1.52-.85,3.34-1.56,4.35-2.86,2.12-2.71,3.5-6,5.72-8.62,2.77-3.23,2.54-6.6,1.74-10.28-2-9.08-7.27-14.37-16.49-16.54-4.92-1.16-8,1.17-11.94,2.78-4.92,2-8,4.64-9.9,9.52-.94,2.42-2.63,5.2-6.46,3.82-.77-.29-1.94.5-3.56,1l3.52,3.3c-5.24,5-9.78,10.55-15.54,14.26C20.31,85.16,16.14,88,13.43,94c-1.86,4.09-1.86,7-.33,10.55a28.33,28.33,0,0,0,13.75,14.57c6.34,3.17,12.83,2.34,17.7-2.84,2.55-2.7,4-6.39,6.47-9.2,4.15-4.76,8.68-9.18,13.07-13.72a4.81,4.81,0,0,1,1.22-.71ZM82.23,94l-14,12.89c1.22,1.77,2.39,3.48,2.72,4L85.83,97.57Zm12.5-14.3,4.12,3.9,14-13.79-4.34-4Z"/><path class="cls-3" d="M133.64,50.32l-7.13,6.15L122,52.14c2.16-2.53,4.18-4.9,6.21-7.26Z"/><path class="cls-3" d="M46.81,127.67,54,120.89l4.57,4.34-6.73,7.46Z"/><path class="cls-4" d="M122.08,75.23l-4.39-2.8c2.33-.91,3.62-1.89,4.23-1.58,3.83,2,5.63-1,6.49-3.28,4.45-11.56,20.16-16.41,30.35-9.29,7.3,5.11,10.53,16.33,6,23.85a106.55,106.55,0,0,1-6,9.1c-.79,1-2.35,1.54-3.64,2.11-2.91,1.28-6,2.33-4.33,6.64.25.68-.47,1.73-.87,3l-4.31-3c-4.15,4.38-8.46,8.56-12.32,13.12-1.81,2.14-2.69,5-4.1,7.54-2.86,5.08-9,5.17-13.11,8.41-.55.43-1.92,0-2.83-.24-10.49-3.25-17.47-10-20.44-20.68-.22-.78-.69-1.88-.36-2.37,3.77-5.53,4.2-13.71,12.91-15.41,2.3-.45,4.24-3.08,6.18-4.89C115.05,82.23,118.45,78.79,122.08,75.23Zm5.26,1.57c6.26,6.08,12,11.67,18.07,17.52,8.7-5.65,8.93-7.4.65-16.13a32,32,0,0,0-2.48-2.46C133.54,67.18,133.3,67.67,127.34,76.8ZM108.73,94.86c-6.38,3.91-6.57,4.56-1.23,10.66a92.4,92.4,0,0,0,9.19,9.16c5.55,4.77,7.12,4.27,10.14-2.5Z"/><path class="cls-5" d="M69,95.46,65.31,92.6a4.81,4.81,0,0,0-1.22.71c-4.39,4.54-8.92,9-13.07,13.72-2.45,2.81-3.92,6.5-6.47,9.2-4.87,5.18-11.36,6-17.7,2.84A28.33,28.33,0,0,1,13.1,104.5c-1.53-3.58-1.53-6.46.33-10.55,2.71-5.93,6.88-8.79,12-12.08,5.76-3.71,10.3-9.31,15.54-14.26l-3.52-3.3c1.62-.47,2.79-1.26,3.56-1,3.83,1.38,5.52-1.4,6.46-3.82,1.89-4.88,5-7.54,9.9-9.52,4-1.61,7-3.94,11.94-2.78,9.22,2.17,14.53,7.46,16.49,16.54.8,3.68,1,7.05-1.74,10.28-2.22,2.6-3.6,5.91-5.72,8.62-1,1.3-2.83,2-4.35,2.86-2.68,1.49-6,2.47-4.21,6.81C70,92.9,69.41,93.82,69,95.46Zm-4.63-9c8.17-4,8.71-6.39,1.54-15a29.43,29.43,0,0,0-3.82-3.91c-10.15-8.37-9.75-7.09-16.49,2.21-.17.22-.09.62-.13.94l1.65-1.64ZM21.93,91.21c5.1,8.45,11.18,15,19.67,19.61,1.73-2.31,3.18-4.26,4.09-5.49L27.26,87.2Z"/><path class="cls-3" d="M82.23,94l3.6,3.61L71,110.82c-.33-.49-1.5-2.2-2.72-4Z"/><path class="cls-3" d="M94.73,79.66l13.78-13.87,4.34,4-14,13.79Z"/><path class="cls-2" d="M127.34,76.8c6-9.13,6.2-9.62,16.24-1.07a32,32,0,0,1,2.48,2.46c8.28,8.73,8.05,10.48-.65,16.13C139.37,88.47,133.6,82.88,127.34,76.8Z"/><path class="cls-2" d="M108.73,94.86l18.1,17.32c-3,6.77-4.59,7.27-10.14,2.5a92.4,92.4,0,0,1-9.19-9.16C102.16,99.42,102.35,98.77,108.73,94.86Z"/><path class="cls-2" d="M64.35,86.48,47.1,69.11l-1.65,1.64c0-.32,0-.72.13-.94,6.74-9.3,6.34-10.58,16.49-2.21a29.43,29.43,0,0,1,3.82,3.91C73.06,80.09,72.52,82.44,64.35,86.48Z"/><path class="cls-2" d="M21.93,91.21l5.33-4,18.43,18.13c-.91,1.23-2.36,3.18-4.09,5.49C33.11,106.16,27,99.66,21.93,91.21Z"/></g></g></svg>
