<svg xmlns="http://www.w3.org/2000/svg" viewBox="0 0 292.56 349.27"><defs><style>.cls-1{fill:#341634;}.cls-2{fill:#b42dad;}.cls-3{fill:#501e54;}.cls-4{fill:#e9e9e9;}.cls-5{fill:#fefefe;}.cls-6{fill:#b3a9b3;}.cls-7{fill:#501f54;}.cls-8{fill:#fdfcfd;}.cls-9{fill:#fc97ee;}.cls-10{fill:#79849a;}.cls-11{fill:#e9e3e9;}.cls-12{fill:#f5f5f5;}.cls-13{fill:#f3f3f4;}.cls-14{fill:#6a7691;}.cls-15{fill:#dddcdd;}.cls-16{fill:#f894eb;}.cls-17{fill:#fa96ed;}.cls-18{fill:#f895eb;}.cls-19{fill:#f18fe5;}.cls-20{fill:#a2a2b0;}.cls-21{fill:#a5a7b1;}.cls-22{fill:#898ea2;}.cls-23{fill:#888ca1;}.cls-24{fill:#5a205d;}.cls-25{fill:#f78fea;}.cls-26{fill:#732374;}.cls-27{fill:#ef83e3;}.cls-28{fill:#ea7cde;}.cls-29{fill:#f085e3;}.cls-30{fill:#622164;}.cls-31{fill:#612163;}.cls-32{fill:#f1f0f1;}.cls-33{fill:#e1dae1;}.cls-34{fill:#f7f5f7;}.cls-35{fill:#d3c6d3;}.cls-36{fill:#e0d8e0;}.cls-37{fill:#957697;}.cls-38{fill:#825e84;}.cls-39{fill:#f391e6;}.cls-40{fill:#fb96ee;}.cls-41{fill:#f08fe4;}.cls-42{fill:#fc97ef;}.cls-43{fill:#fb97ee;}.cls-44{fill:#fc98ef;}.cls-45{fill:#532357;}.cls-46{fill:#542358;}.cls-47{fill:#f795ea;}.cls-48{fill:#f995eb;}.cls-49{fill:#f693e9;}.cls-50{fill:#f190e5;}.cls-51{fill:#4f1e53;}.cls-52{fill:#511f55;}.cls-53{fill:#56265a;}.cls-54{fill:#622b64;}.cls-55{fill:#e9e8e9;}.cls-56{fill:#e8e8e8;}.cls-57{fill:#f9f9f9;}.cls-58{fill:#f8f8f8;}.cls-59{fill:#e7e6e7;}.cls-60{fill:#f9f8f9;}.cls-61{fill:#e6e5e6;}.cls-62{fill:#f8f8f9;}.cls-63{fill:#8d758f;}.cls-64{fill:#978299;}.cls-65{fill:#7e6380;}.cls-66{fill:#927f93;}.cls-67{fill:#4c1d50;}.cls-68{fill:#4f2652;}.cls-69{fill:#491d4d;}.cls-70{fill:#49204c;}</style></defs><title>Asset 4</title><g id="Layer_2" data-name="Layer 2"><g id="Layer_1-2" data-name="Layer 1"><path class="cls-1" d="M26.39,130.35c1.12-3.49,1.88-6.53,3.09-9.39a9.29,9.29,0,0,1,3.11-3.68,5.47,5.47,0,0,0,2.66-5.47c-.12-1.15,0-2.33,0-3.5-.08-5.85,2.66-9.86,8.11-11.79a4.19,4.19,0,0,0,3.15-3.33,41.38,41.38,0,0,1,2.1-5.58c1.54-3.82,4.83-5.52,8.5-6.14A110.21,110.21,0,0,1,69.94,80.4c4-.2,4.12,0,5.28-3.72A14.38,14.38,0,0,1,81,69.34c2.12-1.53,2.75-3.12,2-5.46-1.23-3.93-.88-7.78.09-11.75C84.91,44.6,86.28,37,88.13,29.42a75.72,75.72,0,0,0,2.41-11.48c.23-2.64,2.5-5.32,4.38-7.53,2-2.37,4.75-4.13,7-6.31C108.27-2,119.64-1.17,125,5.79a30,30,0,0,0,4.18,4.09c4.12,3.57,6.77,7.68,5.59,13.47a10.09,10.09,0,0,0,.41,3.31c.68,4.57,1.34,9.13,2.06,13.69.56,3.54,1.2,7.08,1.84,10.87,5.33-1,10.06-1.69,14.4.61,1.33-2.44,2.69-4.71,3.81-7.09A10.75,10.75,0,0,0,158.2,41a16.81,16.81,0,0,1,4.17-10.39,12.16,12.16,0,0,0,2.7-5.67c1.2-6.87,6.38-11.16,13.38-10.61,2.15.17,4.33,0,6.5,0,7.71,0,12.07,4,13.41,11.76a9.12,9.12,0,0,0,2.69,4.49c4.09,4,6.15,8.53,4.43,14.34.73.77,1.46,1.45,2.07,2.23,2.68,3.37,4.49,6.94,2.82,11.42a17.59,17.59,0,0,0-1,4.34c-.26,2.35-.09,4.31,2.45,5.92,3.84,2.45,6.92,5.8,6.66,10.91,5.83,2.06,11.65,1.66,17.42,1.57a22.14,22.14,0,0,1,9.63,2.11c4.63,2.09,6.49,5.82,6.77,10.71a22.82,22.82,0,0,1-3.07,13.33c10.19,3.18,13.41,7,13,18a33.91,33.91,0,0,0,.11,3.49c0,.29.29.56.75,1.4,5.14,0,10.6,0,16,0a16.41,16.41,0,0,1,4.92.49c8.28,2.8,11.22,13.78,5.6,20.58-3.27,4-6.56,7.91-9.78,11.92-1.92,2.38-3.21,5-2.61,8.23,1,5.18,1.93,10.38,2.71,15.6.85,5.71,1.62,11.45,2.21,17.2.5,4.93.87,9.9,1,14.86.26,8.95-4.56,15.25-11.82,19.37-4.67,2.65-10.17,3.87-15.33,5.63-3.13,1.07-6.29,2.11-9.5,2.86-2.35.55-3.41,1.66-3.32,4.11.54,16.35-6.6,30-16,42.45-7.2,9.58-16,17.7-25.49,25.12-12.51,9.76-26.14,17.58-40.16,24.83-3.09,1.6-6.34,2.91-9.52,4.35a13.64,13.64,0,0,1-11.55.06,254.33,254.33,0,0,1-46.23-26.31A141.31,141.31,0,0,1,69,298.44c-9.77-11.32-17-24.15-19.59-39.13-.42-2.43-.14-5-.21-7.48-.1-3.57-.64-4.32-4-5.31-5.71-1.7-11.35-3.75-17.17-5C17.28,239.34,8.3,228.34,9.26,217.3c.63-7.24,1.52-14.45,2.41-21.67.77-6.22,1.71-12.42,2.55-18.63.09-.66-.14-1.41.1-2,2.41-5.83,0-10.11-4-14.23a75.77,75.77,0,0,1-7.75-9.7,13.73,13.73,0,0,1-1.3-13.72c2-4.84,5.86-7,11-7Z"/><path class="cls-2" d="M80.49,85.08c.12-2.72-.17-5.24.45-7.5a5.83,5.83,0,0,1,4.6-4.16c2.84-.55,3.73-2.46,3.69-5.07,0-1.5.44-3.25-.17-4.45C85.89,57.64,89,52,90.51,46.19a20.88,20.88,0,0,0,.82-4.66c.26-6,1.29-11.82,5.53-16.52-1.88-6.1-1.46-7.24,3.55-11.41,1.79-1.48,3.27-3.31,4.94-4.94,4.63-4.54,11-4.18,15.31.72A45.5,45.5,0,0,0,126,14.54c2.91,2.37,4.19,5.23,2.78,8.78-.65,1.63-.17,2.77.35,4.21.9,2.46,2,5.06,2,7.59-.09,5.71,1.27,11.14,2.15,16.68.45,2.86.48,5.78.75,9.22a5.25,5.25,0,0,0,2.35-.29,55.64,55.64,0,0,0,5.85-3.79,6.7,6.7,0,0,1,7.93-.23,55,55,0,0,1,5,3.25,6.13,6.13,0,0,0,6.11,1,20.54,20.54,0,0,0-.61-3.53c-1.92-5.36-1.11-7.72,3.83-10.63.42-.25.83-.53,1.22-.77a31.19,31.19,0,0,1-1.41-4.72,6.8,6.8,0,0,1,2.87-7c2.33-1.71,3.64-3.75,3.22-7.11-.52-4.15,2.93-7.45,7.38-7.76a44.6,44.6,0,0,1,7.49.08c4.88.46,7.67,3.74,7.84,8.64a10.48,10.48,0,0,0,1,3.51,3.94,3.94,0,0,0,1.3,1.49c5.23,3.9,6.31,8.67,2.83,14.29a34.59,34.59,0,0,1,4,2.37c2.53,2.06,3.27,4.69,2.83,8a105.5,105.5,0,0,0-.72,12.82,3.43,3.43,0,0,0,1.88,2.44c7.12,3,8,5,5.3,12.8,1.32.16,2.56.38,3.81.44,8,.37,15.92.67,23.88,1,5.29.25,8.59,4.3,7.7,9.42-.26,1.46-.31,3.14-1.09,4.3-2.5,3.69-1.42,7.65-1.57,11.69,2.4.5,4.68.79,6.84,1.46,3.78,1.16,5.13,3,5.19,6.88.07,4.49,0,9,0,13.84,1.34.14,2.6.37,3.87.38,5.49,0,11,0,16.49,0a20.65,20.65,0,0,1,4.45.4c5.19,1.16,8.06,6.92,4.46,11.61-2.63,3.43-5.3,6.82-8.09,10.13-7.07,8.39-7,8.34-5,19.17,1.19,6.5,1.84,13.09,2.76,19.64.8,5.74,1.43,11.51,2.49,17.19,1.71,9.18-3,18.53-11.79,21.67-7.62,2.73-15.48,4.8-23.23,7.17-1.41.43-2.79.93-4.08,1.36-.41,4.66-.67,9.11-1.21,13.53-1.54,12.58-7.28,23.37-14.87,33.21-11.21,14.55-25.24,26-40.88,35.41-9.8,5.89-20.12,10.93-30.24,16.28-3.46,1.84-6.94,1.64-10.51,0-18.1-8.49-35.55-18.13-50.92-31-12.56-10.53-23.72-22.38-30.41-37.73a61.25,61.25,0,0,1-5.26-29.63c-4.73-1.47-9.4-2.94-14.09-4.35-4-1.2-8-2.27-11.9-3.49-8.72-2.71-13-9.15-13.89-18.12-.26-2.74.47-5.59.87-8.37,1.92-13.26,3.9-26.51,5.8-39.77a7.87,7.87,0,0,0-1.85-6.89c-4.29-4.85-8.17-10.05-12.23-15.1-3.81-4.75-1.13-10.85,5-12a18.29,18.29,0,0,1,3.48-.21c4.16,0,8.33,0,12.49,0h5.06c.06-1.81.16-3.4.17-5,.05-8,1.28-9.43,9.31-10.46,1-1.34.69-2.56-.09-4a18.46,18.46,0,0,1-2-5.56c-.8-4.92,2.49-8.71,7.5-9l5-.29c-.27-2-.61-3.61-.67-5.23-.24-5.88,2.55-9,8.46-9.41s11.92-.69,17.89-1C79.4,85.31,80.18,85.12,80.49,85.08Z"/><path class="cls-3" d="M75.08,283.59c-1.14-.87-2.62-1.52-3.37-2.65-7.5-11.43-11.27-23.89-10.49-37.69.15-2.75,1.6-3.76,3.58-4.78a121.27,121.27,0,0,1,28.51-10.09,179.23,179.23,0,0,1,36.82-5.1c4.14-.09,8.26-.75,12.4-.8a255.71,255.71,0,0,1,39.66,2.75c12.5,1.82,24.74,4.47,36.5,9.14,2.93,1.16,5.79,2.5,8.71,3.68,2.58,1,3.69,2.68,3.85,5.66.7,13.45-2.95,25.61-10.22,36.78-.83,1.27-2.39,2.07-3.61,3.09-4.17-.91-6.3-3.28-5.71-7.6,1.33-9.79,1.17-19.93,6.09-29a1.77,1.77,0,0,0,.17-.47c.44-1.86,1.8-3.77-.24-5.51a1.85,1.85,0,0,0-2.31-.06c-2.16,1.31-2,3.26-1.36,5.29,2.24,7.58-.26,14.86-1.92,22-1.51,6.5-5.2,7-9.82,2.26-2.44-2.5-4.49-5.4-7.15-7.63-3.33-2.8-3.73-6.19-2.6-9.9,1.79-5.85,1.4-12,3.17-17.84-1.05,4.56-1.22,9.26-2.24,13.84-.5,2.26-.52,4.87-3.31,5.63s-3.52-2-5-3.33c-.37-.34-.71-.71-1.06-1.06-1.55-1.64-3.33-3.06-4.14-4.38a37.37,37.37,0,0,0,3.84,4.08c9.82,10.67,19.23,21.71,28.9,32.52a10.42,10.42,0,0,1,2.42,5.83l-4.69,5.1c-3.3-.2-4.65-3-6.37-5.08a93.23,93.23,0,0,1-7-9,25.73,25.73,0,0,0,1.64,6.41c2.75,7.27,1.76,10.71-4.25,15.63-6.84,7.81-15.61,8.68-23.62,2.16a9,9,0,0,0-6-1.94c-12.14-.05-24.27-.07-36.41,0a8.89,8.89,0,0,0-5.6,1.65c-9.33,7-17.35,6.06-25.15-2.86-3.77-2.71-5.39-6.53-4.15-10.86,1.5-5.23,2.36-10.62,3.54-14.16-2.65,4.56-7.06,9.91-11.36,15.34a4.4,4.4,0,0,1-3.91,1.79A5,5,0,0,1,78,288.3c-.7-2.83,1.07-4.68,2.62-6.64,6.76-8.57,14.57-16.23,21.58-24.62A88.32,88.32,0,0,1,111.62,247c.9-.92,1.86-1.79,2.29-2.36a37.12,37.12,0,0,1-2.65,2.72,35.94,35.94,0,0,0-4.5,5.34c-1.06,1.44-2.32,3-4.54,2.2a4.63,4.63,0,0,1-2.91-4.31c-.48-5.41-2.41-10.63-2.1-16.13-.17,3.87.81,7.63,1.43,11.4a81.74,81.74,0,0,0,1.69,9.28c.75,2.62-.06,4.76-2,6.77-3,3.08-5.88,6.34-8.87,9.46-3.38,3.54-6.42,3.4-8-1.09-2.57-7.32-4.79-14.88-3.08-22.84.35-1.65.82-3.25.25-4.9a2.44,2.44,0,0,0-2.54-2c-1.4.11-1.88,1.26-2.08,2.45a5.4,5.4,0,0,0,.78,3.36c4.92,9.59,5,20.19,6.18,30.52C81.44,281.13,79.3,283.11,75.08,283.59Z"/><path class="cls-3" d="M114.19,139.38H89.69c0-5.54,0-10.62,0-15.71,0-1.48.37-3,.45-4.44.55-10.61,1.1-21.22,1.55-31.83a4.6,4.6,0,0,0-1.08-2.35c-.92-1.35-2-2.62-3.18-4.24l6-1.79c4.09-6.2,3.18-13,2.29-20.2l3.24-1c.17-5.42,2.46-10.85.14-16.72L104,40.07c.21-6.19,2.58-12.44,0-19.37,1.58-1.49,3.53-3.38,5.53-5.21,3.44-3.15,3.45-3.14,5.63.82,2.4,1.54,2.93,4,2.71,6.5-.41,4.62.2,9.27-.57,13.89-.35,2.08-.22,4,2.19,5.51,3.16,1.93,1.83,5.5,1.56,8.24-.71,7.45,2.82,14.41,2.12,21.81,0,.43.59.75,1,1a9.12,9.12,0,0,1,4.65,8.32c0,3.29-.52,6.57-.84,10.21-3,.38-3.66,2.81-4.36,5.48-.89,3.45-.81,7.28-3.5,10.11a100.62,100.62,0,0,0-1.7,15.57,129.54,129.54,0,0,1-1.66,14.16A4.22,4.22,0,0,1,114.19,139.38Z"/><path class="cls-3" d="M175,107.27c-2.89-.85-4.2-2.84-4.82-5.75s-1.85-5.9-2.74-8.86a12.42,12.42,0,0,1-.26-2.45c-.23-2.63-.59-5.25-.62-7.88,0-1.62-.11-3.85.83-4.74,2.36-2.19,1.81-4.73,1.84-7.26,0-3.15.09-6.31-.1-9.46-.14-2.21-.67-4.4-1.1-7.06,1.85-1.05,4.25.13,6.66.24,1.49-5,0-9.17-2.92-12.66,1-1.17,1.77-2,2.43-3s1.07-2.74,2-3.22c3.46-1.72,3.45-4.38,2.28-7.82h3.69c1.29,3.75,2,7.5,5.26,10.62,2.94,2.76,1.55,7.56,1.74,11.5.17,3.38-.74,7,4.21,8.12,1.78.39,1.9,2.58,1.8,4.28-.25,4.17.57,8.27.58,12.43,0,2.77,0,5.69,2.63,7.69a3.47,3.47,0,0,1,1.27,3.13c-.55,5.84,1.35,11.53,1,17.33-.46,8.32,1.67,16.53,1,24.86-.14,1.77.44,3.72-1.3,5.08-.11,2.12-.23,4.24-.39,7H178.26a3.19,3.19,0,0,1-2.32-1.48c-1.9-8.45-2.08-17.09-2.8-25.67A6.42,6.42,0,0,1,175,107.27Z"/><path class="cls-4" d="M98.18,298.63c1,.76,2.33,1.32,3,2.32a9.36,9.36,0,0,0,8,4.31,60,60,0,0,0,7-.1c3.51-.22,5-2.88,6.35-5.79H171c1.46,3.76,3.89,6.05,8.49,6,5.11-.1,10.08.28,13.08-5,.3-.53,1-.83,1.51-1.23,2.37,1,5.83-.35,7,3.24a110.74,110.74,0,0,1-21.74,16.09c-8.37,2.14-16.89.83-25.33,1.18-1.67-.5-2.57-1.88-3.69-3.09-3.14-3.42-7.5-2.5-9.17,1.84-1,2.6-1.42,5.39-2.44,8-.72,1.83-1.22,3.83-3.59,4.26-5.69-3-11.66-5.48-17-9-9-5.82-17.55-12.25-26.26-18.46a9.75,9.75,0,0,1-1.58-1.84C91.89,297.44,95.37,299,98.18,298.63Z"/><path class="cls-5" d="M175,107.27q1.23,15.47,2.45,30.92c.36,5.26-.21,6.12-5.05,6.14q-26.14.13-52.29,0c-5.08,0-5.65-1-5-7.11l2.32-30,2.75.23,3.1,1.64c8.21,1.68,14.82-2.74,21.81-5.72a4.16,4.16,0,0,1,2.37,0c6.77,3.84,13.64,7.31,21.83,5.72Z"/><path class="cls-3" d="M82.23,139.34H41.84c-1.87-3.88-1.65-7.6-1.28-11.59l9.73-1.25c-.51-6.07,1.49-11.83-2.41-17.8l14.41-.77c0-3.06.11-5.86-.08-8.63-.05-.77-1-1.46-1.53-2.24s-1.18-1.71-1-2A4.72,4.72,0,0,1,62,93.57a10.14,10.14,0,0,1,2.48-.13c3.8-.28,7.6-.63,11.4-.87C77.8,92.45,80,91.9,81,94.4c2.23,1.23,1.71,3.39,1.72,5.3.05,6.62.24,13.25,0,19.86-.22,5,1.62,9.76,1.11,14.75C83.58,136.13,83.81,138,82.23,139.34Z"/><path class="cls-3" d="M236.24,119.35l13.2,1.76c-.41,6.19-.79,11.92-1.18,17.94H211.45c-.1-1.58-.27-3-.27-4.46,0-8.81.14-17.62.1-26.42,0-4.74-.26-9.47-.41-14.49,7.57-1.21,15.43.71,23.33.72,2.79,3.51,1.4,7.45,1.07,11.24C234.87,110.28,233.48,115,236.24,119.35Z"/><path class="cls-6" d="M115.06,137.22c.11,1.48.21,2.95.32,4.38,3.64.94,54.68,1.21,61.55.31.16-1.18.33-2.45.51-3.72l.82,1.22c0,.82.09,1.63.16,3h5q45.48,0,91,0c1.65,0,3.3.11,4.95.19.1,0,.26.26.25.38s-.19.27-.29.4c-1.82,1.29-3.64,2.15-6,1.31-1.72-.61-3.63-.26-5.46-.26H188.46c26.48,0,52.95,0,79.43.08,1.83,0,4.84-1.55,5.21,2.27-2.63,1.74-5.62,1.87-8.62,1.87q-118.35.06-236.7,0c-2.84,0-5.67-.18-8.21-1.66-1.16-1.57.05-2.07,1.2-2.36a17.65,17.65,0,0,1,4.48-.2H101.7c-26,0-52,.06-78-.08-3.48,0-7.27,2.18-10.49-1,1.85-1,1.85-1,2.91-1h97.81l.28-3Z"/><path class="cls-7" d="M169.24,109.06c-8.2,2.19-15.77,1.42-22.17-4.78.25-2.58,2.78-4.49,2.08-7.42-.39-1.61-.21-3.63-2.45-3.7s-2.8,1.74-3.3,3.65c-.79,2.94,1.83,4.84,1.94,7.45-6.39,6.12-13.9,7.09-22.11,4.81,2.24-.26,4.48-.59,6.73-.76,1.63-.12,3.09-.45,3.11-2.37.06-5.6,0-11.19-.07-16.78a5.34,5.34,0,0,0-.77-1.79c1.46-1.24,3.53.29,5-1.08,0-3.64,0-7.27.06-10.9.06-2.51.1-5-2.39-6.21l10.31-4.84c7,2.18,8.57,4.17,8.56,11.12,0,2.82,0,5.65,0,8.47,0,1.51-.12,3.27,1.58,3.86,3.18,1.09,2.79,3.59,3,6.09.31,4.76-1,9.63.95,14.28Z"/><path class="cls-8" d="M75.08,283.59c1-.92,1.87-1.91,2.88-2.76a3.93,3.93,0,0,0,1.26-4c-1-7.18-1.9-14.39-3-21.57a20.62,20.62,0,0,0-2-4.87c-.75-1.66-1.54-3.31-2.42-4.91a4.2,4.2,0,0,1,.71-5.44c1.12-1.17,2.06-2.52,3.25-4,.62.69,1,1.52,1.69,1.83,5.44,2.54,4.36,6.92,2.78,11a10.46,10.46,0,0,0-.43,6.7c.39,1.6.4,3.31.81,4.91,1.12,4.28,2.35,8.53,3.52,12.7L99,259.35c-1.07-9-.77-17.58-6-24.75l3.43-4.52c4.2,2,4.44,4.95,3.4,9-1.35,5.3.29,10.43,3,15.69l8.45-8.42c.91-.23,1.32,0,1,1Q97,265.54,81.75,283.66c-1.28,1.52-2.51,3.09-3.76,4.64C76.3,287.17,75,285.81,75.08,283.59Z"/><path class="cls-8" d="M184.17,249.4l5.73,5.23c2.69-5.47,4.47-10.85,2.69-16.77-1.08-3.6-.05-6.05,3.43-7.48,3.86,3.83,4.25,4.22,1.87,7.73-2.91,4.28-2.61,9.16-3.58,13.8-.46,2.23-.27,4.59-.42,7.84l14.18,12.73c3.42-5,3.89-11.64,5-18.06.25-1.5-.33-3.16-.62-4.72s-.62-2.93-1-4.38c-.74-2.88-.29-5.19,2.63-6.69a18.48,18.48,0,0,0,3.15-2.69c.48.91.8,1.62,1.21,2.26,1.05,1.63,3.07,3.28,3,4.84a12.4,12.4,0,0,1-2.75,6.79c-1.75,2.12-2.18,4.34-2.5,6.83-.89,6.86-1.92,13.69-2.75,20.56a5,5,0,0,0,1,3.07,28.38,28.38,0,0,0,3,3.29c-.76,1.58-1.53,3.15-2.29,4.72-7.84-9.14-15.71-18.26-23.52-27.43-2.89-3.39-5.66-6.88-8.49-10.32C182.76,249.52,183.26,249.28,184.17,249.4Z"/><path class="cls-9" d="M200.44,132.39q-1-23.14-2.09-46.29c0-.8-.14-2.21-.48-2.3-4.3-1.13-2.76-4.84-3.1-7.4-.6-4.59-.48-9.28-.7-13.93-.06-1.29-.26-2.57-.41-4l-5-.94c-.35-4.72-.78-9.45-1-14.19-.16-3-.95-5.44-3.58-7.27a5.25,5.25,0,0,1-1.62-3.27,41.35,41.35,0,0,1-.23-5.47h2.61c-.87,3.39-1.1,6.13,2.46,7.83,1.17.56,1.83,2.27,2.63,3.52s1.4,2.48,2.29,4.09c-3.4,3.3-1.52,7.65-1.87,12.1l6.11.74c0,4-.15,7.75,0,11.5s.74,7.58,1.16,11.67l7.44,1.9c-.21.69-.2,1.37-.51,1.58-4.59,3.15-3.25,7.79-3.08,12.1.13,3,.55,5.94.75,8.91q1,14.4,1.82,28.81a49.72,49.72,0,0,1,0,6c0,.42-.83,1.09-1.29,1.1a1.74,1.74,0,0,1-1.37-1C201,136.26,200.75,134.32,200.44,132.39Z"/><path class="cls-3" d="M135.14,330.6c1.78-6,3.57-12,5.4-18.05h10.77c.68,1.86,1.4,3.83,2.11,5.8,3.5,3.46,5.5,7.28,3,12.22-2,3.53-5.89,4.07-9.09,5.39-1.52.63-4.05-.72-5.93-1.59A67.2,67.2,0,0,1,135.14,330.6Z"/><path class="cls-10" d="M206.2,226.45c-7.61-1.51-15.2-3.13-22.84-4.49a98.2,98.2,0,0,0-12.78-1.55c-11.27-.49-22.55-1-33.83-1a173.76,173.76,0,0,0-33,3.56c-5.83,1.14-11.66,2.31-17.49,3.46a2.59,2.59,0,0,1-.7-2.55c1.13-2.69,3.69-3.11,6.08-3.76,9.65-2.59,19.55-3.7,29.43-5,12.77-1.63,25.58-1.17,38.35-.9,14.14.3,28.09,2.58,41.86,5.79,2.31.53,4.51,1.23,5.93,3.32A2,2,0,0,1,206.2,226.45Z"/><path class="cls-11" d="M13.19,143.33c33.21-.13,66.43,0,99.64-.07l.16,1.24a8.2,8.2,0,0,1-2.33.78c-5.83.07-11.66.06-17.49.06-23,0-46,0-68.95,0-1.6,0-3.66-1-4.84,1.14,12.9,9.16,17.93,16.26,12,31.44-1.34,1-2.53,3.77-4.31.44.41-3.76.45-7.62,1.37-11.27.77-3.09-.52-5-2.2-7.09-3.56-4.35-7.16-8.65-10.68-13A39.6,39.6,0,0,1,13.19,143.33Z"/><path class="cls-11" d="M273.08,146.54a9,9,0,0,0-2.83-1.15c-3.82-.13-7.65,0-11.48,0H179l-.2-.76a10.53,10.53,0,0,1,2.2-1.2,9.29,9.29,0,0,1,2.48-.11q47.91,0,95.81.06c-3.83,5-7.31,10.31-11.62,14.84-3.6,3.78-3.88,7.74-3.12,12.33.38,2.28.48,4.6.71,6.9-1.39,1.06-2.59.57-3.74-.43-3.3-7.5-4.71-14.75,1.84-21.54C266.42,152.24,268.46,148,273.08,146.54Z"/><path class="cls-12" d="M98.18,298.63c-2,2.8-5.41,1.38-7.89,2.71l-8.44-8.85,17.78-23.68.87.35c-1.53,6.21-3,12.43-4.61,18.6C94.81,291.84,94.52,295.62,98.18,298.63Z"/><path class="cls-13" d="M201.1,302.33c-2.24-1.29-5.71.07-7-3.24,4.31-3,5.1-6.41,3.38-11.53-1.49-4.45-2.39-9.11-3.55-13.67l1.05-.45,15.47,20Z"/><path class="cls-14" d="M86.13,224.16l.13,2.31c-4.89,1.89-9.82,3.7-14.67,5.68a66.37,66.37,0,0,0-8.47,4,6.51,6.51,0,0,1-5.62.82c-9.13-2.77-18.29-5.46-27.44-8.21-3.31-1-5.91-2.83-6.84-6.41.56-2.75-1.41-6,1.64-8.27,1.7.52,2.25,1.94,2.4,3.45.43,4.37,3.26,6.3,7.09,7.29,7.08,1.84,14,4.08,21.06,6.13a9.9,9.9,0,0,0,8.14-.75c4.79-2.71,10-4.52,15.15-6.37C81.12,223,83.76,221.74,86.13,224.16Z"/><path class="cls-14" d="M206.2,226.45l1-2c1.92-2.29,4.28-1.36,6.4-.65a108.66,108.66,0,0,1,15.63,6.31,11,11,0,0,0,9,.74,173.2,173.2,0,0,1,17.6-5.11c5-1.09,8.27-4.39,11.67-7.69,1.69-.12,2,1.26,2.64,2.35a9.63,9.63,0,0,1-7.08,8.12c-9.45,3-19,5.81-28.46,8.6a5.49,5.49,0,0,1-3.35-.18C222.9,233.49,214.56,230,206.2,226.45Z"/><path class="cls-15" d="M156.46,330.57q-1.52-6.1-3-12.22a65.93,65.93,0,0,1,23.48-.19c.81.13,1.64.18,2.46.26-6.52,3.83-13,7.7-19.57,11.45A11.33,11.33,0,0,1,156.46,330.57Z"/><path class="cls-16" d="M124.18,73.31l-3,1c0-3.39,0-6.3,0-9.2a15.39,15.39,0,0,0-1-5.67c-.91-2.3-.36-5.19-.4-7.82s0-5.26,0-8l-3.32-1a16.34,16.34,0,0,1-.22-2c.1-5.82.37-11.64.28-17.45,0-2.25-.86-4.49-1.33-6.73a9.17,9.17,0,0,1,2.68,1.31,34.24,34.24,0,0,1,2.9,3.79c-3.18,5.81-.36,12.3-2.93,18.46l5.29.65c.11.25.38.58.3.74-2.25,4.76-.89,9.8-1,14.7,0,.64,1.61,1.33,1.79,1.47Z"/><path class="cls-17" d="M82.23,139.34,81,94.4c.34-1.57,1.36-2.12,2.91-2,2,.12,3,1.39,1.59,2.79s-1.22,3-1.22,4.56c0,7.64,0,15.29.11,22.94.09,4.63.45,9.25.75,13.87C85.27,138.7,84.39,139.64,82.23,139.34Z"/><path class="cls-18" d="M159.22,108.16c-1.48.21-2.14-.46-2.14-1.94,0-3.49,0-7,0-10.48,0-1.83,0-3.65,0-5.76l-4.71-1.22c0-4.94-.17-9.91.07-14.87.14-3-.62-5.08-3.3-6.56a33.15,33.15,0,0,1-4-3c1.34-1.9,2.51-.54,3.75.18,2.78,1.61,5.59,3.18,8.51,4.85-2.25,1.58-2.3,4.34-2.16,7.19.09,2,0,4,0,6,.09,4,.11,4,3.92,5Z"/><path class="cls-19" d="M236.24,119.35l-2.92.17c.3-8.54.59-16.83.88-25.12a18.87,18.87,0,0,1,2,0c3.39.36,3.35.35,1.5,3.69a5.48,5.48,0,0,0-.46,2.37C236.88,106.75,236.57,113.05,236.24,119.35Z"/><path class="cls-20" d="M27.09,178.41c2,2.34,2-.7,3.06-1.08,1.58,1.09,1.61,2.68,1.49,4.38a77.79,77.79,0,0,1-2.95,17.86c-1.18,1.38-2.2,3.18-4.48,1.8.05-1,.11-2,.16-3,.84-1.22-.16-2.81.82-4Z"/><path class="cls-21" d="M262.34,176.32l2.91,1.08,2,15.91c.79.87.13,2.12.77,3l.14,3c-2.26,1.3-3.26-.44-4.42-1.81-1.77-5.48-2.17-11.2-2.92-16.87C260.63,179,260.74,177.4,262.34,176.32Z"/><path class="cls-22" d="M265.41,197.33l2.79,2c.92,5.6,1.94,11.18,2.71,16.8.18,1.35-.47,2.81-.73,4.21l-2-2.07a4.24,4.24,0,0,1-1.65-1.71,14.73,14.73,0,0,1-1.28-3.88c-.28-3.43-1.17-6.76-1.5-10.18C263.56,200.51,263.38,198.6,265.41,197.33Z"/><path class="cls-23" d="M24.21,201.37l2.8-2.05c3,4.17,2.07,11.2-1.92,15-.3,1.17-.61,2.33-.88,3.51-.35,1.51-.66,3-1,4.54-.33-2.51-1.1-5-.91-7.52C22.65,210.34,23.54,205.86,24.21,201.37Z"/><path class="cls-24" d="M129.37,107.13H124.3c.41-2.2.72-4.09,1.12-6a13.81,13.81,0,0,1,2-5.09C128,99.65,128.67,103.21,129.37,107.13Z"/><path class="cls-25" d="M166.18,96.09l2.49,11-5.15.27,1.9-11Z"/><path class="cls-26" d="M133.71,77.61c2.23,2.1,1.53,4.48,1.42,6.67,0,.38-1.14,1.11-1.36,1-.58-.33-1.39-1.09-1.33-1.59C132.67,81.75,133.21,79.86,133.71,77.61Z"/><path class="cls-27" d="M158.92,78.11a38.72,38.72,0,0,1,1.2,5.23c.06.63-.89,1.35-1.38,2-.5-.68-1.45-1.38-1.41-2a37.48,37.48,0,0,1,1-5.18Z"/><path class="cls-28" d="M124.58,49.17c1.69,1.77,2.28,4.28,1.23,5.54a1.39,1.39,0,0,1-1.25.39,4.08,4.08,0,0,1-1.16-1.27c-.07-.09,0-.32,0-.47C123.82,52,124.2,50.58,124.58,49.17Z"/><path class="cls-29" d="M122.57,31.52c2.44,5.47,2.3,6.16-1.23,6.45C121.71,36,122.07,34.15,122.57,31.52Z"/><path class="cls-30" d="M97.29,50.11a31.55,31.55,0,0,1,.82,4.69c0,.48-1,1-1.47,1.51-.42-.56-1.25-1.17-1.19-1.68a29.52,29.52,0,0,1,1.06-4.29Z"/><path class="cls-31" d="M100.83,33.09c-.21,2,2,4.24-.88,6.46C98.6,36.88,99.27,34.94,100.83,33.09Z"/><path class="cls-26" d="M137.19,86.29c-1.31,1.94-3.3.76-5,1.08.22-.34.41-1,.65-1C134.31,86.29,135.75,86.31,137.19,86.29Z"/><path class="cls-23" d="M25.19,194.34l-.82,4Z"/><path class="cls-22" d="M268.06,196.34c-.25-1-.51-2-.77-3C267.55,194.32,267.81,195.33,268.06,196.34Z"/><path class="cls-5" d="M170.71,250.62h5.8c-.13,1.89-.24,3.49-.34,5-1.34,1.17-4.4-.15-3.81,3.34.2,1.18-2.3,2.63-3.07,4.2-1.84,3.72-3.21,7.67-5.07,11.38a19.74,19.74,0,0,1-27.56,8.58,18.27,18.27,0,0,1-5.91-5.89c-1.9-2.88-3-6.24-4.61-9.36s-1.85-6.84-5.21-8.82c.78-3-1.66-2.68-3.54-3-.21-1.77-.39-3.38-.62-5.36h5.76c.64-1.86,1.16-3.58,1.82-5.24,1.6-4,4.46-6.6,8.82-7.18a98,98,0,0,1,27.37.06c4.15.61,6.87,3.17,8.49,6.92C169.69,246.79,170,248.44,170.71,250.62Z"/><path class="cls-32" d="M100.76,293.65c.37-4.69.37-4.8,3.44-4.84,6.33-.08,12.66,0,19,0h64a9.52,9.52,0,0,1,3,.08c.93.34,2.18,1.09,2.37,1.88s-.72,2.55-1.29,2.61c-2,.24-2.41,1.71-2.81,3.06-.76,2.57-2.58,3.29-4.93,3.28-1.5,0-3-.12-4.49-.17-2.26-.07-2.75-1.42-2.48-3.54l5.65-2.31H111.52l5.42,2.34c.19,2-.07,3.54-2.71,3.53-1.32,0-2.65.26-4,.23-2.45-.06-4.55-.65-5.3-3.5C104.47,294.42,103.47,292.87,100.76,293.65Z"/><path class="cls-8" d="M191,286.21h-7.11c.92-1.84,1.8-3.63,2.68-5.41-4.73,4.83-10.32,6-16.53,5.6-3.31-.2-6.65,0-10.72,0,5-4.3,7.44-9.4,9.24-15a14.49,14.49,0,0,1,3.89-5.69c5.37-5.07,13.16-3,15.36,4.37C189.27,275.11,189.85,280.42,191,286.21Z"/><path class="cls-8" d="M134.41,286.36c-5.81,0-10.62,0-15.42,0s-8.35-2.54-12.11-5.53l2.54,5.25h-6.21a41.37,41.37,0,0,1,2.83-17c2.64-6.74,10.36-8.2,15.37-3a19.9,19.9,0,0,1,3.9,6.78C127.14,277.75,129.32,282.31,134.41,286.36Z"/><path class="cls-33" d="M184.17,249.4l-1,1.15-9.27-10.44.94-.87C177.83,242.72,181.54,245.51,184.17,249.4Z"/><path class="cls-34" d="M149,234.2h-4.79c.21-1.84-.42-4.12,2.14-4.23C149.11,229.84,147.92,232.52,149,234.2Z"/><path class="cls-35" d="M112.25,247.4l-1-1q3.68-4,7.34-8.06l1,.94Q115.94,243.33,112.25,247.4Z"/><path class="cls-36" d="M146.5,225c.44,1.06.94,1.67.8,2.06s-.86.72-1.39.88a1.61,1.61,0,0,1-.66-1.09C145.36,226.31,145.84,225.88,146.5,225Z"/><path class="cls-37" d="M169.73,235.15a13.42,13.42,0,0,1-1.58-1.42,2,2,0,0,1-.3-1.92,14,14,0,0,1,1.64,1.41,7.57,7.57,0,0,1,.77,1.5Z"/><path class="cls-38" d="M125.3,232.61l-2,1.79-.54-.64,2-1.79Z"/><path class="cls-9" d="M100.47,106.77c.26-4.6.35-8.35.79-12.07a3.35,3.35,0,0,1,2.27-2,62.15,62.15,0,0,1,7.15-.54,31.39,31.39,0,0,1,0,11.48,3.93,3.93,0,0,1-2.53,2.48C105.94,106.59,103.61,106.53,100.47,106.77Z"/><path class="cls-39" d="M111.19,72.26c.14-2.54.14-4.84.41-7.1.22-1.78,1.14-3.11,3.25-2.91,2,.18,2.29,1.55,2.28,3.16,0,1.15,0,2.31,0,3.45C116.86,72.84,116.24,73.24,111.19,72.26Z"/><path class="cls-40" d="M114.31,35.81l-6.06.68c0-2.7-.15-5,0-7.22a2.93,2.93,0,0,1,3.41-2.84c1.76.13,2.61,1.25,2.61,3Z"/><path class="cls-17" d="M107.39,73.29l-5.81.25a68.37,68.37,0,0,1,.78-8.5,4,4,0,0,1,2.76-2.26c1.56-.29,2.24,1.07,2.26,2.57C107.41,67.81,107.39,70.26,107.39,73.29Z"/><path class="cls-41" d="M112.27,53.91c0-2.64-.1-4.92,0-7.19.09-1.49,1.14-2.59,2.61-2.18a3.66,3.66,0,0,1,2,2.33,12.75,12.75,0,0,1,0,3.9C116.71,54,116.63,54.06,112.27,53.91Z"/><path class="cls-16" d="M108.19,54.49l-4.3.33c.12-2.7.23-5,.32-7.26a2.38,2.38,0,0,1,2.5-2.55c1.63,0,2.22,1.35,2.13,2.83C108.72,49.82,108.46,51.79,108.19,54.49Z"/><path class="cls-42" d="M181.27,58.37a10,10,0,0,1,10.23,9.9c.05,4.82-3.17,8-8.07,8.1a10.24,10.24,0,0,1-10.55-10.18C173,61.52,176.33,58.38,181.27,58.37Z"/><path class="cls-43" d="M191.1,106c-.73.41-1,.72-1.3.71-8.42-.1-8.61-.24-9.14-8.66a45.78,45.78,0,0,1,.21-5.09c.72-.36,1-.62,1.3-.63,8.64-.19,8.7-.13,8.92,8.66C191.13,102.71,191.1,104.47,191.1,106Z"/><path class="cls-44" d="M185.43,52l-7.07-.53c-.1-2.09-.21-3.87-.26-5.66s.77-3.19,2.8-3.36A3.56,3.56,0,0,1,185,45.18C185.44,47.07,185.29,49.08,185.43,52Z"/><path class="cls-45" d="M144.25,116.48v6.58c1.92.61,3.37.94,3.38-1.74,0-1.46,0-2.92,0-4.77l4.9-.41V136l-4,.38a6.19,6.19,0,0,1-.72-1.62c-.12-1.65-.11-3.31-.21-5-.11-2-1.38-2-3.19-1.54-.1,2.35-.21,4.79-.35,7.77l-5,.38V116.57c1.17-.16,1.94-.33,2.71-.36A19.6,19.6,0,0,1,144.25,116.48Z"/><path class="cls-45" d="M155.23,116.45h10.71c.13,3.47.13,3.47-5.22,4.2-.87,2.69.74,3,2.8,2.88,3-.13,3.27,1.5,2.49,4l-4.71.81c-1,2.62-.06,3.35,2.35,3.53,3.57.26,3.56.41,3.4,4.27H155.68C155.14,129.73,155.23,123.35,155.23,116.45Z"/><path class="cls-46" d="M133.16,136.15h-4.78V120.9a7.69,7.69,0,0,1-2.22-1.14,2.52,2.52,0,0,1-.63-2.1,2.27,2.27,0,0,1,1.63-1.38c3.26-.13,6.54-.06,10.74-.06-.77,1.74-1.08,3.55-1.7,3.67-2.64.49-2.33,2.3-2.41,4.11C133.62,127.92,133.39,131.84,133.16,136.15Z"/><path class="cls-47" d="M145.34,104.26l-4-.92c0-2.6-.15-5.23,0-7.83.24-3.36,2.42-5.29,5.44-5.14s4.39,1.71,4.53,5.29c.09,2.62,0,5.26,0,7.82l-4.32.8Z"/><path class="cls-16" d="M65.53,98.54c6.21,0,6.59.33,6.58,4.55s-.24,4.29-6.58,4.3Z"/><path class="cls-48" d="M79,111.9v8.66l-4.31-.34C73.34,114,73.05,112.08,79,111.9Z"/><path class="cls-19" d="M72.4,127.27a46.08,46.08,0,0,1-.07,5.72c-.1.77-1.06,2.11-1.46,2-1.16-.18-2.75-.64-3.23-1.52C66.1,130.75,67.69,128.36,72.4,127.27Z"/><path class="cls-49" d="M224.25,100.56l5.75-1v9.4C223.71,109.22,222.17,107.74,224.25,100.56Z"/><path class="cls-19" d="M215.65,120.12a11.68,11.68,0,0,1-.42-2c0-1.95,0-3.91,0-5.84a3.24,3.24,0,0,1,4.88.61,9,9,0,0,1,.35,6.1C219.79,121,217.55,120.42,215.65,120.12Z"/><path class="cls-50" d="M221.22,127.57c4.63.37,6.28,2.7,4.66,6a3.29,3.29,0,0,1-2.69,1.46c-.73-.07-1.71-1.33-1.89-2.21A29.69,29.69,0,0,1,221.22,127.57Z"/><path class="cls-51" d="M25.09,214.33l1.92-15q1.57-11,3.14-22c.51-3.77.84-7.59,1.61-11.31a6.44,6.44,0,0,0-1.52-5.92c-3.69-4.46-7.25-9-10.86-13.57,1.5-.08,3-.24,4.48-.25q63.44-.09,126.87-.16,58.94,0,117.88.16c1.49,0,3,.17,4.47.26-3.49,4.39-6.94,8.83-10.51,13.16-1.45,1.76-2.23,3.36-1.69,5.81.79,3.54,1,7.2,1.46,10.81q1.53,10.5,3.07,21,1,8,2,16c.63.94,0,2.19.77,3.09v1.85c-1,5.27-4.78,7.5-9.51,8.81-7.63,2.12-15.27,4.23-22.82,6.62-2.35.75-3.94.17-6-.84-7.25-3.55-14.55-7.09-22.63-8.47-9.22-3.43-18.92-4.58-28.55-6.1-15.51-2.44-31.13-2.33-46.72-1.76a225.3,225.3,0,0,0-27.11,3.15c-6.31,1-12.48,2.93-18.71,4.45-7.24,1.25-13.92,4.15-20.38,7.47-4,2.06-7.53,3-12.08,1.21a130.61,130.61,0,0,0-18-5.39C26.2,225.16,24.88,223,25.09,214.33Z"/><path class="cls-18" d="M150,83.3h-7.39c.17-2.87.38-5.61.49-8.36a3.19,3.19,0,0,1,3.52-3.35,3.28,3.28,0,0,1,3.31,3.17C150.14,77.51,150,80.31,150,83.3Z"/><path class="cls-14" d="M268.17,216.45c-.26-1-.51-2.06-.77-3.09C267.66,214.39,267.91,215.42,268.17,216.45Z"/><path class="cls-3" d="M146.46,241.05c4.45.36,8.94.44,13.34,1.15a7.66,7.66,0,0,1,6.48,7.18c.25,2.69-.51,3.81-3.17,3.93a36.75,36.75,0,0,1-7-.38,66,66,0,0,0-19.35,0,38.4,38.4,0,0,1-6.95.3c-2-.07-2.86-1.35-2.8-3.36a7.76,7.76,0,0,1,6.51-7.72C137.78,241.46,142.12,241.41,146.46,241.05Z"/><path class="cls-52" d="M148.39,267.21c0,3.15.12,6.31-.08,9.45-.06.88-1.08,1.69-1.65,2.54-.53-.74-1.49-1.46-1.5-2.21-.12-6.63-.12-13.28,0-19.91,0-.68,1.06-1.33,1.62-2,.54.72,1.49,1.42,1.53,2.17C148.48,260.56,148.38,263.89,148.39,267.21Z"/><path class="cls-53" d="M179,269.58a4.42,4.42,0,0,1,4.23,4.65,4,4,0,0,1-4.39,4.3,4.43,4.43,0,0,1-4.39-4.46A5,5,0,0,1,179,269.58Z"/><path class="cls-46" d="M114.37,269.58a4.56,4.56,0,0,1,4.37,4.52,4,4,0,0,1-4.21,4.43,4.09,4.09,0,0,1-4.36-4.32A4.42,4.42,0,0,1,114.37,269.58Z"/><path class="cls-54" d="M183.84,60.34c2.24,3.7.19,6.19-1.24,9.51l-5-4.78.38-.72,3.49.7C182.23,63.52,183,61.93,183.84,60.34Z"/><path class="cls-4" d="M251.3,214.3l-11.11-32.88c-1.76-1.1-1.2.24-1.13,1.07,1.15,10.15,2.29,20.31,3.52,31.15-2.14-.48-3.5-.91-4.89-1.08-2.51-.32-3.17-1.93-3.4-4.13-.94-9.07-2-18.12-2.95-27.18-.33-3-.62-5.92-.92-8.87,4.76-1,9.31-1,12.94,3q2.22,5.68,4.43,11.37l.58-.11q-.51-5.61-1-11.23c2.74-2.38,4.93-1,7,1,.81,5.23,1.71,10.45,2.41,15.69,1.18,8.7,2.23,17.42,3.33,26.14C253.79,219.63,252.85,219.21,251.3,214.3Z"/><path class="cls-4" d="M225.3,173.38A93.39,93.39,0,0,1,227,200.17a14,14,0,0,1-.81,3.39c-1.37,4-3.66,5.43-8,5.07-5.87-.49-10.13-3.47-12.18-8.9a64,64,0,0,1-3.38-13c-.76-5.08-.77-10.27-1.11-15.42,3.06-1.19,4.61-5.12,8.56-4.7,1.79,2.13,1.3,4.71,1.32,7.14a91.59,91.59,0,0,0,1.84,16.68c.31,1.58.51,3.28,3.19,4.71a43.6,43.6,0,0,0,.17-15.14c-.41-3-1-5.93,1.56-8.34C221,170.13,223.28,171.24,225.3,173.38Z"/><path class="cls-55" d="M90.37,165.11a7.1,7.1,0,0,1,.65,1.8q1.19,16.43,2.3,32.85c.1,1.46,0,2.94,0,4.78l-6.61,1.15c-2.32-3.44-.77-7.33-2-11.33l-8,1.08a70.56,70.56,0,0,0-1.91,8.48c-.37,3.44-2.2,5-5.38,5.3-.82.09-1.65.12-2.75.2a15.85,15.85,0,0,1,0-3.39q3.92-17.49,8-34.95c.06-.29.38-.53.58-.79a12.65,12.65,0,0,1,6.36,2.64c1.6,2.88.13,5.83.32,8.78.72-3.34-.41-7.08,2-10.06C87.46,170.88,87.81,166.89,90.37,165.11Z"/><path class="cls-56" d="M196.13,171.36c1.22,10.85,1.69,21.74,2.35,33.2l-7.2-1.11c-2-7.21-.37-14.66-2.17-22h-7.64c.3,6.86.58,13.59.86,20.09-.66.4-.93.71-1.2.71-6.61.05-6.64,0-6.86-6.48-.31-8.8-.58-17.6-.86-26.39,3.6-.68,4.67-4.17,7-6.29l1.17,9.29c1.7.15,3.76.44,5.82.51,1.64.06,1.69-1.2,1.61-2.42C191.73,167.84,194,169.05,196.13,171.36Z"/><path class="cls-56" d="M121.58,170.52c0,5.36-1.13,10.26-6.06,13.8,1.91,5.42,3.81,10.84,5.82,16.54a36.66,36.66,0,0,1-3.64,1c-4.11.62-4.13.59-5.62-3.55a123.42,123.42,0,0,0-4.78-12c-2.29,5.33-1.27,11.13-2.5,16.89l-7.1.67a26.37,26.37,0,0,1-.26-2.95q1-17.18,2-34.36a22.87,22.87,0,0,1,.68-3.35,2.13,2.13,0,0,1,1.6,1.63c.39,3.55,2.69,3.71,5.41,3.24,2.46,1.36,1.32,4.13,2.48,6.38,2.62-1.18,2.83-4.88,5.78-5.51C117.81,168.06,120,168.12,121.58,170.52Z"/><path class="cls-56" d="M145.1,170.35q2.06,11.52,4.11,23c.37,2.11.67,4.24,1.07,6.75H142.6c-.59-3.2-1.17-6.4-1.78-9.72H132.7c-.46,2.09-.93,4-1.28,5.93-.88,4.89-.85,4.9-6,5a11.53,11.53,0,0,1-1.44-.16c-.78-3.45,1.51-17.79,5.08-32,2.07-.68,4.13-1.23,6.11.23,1.89,3.23,1.89,3.23,1.52,8.38,1.72-2.83-1.6-6.52,1.63-9C141,167.88,143.26,168.13,145.1,170.35Z"/><path class="cls-57" d="M225.3,173.38l-7.25-.94c-4.05-.79-2.47-5.4-5.12-7.38-1.5-.65-2.38,1.38-3.88,1.29-.46,1.83-.91,3.65-1.38,5.49l-6.19-.5c.25-3.62.28-7.26.79-10.85.62-4.39,3.23-7.24,7.75-7.89s8.3.75,10.75,4.7A30.83,30.83,0,0,1,225.3,173.38Z"/><path class="cls-56" d="M40.45,214.49a1.67,1.67,0,0,0,0,.77c-.69,5-4.41,3.24-7.32,3.28-1.7-3.08.07-6.1.38-9.06,1.09-10.3,2.66-20.54,4.06-30.81a6.7,6.7,0,0,1,.48-1.36c2.4-2,4.79-2.63,7.16.05q-1.73,13.77-3.45,27.53c-.23,1.8-.41,3.61-.61,5.42C40.29,211.6,41.1,213.17,40.45,214.49Z"/><path class="cls-57" d="M121.58,170.52l-7.19-.17c-2.65-.82-1.61-4.16-3.71-5.45-2.07.23-1.6,3.19-3.63,3.45-1.84,3.16-1.84,3.16-6.56,2.49-.12-2.51-.25-5.11-.38-7.71v-9.59c5.29-.22,10.22-.58,15.1.21a7.1,7.1,0,0,1,5.67,5.11C122.07,162.66,122.94,166.54,121.58,170.52Z"/><path class="cls-57" d="M45.21,177.36l-7.16-.05c.45-4.28.59-8.62,1.45-12.82a7.4,7.4,0,0,0-2.21-7.58,37.23,37.23,0,0,1-2.57-3.17h14.5a175.75,175.75,0,0,1,1.91,22.61c-1.68,1.91-3.44,1.34-5.21.16Z"/><path class="cls-56" d="M66.06,173.36c-1.14,10.89-2.2,21.79-3.44,32.67-.62,5.5-1.43,6-8.33,5.85q1.62-13.83,3.24-27.56c.2-.78.33-1.58.57-2.35l.18-5.62a2.65,2.65,0,0,1,.81-2C61.22,172.64,63.48,171.81,66.06,173.36Z"/><path class="cls-57" d="M81,173.34c-1,0-2-.06-3,0-2.37.22-2.8-1.2-2.75-3.09l3.58-16.61H89.26c1.63,3.56.72,7.58,1.11,11.43l-.33,7-5.67.23C83,171.72,82.19,173.38,81,173.34Z"/><path class="cls-57" d="M66.06,173.36l-6.78,1.95c-2-.4-4.75,3.82-6.06-1,2-6.28,4.07-12.56,6.07-18.85a2.65,2.65,0,0,1,2.9-2.14c1.79.06,3.59,0,5.92,0A193.11,193.11,0,0,1,66.06,173.36Z"/><path class="cls-58" d="M145.1,170.35l-6.69-1c-1.36-.6-1.73,1.77-3.13,1-2.05-.43-4.47,1-6.18-1.22l2.66-15.59h10.69A83.51,83.51,0,0,1,145.1,170.35Z"/><path class="cls-59" d="M163.23,161.37v39.92l-7.18-.83v-29.9c2.1-2.17,4.31-4.2,4.71-7.5A1.92,1.92,0,0,1,163.23,161.37Z"/><path class="cls-57" d="M243.36,175.33c-2.37-.32-4.77-.49-7.09-1a55.65,55.65,0,0,1-5.85-1.94c-.73-6.15-1.46-12.3-2.22-18.75h8C238.57,160.77,241,168.05,243.36,175.33Z"/><path class="cls-57" d="M163.23,161.37a14.72,14.72,0,0,0-1,3.07c-.15,1.75,0,3.52,0,5.57l-6.18.55,0,0c-1-3,.44-6.2-.84-9.16l-2.46-.25c-3.18-.32-3.75-.91-3.81-3.9-.07-3.15.45-3.77,3.64-3.83q6.48-.1,12.94,0c3.26.06,3.53.37,3.66,3.27.17,3.69-.17,4.12-3.52,4.46Z"/><path class="cls-60" d="M254.36,176.39l-7-1c-1.08-7.11-2.16-14.22-3.29-21.71h13.25c-.3.63-.41,1.37-.84,1.72-4,3.15-3.71,7.31-3.06,11.68C253.86,170.14,254,173.27,254.36,176.39Z"/><path class="cls-61" d="M53.22,174.35c1.15,1.55,2.52,1,4,.57.61-.17,1.38.24,2.08.39l-1,1q-3,8-6,16a20.38,20.38,0,0,1-1.15,3.27,10.94,10.94,0,0,1-2.27,2.06c-2.4-3.57-1.38-7.33-1.89-10.8s-.74-6.93-1.1-10.4l5.21-.16c.34.06.9.25,1,.13A22.59,22.59,0,0,0,53.22,174.35Z"/><path class="cls-58" d="M196.13,171.36l-7.15-.89c-1.18-5.48-.56-11-.92-16.8h7.33C195.64,159.62,195.89,165.49,196.13,171.36Z"/><path class="cls-62" d="M180.38,163.09c-.11,2.15-.23,4.3-.35,6.6a6.54,6.54,0,0,1-6.62-.31c-.21-4.31-.3-8.63-.66-12.93-.2-2.25.66-3.17,2.75-3,1.84.09,4.35-.84,4.66,2.23C180.4,158.1,180.32,160.6,180.38,163.09Z"/><path class="cls-63" d="M251.3,214.3c2,3.45,5.11,4.31,8.8,3.92-2.73.94-5.44,2-8.21,2.8a105.21,105.21,0,0,1-16,3.65c3.65-2.06,7.34-4,10.92-6.21C248.55,217.4,251,217,251.3,214.3Z"/><path class="cls-64" d="M33.13,218.54c2.63-.68,5.71-.34,7.32-3.28l6.72,4.25a2,2,0,0,1,.06,2.94l-2-.22c-.62-.46-1.49-.27-2.08-.82Z"/><path class="cls-65" d="M47.23,222.45l-.06-2.94,11.73,5.75-.42,1Z"/><path class="cls-59" d="M155.24,161.37c1.95,2.9.72,6.09.84,9.16Z"/><path class="cls-66" d="M239.06,182.49c-.36-1.38-.72-2.76-1.07-4.15l1-.42,1.21,3.5Z"/><path class="cls-64" d="M40.45,214.49l.7-4.18Z"/><path class="cls-65" d="M43.18,221.41l2.08.82Z"/><path class="cls-61" d="M58.1,182l-.57,2.35Z"/><path class="cls-67" d="M209.05,166.35c.56-2.13.49-5,3.62-4.91,2.62.05,3.08,2.51,3.67,4.52s1.15,4.31,1.71,6.48c.45,5.77,1,11.54,1.29,17.31a26.57,26.57,0,0,1-.33,6.43c-.56,2.89-3.18,3.72-5.11,1.53a10.55,10.55,0,0,1-2.54-5.21c-.93-6.87-1.52-13.79-2.18-20.7C209,170,209.09,168.17,209.05,166.35Z"/><path class="cls-68" d="M81,173.34,82.79,167l.69-.06c.3,1.82.59,3.64.89,5.46v12.76l-6,1.07C79.3,181.6,80.12,177.47,81,173.34Z"/><path class="cls-69" d="M107.05,168.35c.2-2.27.4-4.53.59-6.75,5.27-.21,6.29.66,6.59,5.29.07,1.15.11,2.31.16,3.46-.12.65-.21,1.31-.38,1.94-1.2,4.5-1.78,4.94-7,5.26Z"/><path class="cls-70" d="M135.28,170.39c.48-1.8,1-3.6,1.64-6.2.63,2.17,1.06,3.67,1.49,5.16.48,3.92,1,7.84,1.49,12.25l-6,.83C134.41,178.07,134.85,174.23,135.28,170.39Z"/></g></g></svg>