<svg xmlns="http://www.w3.org/2000/svg" viewBox="0 0 318.16 328.5"><defs><style>.cls-1{fill:#341634;}.cls-2{fill:#da1456;}.cls-3{fill:#66002a;}.cls-4{fill:#fefefe;}.cls-5{fill:#e9e9e9;}.cls-6{fill:#e4e4e4;}.cls-7{fill:#b8b3b5;}.cls-8{fill:#80889c;}.cls-9{fill:#dfdede;}.cls-10{fill:#f9f6f7;}.cls-11{fill:#f5f4f5;}.cls-12{fill:#f5f5f5;}.cls-13{fill:#6d7891;}.cls-14{fill:#68002b;}.cls-15{fill:#67002a;}.cls-16{fill:#67002b;}.cls-17{fill:#69012b;}.cls-18{fill:#ba2153;}.cls-19{fill:#6d768f;}.cls-20{fill:#777e94;}.cls-21{fill:#7a8096;}.cls-22{fill:#b8aeb6;}.cls-23{fill:#6a012b;}.cls-24{fill:#9f9daa;}.cls-25{fill:#b4aeb5;}.cls-26{fill:#767b92;}.cls-27{fill:#a09eaa;}.cls-28{fill:#8f92a3;}.cls-29{fill:#817f96;}.cls-30{fill:#9692a2;}.cls-31{fill:#888096;}.cls-32{fill:#b61146;}.cls-33{fill:#8e0739;}.cls-34{fill:#880637;}.cls-35{fill:#96083c;}.cls-36{fill:#efefef;}.cls-37{fill:#fdfdfd;}.cls-38{fill:#fcfbfc;}.cls-39{fill:#f6f5f5;}.cls-40{fill:#fbf9fa;}.cls-41{fill:#f7f7f7;}.cls-42{fill:#f0efef;}.cls-43{fill:#fbfafa;}.cls-44{fill:#faf7f8;}.cls-45{fill:#f7f6f6;}.cls-46{fill:#eeeced;}.cls-47{fill:#f3ecef;}.cls-48{fill:#f7f2f4;}.cls-49{fill:#f5f0f2;}.cls-50{fill:#f5eff2;}.cls-51{fill:#8d4463;}.cls-52{fill:#711137;}.cls-53{fill:#e2ced6;}.cls-54{fill:#c59faf;}.cls-55{fill:#b58196;}.cls-56{fill:#ef4e76;}.cls-57{fill:#ee4e76;}.cls-58{fill:#ec4c74;}.cls-59{fill:#ec4d75;}.cls-60{fill:#f04f77;}.cls-61{fill:#f14f77;}.cls-62{fill:#eb4c74;}.cls-63{fill:#ed4d75;}.cls-64{fill:#68052e;}.cls-65{fill:#68042d;}.cls-66{fill:#6c0a32;}.cls-67{fill:#f25078;}.cls-68{fill:#d91455;}.cls-69{fill:#65002a;}.cls-70{fill:#520022;}.cls-71{fill:#600028;}.cls-72{fill:#66012b;}.cls-73{fill:#6e0e35;}.cls-74{fill:#69072f;}.cls-75{fill:#69062f;}.cls-76{fill:#d6bac5;}.cls-77{fill:#68022b;}.cls-78{fill:#5b0126;}.cls-79{fill:#e9e8e8;}.cls-80{fill:#5f0128;}.cls-81{fill:#600228;}.cls-82{fill:#e8e8e8;}.cls-83{fill:#600128;}.cls-84{fill:#fefdfd;}.cls-85{fill:#5a0226;}.cls-86{fill:#fcfcfc;}.cls-87{fill:#fdfcfd;}.cls-88{fill:#590226;}.cls-89{fill:#5b0528;}.cls-90{fill:#fdfcfc;}.cls-91{fill:#fcfbfb;}.cls-92{fill:#5d0529;}.cls-93{fill:#5c0529;}.cls-94{fill:#a56f85;}.cls-95{fill:#a1687f;}.cls-96{fill:#97536e;}.cls-97{fill:#96516d;}.cls-98{fill:#853556;}.cls-99{fill:#e9e8e9;}.cls-100{fill:#5d0329;}.cls-101{fill:#fbfafb;}.cls-102{fill:#5b0629;}.cls-103{fill:#59092a;}.cls-104{fill:#63082d;}.cls-105{fill:#620129;}.cls-106{fill:#590a2a;}.cls-107{fill:#8d5e72;}.cls-108{fill:#c1abb5;}</style></defs><title>Asset 3</title><g id="Layer_2" data-name="Layer 2"><g id="Layer_1-2" data-name="Layer 1"><path class="cls-1" d="M61.67,227.49c-7.82,3.38-14.61-.09-21.51-1.18-7.19-1.14-14.23-3.2-21.36-4.73C7.44,219.15-.6,208.15,0,197.68c.28-4.63.19-9.39,1.29-13.83,1-3.92,2.54-8.36,5.32-11,4.12-3.9,5.66-8.29,6.21-13.47.42-4,.45-8,1.28-11.86s-.31-6.71-2-9.87c-2.38-4.57-4.63-9.23-6.62-14-3.87-9.27,1.56-17.69,11.7-18.05,6.66-.24,13.33,0,20,0h5.18c.71-5,1.62-9.44,5.84-12.44,1-.69,1.07-2.69,1.44-4.12a12.06,12.06,0,0,1,8.41-9,6.86,6.86,0,0,0,3.2-2.06,17.3,17.3,0,0,1,10.49-6.77Q73.43,57.29,75,43.54c.39-3.3.58-6.62,1.2-9.87a16.56,16.56,0,0,1,15.6-13.1c1.66-.05,3.33-.09,5-.15a5.5,5.5,0,0,0,1-.48c3-7.13,5.75-15.47,16.47-13.28C125.05-2.85,130.93-2.26,139.38,9,152.11.25,165,.16,178.51,8.69,181.56,5.08,184,.48,189.87.34c5.25-.12,9.44,1.3,12.58,6.16,10.34-1.6,14.89,4.85,17.47,14.05,1.9,0,3.52,0,5.15,0,9.47.08,15.55,6,16.81,14.6,1.39,9.5,2.12,19.1,3.21,28.64.27,2.3.81,4.57,1.28,7.21a18.66,18.66,0,0,1,10.94,7.72c.54.82,2.06.93,3,1.54,1.94,1.23,4.56,2.16,5.59,4,3.75,6.59,7,13.48,10.38,20.26l-.76.83c1.62.09,3.23.25,4.84.26,7.83,0,15.67,0,23.5,0,13.57.11,17.15,12.21,12.06,20.32-4.24,6.76-8.1,13.75-12.23,20.58a14.06,14.06,0,0,0-2.12,10.82c1.36,6.8,1.66,13.8,2.45,20.72.64,5.59,1.57,11.16,1.94,16.77.79,12.27-6.4,23-20,25.86-8.28,1.75-16.46,3.9-24.69,5.9-1.59.39-3.16.89-4.49,1.28-.87,5.37-1.45,10.46-2.53,15.44-3.16,14.57-10.94,26.63-20.86,37.44-19.06,20.78-43,34.42-68.11,46.21-3.81,1.78-7.64,2.22-11.56.42-19.12-8.73-37.49-18.68-53.74-32.22-11.32-9.43-21.55-19.79-28.79-32.8-5.4-9.71-9.09-19.92-9.18-31.19C62,230.16,61.84,229.19,61.67,227.49Z"/><path class="cls-2" d="M262.58,96.36c8.28,3.78,8.77,5.33,4.63,14.93,1.89.1,3.62.26,5.35.26,10.66,0,21.33,0,32,0,7.15,0,10.08,5.06,6.54,11.33-3.77,6.66-7.19,13.6-11.71,19.71s-3.84,12.16-3,18.8c1.46,11.5,2.62,23.05,3.73,34.6.86,9-5.13,17.16-15.67,19.46-11.29,2.47-22.56,5.07-34.08,7.67a40.79,40.79,0,0,0-.2,4.41c.88,16.38-5.61,30.15-15.32,42.65-13.3,17.13-30.49,29.6-49.21,40.09-6.82,3.82-13.87,7.21-20.86,10.72-3.22,1.63-6.5,2.29-10,.65C129.5,310,105.72,296.14,87,275c-9-10.25-16-21.73-18.45-35.37-.87-4.86-.5-9.94-.66-14.93-.06-1.92,0-3.84,0-6.77-3.78,1.76-6.49,3.33-9.41,4.3a13.61,13.61,0,0,1-6.6.71C42,221,32.14,218.75,22.27,216.61,9.89,213.92,4.14,205.62,5.88,193c.27-2,.23-4,.46-6C7.15,180,11,174.77,16.91,170.9c1.07-9,2.25-17.84,3.09-26.74A12.82,12.82,0,0,0,18.74,138c-2.34-5.15-4.91-10.19-7.57-15.17-3.38-6.31.86-11.79,7.1-11.4,9.13.57,18.32.15,27.48.15h5c-3.83-10.41-3.53-11.36,4.44-15.22-.58-7.46-.71-10.85,9.61-11.13,1.07-6.31,4.8-9.11,11.79-7.29C77.44,71,78.23,64.47,79,58,80,50.57,80.58,43.12,81.9,35.8c1.56-8.63,8.46-11.93,16.31-8.28l2.52,1.13,3.65-9.46c2.75-7.12,5.35-8.44,12.68-6.23,1.32-1.55,2.6-3.29,4.11-4.8,4-3.94,8.75-3.36,11.69,1.43,1.71,2.8,3.22,5.71,5,9,5.83-6.72,12.62-10.82,21-10.85s15.29,4,21,10.82c1.6-2.76,3.08-5.31,4.54-7.86,3.56-6.24,8.46-6.78,13-1.44,1.08,1.26,2.22,2.47,3.49,3.87.8-.24,1.56-.45,2.31-.69,4.12-1.32,7.09-.15,8.9,3.88s3.21,8,5,12.33c3.68-1.68,7.09-3.86,11.29-2.11s7.08,4.2,7.64,8.91q1.93,16.55,4,33.06c.36,3,.83,5.9,1.25,8.83,2.66.34,5.78,0,7.91,1.24s2.93,4.17,4.47,6.56C262.14,85.57,264,87.84,262.58,96.36Z"/><path class="cls-3" d="M92.17,269.85C81.49,258.6,75,245.45,74.25,229.8c-.26-5.48,0-11,0-16.22,24.43-16.18,138.5-14.36,169.19,2.5,2.67,19.8-3.05,37.09-15.79,52.25a10.13,10.13,0,0,1-2.45,1.62c-2.38,1.52-4.76.51-7.14,0-3.49-.73-6.89-2-10.51-1.85-1.44,3.57.62,6.75.15,10,.14,5.39-1.25,9.84-6.95,11.85-8.41,3-14.55,2-19.12-3.17-1.68-5.48-5-9.08-10.94-10-2-.32-3.89-.57-5.83.25-4.19,1.77-8.37,1.49-12.65,0-4.69-1.57-11.38.75-14.59,4.78a17.69,17.69,0,0,0-1.32,3.51,5.12,5.12,0,0,1-.8,1.45c-5.15,7-12.09,4.8-18.52,3.15-5.71-1.47-8-6-7.5-11.79-.49-3.25,1.48-6.46.24-10.07-3.6-.15-6.9,1-10.25,1.78C97,270.45,94.59,271.21,92.17,269.85Z"/><path class="cls-3" d="M183.23,36.62h36.29a7.05,7.05,0,0,0,1.41-.73c1.39-1.58,2.38-3.9,5.13-3s3.58,3.25,3.88,5.85q3.09,27.22,6.18,54.45c.83,7.24,1.8,14.46,2.76,22.08H229.6c-1.53-14.48-3-28.79-4.62-43.59H165.25C170.87,59.37,180.37,50,183.23,36.62Z"/><path class="cls-3" d="M152.53,71.38H93.11c-1.66,14.8-3.29,29.33-4.93,43.93H79.31c.35-4,.57-7.79,1-11.51,1.55-13.34,3.19-26.67,4.77-40,1-8.73,1.85-17.49,3.19-26.17.27-1.75,2.24-4.25,3.75-4.52,1.74-.3,3.84,1.51,5.78,2.4l-.31,1h37.23C137.27,49.82,147.13,59.13,152.53,71.38Z"/><path class="cls-4" d="M127.84,113.6l1-15c-.3-2-.68-4,.28-6,.45-3.08.89-6.16,1.38-9.56,10.13,4.53,19.84,4.8,28.47-3.18,9.46,7.38,15.82,8.12,28.71,3.18.87,9.27,1.73,18.41,2.59,27.56a8.19,8.19,0,0,1,.79,3.78c.41,4-1.17,5.76-5.36,5.74-17.77-.12-35.55,0-53.32-.06-1.5,0-3,.07-4.33-1.37C127.21,117.17,127.45,115.39,127.84,113.6Z"/><path class="cls-3" d="M158.47,71.78c-6.12-10.2-12.16-19-16.88-28.47-5.31-10.65.49-23.7,11.27-27.59,11.27-4.07,24,4.14,25.15,16.34a22,22,0,0,1-3.36,14.76c-4.37,6.68-8.31,13.63-12.51,20.42A51.88,51.88,0,0,1,158.47,71.78Z"/><path class="cls-5" d="M182.12,285.4c3,4.21,7.09,5,11.83,4.08,1-.2,1.93-.45,2.91-.63,7.77-1.48,9.22-3.22,9.36-11.25,2.95,1,3.49,4.4,5.87,6l-13,10c-6.56,3.65-13.71,3.11-20.82,3.07-13.13-.06-26.27-.2-39.4.06-7.39.14-14.55-.15-21.11-4l-10.65-8.14c1.16-2.37.36-5.8,3.76-7,.18,8.23,1.52,9.72,9.85,11.42,5.38,1.1,10.57,1.79,14.19-3.71,10.59-1.66,21.26-.55,31.89-.72C171.88,284.5,177.09,283.71,182.12,285.4Z"/><path class="cls-6" d="M117.73,292.7l6.18,1.13a22.66,22.66,0,0,0,3.85.72q31.69.06,63.39,0c1.56,0,3.09-.9,4.68-1.14a14.77,14.77,0,0,1,3.23.2l-16,10a232.41,232.41,0,0,1-48.12,0Z"/><path class="cls-7" d="M127.84,113.6c.15,1.46.31,2.92.5,4.69h61.25l.59-4.66c2.59.72.32,4.63,3.33,5.08,2.3.6,4.64.36,7,.36,31.07,0,62.13,0,93.19.08,2.29,0,5.53-1.33,6.36,2.62-1.69,1.67-3.84,1.86-6,1.86q-48.93.09-97.85,0a25,25,0,0,1-4-.42c-21.22-.36-42.44-.06-63.66-.14a15.89,15.89,0,0,0-2.92.3c-10,.6-20,.22-30,.25q-33,.1-65.93,0c-2.63,0-5.39.37-7.54-1.77-.61-1.76.7-2,1.84-2.15a30.67,30.67,0,0,1,5-.14q45.39,0,90.79,0c2.11,0,4.37.54,6.22-1.06C126.62,116.87,127.23,115.23,127.84,113.6Z"/><path class="cls-8" d="M106.11,201.33l-3.81.35c-1,.65-2.25.1-3.23.76l-1.92.18c-1.9.81-3.85.5-5.8.26a1.75,1.75,0,0,1-.58-1.29,3.79,3.79,0,0,1,2.1-2,11.66,11.66,0,0,1,2.72-.74c.88-.18,1.77-.36,2.65-.57a14.53,14.53,0,0,1,2.71-.4,20.84,20.84,0,0,0,3.41-.7,31.32,31.32,0,0,1,3.71-.55,26.25,26.25,0,0,0,3.91-1c5-1.62,10.24-1.44,15.34-1.84,25.62-2,51.19-1.48,76.59,2.87,1.31.29,2.57.77,3.91,1,1,.13,2,.3,3,.52s1.94.43,2.92.63a6.88,6.88,0,0,1,2.84,1.23c1,1.07,1.58,2.2.47,3.54l-2.06-.26c-.94-.56-2.16,0-3-.74l-2-.2c-1-.63-2.22-.09-3.19-.75-8.4-.84-16.79-1.82-25.21-2.48-6.59-.51-13.2-.74-19.81-.88-6-.13-11.93-.18-17.87.12-11.58.59-23.14,1.46-34.71,2.21C108.27,201.36,107.08,200.84,106.11,201.33Z"/><path class="cls-9" d="M135,303.6a65.72,65.72,0,0,1,7.85-1q16.2-.18,32.42,0a65.72,65.72,0,0,1,7.85,1c-7.31,3.83-14.58,7.74-22,11.42a5.37,5.37,0,0,1-4.2,0C149.54,311.35,142.28,307.44,135,303.6Z"/><path class="cls-10" d="M299.94,121.66a34.58,34.58,0,0,0-5.63-.92c-32.2-.06-64.4,0-96.6-.11-2,0-4.87,1.44-5.7-2.1,1.75-.84,3.61-.42,5.41-.43,35.8-.08,71.59.1,107.39-.1-.24,1.26-.17,2.7-.77,3.75-4.32,7.59-8.8,15.09-13.17,22.65-1,1.7-1.78,3.5-2.66,5.26a2.82,2.82,0,0,1-.3,3.09c-1.65.77-2.64-.17-3.53-1.38a6.35,6.35,0,0,1,.3-6.18c3.82-7.16,8.36-13.9,12.24-21A7.39,7.39,0,0,1,299.94,121.66Z"/><path class="cls-10" d="M126,118.5c-.54.68-1,1.83-1.65,2a24.68,24.68,0,0,1-4.95.23q-45.83,0-91.64,0a34.58,34.58,0,0,0-5.63.92c8.94,11.28,13.16,20.91,7.67,31.26-1.09,1-2.2,1.8-3.63.55a9.56,9.56,0,0,1,0-3c2.56-7.86-.39-14.54-4.18-21.15-1.87-3.27-3.39-6.74-5.28-10.54a15,15,0,0,1,2.62-.53q52.11,0,104.21,0C124.35,118.3,125.18,118.43,126,118.5Z"/><path class="cls-3" d="M73.94,89.62c.6,2.59,1.06,5.22,1.84,7.75,1.85,6,.53,11.76-.73,17.87H61.78l-5.86-9.65.62-.89,10.25,4.19L62.28,93.41l.52-.35L71,101.94l1.17-.21V88.66C73.24,88,73.48,89,73.94,89.62Z"/><path class="cls-3" d="M245.92,90.61v10.93l.91.5q4.2-4.53,8.42-9l.64.37c-1.53,4.82-3.07,9.63-5,15.55l10.47-4.18.68.68-5.83,9.94H243.13c-.89-5.07-2.91-9.81-1.47-15.07,1-3.51,1.65-7.09,2.46-10.64C245.23,89,245.48,90,245.92,90.61Z"/><path class="cls-11" d="M212.09,283.59l-4.15-.47c-.67-2.14-1.2-3.83-1.72-5.52l-2.29-12.75,21.23,5.1c-2.23,2.76-4.31,5.67-6.73,8.24A70,70,0,0,1,212.09,283.59Z"/><path class="cls-12" d="M110.84,277.59a23.38,23.38,0,0,0-.82,3.72c-.12,2-.93,3.1-2.94,3.25L92.17,269.85l20.86-5Z"/><path class="cls-13" d="M71.93,209.22c-5.17,2.18-10.32,4.43-15.54,6.49a7.86,7.86,0,0,1-4.26.55c-10-2.12-20-4.3-30-6.71-2.14-.52-4-2.05-6.06-3.12-.19-1.77,1-2.24,2.39-2.6,9.79,1.75,19.42,4.33,29.15,6.39a17.5,17.5,0,0,0,12-1.32c3.21-1.58,6.47-3.54,10.37-2.92C71.38,206.63,72.24,207.58,71.93,209.22Z"/><path class="cls-14" d="M194.35,105.67l24.21-22.4c.51,3.42.88,5.93,1.37,9.18l-24.83,14Z"/><path class="cls-14" d="M120,104.63,98,92.77c.29-3.13.54-5.85.9-9.77L121,103.59C121.28,104.54,121,105,120,104.63Z"/><path class="cls-15" d="M107.79,29.58c1.52-3.95,2.74-7.15,4.23-11L129.69,30.4l-.45.93Z"/><path class="cls-16" d="M188.39,30.44l17.31-11.9c1.52,3.73,2.87,7,4.48,11l-21.34,1.84Z"/><path class="cls-17" d="M120.13,114.56,96,110.65c.45-3.19.81-5.73,1.27-8.93l23.28,11.82Z"/><path class="cls-16" d="M196.76,113.82l23.93-12.07c.26,3.19.46,5.74.72,9l-24.34,4Z"/><path class="cls-18" d="M304.81,118c-2,.09-4,.26-6,.26q-50.17,0-100.35,0c-2.16,0-4.32.16-6.48.25l-1.83-4.9,0-3,3.05,7h5q50.55,0,101.1,0C301.2,117.61,303,117.86,304.81,118Z"/><path class="cls-19" d="M275,210.41c-6.75,1.65-13.48,3.37-20.25,4.9a6.71,6.71,0,0,1-3.81-.49c-3-1.26-6-2.78-8.95-4.2a2.4,2.4,0,0,1-.34-3c2.3-1.62,4.52-.49,6.48.55,3.59,1.9,7.09,1.76,11,1.07,4.95-.89,9.67-3.5,14.95-2.32C275.29,207.86,276.11,208.88,275,210.41Z"/><path class="cls-20" d="M242,207.8v2.82l-25-7c-.34-.94-.68-1.88-1-2.83.1-.12.18-.32.31-.37C221.66,198.45,238.38,203.26,242,207.8Z"/><path class="cls-21" d="M71.93,209.22l-1.87-2.4a2.89,2.89,0,0,1,1.42-1.67,27.76,27.76,0,0,1,2.71-1.4,63.41,63.41,0,0,1,10.75-3.26c2.07-.44,4.22-.89,6,.94l6.25,1.19Z"/><path class="cls-22" d="M285.17,150.54l2,3.19c.58-2.34.79-3.21,1-4.07q1,9.33,1.93,18.67c.25,1.86,1.61,4.12-1.7,4.67a2.74,2.74,0,0,1-1.7-1.85,48.6,48.6,0,0,0-1.38-4.89,60.36,60.36,0,0,1-1.61-10.77C283.59,153.66,283.41,151.82,285.17,150.54Z"/><path class="cls-23" d="M126.58,12.18l6.69,12.34L121.12,19Z"/><path class="cls-24" d="M15,182.52l7.07-7.41.63.59c.44-1.71.89-3.42,1.33-5.12a2.58,2.58,0,0,1,3.11-.37c2.43,3.71,1.32,7.09-1.77,9.44a40.83,40.83,0,0,1-8.54,5.56C15.05,185.12,14.1,184.45,15,182.52Z"/><path class="cls-25" d="M26.84,170.55l-2.8,0,2.13-17.11,2.84-.89C31.74,157.09,30.64,166.12,26.84,170.55Z"/><path class="cls-23" d="M196.59,18.8c-3.27,1.64-5.77,2.9-8.28,4.13-.85.42-1.73.76-3.8,1.66l6.82-12.27Z"/><path class="cls-26" d="M275,210.41c-.33-.87-.66-1.74-1-2.62a2.53,2.53,0,0,1,1.52-1.48,33.82,33.82,0,0,0,3.37-1.21c4.47-.57,7.53-4.23,11.74-5.35,1,.32,2.1.62,1.52,2.1a9.19,9.19,0,0,1-6.63,6.06C282.1,208.89,278.55,209.59,275,210.41Z"/><path class="cls-27" d="M288.1,172.55c2.74-.41,1.6-2.69,2-4.22l1,8c.8,1.29,0,2.85.72,4.16l.26,4c-1.66,1.14-2.87.33-4-.91C286.47,180,284.76,176.26,288.1,172.55Z"/><path class="cls-28" d="M15,182.52l2,2c2.1,4.59,1.58,8.75-2,12.41-3.67-.19-2.3-2.59-2-4.53Z"/><path class="cls-29" d="M13,192.44c.34,1.54-.67,3.75,2,4.13,2.87,1.94,3.71,4.66,3.05,8l-1.95,1.91C11.94,202.47,11.17,197.74,13,192.44Z"/><path class="cls-30" d="M289.25,183.56l2.86,1c.35,2.94.69,5.88,1,8.83.38,1.89-.9,1.68-2.06,1.63a4.84,4.84,0,0,1-2.29-2.53C288.28,189.48,286.51,186.4,289.25,183.56Z"/><path class="cls-31" d="M291.14,194.5l2-1.11c1.53,3,.47,5.76-.95,8.46l-2.25-1.3a2.63,2.63,0,0,1-.6-1.36C289.62,197.51,289.28,195.58,291.14,194.5Z"/><path class="cls-32" d="M129.08,92.61q-.14,3-.28,6l-1.07-7.88.93-.16Z"/><path class="cls-33" d="M245.92,90.61l-1.8-1,1.08-4.13.72.06Z"/><path class="cls-34" d="M120,104.63l1-1,2.55,2.08-.47.85Z"/><path class="cls-35" d="M73.94,89.62l-1.82-1V85.72l.75-.25C73.22,86.85,73.58,88.24,73.94,89.62Z"/><path class="cls-30" d="M291.85,180.53l-.72-4.16Z"/><path class="cls-20" d="M206.79,201.67l3.19.75Z"/><path class="cls-21" d="M99.07,202.44l3.23-.76Z"/><path class="cls-20" d="M211.94,202.62l3,.74Z"/><path class="cls-21" d="M106.11,201.33l3.08-.69Z"/><path class="cls-4" d="M119,265.51c0-1,.1-1.93.16-3l5.71-1.69.06-.68-8.24-1.93c-.38-6.23-.88-12.32-1-18.41,0-1.2,1.21-2.69,2.26-3.57a37.15,37.15,0,0,1,5.18-3.16c.77-3.67,1.67-7.38,2.31-11.13.58-3.43,2.29-5.09,5.86-5.59A202.42,202.42,0,0,1,175,215.24c3.64.28,7.25,1,10.89,1.18s5.23,2.35,5.85,5.63c.71,3.73,1.46,7.46,2.18,11.08a14,14,0,0,0,1.91,1.12c4.71,1.83,6.5,4.95,5.54,10.13-.8,4.37-.68,8.9-1,13.75l-8.15,2-.17.64a15,15,0,0,1,3.85,1.14c.89.54,1.37,1.74,2,2.65-3.89,5.48-10.91,5.48-13.75,0-.26-.93-.52-1.87-.91-3.23h-9.24c.36-5.21.69-9.93,1-14.65.22-.72.6-1.57-.81-1.08-1,2.6-1.95,5.2-3.12,8.31H146l-3.07-8.3c-.6-.41-1.18-.84-1.19-1.65-.33-.05-.45,0-.37.06a.81.81,0,0,0,.27.23c.26.81-.1,1.67.29,2.44.38,4.74.76,9.49,1.17,14.55h-9.15c-.42,1.57-.78,3-1.15,4.34-.28.7-.34,1.46-.57,2.17l0-.06c-3.25,2.71-7,2.13-10.69,1.49C119.87,268.91,118,268,119,265.51Z"/><path class="cls-36" d="M182.12,285.4c-1.35.39-2.71,1.12-4.07,1.13q-19.58.12-39.15,0c-1.34,0-2.68-.79-4-1.22a.65.65,0,0,1,.26-.74c.75-.92.08-2.22.84-3.14.06-1,.12-1.92.19-3.09l13.63-4.49c6.19,3.88,11.61,3.86,17.07-.09l13.85,4.52Z"/><path class="cls-37" d="M169.1,265.56l2.9.24c-.17,3.74-2.53,3.52-5.15,2.85l-5-.12c-2.47.86-4.84,1-7-.87l-4.62,1c-2.46.43-5.21,1.38-5.17-2.81l2.92-.29c1.21-1,2.8,0,4.06-.8l1.68-.7.07-1.17-6.66-1.38c-.32-1.25-.7-2.79-1.19-4.74h24.9l-.49,4.71-6.75,1.19-.15.95,2.63,1.23C167,265.33,168.23,264.74,169.1,265.56Z"/><path class="cls-38" d="M206.25,261.69c1.43-6.3,4.15-7.79,15.24-8.49l7,8.55c-.36,1.65-.78,3.53-1.24,5.63Z"/><path class="cls-39" d="M119,265.51c1.11.69,2.17,1.86,3.34,2,3.28.32,6.6.19,9.91.24-.5,3.3-1,6.6-1.49,9.9-.48.94.09,2.13-.71,3v0c-3.81,2.46-7.9.71-11.85.64-1.54,0-2-1.46-1.29-3Q118,271.9,119,265.51Z"/><path class="cls-40" d="M102.07,251.55l2.08,11.72L93.1,266.35l-6.19-10.56a.83.83,0,0,1,.15-1.31l6.68,4.71c-.88-5.13-1.66-9.63-2.44-14.13l1-.5,7.06,13.55,1.83-6.47.4-.66Z"/><path class="cls-41" d="M184.24,264.59c3.11,3.49,7,1.89,10.61,1.47,1.09-.13,2.09-1,3.14-1.48q.54,3.44,1.1,6.86c.74.93.2,2.14.71,3.12l.19,2c-4.53,2.91-10.5,2.91-13.77,0Z"/><path class="cls-42" d="M186.22,276.59H200c1.46,5.29,1,6.09-4.09,6.92-2.64.43-5.3.69-8.4,1.09Z"/><path class="cls-43" d="M211.11,230.63l7.35-1.35c1.23,2.33,2.35,4.48,3.6,6.85l-10.95,5.18Z"/><path class="cls-44" d="M101.22,243.66l-7.54-4.91c.62-2.42,1.18-4.61,1.84-7.21l9.74,4.45C103.92,238.54,102.71,240.85,101.22,243.66Z"/><path class="cls-45" d="M166.85,268.65,172,265.8l8.75,1.19c.46,1.82.92,3.67,1.63,6.53Z"/><path class="cls-45" d="M145.05,265.84c.77,2.69,3.08,2.55,5.17,2.81l-15.17,4.83c.42-2.39.76-4.27,1.14-6.42Z"/><path class="cls-46" d="M116.92,278.28c.57.63,1.1,1.76,1.72,1.81,3.8.3,7.61.36,11.42.5-.94,4.42-1.13,4.47-9.57,2.84C116.67,282.69,116.32,282.19,116.92,278.28Z"/><path class="cls-47" d="M105.5,224.39l-6.59,1v-6.8h8C106.42,220.76,106,222.6,105.5,224.39Z"/><path class="cls-48" d="M233.3,225.83c-3.17.56-6,3.94-8.8-.71l2.1-3.61C229.3,222.27,232.87,221.15,233.3,225.83Z"/><path class="cls-49" d="M86.58,224.35H80.41v-5.88L86,219.6C86.21,221.08,86.37,222.47,86.58,224.35Z"/><path class="cls-50" d="M234.75,243.49l-4.93-1.08,1.71-3.66h4.91C235.82,240.48,235.31,241.93,234.75,243.49Z"/><path class="cls-45" d="M154.84,267.66l7,.87C159.12,272.41,157.13,272.16,154.84,267.66Z"/><path class="cls-51" d="M141,242.61l1.88,3-1,1.08c-.29-1.38-.57-2.75-.85-4.13Z"/><path class="cls-52" d="M174.29,245.63c.36-.84.71-1.67,1.06-2.51l.8.28-1.05,3.31Z"/><path class="cls-45" d="M152,264.75l-4.06.8Z"/><path class="cls-46" d="M130.06,280.62l.71-3Z"/><path class="cls-5" d="M136,281.42l-.84,3.14Z"/><path class="cls-45" d="M169.1,265.56l-3-.72Z"/><path class="cls-42" d="M199.8,274.56c-.24-1-.47-2.08-.71-3.12Z"/><path class="cls-53" d="M87.06,254.48l-.15,1.31-1-1.12a.69.69,0,0,1-.22-.78c.11-.24.21-.36.31-.36Z"/><path class="cls-39" d="M132.22,267.78l.57-2.17Z"/><path class="cls-54" d="M102.07,251.55a4.7,4.7,0,0,0-.92.09l.13-1.68.49,0Z"/><path class="cls-55" d="M86,253.53,86,254.67l-.76-1.48Z"/><path class="cls-56" d="M202,57.51V67h-9.58c-.14-3.32-.26-6.37-.38-9.42l.42-.59c3.33-1,6.65-2.11,9.3-4.55C203.77,54,203.44,55.75,202,57.51Z"/><path class="cls-57" d="M211,57.62h9.61c.36,3.14.67,5.87,1,9.16H211.8c-.24-3.05-.49-6.14-.73-9.24Z"/><path class="cls-57" d="M183,57.55v9.33H173.8c-1.84-4.13,1.32-6.28,2.66-9.09l5.25-.45c.46-3,.9-5.74,1.33-8.53C185.72,51.73,185.46,54.64,183,57.55Z"/><path class="cls-58" d="M191.07,48.69V40.16h9.55c.14,3,.27,5.72.4,8.44-.15.19-.29.39-.43.59-2.82,1.48-6.1,1.39-9,2.67C190.1,51,190.08,50,191.07,48.69Z"/><path class="cls-59" d="M210,48.55c-.15-2.6-.31-5.2-.48-8.26h9.08c.38,2.61.75,5.13,1.18,8.09l-8.69.67c-.1,2-.18,3.71-.27,5.47C207.55,53,208.42,50.8,210,48.55Z"/><path class="cls-60" d="M210,48.55c.27,2,.55,4,.82,6l.15,3.1.07-.08-9,0-.78-4.93c-1.52-1.29-1.19-2.65-.16-4l-.06.06Z"/><path class="cls-60" d="M191.07,48.69c.26,1,.53,1.93.8,2.9,2.25,1.95,1.79,4,.13,6l.06,0h-9V48.81Z"/><path class="cls-56" d="M126,57.55v9.29H116V57.66c-1.07-1.5-1.38-2.94.28-4.24,2.94,1.58,6.22,2.3,9.3,3.53Z"/><path class="cls-61" d="M107,57.53c-.2,3.08-.4,6.15-.62,9.46H96.66c.22-3.06.41-5.81.65-9.37h9.76Z"/><path class="cls-57" d="M135,48.81l1.35,8.35,5.23.73c1.53,2.63,4.4,4.89,2.67,9.06h-9.23V57.52C132.6,54.63,132.36,51.72,135,48.81Z"/><path class="cls-62" d="M117.06,48.6c.13-2.63.26-5.26.41-8.32H127v8.39c1.16,1.48,1.38,2.87-.33,4.11-2.83-1.79-6.18-2.28-9.21-3.58Z"/><path class="cls-63" d="M107.2,55.53V49l-8.67-.57c.26-2.76.5-5.28.77-8.2h9.31L108,48.65C110,51.21,110.85,53.64,107.2,55.53Z"/><path class="cls-61" d="M107.2,55.53c.27-2.29.54-4.59.82-6.88l9,0-.07-.06c1.33,1.73,1.78,3.42-.16,5L116,57.66l-9-.13.08.09C107.12,56.92,107.16,56.23,107.2,55.53Z"/><path class="cls-60" d="M126.2,52.59l.81-3.92,8,.14,0,8.71-9,0,.06.06C124.73,55.9,124.32,54.21,126.2,52.59Z"/><path class="cls-64" d="M160.17,92.37l5.19-.25v19.95l-4.54.41c-.19-2.93-.35-5.51-.54-8.34l-3.13-.38V112l-5.23.45v-20h4.91c.14,2.41.26,4.65.4,7h2.94Z"/><path class="cls-65" d="M173.78,104.05v3.62l6.11.77c.07,1.18.13,2.27.21,3.68H168.58V92.52h10.35c.08,1,.16,1.93.25,3.14l-5.69.76c-.09.8-.18,1.6-.31,2.72l5.58.78c.14,1.08.27,2.14.45,3.49Z"/><path class="cls-66" d="M146,112.23h-4.78V96.76c-.49-1.11-4.71-.64-2.29-4.35h10.71c2.06,3.46-1.47,3.34-2.8,4.66C146.52,102,146.24,106.92,146,112.23Z"/><path class="cls-67" d="M159.09,64.47v-20c5.83-1.5,10.32-4.37,10-11.08-.28-6.06-4.19-9-9.91-10.07v-5c11.58,0,19.24,12.69,14.47,23.68a36.41,36.41,0,0,1-2.5,4.3L159.83,64.81Z"/><path class="cls-68" d="M166,33.83a6.92,6.92,0,0,1-7.09,6.81A6.63,6.63,0,0,1,152,33.71a7.37,7.37,0,0,1,7-7C162.58,26.68,166,30.15,166,33.83Z"/><path class="cls-69" d="M290.18,199.55l-.23,1c-2.35,4.36-6.8,5-10.94,6.15-.91.72-2.2,0-3.09.83l-1.87.26c-5.76,1.28-11.57,2.39-17.26,3.92a9.2,9.2,0,0,1-7-.81c-2.48-1.23-5.16-2.08-7.75-3.1l-26-7-2.74-.32c-.69-.36-1.49-.35-2.2-.65l-3-.28c-.88-.78-2.1-.2-3-.73a289.8,289.8,0,0,0-54-3.82c-13.39.33-26.75,1.82-40.12,2.79-1,.55-2.21.05-3.18.71l-3.82.3c-.95.56-2.17,0-3.06.75l-3,.28a20.17,20.17,0,0,0-2.17.67L93,200.8c-.65.35-1.45.23-2,.69l0-.06L74,205.67c-.64.52-1.52.39-2.2.82l-1.76.33c-2.8,1-5.9,1.54-8.33,3.12-5.49,3.58-11,3.16-16.95,1.63-6.71-1.73-13.54-3-20.28-4.65a55.77,55.77,0,0,1-6.45-2.4l-3.05-8q1-6,2-12c1.43-4.09,5.09-5.13,9-6.33.29-2.53.59-5.1.89-7.68q1.08-9,2.17-18c.54-3.58,1.24-7.15,1.52-10.76a10,10,0,0,0-1.09-4.61c-2.35-5.23-4.86-10.37-7.31-15.55l103.91.08a15.23,15.23,0,0,0,2.64,1.34,5.76,5.76,0,0,1,1,1.16c2,3.56.16,4.72-3,4.23-3.47-.55-6.93-.12-10.37-.44a9.23,9.23,0,0,0-7.69,2.55c-2.85,2.84-5.79,2.71-9,.9-5.26-1.49-10.44-1.58-15.46,1-1.86.41-3.63,1.41-5.63.85a6,6,0,0,1-2.41-1.7c-4.09-4.42-5.59-4.66-10.49-1.49a8.89,8.89,0,0,1-5.58,1.75c-2.15-.31-4.32-.45-6.47-.74-2.18-.8-4.18.72-6.31.49-3.6.09-7.21-.34-10.78.09-1,1.43,0,2.54.65,3.62a7.74,7.74,0,0,1,.22,8.43,3.71,3.71,0,0,0-.79,2.3c1.26,8.94-3,17.44-2.09,26.36-1.33,5.5-1.84,11.4-7.29,14.87a29,29,0,0,0-1.24,6.2c-.15,2.19.46,3.84,2.77,4.47,3.13,1.41,6.62,1.26,9.85,2.2,2.55.92,5.25,1.43,7.74,2.57.7,0,0-1,.11-.33,0,.29-.1.4-.37.29-2.28-.92-4.64-1.64-6.87-2.72-1.73-1-3.39-2.1-3.9-4.24a16.94,16.94,0,0,1,4.91-9.63c3.07-1.7,5.54.45,8.23,1.28a8.56,8.56,0,0,1,3.7,3.4c1.16,2,2.35,2.49,4.89,1.7,5.94-1.83,9.7-5.83,12.66-10.92,1.17-2,2.65-3.37,5.6-3.09,1.2,3.4,2.79,6.72,6.85,8,1.85.6,3.64,1,5.27.15a12.09,12.09,0,0,1,4.65-1.56c3.37-.28,5.16-2.3,6.24-5.45,1.65-4.82,3.38-5.14,6.8-1.37,3.94,4.35,11.26,6.66,16.54,3.22a19.86,19.86,0,0,1,9.8-3.32,7,7,0,0,1,5.2.63c1.28,2.06,3.41,3.18,5.42,2.17,5.46-2.76,11.18-1.8,16.85-1.89.82,0,2.12.49,2.17-1.16-1.34-3.66-1.12-7.43-.88-11.17.11-1.77.32-3.65,2.43-4.39,2,.74,1.88,2.53,1.85,4.13-.1,5.39,3.52,9.1,5.87,13.39,7,1.94,14.12,1.46,21.18.36,1.42-.23,2.74-1,4.26-.59,3.12,2.72,6.63,4.23,10.86,3.43,2.46-.47,4.38,1.25,6.67,1.6,4.28.64,5.89-.48,6.19-4.7,0-.66,0-1.32,0-2,0-2.42.83-4.4,3.62-4.33,2.48.06,3.31,1.88,3.35,4.11a12.42,12.42,0,0,0,.77,4.87c1.64,3.74,5.27,5.32,9.51,4,1.72-.54,3.29-1.66,5.22-.85s3,2.6,4.49,3.86c4,3.29,8.37,3.54,12.83,1.28,3.74-1.89,4.38-5.37,4.25-9.23-.15-4.46-.12-8.93,0-13.4a14.13,14.13,0,0,0-1.81-8.08c-.56-4.57.26-9.26-1.63-13.72a3.34,3.34,0,0,1,1.69-4.64c2.24-1,4.24-.26,5.76,1.59,1.05,1.27,1.06,3.15,2.36,4.31A9,9,0,0,1,271.4,151c1.8,12.42,3,24.92,4.49,37.39a8.79,8.79,0,0,1-.59,4.38c-1.24,2.61-3.85,3.53-6.11,4.87-1.9,1-3.64,2.27-5.71,2.7a2.43,2.43,0,0,0,.62-.17c2.6-.86,5.32-1,7.84-2s5.4-.25,7.36-2.53c1.28-5.52-.51-10.83-1.17-16.19-1.28-10.47-2.32-21-3.54-31.44-.68-4-.22-7.41,3.65-9.88A8.74,8.74,0,0,0,282,132c-6.79-1.34-13.71.25-20.41-1-1.65-.37-3.3-.86-5,0a15.56,15.56,0,0,1-5.89.06c-2.79-.24-5.49-.52-8-2.22a3.86,3.86,0,0,0-5.69.85,12,12,0,0,1-1.47,1.55c-2,3-.8,6.43-1.1,9.65-.19,2.08.31,4.43-3.21,5.33a24.05,24.05,0,0,1-3.73-11c-.16-2.35-1-3.73-3.33-4.09a17.66,17.66,0,0,0-8.9-.15c-2.65.45-3.48,2.11-3.38,4.65.14,3.66-.69,7.29-.49,11,.1,1.86-.09,3.71-2.43,4.38-2.93-.71-2.43-3.1-2.55-5.19-.23-4.08.89-8.33-1.52-12.12-.18-5.13-3-6.94-7.72-4.86-.6.27-1.1.73-1.71,1-2,.85-4,1-5.5-.73-1.82-2-1-4,.46-5.79a12.42,12.42,0,0,1,1.48-1.6l107.92-.07c-4.4,7.78-8.87,15.53-13.15,23.37-.9,1.64-1.1,3.66-1.62,5.51l2,16.05c.71,1.32-.08,2.91.73,4.22.05.58.11,1.16.16,1.74l1.15,11,1,9A15.92,15.92,0,0,1,290.18,199.55Z"/><path class="cls-70" d="M192,121.73v1.84a14.09,14.09,0,0,1-8.05,2.12q-24-.07-47.91,0c-2.89,0-5.63-.35-8-2.1h0a1.22,1.22,0,0,1,0-1.89q27.78-.12,55.56-.22C186.41,121.46,189.21,121.64,192,121.73Z"/><path class="cls-71" d="M128,121.69v1.89l-2-1.84Z"/><path class="cls-21" d="M107.81,198.49l3.18-.71Z"/><path class="cls-21" d="M100.93,199.54l3.06-.75Z"/><path class="cls-20" d="M205.09,198.81l3,.73Z"/><path class="cls-20" d="M211.08,199.82l2.2.65Z"/><path class="cls-21" d="M90.94,201.49l2-.69Z"/><path class="cls-21" d="M95.81,200.49l2.17-.67Z"/><path class="cls-13" d="M71.82,206.49l2.2-.82Z"/><path class="cls-27" d="M287.94,170.81l-.73-4.22Z"/><path class="cls-19" d="M275.92,207.53l3.09-.83Z"/><path class="cls-26" d="M290.18,199.55q0-3.5.05-7l.91,1.92Z"/><path class="cls-72" d="M128.09,232.12l1.45-9.25a232.55,232.55,0,0,1,58-.15c.52,3.24,1,6.24,1.58,9.84-5.39,0-10.33.46-15.16-.09a133.91,133.91,0,0,0-35.21.63C135.47,233.59,131.94,232.52,128.09,232.12Z"/><path class="cls-73" d="M147.47,250l-2.62-6.49h27.37L169.68,250Z"/><path class="cls-74" d="M135.49,241.77l2.2,8.55c-5.74,0-10.8.1-15.85-.11a3.12,3.12,0,0,1-2.11-2.28c0-1.09.91-2.86,1.76-3.1C125.89,243.63,130.4,242.84,135.49,241.77Z"/><path class="cls-75" d="M179.52,250.38c.74-3.06,1.3-5.35,1.9-7.81,5.36-.69,9.85,1.27,14.42,2.34a3.16,3.16,0,0,1,1.55,2.71c-.23,1-1.46,2.59-2.34,2.64C190.14,250.51,185.21,250.38,179.52,250.38Z"/><path class="cls-76" d="M141.07,242.59l-.83-1,.53-.31.27,1.35Z"/><path class="cls-77" d="M192,57.61c0-2-.09-4-.13-6,.13-.8.27-1.59.45-2.65l8.76-.4c0,1.35.1,2.69.16,4-.09,1.47-.17,2.94-.3,5Z"/><path class="cls-77" d="M126.2,52.59l-.13,5h-8.75c-.19-1.54-.34-2.79-.49-4,0-1.68.11-3.36.16-5h8.56C125.81,50.16,126,51.38,126.2,52.59Z"/><path class="cls-71" d="M128,123.58h64c-.69,1.24-1.38,2.48-2.05,3.66,2.09,2.74,3.84,2.1,6,.52,3.4-2.43,8.44-1.46,10.3,1.86.4.71-.16,2-.28,3a1.44,1.44,0,0,1-1.24.42,4.75,4.75,0,0,1-1.81-.94c-1.65-1.39-3.25-2.32-4.63.3-.9,1.86-.78,3.85-.9,5.82-.16,2.41-.67,4.65-3.69,5a2.18,2.18,0,0,1-1.61-1.32,13.21,13.21,0,0,0-1.42-3c-1.28-1.89-1.71-4.19-2.87-6.13s-2.62-3.06-4.39-.51a13.24,13.24,0,0,0-.76,8.84c2.08,8.73,1.08,17.55,1.31,26.33a46.67,46.67,0,0,0,.93,7.91c.43,2.14,1.43,3.33,3.76,2.81,3-.82.9-4.91,3.86-5.77,4.18,1,5,2.65,4.07,7.76-.2.18-.41.35-.62.52-7.51,3.18-15.42,1.7-23.18,2-1.57.05-3.46.44-3.81-2,1.05-1.74,2.9-1.28,4.44-1.64a2.38,2.38,0,0,0,1.68-1.49c-.19-3.6-2.13-6.62-3.24-9.9-1.18-3.49-1.44-6.72.72-10,2.81-4.24,2.33-9.22,2.82-14-1.83-11.41-4.3-13.45-15.88-13.13a28.14,28.14,0,0,0-3.43.27c-2,.43-2.91,1.72-3.57,3.58-.47,1.33-1,3.54-3.35,1.8-1-1.34-1-3.13-2-4.87-4-1.21-8.15-.8-12.34-.17-1.6,4.54-.5,8.9-1.19,13.09.57,5.78.5,11.46-2.35,16.75a4.59,4.59,0,0,1-5.22.37c-2.85-2.24-1.5-5.94-2.84-8.7-2-1.24-3.8-1-6,.61,1.8,3.73,4.09,7.14,3.84,11.5-.34,6-1.6,8.79-5,9s-6.29-3.06-6.88-8.37a61.92,61.92,0,0,1,1.21-19.76c1.18-7.32,5.54-10.92,12.84-10.62,1.14-2.77.35-4-2.24-4.45-6.23-1.12-10,.9-13.43,7.4-.35.79-.75,1.56-1.13,2.34a12.08,12.08,0,0,1-.44,1.19,6.89,6.89,0,0,0-.57,3.11,25.3,25.3,0,0,0,.22,3.58,5.72,5.72,0,0,1-1.26,3.72,4.8,4.8,0,0,1-3.87,1.07c-.79-.07-1.56-.33-2.36-.41a29.39,29.39,0,0,1-7.13-.54,4.61,4.61,0,0,1-1.43-.77,2.44,2.44,0,0,1-.76-2.83c2.15-2.1,4.94-1.49,7.51-1.69s4.13-1.08,2.92-4c-2.78-1.48-6.5,1-8.77-2.23-.2-3.61,2.67-3,4.73-3.48a4.32,4.32,0,0,0,2.15-1.3c1.21-1.82.55-4.37,2.33-5.94,2.85,1.82,5.31,2.84,8.12-.63,1.5-1.85,4.24-2.75,7.16-2.55,4.73.31,9.5.08,14.26.08Z"/><path class="cls-78" d="M126.26,160.58H131c3,4.33,3,14.42,0,19.08-3.7,1.56-7.37,3.23-11.12,4.67-4.41,1.69-12.69-.87-15.74-4.72-.78-1-1.5-2-3-4.11l-2.66,8.73c-3.54,1.33-7.38,3.13-11.41,4.21C81.4,190,75.8,185.71,74.49,178.37c-2.46,3.06-4.4,5.55-6.43,8a22.41,22.41,0,0,1-4.23,4.45,35.83,35.83,0,0,1-7.35,3.61c-2.45.92-3.79,0-5.28-2.89,1.08-1.54,2.8-1.62,4.41-2,6.06-1.41,9.85-5.08,11.59-11.12,2-7,1.82-14.18,2.74-21.26a96.1,96.1,0,0,1,1.41-9.85A35.52,35.52,0,0,1,73,135.41c1.47-2.11,4.82-.19,6.06-2.83l4-1.17c.21,5.56-3.22,10.3-3.49,15.75-.55,8.25-2,16.43-1.52,24.74a20.44,20.44,0,0,0,.83,5.86c1.5,4.31,4,6.11,8.09,5.63,6.08-.71,8.94-3,9-8a168.69,168.69,0,0,1,1.61-18.78c.67-1.79.81-3.86,2.63-5l3.69,0a2.19,2.19,0,0,1,.82,1.42c0,6-1,12,.89,17.89,1.26,3.75,2,7.93,7,8.65,7.46,1.08,10.74-1.66,11.5-9.21C124.42,167,122.93,163.24,126.26,160.58Z"/><path class="cls-5" d="M72.79,147.56c-.91,9.08-1.48,18.22-2.87,27.23a28.82,28.82,0,0,1-4.53,11.35C62.15,191,56.81,192,51.2,191.5l-3.09-2.94c-.39-.38-.76-.78-1.12-1.19a6.92,6.92,0,0,1-1.57-3c-1-9.29,1.2-18.34,2.25-27.46.4-3.46-.73-7.4,2.2-10.36a19,19,0,0,1,8.75,2.21c1.48,6.84-.9,13.45-1.21,20.18-.12,2.6-.79,5.18.37,8.06,2.79-1.29,2.91-3.68,3.24-5.83,1-6.56,1.59-13.17,2.07-19.79.15-2.13,0-4.38,1.9-6C67.77,145.48,70.48,145.76,72.79,147.56Z"/><path class="cls-79" d="M176.86,143.56c.44,6.53.45,12.95-5.25,17.91,1.75,4.49,3.61,8.89,5.14,13.4.52,1.5.19,3.29.24,4.95a5.58,5.58,0,0,1-2.15.26c-3.46.28-5.43-.79-7.15-4.39-2-4.22-2.95-8.67-4.62-12.92-.19,3.83-.33,7.67-.58,11.49-.12,1.74-.46,3.46-.7,5.19-2.19,1.21-4.45.54-7.95.26-.55-12-.8-23.94.45-35.94,1.88-2.15,4.22-2.19,6.71-1.45,3.86,1.71,1.87,6,3.87,8.89,4-1.59,2.18-6.93,5.68-8.65C172.86,141.61,175,141.64,176.86,143.56Z"/><path class="cls-80" d="M205.14,132.58h.9l2.37,4v13.31l1.24.06c1-5.82-.08-11.82.65-18.29l5.09-2.91c1.27,3.88.58,7.79.22,11.69-2,5.29-.34,10.84-1.11,16.27A137.64,137.64,0,0,0,213,175.53c0,1.58-.37,3.31,1.17,4.69,2.41-.89,1.78-3,2.09-4.61.6-3.1,2.09-5.28,5.44-5.52a6.73,6.73,0,0,1,7.18,4.25c1.3,2.89,1.29,6.18,2.77,9a3.2,3.2,0,0,0,2.65,1.3,20.55,20.55,0,0,0,3.31-.62c2.2-.39,4.89-1.62,4.43,2.56-2.83.67-5.65,1.71-8.52,1.91a8.12,8.12,0,0,1-8.45-7.78c-.12-1.79,0-3.58,0-5.67l-3.57-.2c-.16,1.49-.38,2.77-.42,4-.21,7-4.63,9.64-11,6.8a14,14,0,0,0-6.17-1c-3.57.21-6.16-.93-7.84-4.08h0c.73-.6.27-1.72,1-2.31a2.25,2.25,0,0,1,1.26,0c1.3.56,2.36,1.61,3.79,1.93A1.67,1.67,0,0,0,204,179.1c-.1-7.13.27-14.21-.76-21.29s.54-14.16.3-21.26C203.65,135.05,203.64,133.52,205.14,132.58Z"/><path class="cls-80" d="M242,186.58c-.9-3.88-3.26-.65-4.89-1-2.89-1.58-3.09-4.6-3.61-7.27-2.16-11.19-5-22.25-6.85-33.51-.53-5.1-3.49-9.94-1.63-15.3,3.08-.73,3.34,1.94,3.82,3.61,1.09,3.89,1.72,7.9,3.4,11.95a12.91,12.91,0,0,0,.73-2.79c.09-3.15,0-6.31,0-9.47,0-1.58.06-3.08,2.21-3.15,2.3,1.83,2.51,4.5,2.64,7.08.16,3.09.48,6.16.66,9.23.65,8.93,1.77,17.82,2.65,26.73A24.29,24.29,0,0,0,244.55,183a11.5,11.5,0,0,0,7,5.2c4.74,1.32,6.88,0,8.86-5.22a19.54,19.54,0,0,0,1.1-8.16c.62-4.75-1.45-9.78,1.5-14.28.66,1.56,1.85,3.1,1.9,4.69.23,6.15.18,12.32.07,18.48a10.73,10.73,0,0,1-15,9.56C246.52,191.87,243.55,190.19,242,186.58Z"/><path class="cls-79" d="M131,179.66l0-19.08,1-17a5.53,5.53,0,0,1,6.84-.86c1.32.8,1.8,2.35,2.86,3.35,8,1.81,9.07,2.65,9.13,6.85s-1.12,5.32-8.92,7.42c-1.43,2.21-2.38,4.57-1.06,7.36,3.13,1.89,7.55-.26,10.14,3.24,1.87,6.48,1,7.78-5.62,9.34-2.92.69-5.69,1.64-8.37-.5Z"/><path class="cls-81" d="M65.88,145.29c-.95,8.68-1.83,17.38-2.86,26.06-.47,3.89-.63,8.15-6.05,9.06-3.27-2.56-1.95-6.09-1.68-9.16.65-7.57,1.67-15.12,2.53-22.67-2.36-5-1.18-14,2.35-18a16.58,16.58,0,0,0,3.63-1.27c4.46-2.83,4.43-2.88,10.49-2.51L79,132.58c-.09,1.45-.18,2.91-.26,4.18-3.14,2-3.49-.61-4.41-2.18-1.89-.43-1.15-3.15-3.28-3.58-2.77.3-1.93,2.87-2.55,4.55C67.38,138.72,69,142.65,65.88,145.29Z"/><path class="cls-82" d="M27.91,199.4l-4.42-.78c.59-4.11,1.12-7.92,1.66-11.73.55-1.36,1.8-1.22,2.92-1.35,2.25-.26,4-1.75,4.09-3.69.21-3.16,2.1-5.88,1.87-9.06,0-1,0-2,.08-3.08a15.4,15.4,0,0,0,.42-3.18c.51-5.3,1-10.6,3.17-15.58,2.5-1.41,5-2.27,7.75-.49,1.24,1.53,1.29,3.33,1.11,5.17-.76,8-1.86,16.05-2.83,24.06-.29,2.39-.49,5-2.86,6.59L36,195.55C34.92,200.24,31.08,199.11,27.91,199.4Z"/><path class="cls-83" d="M236.13,128.83a5.94,5.94,0,0,1,6.84-2l7.1,2.83c3.87,5.76,2.61,12.5,3.59,18.81,1.7,8.14,1.7,16.47,2.67,24.69.54,4.52-1.31,7.48-4.43,7.66-4.17.25-6-2.62-6.66-6.07-1.67-8.78-2.13-17.72-2.84-26.62-.43-5.41-.44-10.88-1.85-16.09C239.45,130.32,237.13,130.5,236.13,128.83Z"/><path class="cls-82" d="M276.22,147.26c.83,6.37,1.7,12.75,2.49,19.14,1.09,8.9,2.2,17.81,3.09,26.74.16,1.54,1.88,4.21-1.69,4.59-2.81-.32-6.42.53-6.19-4.24-.75-8-1.47-16.06-2.26-24.09-.61-6.23-1.31-12.45-2-18.68C271.37,148.65,274.23,148.77,276.22,147.26Z"/><path class="cls-84" d="M276.22,147.26c-.2,1.24-.4,2.49-.56,3.46h-6c-.26-.71-.53-1.42-.79-2.14a3.76,3.76,0,0,1-.82-2,6.17,6.17,0,0,0-1-3.59,4.27,4.27,0,0,0-2.25-1.81c-5.61-2.12-6.88-6.08-3.76-11.55h25.2l-6.15,10.71-3.88.23Z"/><path class="cls-85" d="M40.87,186.28q1.92-15.39,3.82-30.8c.2-1.62.23-3.27.34-4.9-1.52-7.05-1.33-13.84,3-20l5-1.16a20.15,20.15,0,0,1-2.14,16.84c-.93,7.48-2,14.94-2.73,22.44-.55,5.56-.71,11.16-1,16.74.48.62.37,1.45.73,2.11l.29,1Z"/><path class="cls-37" d="M78.09,146.57c0-5.58,2.11-10.49,4.94-15.16,5.28-3.62,10.92-3.66,16.77-1.73L99,137.9a8.94,8.94,0,0,1-2.31.18c-1.82.09-3.65-.22-5.1.15-3.81,2.41-2.81,7.8-6.94,9.65C82.2,148.62,80,148.51,78.09,146.57Z"/><path class="cls-86" d="M225.05,129.5l3.18,14.75c-.49,3.65-3,2.86-5.4,2.53a3.67,3.67,0,0,1-2.26-3.12c-.24-.45.42-1.16-.71-1.6,1,.54.53,1.23.69,1.77a2.39,2.39,0,0,1-1.28,2.77,4.82,4.82,0,0,1-5.12-.66,7.8,7.8,0,0,1-.26-5.7l1.5-11.5Z"/><path class="cls-87" d="M48.05,130.58c-.7,5.4-1.37,10.81-2.12,16.2-.18,1.28-.6,2.53-.9,3.8l-7,1c-2.22-2-2-4.74-1-6.87,1.67-3.78,1.12-6.91-.94-10.24-.86-1.38-2.53-2.91-1-4.91C39.37,129.58,43.88,127.88,48.05,130.58Z"/><path class="cls-88" d="M137,179.78l12.83-.6v-8.52a14.83,14.83,0,0,0,2.23-8.89c-.23-6.71.16-13.45-.23-19.87-3.25-1.88-6-1.13-8.76-.79-3,.36-4.65-.55-3.21-3.91,3.36-2.43,6.9-1.85,10.47-.61l1.21-5.47,3.51-1.51c3.15,4.62,2.91,9.27.15,13.95v35.89h6.59c-.39.38-.77,1.07-1.18,1.08-3.14.09-6.3-.15-9.42.12-2.35.2-4.63,1.27-7,1.47-3.18.27-6.39.06-10.81.06Z"/><path class="cls-86" d="M50.86,146.26q1.06-8.41,2.14-16.84c2.43.14,5.12-1.32,7.17,1.16q-1.17,9-2.35,18L52,149.93C51.49,148.35,51.17,147.3,50.86,146.26Z"/><path class="cls-89" d="M261.05,129.6l.57,9.64,6.47.54v3.69c.75.9.19,2.11.7,3.08,0,.68.07,1.35.1,2l-3.32-5.06-3.64-1-1,.66c2.88,5.65,2,11.57,2.13,17.43q0,7.5-.05,15a1.12,1.12,0,0,1-1.47-.18c-1.29-1.61-1.34-3.5-1.33-5.42a12.9,12.9,0,0,0-.58-4.53,21.16,21.16,0,0,1-.41-4.63,12.93,12.93,0,0,0-.7-4.53c-.49-2.68-1.21-5.32-1.06-8.08,0-6.24-2.95-12.42-.39-18.7Z"/><path class="cls-90" d="M257.05,129.51q1,9.54,2.06,19.08c-2.32,2-4.64,2.19-6.94,0l-2.1-18.9Z"/><path class="cls-91" d="M236.13,128.83l6.69.33,1.2,18.42c-2.71,2.28-5,1.44-7-1q-.88-8.46-1.75-16.93Z"/><path class="cls-92" d="M35,129.56c5,6.8,3.75,14.44,3,22q-1.2,8.05-2.42,16.12a4.56,4.56,0,0,1-.45,2.11c-.07.92-.15,1.84-.22,2.77a1.19,1.19,0,0,1-1.86,0c0-2.64-.73-5.55.13-7.88,2.76-7.43.38-15.54,3.45-22.93.6-1.45-.3-3.7-.92-5.44-.8-2.23-2-4.31-3.37-7.16Z"/><path class="cls-88" d="M163.07,162.77a9.48,9.48,0,0,1,2,2.3c1.88,4.67,3.61,9.4,5.42,14.18l4.56.56c.39.17.51.34.38.51a.53.53,0,0,1-.39.24l-6,0-3.28-5.48-2.69-.21Z"/><path class="cls-93" d="M33,172.58H34.9c-.16,1.77-.24,3.56-.52,5.31-1.25,8-1.47,8.19-9.23,9a10.56,10.56,0,0,1,1.53-2.19c.71-.62,1.74-.84,2.52-1.4a3.74,3.74,0,0,0,1-1C31.33,178.42,32.18,175.5,33,172.58Z"/><path class="cls-94" d="M273.92,193.49c1,3,4,3,6.19,4.24l-8,1.9c-2.67.65-5,.84-4.13-3.13Z"/><path class="cls-95" d="M27.91,199.4,36,195.55l4,3.06c.71,1.4,1.35,2.78-1.09,3.07Z"/><path class="cls-96" d="M268,196.5c.17,2.63,2,3.12,4.13,3.13l-9,2c-1.18.51-2.21.75-2.12-1.12Z"/><path class="cls-97" d="M38.94,201.68c.36-1,.72-2.05,1.09-3.07l7.31,4L47,203.76Z"/><path class="cls-98" d="M261,200.53l2.12,1.12-4.2,1-.3-1Z"/><path class="cls-5" d="M202.07,181.78c-2.11-.12-3.79-.82-4.16-3.2a9.21,9.21,0,0,1-1.66-2.6c-2.72-6.53-5.6-13-6-19.21A63.55,63.55,0,0,1,191,178c-.13,1-.2,2-1.28,2.48h-7c-.21-5-.41-9.39-.58-13.79-.4-10.4-.84-20.8-1.12-31.2a33.08,33.08,0,0,1,.9-6c3.49,3.05,1,7.58,2.79,11.22,2.3,1.78,5.55,1.35,8.09,2.86,3.14,1.24,3.28,4.1,3.75,6.82.31,1.76.51,3.54.89,5.21a1.89,1.89,0,0,1,0-.32c-.36-3.51-2.09-6.93-.32-10.45,1-1.58,3-1.77,4.27-3,1-1.63.73-3.8,2.21-5.23a.9.9,0,0,1,1.34.07c.52,13.75,1.07,27.5,1.5,41.25,0,1.49-.62,3-1,4.5C204.42,182,203.18,182.25,202.07,181.78Z"/><path class="cls-99" d="M78.09,146.57l7,0c2.07,1.65,1.53,3.9,1.25,6-.74,5.47-.3,10.95-.29,16.42,0,1.24-.13,2.76,2.37,3.4.46-4.12,3-7.88-.38-12a7.15,7.15,0,0,1-.62-8.81c1-1.34,2.63-.17,3.78-.93l7.75-.07c1,1.94.54,3.95.32,5.94-.48,6.64-1.14,13.26-1.37,19.9-.14,4.11-1.85,6.57-5.75,7.62-.31.09-.61.26-.93.36-9.81,3.11-15.12-.26-15.07-10.54C76.23,164.77,77.41,155.67,78.09,146.57Z"/><path class="cls-5" d="M126.26,160.58c-.32,5.93-.63,11.87-.92,17.45-10.28,7.25-18.59,4.56-21.53-6.48a134.52,134.52,0,0,1,0-18.94l.06-1,.2-3.92c.68-.91.41-2.19,1.18-3.07,2.32-2,4.62-2.26,6.91,0-.32,6.31-.7,12.63-.93,18.94a17.46,17.46,0,0,0,.57,4.93c1,4,2,4.45,6.9,3.16V158.57l-3.64-1.16c.15-2.3.3-4.7.47-7.44h10.73Z"/><path class="cls-37" d="M155.2,143.56l-.15-13.95a25.22,25.22,0,0,1,15.86.48c3.41,1.14,4.8,4.27,5.33,7.67.3,1.92.42,3.87.62,5.8l-7.21.19c-1.89-.2-2.12-2.29-3.49-3.12-2.13,0-1.7,3.17-3.84,3.07Z"/><path class="cls-37" d="M112.16,144.63l-7.16,1a3,3,0,0,1-.46-2.13c.1-1-.29-2,.52-2.86v0c.53-.56.4-1.39.78-2,2.25-9.63,9.63-11.92,20.11-8.89V138C118.82,135.59,113.83,137.11,112.16,144.63Z"/><path class="cls-38" d="M150.33,136.59,140,137.85c-1.55,1.67,1.25,4.22-1.16,5.71l-6.88,0v-14.3h18.33Z"/><path class="cls-100" d="M88.16,151.94v7.63l3.79.54-1.08,14.07c-4.46,2-6.64,1.18-6.79-3.29-.19-6.1.28-12.23.52-18.34.08-2,.35-4,.53-5.94.2-.24.51-.46.58-.74,2-8,3.29-9,11.33-8v.58c-2,.79-5-1.49-6,2.09,0,2.83.34,5.75-2,8l1,1.8C89.79,151.35,88.33,150.87,88.16,151.94Z"/><path class="cls-91" d="M193.09,144.57l-11.1-1.3v-13.8c5.6-1.41,6.42-1,8.14,4.16.56,1.68,1.28,3.3,1.93,5a1.73,1.73,0,0,1,.49,2.18l.61,1.81A1.47,1.47,0,0,1,193.09,144.57Z"/><path class="cls-101" d="M204.21,136.25c-.15,2.55-.3,5.1-.48,8.07l-5.92.34a1.94,1.94,0,0,1-1.67-2.5c.85-3.83-.13-7.76.74-11.57,3-3,5.51-2.6,7.36,1A7.88,7.88,0,0,1,204.21,136.25Z"/><path class="cls-102" d="M189.74,180.47c-.18-7.75-.38-15.5-.54-23.25a17.31,17.31,0,0,1,.72-6.17l7.23,25.23a2,2,0,0,1-.11,2.3c-.34.66-.67,1.33-1,2,0-2.88-.29-5.67-3.58-8.34-.19,2.27-.37,3.78-.41,5.28S191.81,180.5,189.74,180.47Z"/><path class="cls-69" d="M89,148.58a39.33,39.33,0,0,1,.11-5.75c.13-.83,1.23-1.5,1.89-2.25l10.59-.78c.17,3,.3,5.41.49,8.78Z"/><path class="cls-103" d="M196.88,130.59l.93,14.07.09,12.88c-.36.38-.59.3-.71-.19q-2.06-6.39-4.1-12.78l.07-2c2.91-.77,2.71-3.16,2.9-5.42S196.6,132.77,196.88,130.59Z"/><path class="cls-69" d="M99.31,156.53q-.15-3-.32-5.94l1.19,1Z"/><path class="cls-69" d="M204.21,136.25l0-4.66.9,1-.15,4.11A3.33,3.33,0,0,0,204.21,136.25Z"/><path class="cls-103" d="M192.55,140.76c-.16-.73-.32-1.46-.49-2.18.55.2,1.1.41,2,.78Z"/><path class="cls-69" d="M104.8,143.59l.2,2-.93,2.08c0-1.36,0-2.72,0-4.09C104.32,143,104.56,143.05,104.8,143.59Z"/><path class="cls-69" d="M88.16,151.94,90,150.38l1.2.28Z"/><path class="cls-78" d="M104.8,143.59l-.74,0,1-3C105,141.59,104.89,142.59,104.8,143.59Z"/><path class="cls-69" d="M175,180.56c0-.25,0-.5,0-.75h2Z"/><path class="cls-69" d="M105.85,138.6l-.78,2Z"/><path class="cls-69" d="M97,138.49c0-.2,0-.39,0-.58H99Z"/><path class="cls-101" d="M65.88,145.29c.41-5,.83-10.1,1.32-16l7.6-.36c-.19,2.52-.31,4.1-.43,5.68q-.8,6.49-1.58,13l-6.32.49C66.27,147.11,66.07,146.2,65.88,145.29Z"/><path class="cls-69" d="M103.81,152.61v0Z"/><path class="cls-69" d="M47.82,187.55l-.73-2.11C47.34,186.15,47.58,186.85,47.82,187.55Z"/><path class="cls-104" d="M162.32,143.7c.25-1.92.51-3.83.77-5.75,4.65-.54,5.12-.13,6.56,5.8-.11,1.64-.13,3.3-.36,4.93-.63,4.59-.91,4.79-6.56,5.15C162.59,150.45,162.45,147.08,162.32,143.7Z"/><path class="cls-79" d="M213.89,140.24l.58,5.32h5.39c2,1.85,1.4,4.16,1.25,6.45s-.44,4.87.67,7.21c1-4.54-2-9.17.34-13.65l6.11-1.32,8.91,41.33-3,1c-.86-.84-2.1-.19-3-.78-.66-.78-1.68-1.46-1.9-2.35-.89-3.53-1.54-7.11-2.32-10.92l-7.93-1.14c-.41,4-.79,7.72-1.23,12l-7.29-.92c.27-4.25.5-8.16.78-12.07q1-13.92,2-27.85A11.25,11.25,0,0,1,213.89,140.24Z"/><path class="cls-69" d="M202.07,181.78l3.47.66Z"/><path class="cls-69" d="M231.07,185.78l3,.78Z"/><path class="cls-69" d="M197,178.58c0-.77.07-1.53.11-2.3.25.77.51,1.53.76,2.3Z"/><path class="cls-5" d="M237,146.58l7,1c.67,6.25,1.32,12.51,2,18.76a76.88,76.88,0,0,0,1.2,8.87c.68,3,2.31,5.17,6.33,4.19,2.11-4.6.32-9.35.07-14-.3-5.62-1-11.21-1.47-16.82l6.94,0c.4,2.68.79,5.35,1.19,8,.55,1.32-.19,2.85.68,4.11.1,1.63.2,3.26.31,4.89.48,1.44,0,3,.63,4.43.14,1.84.28,3.69.41,5.53a31.57,31.57,0,0,1,0,7.95c-1.09,7.41-5,8.9-12.35,6.49a13.39,13.39,0,0,1-8.74-8.94,49.72,49.72,0,0,1-2.15-10.18C238.22,162.81,237.67,154.69,237,146.58Z"/><path class="cls-69" d="M262.31,183.53q0-4,0-7.95H263C262.76,178.23,262.54,180.88,262.31,183.53Z"/><path class="cls-105" d="M138.88,143.56q.57-2.85,1.16-5.71l.2,1.49,13.39-1v31.71l-3.8.59h-11V157.48H149V149.1h-9.69C139.16,147.1,139,145.33,138.88,143.56Z"/><path class="cls-69" d="M35.12,169.81l.45-2.11Z"/><path class="cls-69" d="M268.79,146.55c-.23-1-.47-2.06-.7-3.08C268.32,144.49,268.56,145.52,268.79,146.55Z"/><path class="cls-106" d="M222.12,145.57c1,5.51,1.95,11,3,16.8H219c.3-5.73.58-11.27.87-16.81l.3-2.92.38-.66.42.64C221.35,143.6,221.74,144.58,222.12,145.57Z"/><path class="cls-107" d="M221,142.62l-.4,0-.4,0,.13-1.82h.48Z"/><path class="cls-69" d="M261.92,170.05l-.63-4.43Z"/><path class="cls-69" d="M261,160.73l-.68-4.11Z"/><path class="cls-108" d="M197.19,157.35a5.71,5.71,0,0,1,.71.19l.91,1.15-.69.45Z"/></g></g></svg>