<svg xmlns="http://www.w3.org/2000/svg" viewBox="0 0 265.41 331.03"><defs><style>.cls-1{fill:#331734;}.cls-2{fill:#1ca252;}.cls-3{fill:#065426;}.cls-4{fill:#fefefe;}.cls-5{fill:#eaebeb;}.cls-6{fill:#fdfefe;}.cls-7{fill:#e1e1e1;}.cls-8{fill:#6f8094;}.cls-9{fill:#adb7b1;}.cls-10{fill:#eff5f1;}.cls-11{fill:#eff0ef;}.cls-12{fill:#8d9ba4;}.cls-13{fill:#8998a1;}.cls-14{fill:#fdfdfd;}.cls-15{fill:#f0f0f0;}.cls-16{fill:#f4f7f5;}.cls-17{fill:#e7eeea;}.cls-18{fill:#e9f0ec;}.cls-19{fill:#60bd85;}.cls-20{fill:#62c088;}.cls-21{fill:#60be86;}.cls-22{fill:#63c188;}.cls-23{fill:#62c087;}.cls-24{fill:#56b17a;}.cls-25{fill:#64c28a;}.cls-26{fill:#5fbc84;}.cls-27{fill:#5cba82;}.cls-28{fill:#0b572a;}.cls-29{fill:#0a572a;}.cls-30{fill:#0d592c;}.cls-31{fill:#065326;}.cls-32{fill:#085528;}.cls-33{fill:#186035;}.cls-34{fill:#125c31;}.cls-35{fill:#23683f;}.cls-36{fill:#23673f;}.cls-37{fill:#1f653c;}.cls-38{fill:#e9e9e9;}.cls-39{fill:#e8e9e9;}.cls-40{fill:#fdfefd;}.cls-41{fill:#fcfdfd;}.cls-42{fill:#517c63;}.cls-43{fill:#739681;}.cls-44{fill:#70927e;}.cls-45{fill:#547f64;}.cls-46{fill:#0a4e26;}</style></defs><title>Asset 5</title><g id="Layer_2" data-name="Layer 2"><g id="Layer_1-2" data-name="Layer 1"><path class="cls-1" d="M235,223c-.81,5-.63,9.7-1.09,14.3-1,10.68-4.79,20.26-10.19,29.27-9.46,15.79-22.71,28-37.54,38.6a251,251,0,0,1-32.83,19.64c-3.55,1.8-7.23,3.33-10.85,5a13.86,13.86,0,0,1-12-.16c-17.64-7.85-34.48-17.18-49.63-29.1-13.86-10.91-26.34-23.36-34.29-39.57-4.57-9.34-7.41-19.08-7-29.62.17-3.8,0-7.62,0-11.49-5.69-1.75-10.94-3.6-14.86-8a23.18,23.18,0,0,1-6.15-15.27,101.86,101.86,0,0,1,1.77-19.23c.56-3.39.7-6.89,1.22-10.32a11.34,11.34,0,0,0-2.14-8.4c-5.83-8.65-11.35-17.51-17.09-26.22-3-4.59-3.26-9.33-.72-14,2.42-4.48,6.52-6.38,11.61-6.24,3,.08,5.94,0,8.7,0,.8-1.75-.27-2.63-.66-3.65-1.25-3.31-1.7-6.51-.42-10a38.54,38.54,0,0,0,1.86-11.69c.14-3.22-1.88-5.58-2.32-8.57-.75-5.08,1.56-11,6-13.43,2.17-1.21,4.26-2.58,6.5-3.65,2.06-1,4.26-1.69,6.37-2.51a11,11,0,0,0,.29-5c-.13-1.93.18-4,1.23-5.23C44.64,44,46.42,38.19,51.48,34.82c9.57-6.38,21.65-4.58,27.42,5.66,1,1.72,1.47,3.72,2.89,5.14,1.64.83,3.31.45,5.2.45,6.91-7,15.57-11.15,25.29-13.35-1.34-3.74-3.64-7.57-1.49-11.4,4.46-7.94,7.84-17,17.71-20.22,11.37-3.67,24.31,2,26.32,14.57a13.43,13.43,0,0,0,.88,2.25c14.35-.71,22.88,5.81,24.29,20.89,2.95,1.72,3,5.74,5.28,8.15,1.88-.4,1.56-1.93,1.94-2.88,3.47-8.66,12.59-12.28,21.4-10.74,8.43,1.48,15.9,10.45,15.12,18.45-.27,2.73.88,5.18,1.26,7.71A5.79,5.79,0,0,0,228.16,61c6.29.49,10.4,4.16,13.12,9.39,1,2,2.89,2.64,4.15,4.14a14.49,14.49,0,0,1-.76,19.68c.82,5.89-.7,11.57-4.32,17.37,4.08.93,7.68.34,11.2.49a18.92,18.92,0,0,1,6.32,1c7.12,2.72,10.18,13,4.81,19.61-4.26,5.28-8.46,10.61-12.75,16-.87,3.31.48,6.59,1,9.72,1.82,10.72,2.36,21.61,4.6,32.29a29.07,29.07,0,0,1,0,13.69,23.82,23.82,0,0,1-15.05,16.7C238.76,221.75,237,222.28,235,223Z"/><path class="cls-2" d="M44.73,216c-2.34-2.28-5-2.11-7.36-2.74C28.16,210.77,22,199.64,24.3,190.49c1.53-6.21,1.67-12.76,2.42-19.16a9.55,9.55,0,0,1,.13-2.48c2.31-5.52-.15-9.84-3.14-14.25-5.31-7.83-10.39-15.81-15.56-23.74-.18-.27-.32-.58-.49-.87-4.1-7-1-12.72,7.06-12.83,6.66-.09,13.33,0,20,0h9c1.28-1.2.9-2.21.86-3.6-3.5-1.35-7-3.07-11-3.35-6.13-.43-9.26-5-6.93-10.56a12.44,12.44,0,0,0,1.11-5.29,29.66,29.66,0,0,1,.62-5.91c.55-3,.76-6-1.4-9-2.89-4-1-8.33,3.66-10.42a25.16,25.16,0,0,0,3.12-1.55c6.22-3.86,6.92-4,13.46-2.61,1-1.62,1-1.62-2.22-10.37a10.49,10.49,0,0,1,3.58-6.85,10.1,10.1,0,0,0,2-3.37c3.25-7.13,9.55-8,16-7,5.47.88,8.84,5.87,9.19,12.58A2.64,2.64,0,0,0,76.52,52c4.66-1.82,9.09-.17,13.61,2.23C91.5,48.69,94.45,45,100,44c.59-.12,1.08-.75,1.6-1.15,5.16-4,10.65-5.15,16.66-1.94a6.62,6.62,0,0,0,1.84.3c1-2.89.43-5.81.41-8.67-.52-.56-1-1-1.43-1.51-4.69-4.76-4.73-8,.29-12.56,1.52-1.39,1.66-3.16,2.44-4.73a14.17,14.17,0,0,1,13.73-8.3c6,.2,11.11,3.12,13.52,9.35a13.85,13.85,0,0,1,.71,4.38c.12,2.13-.35,4.31.31,6.44,13-6.62,25.84,1.59,23.8,15.63,3.94,2.69,6.07,6.3,4.11,11.87a18.44,18.44,0,0,1,9.82.08c1.89-1.59,3.41-3,4.22-5.46,2.31-7,7.14-9,12.83-8.91,7.6.15,12,5.16,13.05,10.73a54,54,0,0,1,.84,8.38c.06,2-.29,4,.4,5.93a8.38,8.38,0,0,0,6.35,2.32c5.37.06,9,2.94,11.25,7.64.72,1.49,1.33,2.84,2.94,3.79,4,2.39,5.92,7.89,1.1,12.1a23.29,23.29,0,0,0-1.95,2.17c0,3,1,5.79.11,8.91-1.92,6.93-6.16,11.21-12.81,13.3-1.42.45-3,.35-3.23,2.28,1.34,1.33,2.92.75,4.32.76,7.33.07,14.66,0,22,0a29,29,0,0,1,3.49.08c6.07.8,8.94,6.78,5.52,11.85-2.23,3.29-4.87,6.3-7.37,9.41-2.29,2.84-4.63,5.64-7,8.54-.36,3.3.66,6.55,1.13,9.77,1.36,9.31,2.5,18.65,3.89,28,.47,3.1.65,6.24,1.34,9.32a19.12,19.12,0,0,1-12.44,22.15c-2.79.95-5.68,1.61-9,2.55,0,2.68-.14,5.48,0,8.27,1,17.15-5.44,31.74-15.52,45.07-11.39,15.07-26,26.36-42,36.19-9,5.59-18.52,10.39-28,15.13a13.09,13.09,0,0,1-12.35.2c-17.25-8.27-34-17.33-48.85-29.59-9.92-8.2-19-17.12-26-28-7.36-11.56-11.94-24-11.34-38C44.87,224,44.73,220,44.73,216Z"/><path class="cls-3" d="M75.64,213.13a3.27,3.27,0,0,1,2.44-1.56A239.34,239.34,0,0,1,108,205.21c9.73-1.4,19.53-1,29.31-1.12,18.72-.32,36.76,3.35,54.48,9,1.71.54,3.7.68,4,3.06a3.12,3.12,0,0,1,1,3.17,184.73,184.73,0,0,1-4.66,20.4c-.6,2.06-2,3.63-4.37,3.27-2.61-.39-3.46-2.44-3.53-4.75-.13-4,1.21-7.86,1.95-11.77.42-2.23,1.2-4.62-1.7-5.88-3,2.48-5,9.12-3.79,12,2.53,5.9,2.53,5.9,1.28,12.14,7.16,5.52,7.16,5.52,4.81,17.25.08,1.57,1.94,2.25,2.06,3.84-1.06,5.31-1.74,5.82-6.84,4.94-1.07,3.88,0,8-1.13,11.84-1.57,4.68-3.78,8.69-9.47,9-2.72,0-5.45-.09-8.17.09-6.52.32-8.8-5-12.12-9.29a158.78,158.78,0,0,1-29-.09c-4.67,9.08-12.53,11.5-21.52,9-10.2-2.85-8.11-12.35-9.13-20.17-2.62-.13-4.27.42-5.42,3.11-1.79,4.16-4.72,4.89-9.3,3A6,6,0,0,1,72.05,275c-8.2-8.87-14.7-18.79-18-30.48a50.19,50.19,0,0,1-2.24-17.12c.31-4.6-.37-9.24.46-14.37,5.37,1,10.47,2,15.31,4.09,2.17.92,2.48,3,3,4.91,2.1,8.23,3.93,16.53,5.93,24.78.68,2.79,1.3,6.09-2.47,7-3.49.89-5-1.89-6-4.69-.85-2.36-1.27-4.83-1.88-7.25-.44-1.73-.67-3.64-2.82-4.21-2,1.17-1.52,2.92-1.27,4.5.38,2.47,1.09,4.87,1.71,7.29,2.09,8.18,2.26,8.39,10.63,8.76,2.83.12,4.79,1.06,5.8,3.78.45,1.22.7,2.6,2.26,3.62,2.56-.39,3.8-1.87,3.33-4.74-.08-.49-.22-1-.32-1.46-1.91-9-1.91-9,5.65-14.15-1.6-4.36-1.11-8.47,1-13.06,1.56-3.33-.11-7.76-2.82-11.08-3.45,0-3.44,2.1-3,4.4.67,3.43,1.49,6.83,2.21,10.26.38,1.8.7,3.62-.17,5.38-1.51,3-5.75,3.75-6.64.89C78.75,232.65,74.88,223.35,75.64,213.13Z"/><path class="cls-3" d="M126.79,91c-.09-.8.12-1.68-.73-2.47a23.12,23.12,0,0,1-16.41-2.83c-2.32-1.34-4.93.07-7.28-.9.08-1.69,2.13-2.16,2.23-4.64-1.85-7.51-.68-15.91.17-24.25l-3.89-4.2c2-.84,4.06-.88,5.27-3,1.35-2.36,5.17-3,7.54-2a6.06,6.06,0,0,1,4,6.22c0,5.16-.08,10.32,0,15.48.06,5.84,2.44,7.52,8.47,5.89,1.2-2.91.39-6.07.56-8.87-.68-2.13-2.65-2.75-3.69-4.17.58-1.56,2.09-.76,3.14-1.48a5.42,5.42,0,0,0,1.5-3.89V27.2c-1-1.45-2.49-1.52-3.46-2.45.29-1.76,2.45-1.53,3.32-3.44,0-.26.06-1.08.19-1.89.77-4.79,3.24-6.65,8.39-6.31,4.29.28,6.48,2.55,6.57,7.12.11,5.32,0,10.64,0,15.65.85,1.76,3.18.9,3.58,2.78-.53,1.55-2.53,1.5-3.58,3.61V59.08c1.37,1.54,2.79,1.14,4.05,1.1,3.45-.11,4.85-1.4,5-4.82.14-4.16,0-8.33,0-12.49,0-1.66-.07-3.33,0-5a7.62,7.62,0,0,1,12-6,5.79,5.79,0,0,1,3,5.4c-.18,3.31,0,6.63,0,9.29.93,2.11,2.91,1,3.63,2.37,0,1.59-2.19,1.45-2.5,2.88-.24,6.4.95,13.21-4.43,17.25-1.34,2.09.54,3.19-.36,4.79-6.5-2.5-12.87,1.76-19.47,0-1.48,3.63-.5,7-.86,10.21-.19,1.73.79,3.69-.94,5.14-2.09,1.16-3.36-.58-4.75-1.44C133.64,89.2,131.25,93.38,126.79,91Z"/><path class="cls-3" d="M39.28,72.19c2.51-.09,4.5-.34,7.09.59,1,6.76-.2,13.73.47,20.45,2.3,2.27,4.44,2.34,6.59.26.55-6.24.55-6.24-2.39-10,2.1-.4,3.85-1.17,3.66-3.68-.55-7.16,1.17-14.2,1.09-21.34,0-2.12-.14-4-3-4.62,2.32-1.52,3.75-2.75,4.14-5.27.47-3.07,3.18-4.62,6.24-4.47a5.5,5.5,0,0,1,5.38,4.93,16.17,16.17,0,0,1-.16,6.43,29.62,29.62,0,0,0-.52,7.91l2.61,1.4c-4.5,5.33-3.57,11.57-3.65,17.62,5.11,1,5.79.47,7.08-3.67,1.17-3.77.73-7.57.84-11.37a11.21,11.21,0,0,1,1-5.31c1.88-3.4,3.94-3.31,7.73-2.81,2.27.3,3.23,2.13,3.29,5.36,0,2.49,0,5,0,6.95.44,1.72,1.87,1.26,2.61,2.34-3.32,2.22-3,6-3.46,9.29-.74,5.11-3.62,8-8.23,9.5a29.92,29.92,0,0,1-11.77,1.38c.2,9.12-1.19,17.74-1.33,26.75H52.2c-1.54-4.61,1.9-9.32,0-14.32-2.86-.87-6.39.16-9.35-1.45A17.45,17.45,0,0,0,33.34,103c.16-1.72,1.77-2.23,2.2-3.74a12.12,12.12,0,0,1-.45-7.59c1.14-3.77.36-7.61.71-11.39.16-1.73-1.34-2.58-2-4.38A12.38,12.38,0,0,0,39.28,72.19Z"/><path class="cls-3" d="M203,120.86c-.62-2.36-1.16-4.43-1.69-6.48-1-1.62-3.36-1.44-4.45-3.45l4.46-2.2c.94-4.1.18-8.1-1.05-12.34-8.38-.77-17.44-.74-19.09-11.94-.93-1.73-3.4-.85-4.09-2.83.4-1.62,2.56-1.34,3.43-3.22.48-3.49.06-7.48.14-11.46s2.24-6.55,5.74-6.73a5.93,5.93,0,0,1,6.2,6.36c-.15,5.52,1.43,10.82,1.16,16,2.35,2.13,4.37,3.31,6.93.53-1.38-5.36-.79-11-1.09-16.62-.21-3.66-1.11-7.19-4.5-9.41.76-1.53,2.32-.52,3.24-1.62.72-1.15.19-2.69.35-4.15.4-3.62,2.24-5.22,6-5.2,3.28,0,5.85,2.11,6,5.35.25,5.78,1.82,11.46,1,16.58,1.57,2.74,4.56,1.86,5.72,4-.81,1.82-3.18,1.61-4.4,3.49-1.26,6.46.69,13.11.84,19.75,1.67,1.27,3.32.73,4.91.63,2.35-1.89,2.39-4.54,1.69-6.88-.95-3.15-.66-6.27-.72-9.4-.07-4.17,1.52-6.25,4.59-6.52,2.88-.25,5.35,1.79,6.3,5.28a13.66,13.66,0,0,1,.27,2.1c1.22,1.93,3.53,1.78,4.57,3.49-.51,1.69-2.89.86-3.73,2.48,0,3.64.05,7.28,0,10.92-.08,5.09-2.75,8.39-7.67,9.69a38.61,38.61,0,0,1-8.76,1.14c-1.83,4.26,1.75,8.31-.21,12.59Z"/><path class="cls-4" d="M126.79,91c4-.41,7-2.65,9.83-5.49,1.91,1.09,3,3.19,5.18,3.68,7.2,3.73,10.48,3.73,23.45-.08,1.16,2.93-.11,6.25,1.33,9.11,3.92,4.24,1.67,9.79,3,14.61a10.07,10.07,0,0,1-.48,6.81c-1.05,1.4-.73,3.2-1.18,4.45-1.85,2.06-4,2-6.21,2q-25.12,0-50.26,0c-2.17,0-4.36,0-5.84-2-.05-.27-.08-.55-.11-.82-.35-1.08-.29-2.28-1-3.25-1-7.16-1.1-14.21,2.35-20.87,1.38-3.11.23-6.55,1.42-10.17C114.27,91.05,120.33,93.49,126.79,91Z"/><path class="cls-5" d="M76.76,277.28l7.71-1.2c.94-2.55-.46-5.31,1.59-7.45,1.3-.05,1.34,1.54,2.3,2.06,1.69-.77,1.31-3,2.87-4A6.32,6.32,0,0,1,94,272.56c-.06,3.47-.25,6.94.54,10.42,1,4.29,3.49,6.64,7.74,7.26,6.21.9,12.08.48,16.12-5.17a32.49,32.49,0,0,0,2.6-5.18,87.63,87.63,0,0,0,31.56,0,29,29,0,0,0,5.29,8.83l5,1.66a31.87,31.87,0,0,0,8.94,0c4.5-1.15,6.76-4.33,7.83-8.6,3,1.84,6.93,1.8,9.52,4.53-4.12,4.62-9.63,7.37-14.64,10.81a9.52,9.52,0,0,1-4.74,1.2c-22.35,0-44.7-.43-67,.2-.65,0-1.31-.2-2-.22a129,129,0,0,1-25-19.58Z"/><path class="cls-6" d="M188,266.15l-.61-1.85a1.88,1.88,0,0,0-1.76.63,19.24,19.24,0,0,1-1.74,1.05l4.06-16.23c-3.39-1.51-7.38-1.46-9.82-4.75,3-2.37,4.11-5.37,3.51-8.6-.92-1.94-2.73-1.88-4-3.16.88-3.88,1.66-7.94,2.75-11.91.76-2.78,2.66-3.71,5.33-3.12a3.85,3.85,0,0,1,3.13,4.84c-.66,3.92-1.67,7.79-2.57,11.67a13.35,13.35,0,0,0-.59,5.41,3.64,3.64,0,0,0,4.21,1.78c2.15-8.43,4.33-17,6-25.8,1.15-1.12.63-3,2-4.06,1.25-2.48,3.28-2.58,5.46-1.6,1.94.87,3.36,2.21,2.42,4.66l-.69,3.14c1.4,2.41.63,4.83.07,7.26-1.75,7.58-3.45,15.18-5,22.85,2.19-2.17,2.1-5.19,2.9-7.85,1.69-5.62,4.27-8.18,7.77-7.44s4.79,3.93,3.6,9.93c-.58,2.94-1.33,5.84-2.11,8.72-2.07,7.62-4.68,9.69-12.62,10.12a7.26,7.26,0,0,0-2.59.45c-2.69,1.93-2.18,8-7.83,6.53C188,268.29,188.38,267,188,266.15Z"/><path class="cls-6" d="M75.64,213.13c2.56,7.9,3.85,16.12,6,24.12.48,1.76.89,3.52,1.38,5.45,2.06,0,3.62-.52,4.56-2.94-1.12-4.78-2.37-9.93-3.52-15.1-.75-3.36.18-5,3-5.76s4.52.15,5.46,2.87a18.57,18.57,0,0,1,1,3.87c.33,2.78,1.67,5.4,1.42,8.25-5.18,3.48-5.21,6.56-.16,11.83-2.45,3.11-6.47,3.06-9.85,4.65,1.33,5.25,2.6,10.31,4,15.8L86.08,265c-1.56,1.11-1.07,2.86-1.79,4.24-1.12-.62-2.09-1.2-3.11-1.68-.24-.11-.63.11-1,.19-1.33-2.45-1.15-5.43-2.66-7.88a66.9,66.9,0,0,1-6.84.58c-4.51-.08-6.79-1.9-7.86-6.18s-2.1-8.72-3-13.1c-1.1-5.21.23-6.49,5.79-5.68,2.28,2.08,1.87,5.17,2.74,7.79.67,2,.88,4.23,1.44,6.31.93,3.54,1.82,3.88,6,2.25q-4.12-17.31-8.25-34.73C68.27,211.66,70.29,210.66,75.64,213.13Z"/><path class="cls-7" d="M100.67,298.29c1.88-1.92,4.28-2.15,6.78-2.15,19.89,0,39.79.05,59.68-.05,2.54,0,4.75,1.55,7.29,1-3.9,3.92-8.93,6.15-13.6,8.88A221.22,221.22,0,0,1,137,318a81.7,81.7,0,0,1-12.87-5.85C116.11,307.92,107.91,303.92,100.67,298.29Z"/><path class="cls-3" d="M188.7,268c1.26.94,2.07-2,3.66-.09,1-3.06,1.88-5.93,2.79-8.78a60.71,60.71,0,0,0,6.58.78c4.64.05,6.93-1.76,8.12-6.36s2.29-9.32,3.32-14c.65-3-.43-4.81-2.88-5.31-2.2-.44-3.81.68-4.63,3.39-1.38,4.58-1.81,9.41-3.46,13.69-1.75,1.39-3.27,1-5.29.19L205,218.25c2.15,1.39,4.37.92,6.69.48,2.72-.52,5.27-2.08,8.37-1.39a11.94,11.94,0,0,1,1.63,6.92c-.07,6.42,0,12.78-1.76,19.12A73.14,73.14,0,0,1,207,268.24c-1.8,2.34-3.4,4.88-5.7,6.85-1.14,1-2.1,2.13-3.73,2.25-3.49,2.34-6.84,1.57-9.31-1.3C186.19,273.61,186.23,270.58,188.7,268Z"/><path class="cls-8" d="M205.67,215.11c-2.63-4.26-3.23-4.49-7.88-3.06-3.17-2.67-7.23-3.23-11-4.26-12.91-3.56-25.92-6.43-39.44-6.88-5.78-.19-11.59-1-17.36-.63-11.35.81-22.72,1.33-34,3.48a145,145,0,0,0-27.63,7.64,9.83,9.83,0,0,1-6.3.37c-6.74-1.58-13.47-3.23-20.23-4.72-6-1.31-9.72-4.75-10.93-10.79-.23-1.12-.46-2.34.73-3.18a3.46,3.46,0,0,1,3,1.14c2.44,5.88,7.45,7.55,13.15,9.27,10.74,3.25,20.64,2.94,31.48-.68,19.85-6.64,40.74-8.3,61.58-7.45,21.2.88,42,4.59,61.68,12.95a18.52,18.52,0,0,0,13,.93c4.31-1.25,8.73-2.11,13.12-3.06,4.84-1,8.85-2.91,10.18-8.23a4,4,0,0,1,1.45-2,2,2,0,0,1,2.37.18c2.5,5.24-3.15,13-9.08,13.87-6.88,1.07-13.5,3.2-20.26,4.71C210.88,215.29,208.31,216,205.67,215.11Z"/><path class="cls-9" d="M105.62,124.11h61.32c1.38-1.81.3-3.61.95-5.12,1.37.29,1.6,1,.87,2.18v2.33c1.21,1,2.42.6,3.55.6q37.69,0,75.38,0c1.47,0,3-.34,4.41.27a.43.43,0,0,1,.18.36,1.5,1.5,0,0,1-.28.41,6.38,6.38,0,0,1-4.1,1.5c-22.76-1.23-45.53,0-63.48-.52,17.48,0,39.77,0,61.57,0,1,2,.17,2.42-.43,2.93a25,25,0,0,1-8.37,1.14l-210,0c-2.81,0-5.71.31-8.18-1.55-.94-1.17-.2-1.86.81-2.2,1.6-.56,3.3-.32,5-.32h70c-24.09,0-48.19,0-72.28,0-3,0-5.91,1.33-8.86.05L13,125.06a2.26,2.26,0,0,1,.26-.59.69.69,0,0,1,.43-.2c1.16-.06,2.32-.16,3.48-.16Z"/><path class="cls-3" d="M106.86,99.17q-.64,10.41-1.3,20.81c-.2.45-.18,1.06-.88,1.13H78.58c-1-4.35-1.92-8.29-2.9-12.49,2.34-.54,4,1.22,6.46.9,1.32-4.7,0-9.85,1-15.78l6,12.37,7.69-20.2a35.56,35.56,0,0,1,1.92,9.22c.11,3.2-1,6.62,1.09,9.74,2.23-1,3.22-3,4.49-4.66C104.84,99.56,105.3,97.68,106.86,99.17Z"/><path class="cls-3" d="M168.76,121.17c-.25-.75,0-1.67-.87-2.18q-.66-10.39-1.31-20.77V85.79c4.55,5.76,5.53,13,9.5,19.57,1.79-3.54,3.31-6.56,5.15-10.19,2.72,5,.56,10.07,1.88,14.58,2.24.35,3.64-2,6-1.31-.51,4.2-1.91,8.18-3,12.73Z"/><path class="cls-10" d="M13.68,126.15c.64-1.38,1.91-1.09,3-1.09q41.73,0,83.48,0c1.09,0,2.35-.34,3.41,1.06-1.25,1.41-3,1-4.43,1-13.34,0-26.67,0-40,0-12,0-24,0-36,.05-1.46,0-3.38-1.07-4.38,1.09,3.27,1.43,4.59,4.62,6.64,7.19,4.56,5.74,6.68,13.3,13.76,17.26,2.89,1.61,1.47,7.32-2,10.06-2.53-.28-2.11-1.93-1.67-3.59l.2-2.41c-3.09-.3-4.24-2.93-5.69-5.17C24.56,143.13,19.13,134.63,13.68,126.15Z"/><path class="cls-10" d="M245.73,128.14c.62-.42.4-.89-.14-.93-1.48-.12-3-.11-4.48-.11q-32.91,0-65.82,0c-1.76,0-3.6.34-5.44-.57.68-1.94,2.22-1.42,3.37-1.43,7-.06,14,0,20.94,0l57.84.11c-3,5.12-7.3,9.28-10.87,14-1.49,2-3,3.87-4.49,5.71-.25,6.66,2,12.85,2,19.28a2.56,2.56,0,0,1-3,.44c-5.47-8.3-4.92-20.5,1.3-27.92C239.55,133.5,241.67,129.81,245.73,128.14Z"/><path class="cls-11" d="M188.7,268c-.78,2.6.34,5.15-.26,8l9.16,1.34c.43,1.39-.56,2.13-1.4,2.89-2.31,2.1-4.29,4.6-7.14,6.07a35.89,35.89,0,0,1-4.41-.2c-2.5-.42-4.85-1.2-5.11-4.33,0-3,.12-6,0-9a6.69,6.69,0,0,1,2.62-6.08c1.6.82,1.32,3,3.1,4.21.54-1.91,3-2.44,2.72-4.78A1.65,1.65,0,0,1,188.7,268Z"/><path class="cls-12" d="M35.56,159.16c.22,1.41-.25,3.34,2.26,3.07,1.89,1.6,1.9,3.79,1.69,5.94-.73,7.22-2,14.37-3,21.56-.26,1.83-.92,3.54-2.78,4.42-.88,0-1.71-.09-2.08-1.07-.07-7.89,1.78-15.59,2.49-23.41.2-2.27.46-4.55.59-6.84C34.83,161.56,34.36,160.18,35.56,159.16Z"/><path class="cls-13" d="M235.89,164l2.77.09c1.26,7.85,2.59,15.68,3.2,23.62.22,2.79,1.12,5.53.92,8.38l-2.12,0c-2-.72-2.57-2.43-2.91-4.25-1.46-7.77-2.44-15.61-3.38-23.45C234.18,166.81,234.3,165.14,235.89,164Z"/><path class="cls-9" d="M104.68,121.11l.88-1.13a6.3,6.3,0,0,1,0,3.31C104.74,122.75,104.87,121.87,104.68,121.11Z"/><path class="cls-14" d="M97.7,269.07A14.16,14.16,0,0,1,99,260.72c-2-2.49-1.94-5.23-1.09-8.44l6.47-3.92a7.37,7.37,0,0,0,.82-3.94L97.62,243c-1.67-1.4-1.94-3.16-1.82-5.28,3.26-2,6.88-1.18,10.68-.93,2.33-3.3,3.88-7.15,5.67-10.85,2-4.15,4.83-6.21,9.76-6,10.14.33,20.3.23,30.45,0,4-.07,6.63,1.54,8.37,5,2,4,4,7.95,6.06,12a49.26,49.26,0,0,1,5.63-.5,37.25,37.25,0,0,1,4.94.72,5.47,5.47,0,0,1-.49,5.3c-2.67,1.49-5.69,1.48-8.45,1.75-.56,1.69.26,2.85.38,4.12l6.56,3.85c1.13,3,1.12,5.82-.84,8.52a19.7,19.7,0,0,1,1.32,9.33c-1.64,4.84-5.9,2.78-9.06,3.27-2.19.34-4.76.18-5.06-3.09h0c.49-1,0-1.34-1-1.33-2.93,1.87-5.83,3.78-8.78,5.59a12.36,12.36,0,0,1-7,1.92c-5.13-.15-10.28-.2-15.4,0a15.05,15.05,0,0,1-9.33-2.67c-2.47-1.66-5-3.23-7.5-4.84-1,0-1.46.28-1,1.32h0c-.66,3.76-2.88,4.77-9.47,4C99.47,273.76,96.39,273.31,97.7,269.07Z"/><path class="cls-15" d="M161.72,270.14a1.76,1.76,0,0,0,1.48,1.16c4.25-.12,8.61.79,12.64-1.34.92,3.29.16,6.57-.43,9.74-.79,4.23-3.38,6.12-7.67,6.43-4.69.34-8.31-1.44-9.88-5.08a10.69,10.69,0,0,1-1-6.66Z"/><path class="cls-11" d="M97.7,269.07l.34,2.72c4.16.72,8.35.32,12.52.22.92,0,1.09-1.05,1.17-1.88l4.79,4.07c.4,8.51-4.16,13.06-11.77,11.85-3.19-.51-5.61-2.08-6.39-5.38C97.46,276.86,96.66,273,97.7,269.07Z"/><path class="cls-16" d="M103.06,214.09c-1,4.52-1.79,8.55-2.78,13.29-2.81-4.28-2.79-8.86-4.7-12.86C98,213.61,100.14,214,103.06,214.09Z"/><path class="cls-17" d="M166.38,223.75c1.45-1.85,3.42-2.58,5.84-3.83.45,4.11.86,7.78,1.33,12C170.36,229.49,168.6,226.45,166.38,223.75Z"/><path class="cls-18" d="M110.72,222.76c-1.72,2.4-4.31,3.55-6.73,5.79-.63-3.91,1.71-6.36,2.14-9.75C108.39,220,109.38,221.46,110.72,222.76Z"/><path class="cls-7" d="M171.71,290.37a11.08,11.08,0,0,1-8.94,0Z"/><path class="cls-11" d="M111.74,270.14a2.35,2.35,0,0,1-1.69-1.56c1-1.73,1.86-1.06,2.65.24C111.88,268.89,111.68,269.42,111.74,270.14Z"/><path class="cls-15" d="M160.75,268.81c.63-1,1.26-1.93,2.47-.6.27,1.25-.64,1.57-1.5,1.93C161.78,269.41,161.57,268.89,160.75,268.81Z"/><path class="cls-19" d="M137.42,17.47c1.42,2.91,2.23,27.77,1.34,36.74-.12,1.26-.41,2.27-1.74,2.76-1.89-.34-2.11-1.77-2.11-3.36q0-16,0-31.93C134.89,19.89,135.26,18.37,137.42,17.47Z"/><path class="cls-20" d="M161.45,62.2c-2.87-2.6-1.69-5.85-1.62-8.61.15-6.29-1.18-12.72.64-19.06,2.79.83,3.07,2.52,3.08,4.48,0,6.48.1,13,.18,19.44C163.76,60,163.64,61.43,161.45,62.2Z"/><path class="cls-21" d="M111.31,65.06c-1.19-4-.47-8.07-.45-11.86,1-1.33,2-1.44,3.42-.53a31.34,31.34,0,0,1,0,11C114.08,64.66,113.26,65.31,111.31,65.06Z"/><path class="cls-22" d="M63.17,48.32c1.62,0,2.33.71,2.25,1.52-.89,9.75-.51,19.58-1.9,29.3-.09.6-.76,1.07-2.14.66-2-5,.42-10.35.35-15.63S61.42,53.56,63.17,48.32Z"/><path class="cls-23" d="M82.35,62.32c1.4,2.52,1.81,16.26,1.12,19.67-.2,1-.54,1.94-1.79,2.1A2.09,2.09,0,0,1,80,81.47C81.62,75.18,79.38,68.4,82.35,62.32Z"/><path class="cls-24" d="M43.32,75c2.59,4.46.85,8.15-.15,11.89-1.84,0-2.33-1-2.35-2.2C40.76,81.49,41,78.28,43.32,75Z"/><path class="cls-25" d="M207,50.24c1.36,1.63,1.19,3.76,1.44,5.58,1.11,8.18,3.13,53.5,2.67,56-1.93.41-2.32-1-2.31-2.3,0-3.5-.64-6.93-.84-10.39-.52-9.1-.63-18.24-1.41-27.32-.53-6.29-.67-12.58-1-18.87C205.41,51.68,205.16,50.63,207,50.24Z"/><path class="cls-26" d="M188.26,83.08c-1.9-7.51-2-15,0-19.14,2.91,5.83.44,11.76,2.06,17.08C190.63,82,189.94,82.92,188.26,83.08Z"/><path class="cls-27" d="M227.72,95.84c-2.33-5.91-2.1-12-2-18.52C228.17,80,229.33,89.87,227.72,95.84Z"/><path class="cls-28" d="M143,98.18a115.52,115.52,0,0,1,.37,19.44,5.28,5.28,0,0,1-4.59.08c-1.16-2.36-.15-5-.76-7.07-.83-1-1.67-.85-2.69-.76-1.37,2.33.11,5.15-1,7.74-1.43.88-3,.72-4.7.08V98.93c1.69-1.43,3.22-1,5.13-.62v6.22a2.41,2.41,0,0,0,3.31.1c.08-1.75.17-3.7.26-5.65C139.68,97.13,141.31,98.31,143,98.18Z"/><path class="cls-29" d="M157.78,117.82a49.67,49.67,0,0,1-11.25.12c-1.14-6.48-.62-12.91-.81-19.7A61.39,61.39,0,0,1,156,98.07c1.36,1.24.75,2.33.69,3.28-1.71,1.17-3.5.22-5.26,1-.82.6-.34,1.53-.39,2.26,1.76,1.24,3.6.16,5.15,1.09,1,.85.93,1.94.58,3.22-1.32,1.28-3.18.42-4.72,1-1.07.93-.64,2-.42,3,1.86,1.19,3.89.11,5.63,1.18C158.3,115.09,158,116.36,157.78,117.82Z"/><path class="cls-30" d="M127.44,98c1,3-.08,4.21-2.76,4.16-.35,5.39-.68,10.45-1,15.44a5.86,5.86,0,0,1-4.85,0c-.41-4.86.19-9.77.28-14.85-1.22-1.07-4.17-1-2.86-4.29C119.7,97.38,123.45,98.18,127.44,98Z"/><path class="cls-31" d="M235.89,164c1.21,10.76,2.56,21.51,4.77,32.12-.45,7.43-2,9.41-9.38,11.26-7.53,1.89-15.08,3.68-22.79,5.55-14.46-7.09-30-11.16-45.91-13.59a169.22,169.22,0,0,0-37.22-2c-14.85,1-29.68,2.39-44.08,6.67a114,114,0,0,0-12.7,4.26,9.08,9.08,0,0,1-5.82.7c-6.93-1.61-13.84-3.29-20.75-5-5.2-1.25-7.83-4.65-8.25-9.89,1.62-10.6,3.57-21.17,4.06-31.92,1.31-2.78.66-5.82,1.38-8.48-1.47-1.42-3.15-.31-4.92-1.26-5-7.84-10.24-16-15.47-24.25,1.49-.07,3-.2,4.48-.21Q91,128,158.76,127.9c29,0,58,.15,87,.24C242.05,134,237,138.76,233,144.6,234,151.05,234.93,157.55,235.89,164Z"/><path class="cls-32" d="M163.1,237.46H110.75A61.65,61.65,0,0,1,116,225.72a4.82,4.82,0,0,1,4.61-2.43c10.66,0,21.32.05,32,0a5.58,5.58,0,0,1,5.46,3.57C159.66,230.14,161.2,233.43,163.1,237.46Z"/><path class="cls-33" d="M151.44,252.68c.64-4.17.64-4.17,11.83-6.46,2,1.54,2.1,3.8,2.29,6.46Z"/><path class="cls-34" d="M108.61,253.07a7.49,7.49,0,0,1,1.64-7.16c4,2,9.48.71,13.14,6.49C118,253.48,113.42,252.76,108.61,253.07Z"/><path class="cls-35" d="M128.12,270.82c-2,.71-3.09.27-3.2-.77a36.05,36.05,0,0,1,.17-11.31c.16-.77,1-1.22,2.58-1.05C129,262,128.39,266.41,128.12,270.82Z"/><path class="cls-36" d="M146.87,256.76c3.28,4.44,1.55,8.79,1.77,12.82.07,1.33-1,1.95-2.45,1.52A18.19,18.19,0,0,1,146.87,256.76Z"/><path class="cls-37" d="M132.59,257.59c1.88.16,2.69,1,2.67,2.27-.09,3.81.84,7.73-.61,11.24-1.71.29-2.8-.1-2.8-1.23C131.84,265.76,130.82,261.52,132.59,257.59Z"/><path class="cls-37" d="M140.75,257.51c2,3.85.78,8.14.88,12.26,0,1.16-1,1.51-2.51,1.49-2.14-3.38-.64-7.24-1-10.85C138,259,138.63,257.8,140.75,257.51Z"/><path class="cls-38" d="M169.76,152.08c4.13,11.92,8.06,23.9,11.89,36.84-5.28-.67-9.38-.62-13.55-1.85-2-3.57-2.41-7.79-4.22-11.78l-14.41-1c-1.63,3.64-1.54,7.61-3.23,11H132.82c2.89-11.59,5.59-22.46,9-33.15,3.44-2.94,7.45-2,11.37-1.67,2.41,1.53,1.4,3.76,1.15,5.82-.29,2.41-1.5,4.75-.61,7.27a4.59,4.59,0,0,0,4.77,0c1.24-3.71-3-7.72.59-11.29A13.63,13.63,0,0,1,169.76,152.08Z"/><path class="cls-38" d="M227.58,162.11q2.53,17.08,5,34.18c.15,1.08.49,2.33-.76,3.13-3.63.06-7.36.94-10.72-1.27-.61-.5-.92-1.26-1.51-1.79a5.39,5.39,0,0,1-2-2.17q-9-18-17.93-36a1.21,1.21,0,0,1,.24-1.57c3.39-2.15,6.16-.77,8.77,1.54,2.61,3.55,4.07,7.76,6.91,11.38-.3-3.46-.61-6.92-.91-10.38C219.65,157.39,224.3,158.46,227.58,162.11Z"/><path class="cls-4" d="M46.56,157.78c-.28-4.12,1.16-8.12,1.13-12.58H38.57l-6.31-9.77H72.58a26,26,0,0,1-.29,8c-3.74,1.67-7.65-.25-11.16,1.56-.52,3.7-1,7.44-1.57,11.19-1.78,3.86-8.29,6.52-11.8,4.84A2.23,2.23,0,0,1,46.56,157.78Z"/><path class="cls-39" d="M46.56,157.78c.22.77.18,1.66,1.33,2.27a83.22,83.22,0,0,1,8.64-1.8c1.62-.18,2.07-1.35,3-2.1C58.29,167.58,57,179,55.8,190.44a5.14,5.14,0,0,1-2.1,3.67c-3.09,3.74-7.19,2.13-11,2.06-1.2-.54-1-1.61-.88-2.56q2.18-17.73,4.42-35.45C46.26,158,46.45,157.91,46.56,157.78Z"/><path class="cls-38" d="M199.77,157.06c0,.37,0,.74-.05,1.11-2,.87-.94,2.58-.82,3.81.73,7.75,1.66,15.47,2.48,23.21.22,2.11.3,4.23.47,6.68-4.76.31-8.77-1.06-13.32-1.93-1.31-11.68-2.41-23.16-3-34.7C190.09,152.32,196.76,153.17,199.77,157.06Z"/><path class="cls-38" d="M91.53,153.14q-1.23,17.28-2.44,34.56c-4.68.89-8.67,1.79-12.66,1.69-.34-.49-.69-.75-.68-1,.3-11.9,1.64-23.73,2.8-35.56C82.87,153.41,87.25,151.11,91.53,153.14Z"/><path class="cls-38" d="M122.72,152.14V184.6c-4.67,2-9,1.28-13.61,1.36-.71-6.1.26-11.69.35-17.28.13-7.81.27-15.63.36-23.44a7.65,7.65,0,0,0-.47-1.93c4.47-.24,2.27,4.32,5.28,6.61C116.38,151,120.3,149.23,122.72,152.14Z"/><path class="cls-6" d="M153.56,151.12c-3.78,2.07-7.87.57-11.79,1,.43-5.77,2.74-11,3.95-16.73h18.49a111.61,111.61,0,0,1,5.55,16.67c-1,1.62-2.56,1-3.92,1-2.41.1-4.83.06-7.24.07-4.34-.72-2.09-4.79-3.56-7-.19-.63-1,.16-.42-.11.24-.11.35,0,.45.2C155.9,148.33,155.91,150.09,153.56,151.12Z"/><path class="cls-4" d="M122.72,152.14H111.36c-1-2.23-.48-4.22-.6-6.15-.07-1.1.29-2.43-1.41-2.68-3.28.1-6.59.61-10.07-.44-.44-2.48-.88-4.87.7-7.45H133.7c1.4,2.35.9,4.72.38,7.32-3.52.91-7,0-10.56.61C122.33,146.19,123.67,149.29,122.72,152.14Z"/><path class="cls-40" d="M199.77,157.06c-4.7-1.1-9.41-2.12-14.28-1.82-1.05-6.49-2-13-1.63-19.85h12.86c4.07,7.55,8.83,14.72,12,22.75C205.72,158,202.85,156.68,199.77,157.06Z"/><path class="cls-14" d="M227.58,162.11c-4.13-1.66-8.65-1.63-12.85-3-1.7-3-1.15-6.48-1.56-9.68-.58-4.5-2-9-1.15-14h18.39l-4.88,6.36C225.38,148.78,227.74,155.32,227.58,162.11Z"/><path class="cls-41" d="M91.53,153.14c-.59.29-1.16.83-1.75.85-3.41.11-6.81.26-9.66,1.25a3.18,3.18,0,0,1-1.57-2.41c.1-5.75.26-11.5,1.73-17.52a78.37,78.37,0,0,1,12.14.08C93.27,141.46,91.49,147.27,91.53,153.14Z"/><path class="cls-42" d="M219.63,196.36a1.15,1.15,0,0,1,1.18.64c1,1.26,2.35,2.33,2,4.22-3.94,2-8.2,2.19-13.5,3,3-2.91,6.11-3.47,8.33-5.39C218.46,198.13,219.86,197.91,219.63,196.36Z"/><path class="cls-43" d="M42.71,196.17c3.78,0,7.26-1.72,11-2.06a3.11,3.11,0,0,0,2.94,2.21c1.23,1.43.32,2.14-.93,2.72a3.88,3.88,0,0,1-1-.06c-.65-.43-1.5-.29-2.15-.73C49.26,197.75,45.86,197.55,42.71,196.17Z"/><path class="cls-44" d="M222.81,201.22c-2-.78-2.24-2.39-2-4.22,3.77.41,7.22,2.27,11.05,2.42A32.11,32.11,0,0,1,222.81,201.22Z"/><path class="cls-45" d="M55.71,199c.4-.87,1.13-1.64.93-2.72a21.43,21.43,0,0,1,7.54,4.55C61.35,200.19,58.34,200.55,55.71,199Z"/><path class="cls-45" d="M52.6,198.25a1.84,1.84,0,0,1,2.15.73A1.82,1.82,0,0,1,52.6,198.25Z"/><path class="cls-46" d="M153.56,151.12a17.24,17.24,0,0,0,1.23-6.71c2.38,2.86,1.89,6.33,3.81,8.78.44,4.29,2.46,8.2,3.16,12.63-3.68.84-7.21-.17-11,.29C151.1,160.61,152.79,156,153.56,151.12Z"/></g></g></svg>