<svg xmlns="http://www.w3.org/2000/svg" viewBox="0 0 293.8 325.75"><defs><style>.cls-1{fill:#341634;}.cls-2{fill:#008fd4;}.cls-3{fill:#004d86;}.cls-4{fill:#004d87;}.cls-5{fill:#fefefe;}.cls-6{fill:#efefef;}.cls-7{fill:#e9e9e9;}.cls-8{fill:#e3e3e3;}.cls-9{fill:#ecf3f7;}.cls-10{fill:#ddd;}.cls-11{fill:#75859a;}.cls-12{fill:#f3f3f4;}.cls-13{fill:#fafbfc;}.cls-14{fill:#f4f5f5;}.cls-15{fill:#667a94;}.cls-16{fill:#667993;}.cls-17{fill:#f9fbfc;}.cls-18{fill:#f7f9fb;}.cls-19{fill:#86a0ac;}.cls-20{fill:#0788c4;}.cls-21{fill:#a1acb6;}.cls-22{fill:#6f849c;}.cls-23{fill:#8d9eae;}.cls-24{fill:#7e91a5;}.cls-25{fill:#a9afb5;}.cls-26{fill:#8f9ead;}.cls-27{fill:#7f8fa3;}.cls-28{fill:#f8f8f8;}.cls-29{fill:#aec6d9;}.cls-30{fill:#8cdefe;}.cls-31{fill:#008fd3;}.cls-32{fill:#8bdcfd;}.cls-33{fill:#8adcfc;}.cls-34{fill:#8bdcfc;}.cls-35{fill:#8bddfd;}.cls-36{fill:#89dbfb;}.cls-37{fill:#024e88;}.cls-38{fill:#024e87;}.cls-39{fill:#8adbfb;}.cls-40{fill:#003f6c;}.cls-41{fill:#075189;}.cls-42{fill:#044f88;}.cls-43{fill:#cdcdcd;}.cls-44{fill:#bebebe;}.cls-45{fill:#065189;}.cls-46{fill:#02477b;}.cls-47{fill:#01477b;}.cls-48{fill:#01497f;}.cls-49{fill:#01487e;}.cls-50{fill:#fdfdfe;}.cls-51{fill:#014b82;}.cls-52{fill:#014a81;}.cls-53{fill:#014a80;}.cls-54{fill:#03497d;}.cls-55{fill:#6c91ad;}.cls-56{fill:#5986a7;}.cls-57{fill:#5c88a8;}.cls-58{fill:#47799f;}.cls-59{fill:#276390;}.cls-60{fill:#e8e9e9;}.cls-61{fill:#e8e8e9;}.cls-62{fill:#004c85;}.cls-63{fill:#fcfdfd;}.cls-64{fill:#fdfdfd;}.cls-65{fill:#034679;}.cls-66{fill:#fcfcfd;}.cls-67{fill:#094674;}.cls-68{fill:#004c86;}.cls-69{fill:#044473;}.cls-70{fill:#054a7d;}.cls-71{fill:#7095b0;}.cls-72{fill:#41759c;}.cls-73{fill:#094675;}.cls-74{fill:#003f6f;}.cls-75{fill:#084777;}.cls-76{fill:#014b83;}.cls-77{fill:#074574;}.cls-78{fill:#013f6e;}.cls-79{fill:#0b4978;}</style></defs><title>Asset 1</title><g id="Layer_2" data-name="Layer 2"><g id="Layer_1-2" data-name="Layer 1"><path class="cls-1" d="M146.21.05c11.33,0,22.66.1,34,0,4.42-.06,8.23,1,11.29,4.23,1.39,1.46,3,1.77,4.92,1.89,8,.51,12.22,5.23,12.53,13.17A48.62,48.62,0,0,1,205,40.68c-.75,1.76-1.73,3.56,1.09,4.3,11.42,3,20.43,10.28,29.91,16.68,5.23,3.54,10.77,5.93,17,6.29,9.51.55,13.58,8.56,11.23,17.13-1.67,6.08-3.62,12.1-5.7,18.07-1,3-.22,3.92,2.78,3.88,6.33-.1,12.66,0,19,0,5.11-.07,9.1,1.82,11.56,6.37,2.6,4.8,2.65,9.63-.77,14.06-4.76,6.18-9.58,12.33-14.59,18.3-2.75,3.28-4.21,6.09-1.67,10.45,4.18,7.17,5.54,15.42,5.68,23.52.23,13.38-4.42,24.85-16.48,32.07-4.46,2.67-9.77,3.13-14.79,4.22-5.38,1.17-5.71,1.09-5.38,6.35,1.43,22.85-8.94,40.74-23.7,56.74-18.75,20.33-42.32,33.59-67,45.2a14.59,14.59,0,0,1-12.95-.05C118.35,314.26,97.7,302.39,80,285.76,67.71,274.2,57.57,261.32,52.33,245A71.86,71.86,0,0,1,49,222.46c0-5.48,0-5.43-5.16-6.53-3.25-.69-6.49-1.44-9.68-2.37C21.89,210,13,197.72,11.81,184.48s.75-26.1,2.57-39c.25-1.82.2-3.12-1-4.53-3-3.54-5.86-7.23-8.82-10.81C1,125.8-1.35,121.31.87,115.49c2.06-5.4,5.79-8.35,11.64-8.46,6.16-.11,12.33,0,18.49,0,4.07-.06,4.39-.53,3.21-4.42-1.78-5.89-3.69-11.74-5.49-17.62C26.1,76.37,30.76,69,39.59,68a38.56,38.56,0,0,0,18-6.66c7-4.8,13.77-10,21.58-13.44,2-.87,3.93-2,6-2.37,4-.63,3.73-2.41,2.4-5.45a47.36,47.36,0,0,1-3.7-21.42C84.18,11.4,88.71,6.54,96,6.15a8.13,8.13,0,0,0,5.74-2.38,13.36,13.36,0,0,1,10-3.76C123.23.13,134.72.05,146.21.05Z"/><path class="cls-2" d="M43.13,111.63c-2.66-8.2-5.27-16.21-7.86-24.22a32.63,32.63,0,0,1-1.35-4.77c-.88-5.73,2.08-9.52,7.9-9.5s11-2.09,15.83-5.22c5.85-3.81,11.62-7.75,17.51-11.49a43.49,43.49,0,0,1,15.51-6.52,8.58,8.58,0,0,0,3.61-1.59c2-1.47,2.59-2.77,1-5.22-4.08-6.45-5.58-13.82-6.22-21.3-.58-6.83,2.66-10.38,9.52-10.49,2.82-.05,5-.43,6.73-3C107,5.86,110,5.23,112.91,5.23h67c3.12,0,6.08.73,7.95,3.36,1.54,2.18,3.38,2.67,5.89,2.69,7.52.07,10.63,3.45,10,10.92s-2.15,14.51-6.14,20.8c-1.56,2.47-1,3.68,1,5.16a7.52,7.52,0,0,0,3.08,1.54c9.5,1.63,17,7.19,24.83,12.23,6,3.85,11.4,8.65,18.59,10.43a34.07,34.07,0,0,0,6.4.7c6.21.36,9.28,4.56,7.46,10.49-2.87,9.33-5.9,18.62-9.09,28.63h20.26c3,0,6,0,9,0,3.65-.08,6.7,1.17,8.22,4.53,1.4,3.12.52,6.12-1.67,8.8-5.77,7.1-11.34,14.37-17.25,21.35-2.26,2.66-2.69,4.46-.7,7.72,6.58,10.75,8.87,22.54,6,34.92-2.36,10.38-8.56,17.36-19.42,19.58-3.89.8-7.69,2.21-11.61,2.71-3.62.46-4.16,2.31-4.1,5.39.14,7.13.32,14.27-1.41,21.31-4.08,16.59-13.65,29.77-25.62,41.42-17.53,17-38.4,29-60.43,39.1a10,10,0,0,1-8.67.11c-23.11-10.61-44.95-23.19-63-41.47-10.62-10.77-19-23-23-37.92-1.88-7.06-1.56-14.15-1.62-21.28,0-5.73,0-5.76-5.67-7.1-3.54-.84-7.12-1.56-10.68-2.36-11-2.48-18.59-10.62-20.67-21.76-1.86-10-.81-19.88.43-29.76.6-4.76.78-9.61,2.28-14.22.62-1.92-.57-3.15-1.61-4.44-3.47-4.26-6.87-8.58-10.43-12.75C6.09,123.16,4.8,120,6.5,116.44S11.57,112,15.32,112c8.49.09,17,.1,25.48.11A12.88,12.88,0,0,0,43.13,111.63Z"/><path class="cls-3" d="M83,270.17a28.89,28.89,0,0,1-8.22-10c-.9-3.31,1.75-5.17,3.18-7.48a68.24,68.24,0,0,1,5.1-6.88c-2.74,1.84-5.4,3.69-8.15,5.38-1.57,1-3.16,2-5.13,1-3.35-4.18-5-9.1-5.92-14.27.61-2.28,2.38-3.54,4.23-4.67,8.76-5.35,17.07-11.46,25.4-15.06a211.16,211.16,0,0,1-24.09,10.62c-2.08.8-4.26,2.13-6.57.46-1.75-5.36-.56-10.85-.74-16.28-.06-1.79,1.46-2.36,2.8-1.73,5.27,2.51,9.82.26,14.65-1.58,16.39-6.21,33.41-9.43,50.9-10.85a198.61,198.61,0,0,1,88.8,13c2.85,1.1,5.17.41,7.7-.11,4.67-1,4.87-1,4.71,3.85-.14,4.24,1.17,8.69-1.46,12.65-2.1,1.68-4.13.45-6.07-.3-7.55-2.94-15.18-5.73-21.26-9.24,7.75,3.5,15.61,9,23.76,14a6.91,6.91,0,0,1,3.28,4.19,28.92,28.92,0,0,1-3.81,11c-5.62.55-9.4-3.71-14.1-5.22,2.2,2.58,4.81,5,7.31,7.58,1.41,1.45,2.75,2.92,2.7,5.13-2.13,4.9-5.83,8.66-9.22,12.63-4,.24-4.88-4.18-8.32-5.43-2.56,8.24-9.35,10.4-16.91,11.39-3.57,1.73-7.56,1.61-11.22,1.73-16.38.51-32.78,1.08-49.17-.11-3.51-.32-7,0-10.55-.23-1.91-.32-3.76-1-5.74-.91-3.63,0-7.28.2-10.78-.88-4.7-1.46-8.87-3.66-10.48-8.79-.18-.17.09-.69-.49-.56C87.31,266.53,86.69,270,83,270.17Z"/><path class="cls-4" d="M142.76,83.28c-.51-3.89-4.42-6.63-3.62-11,.17-.94-1.37-1.31-2.2-1.81A46.42,46.42,0,0,1,120.6,54.65a7.05,7.05,0,0,0-4.27-3.23c-13.8-3.94-19.5-18.9-19.73-29.48,0-2.37.92-2.92,2.88-2.92,1.66,0,3.33,0,5,0,2.83,0,5.9.53,5.72-4,0-1.24,1.21-1.86,2.47-2.07a44.54,44.54,0,0,1,6.93-.77q28.22.08,56.43,0c3.53,0,6.86,0,6.93,4.89C183,19,184.51,19,185.87,19c2.66,0,5.32.05,8,0,2.18,0,2.95,1,2.68,3.14-1.76,13.68-6.7,25.12-21.1,29.79-1.63.53-2.34,1.72-3.19,2.94a49,49,0,0,1-15.73,15c-1.68,1-2.87,2-2.71,4.28.25,3.48-3.7,5.49-3.4,9.06C147.86,84.45,145.31,83.39,142.76,83.28Z"/><path class="cls-4" d="M175.48,83.91c-1.69-1.32-1-2.75-.41-4.38,3.12-8.07,6.12-16.18,9.19-24.26.63-1.65.79-3.9,3.16-4s4.73.36,6.16,2.52c.63.94.77,2.13,2.27,2.26,11.89,1,20.83,8.11,30.22,14.4,5.51,3.68,10.89,7.73,17.64,9,.65.12,1.28.36,1.94.46,6.66,1,6.63,1,4.45,7.69-2.62,8.06-5.27,16.12-7.72,24.24-.92,3.07-2.13,3.95-5.67,3.58-7.82-.82-14.18-4.51-20.49-8.56-6.72-4.31-13.4-8.69-20.08-13.07a26.18,26.18,0,0,0-10.74-3.74c-3.05-.46-5.3.31-5.6,3.86-.65,1.14-.64,2.48-1.06,3.69-.52,1.5-1.37,2.15-2.86,1A13.89,13.89,0,0,1,175.48,83.91Z"/><path class="cls-4" d="M116.38,100.15c-.52-1.22-1.06-2.44-1.56-3.67-3-7.33-3.08-7.34-10.65-5.53a26.31,26.31,0,0,0-8.65,3.7q-11.22,7.47-22.59,14.69a37.88,37.88,0,0,1-17.69,6.27c-2.36.17-3.44-.43-4.08-2.44C48,103.35,45,93.5,41.66,83.73c-1-2.89,0-3.6,2.63-3.6,6.43,0,11.92-2.74,17.16-6.09,6.45-4.12,12.89-8.26,19.24-12.52A34.47,34.47,0,0,1,91.26,57.2c3.4-.91,6.72-1.24,9.4-4.35,2.48-2.87,6.24-2.25,7.42.73C112,63.45,116.25,73.22,119,83.52c.47,2.76,1.83,5.68-1.41,7.76.82,1.69-2.17-2.28-.77.53a12,12,0,0,1,1.34,6.12C117.9,98.94,117.71,100,116.38,100.15Z"/><path class="cls-5" d="M116.38,100.15l.28-3.11c-.33-2-.69-4,.27-5.93,1.57-2.29-.49-5.57,2.06-7.59,8,4.56,15.9,4.61,23.77-.24,2.55-2.66,5.1-2.94,7.65,0,6.81,4.36,14,4.56,21.31,1.66,1.23-.48,2.35-1.24,3.76-1,.53,5,.44,10.16,1.48,15.16,2,6.75,3,13.56,1.09,20.53-1.63,1.11-3.5.92-5.31.92q-25.68,0-51.36,0c-2.35,0-5.21.72-6.26-2.62Z"/><path class="cls-6" d="M126.89,274.21q20.87.45,41.7-.18c6.8-.22,13.51-1,20.23-1.83,1.67,1.79,3.73.71,5.65.81,3.66.2,7.82-1.18,10.37,3A50,50,0,0,1,194,285.22a78.79,78.79,0,0,1-13.38.92q-35.83,0-71.67,0A24,24,0,0,1,97.83,284,36.78,36.78,0,0,1,89.7,277c1.62-3.37,4.78-3.23,7.71-3.11,8.06.32,16.12.84,24.19,1C123.38,275,125.25,275.31,126.89,274.21Z"/><path class="cls-7" d="M97.83,284q41.91,0,83.8,0c2.32,0,4.65.25,7-.37a5.29,5.29,0,0,1,5.4,1.63,48.88,48.88,0,0,1-11.08,7.84c-21.42.12-42.84,0-64.26.05-3.3,0-6.65.2-9.81-1.13A54.25,54.25,0,0,1,97.83,284Z"/><path class="cls-8" d="M108.83,292c4.73-1.16,9.54-1,14.35-1q26.43,0,52.87,0c2.5,0,5-.16,6.85,2.1a59.44,59.44,0,0,1-13,8c-10.16,1.46-20.38.88-30.58,1.09A61.76,61.76,0,0,1,121.77,300,58.6,58.6,0,0,1,108.83,292Z"/><path class="cls-9" d="M181.76,119.24H280.9c-2.65,4.8-6,8.19-8.93,11.93-4.34,5.66-8.89,11.17-13.38,16.72-1.27,1.57-2.61,3.07-.87,5.13a2.84,2.84,0,0,1-2.65,1.15c-3.74-2.44-4.17-4.09-1.35-7.9,4.33-5.84,9-11.39,13.51-17.13,1-1.28,3-2.33,1.85-4.55-2.34-1.36-4.88-1-7.36-1-25.28,0-50.56,0-75.84-.05-2.31,0-5.18,1-6.5-2.22C179.38,119.66,180.35,119.2,181.76,119.24Z"/><path class="cls-9" d="M26.09,154a35.93,35.93,0,0,1,1.7-10.23c.76-2.67.58-4.88-1.49-7.19-4-4.44-7.56-9.26-11.3-13.92a5.75,5.75,0,0,1-1.76-3.39h98.7c1,.39,2.55.27,2.4,2.06-1.35,3.16-4.21,2.18-6.52,2.19-25.28.08-50.57,0-75.85.05-2.47,0-5-.34-7.16,1.3-.27,3.53,2.54,5.43,4.52,7.27,6,5.61,3.83,17.11-.36,22.47A2.47,2.47,0,0,1,26.09,154Z"/><path class="cls-10" d="M121.77,300c3.24-.74,6.45-.34,9.74-.21,10.27.41,20.58.17,30.87.11a15.7,15.7,0,0,0,3.38-.72A3.34,3.34,0,0,1,169.9,301c-6.62,4.45-13.93,7.59-21.08,11a4.51,4.51,0,0,1-4.25,0C136.8,308.35,128.9,304.9,121.77,300Z"/><path class="cls-11" d="M195.63,200.1c-7.51-1.21-15-2.51-22.55-3.59-16-2.29-32.08-2-48.18-.79-10.8.8-21.24,3.51-31.85,5.36-2.26.86-2.81-.22-2.55-2.23,1.44-2.7,4.24-3.1,6.76-3.71,23.13-5.61,46.57-6.41,70.2-4.44a162,162,0,0,1,25,4.25,14.39,14.39,0,0,1,5.52,2.14c.73.83,1.53,1.78.68,2.83S196.67,200.55,195.63,200.1Z"/><path class="cls-12" d="M126.89,274.21c.65,2.52-1.32,1.73-2.37,1.73-8.82.06-17.64.09-26.47,0A27,27,0,0,0,89.7,277,24.69,24.69,0,0,1,83,270.17L88.86,262c1.15-.58,1.48.31,1.88,1.06,2.48,7.74,9.2,8.63,15.77,9.73,1.46.25,2.95.33,4.42.49,1.64.64,3.49-.27,5.09.68Z"/><path class="cls-13" d="M62.81,229.28l35.67-14.23.53,1L63.84,237.93A14.3,14.3,0,0,1,62.81,229.28Z"/><path class="cls-14" d="M204.84,276c-4-1.42-8.09-.77-12.14-1.08-1.58-.12-4.4.76-3.88-2.69.65-.14,1.3-.26,1.93-.42,7.06-1.81,12.74-4.9,12-14.33,4.22,3.56,6.94,7.27,10,10.59A42.18,42.18,0,0,1,204.84,276Z"/><path class="cls-13" d="M229.88,236.92l-32.81-20.43c11.61,2.45,22,8.07,33.1,11.75C231.75,231.19,230.87,234.05,229.88,236.92Z"/><path class="cls-15" d="M195.63,200.1c.91-.42,3.18.73,2.18-1.89,1.6-2,3.62-1.2,5.52-.75a87.15,87.15,0,0,1,13.78,4.35c4.23,1.78,8.29,1.66,12.61.55,5.47-1.4,10.95-2.82,16.5-3.9,2.11-.41,4.22-1.09,6.32,0,1.38,1.49.13,2.44-.71,3.47-9.18,2.81-18.64,4.5-27.93,6.84a4,4,0,0,1-2.43,0C213.14,205,204.13,203.31,195.63,200.1Z"/><path class="cls-16" d="M90.92,199.2c.13,1.29,1,1.75,2.13,1.88-6.75,2.78-13.92,4.39-20.55,7.53a4.49,4.49,0,0,1-2.92.2c-10.24-2.78-20.78-4.4-30.89-7.7.9-1.63,2.67-1.85,4.14-2.56,5.92-.71,11.47,1.24,17,2.83,7.1,2.05,13.69,2.34,20.56-1C83.44,198.82,87.07,196.33,90.92,199.2Z"/><path class="cls-17" d="M69.76,252.2,86.6,241.33l1,.93L74.76,260.13A18,18,0,0,1,69.76,252.2Z"/><path class="cls-18" d="M222,255.41a206,206,0,0,1-15.29-16l.6-1,18.78,9.48A20.84,20.84,0,0,1,222,255.41Z"/><path class="cls-19" d="M113.91,120l-2-.8c1.07-.42,2.48,0,3.18-1.36,1.12,1.33,2.65,1.16,4.13,1.16L178,119a2.71,2.71,0,0,1,3.81-.15l0,.42-1.94.8a4.38,4.38,0,0,1-2.51,1.35q-30.45.36-60.88,0A4.38,4.38,0,0,1,113.91,120Z"/><path class="cls-20" d="M181.8,118.82,178,119c.48-6.68-1.29-13.24-1-19.9,1.42-1.44,1.15-3.81,2.84-5.1C180.19,102.27,178.7,110.73,181.8,118.82Z"/><path class="cls-21" d="M254.61,153.24l3.11-.22a32.18,32.18,0,0,1,8.12,16c-1.26,1.09-2.43.63-3.59-.18-3.1-3.74-4.62-8.44-7.53-12.31A2.65,2.65,0,0,1,254.61,153.24Z"/><path class="cls-22" d="M42.92,200c-1.13,1.44-2.78.91-4.23,1.16-6.47-1-10.13-5.1-12.13-11,.9-1.12,2-1,3.23-.67C33.69,193.52,38.45,196.55,42.92,200Z"/><path class="cls-23" d="M24.86,182c-.49-4.67-1.71-9.34,0-14,1-.95.88-2.3,1.2-3.5.38-1.39,1.08-2.39,2.64-1,2.31,6,.22,11.83-.69,17.71C27.19,182.26,26.23,182.93,24.86,182Z"/><path class="cls-24" d="M266.89,174.88c1.93,6.35.71,12.33-2.16,18.11-1.24.88-2.09.27-2.82-.76-1.56-4.07.85-7.58,1.6-11.33C265.37,179.31,264.72,176.3,266.89,174.88Z"/><path class="cls-22" d="M262.7,191.81a2.42,2.42,0,0,0,2,1.18c-2.37,5.76-7.26,7.91-12.9,9l1-2.8C255.41,195.75,258.38,192.87,262.7,191.81Z"/><path class="cls-25" d="M27.74,163c-1.69,1.25.29,4.6-2.87,5-.33-4.74.51-9.38,1.22-14l2.7,0C31.77,157.35,31,160.31,27.74,163Z"/><path class="cls-26" d="M266.89,174.88c-.75,2,1.39,5-2,6.12-2.87-4-4.45-8.22-1.84-13a5.34,5.34,0,0,0,2.82,1C267.21,170.78,266.79,172.88,266.89,174.88Z"/><path class="cls-27" d="M24.86,182A2.45,2.45,0,0,0,27,180.89c4.41,2.18,3.19,5.6,2,9-.74,1-1.6.2-2.4.18A14.83,14.83,0,0,1,24.86,182Z"/><path class="cls-5" d="M97,263c2.16-4.56.07-8.94-.62-13.36a74,74,0,0,1-.43-14c.25-6.66,3.13-8.73,9.78-7.51,2,.37,4.31,2.38,6.2-.6-1.64-1.21-3.49-1.26-5.23-1.63-2.51-.55-3-2.42-2.94-4.54.09-2.51,2.11-2.16,3.69-2.19s3.59-.31,4.91.41c3.13,1.74,4.84.76,6.41-2.07,2.31-4.15,6.37-5.7,10.76-6.36a118.74,118.74,0,0,1,34.81,0,15.13,15.13,0,0,1,11.3,7.32c1.09,1.78,2,2.59,4.24,1.42,1.9-1,4.21-.86,6.38-.74,1.58.1,3.59-.3,3.7,2.21.09,2.2-.65,3.93-3,4.51-1.73.43-3.58.49-5.09,1.56.76,2.19,2.34,1.65,3.8,1.39a41.64,41.64,0,0,1,4.88-1c4.36-.26,6.64,1.53,7,5.9a61.84,61.84,0,0,1-1.45,21.8c-.51,1.9-1.9,3.9.68,5.71,1,.67.32,2.14-1.06,2.65-6.68,1.91-8.79,1.38-12-3-1.71-5-5.28-6.45-10.38-6-5.94.5-11.81,1.29-17.69,2.17a8.37,8.37,0,0,0-5.55,3.83q-3.23,3.29-6.41,0a9.49,9.49,0,0,0-7-4.05q-7.57-1-15.16-1.89c-5.43-.6-9.75.5-11.68,6.26C106.43,265.56,104.74,265.79,97,263Z"/><path class="cls-28" d="M97,263a64.77,64.77,0,0,1,6.83.06c2.55.27,3.94-.86,4.79-3.06,9.46.13,18.9.8,28.32,1.62,3,.26,5.5-.62,8.11-1.62,1.2,1.85,2.39,1.92,3.58,0,3.21,1.66,6.51,1.42,10.08,1.31,8.79-.29,17.54-1.43,26.35-1.31.87,2.61,2.84,3.1,5.35,3.21,1.75.07,3.46,1,5.31.76-3.76,3.23-8.45,3.62-13,4-16.72,1.39-33.48,1.22-50.24.93-9-.16-17.93-.25-26.76-1.94C102.57,266.33,99.09,266.07,97,263Z"/><path class="cls-6" d="M116,273.92c-1.72,0-3.52.52-5.09-.68A9.64,9.64,0,0,1,116,273.92Z"/><path class="cls-29" d="M90.74,263,88.86,262c.19-.95.82-2.21,1.57-1.86C91.46,260.58,90.85,262,90.74,263Z"/><path class="cls-30" d="M146.28,62.77c0-12.07-.05-23.69,0-35.32,0-3.28-1.45-7.46.74-9.63s6.33-.63,9.61-.7c5.49-.13,11,0,16.47-.06,2.14,0,3.34.52,3.59,3C178.55,38,164.67,58,146.28,62.77Z"/><path class="cls-31" d="M115.47,45.13C107,41,104.05,34,102.22,26.21a1.6,1.6,0,0,1,.54-1.77c2.29-1.84,7.71,0,8.13,2.87A108.79,108.79,0,0,0,115.47,45.13Z"/><path class="cls-2" d="M178.27,44.4c1.29-6.33,3.06-12.46,3.88-18.79.19-1.48,4.84-2.29,7.13-1.46s1.18,2.31.85,3.66C188.39,34.88,185.22,40.93,178.27,44.4Z"/><path class="cls-32" d="M209,87.24q2-5.33,4-10.68c1.91.16,3,1.49,4.3,2.4,7.2,5,7.21,5.26,3.5,13.28-.75,1.61-1.39,1.94-2.93.94-3-2-5.63-4.58-9-6.06Z"/><path class="cls-33" d="M208.88,87.12c-1.07,2.79-2.14,5.58-3.33,8.7-2.86-1.72-5.43-3.48-8.19-4.88-2.26-1.14-2.59-2.32-1.69-4.71,2.14-5.73,2-5.82,7.38-2.7,2,1.17,3.94,2.47,5.91,3.71Z"/><path class="cls-34" d="M228.35,110.15c-2-1-3.36-1.61-4.61-2.42-7.38-4.8-7.71-2-3.46-12.19,2.75,1.53,5.4,3.24,8.24,4.49,2.41,1.07,2.82,2.44,1.83,4.69C229.62,106.38,229.09,108.12,228.35,110.15Z"/><path class="cls-35" d="M244.77,92.45c-.14,2.82-1.59,5.13-2.12,7.69s-2,3.35-4.6,2.94c-6-.94-6.34-1.36-4.47-7a13.74,13.74,0,0,0,.54-1.9c.57-3.2,2.13-4.41,5.39-3.06A35.5,35.5,0,0,0,244.77,92.45Z"/><path class="cls-36" d="M227.35,75.13a91.36,91.36,0,0,0,8,4.59c2.39,1.08,2.59,2.29,1.8,4.64-1.85,5.46-1.71,5.51-6.49,3C223.57,83.5,223.53,83.38,227.35,75.13Z"/><path class="cls-34" d="M194.9,67.86c1.84,1,5.55-.55,5.91,3.22.29,3.15-3.61,9.48-4.77,8.75-2.29-1.44-6.88.89-7-3.41S192.19,67.72,194.9,67.86Z"/><path class="cls-34" d="M215.57,68.23c-.72,2-1.32,3.84-2.09,5.65-.53,1.28-1.44.92-2.4.36q-3.63-2.1-7.33-4.08c-3-1.58-.64-3.43-.12-5C205,61,205.16,61.05,209,63.08c1.74.93,3.42,2,5.1,3C214.88,66.59,215.83,67.07,215.57,68.23Z"/><path class="cls-37" d="M56.9,89.91V88.05c4-1.77,7.47-5,12.24-5l.61,0c3.69,2.92,4.52,6.88,4.15,11.29l-.09,1.94c-3.51,3-7,6.18-12.13,5.8l-1.13-.17A16.72,16.72,0,0,1,56.9,89.91Z"/><path class="cls-38" d="M84.77,89.06l-1.88-1c-2.2-3.68-4.26-7.4-3-12l0-1.08c2.65-4,6.63-5.84,11.08-7l.93,1.09c3.39,2.93,4.5,6.87,5,11.1l-1,.82C92.92,84.8,88.72,86.76,84.77,89.06Z"/><path class="cls-35" d="M79.88,76.1C81,79,82,82,83.2,84.85a2.94,2.94,0,0,1-.31,3.2,59.46,59.46,0,0,0-9,6.26C71.32,91,70.54,87,69.75,83Z"/><path class="cls-33" d="M56.9,89.91a21,21,0,0,1,3.65,12c-8.93,1.81-8.93,1.81-11.79-7.18-.19-.62-.39-1.24-.65-2C51,91.29,54.27,91.64,56.9,89.91Z"/><path class="cls-33" d="M84.77,89.06a2.87,2.87,0,0,1,1.54-3.23c3.11-1.73,5.92-4,9.53-4.76-.06,3,3.62,6,1.63,8.27-2.47,2.77-6.16,4.74-9.91,6.2Z"/><path class="cls-34" d="M61.68,102.05c4-2.07,7.23-5.66,12.13-5.8,0,.16,0,.32,0,.49.16,2.42,2.83,5,1.49,6.86-2.07,2.85-5.79,4.1-9,5.78-1.51.79-2-.18-2.43-1.38C63.2,106,62.43,104,61.68,102.05Z"/><path class="cls-36" d="M69.14,83.05a48.8,48.8,0,0,1-8.74,5.27c-1.32.69-2.41.86-3.5-.27-1.62-6.64-1.62-6.64,4.6-10.37.85-.51,1.7-1,2.49-1.58,1.48-1.06,2.3-.61,2.87,1C67.55,79.12,68.37,81.08,69.14,83.05Z"/><path class="cls-39" d="M96.89,80.25c-3.76-2.76-3.79-7.18-5-11.1a6.51,6.51,0,0,0,1-.1c9.32-2.16,7.35-3.11,11.32,7,.74,1.9-.08,2.39-1.61,2.65C100.66,79.06,98.65,79.18,96.89,80.25Z"/><path class="cls-33" d="M91,68.06c-.33,2.77-3,2.62-4.69,3.62-2,1.22-3.91,2.9-6.39,3.34-.07-.32-.11-.66-.21-1-2.58-7.45-2.54-7.37,4.51-11,2.71-1.42,4.59-1.72,5.41,1.91A17.08,17.08,0,0,0,91,68.06Z"/><path class="cls-40" d="M116.93,91.11,116.66,97c-1.56-2.76-.47-5.7-.8-8.66C117.36,89,116.56,90.26,116.93,91.11Z"/><path class="cls-41" d="M139.32,103.08c.13-2.65.34-5.3.35-8,0-1.75.77-2.32,2.41-2.28s2.42.34,2.7,2.13-1.38,4.83,1.35,5c3.42.15,1.51-3.19,1.82-5s1.23-2.07,2.71-2.12c1.66,0,2.39.54,2.4,2.28.05,5,.23,10,.33,14.93,0,1.56-.07,3-2.28,3s-3.16-.64-3.1-2.81c0-1.33,0-2.66,0-4,0-.92-.42-1.54-1.44-1.6-1.28-.08-1.78.6-1.79,1.78s-.05,2.32,0,3.49c.06,1.93-.48,3.13-2.78,3.13s-2.85-.91-2.67-3C139.46,107.75,139.31,105.41,139.32,103.08Z"/><path class="cls-42" d="M155.8,102.41c0-.5,0-1,0-1.49,0-9.4-2-7.92,8.47-8,1.07,0,2.45-.26,2.57,1.51s-.62,2.49-2.3,2.47c-.66,0-1.33.05-2,0-1.31,0-1.72.66-1.66,1.86a1.34,1.34,0,0,0,1.58,1.42c.67,0,1.33,0,2,0a2.18,2.18,0,0,1,2.49,2.4c0,1.63-1.08,1.84-2.3,1.93-.5,0-1,0-1.49,0-1.07.06-2,.33-2,1.63s.65,2.08,2,2.28c1.89.27,5-1,4.67,2.63s-3.37,1.39-5.15,1.87c-1.09.28-2.32,0-3.47.07-2.43.25-3.29-1-3.28-3.19,0-2.49,0-5,0-7.47Z"/><path class="cls-42" d="M129,105c0-1.82,0-3.64,0-5.47,0-1.1.32-2.42-1.4-2.67-1.47-.22-1.82-1.24-1.69-2.54.18-1.75,1.58-1.4,2.64-1.43,2.32-.07,4.64,0,7,0,.94,0,2.08-.13,2.28,1.25.15,1,.08,2.29-1.09,2.43-3,.38-2.43,2.78-2.59,4.53-.27,3.13-.25,6.3-.23,9.45,0,2-1,2.51-2.78,2.52s-2.79-.58-2.57-2.61c.21-1.81.21-3.64.3-5.46Z"/><path class="cls-3" d="M29,189.91c-1.89-2.74-.2-6.26-2-9q.38-9,.76-17.9c.16-3,1.34-6,1.05-9,.45-2.42.43-5.06,1.43-7.24,2.76-6.06.68-10.52-3.69-14.76A92.52,92.52,0,0,1,19.88,124c.95-2.94,3.39-1.38,5-1.38,29.51-.13,59-.08,88.55-.1a33.07,33.07,0,0,0,8.82,1q24.58-.1,49.18,0a32,32,0,0,0,8.83-1c29.52,0,59,0,88.58.09,1.65,0,4.07-1.47,5.09,1.38-6.63,8.21-13.23,16.45-19.91,24.62-1.54,1.88-2,3.38.58,4.62,3.19,4.7,6.76,9.18,8.41,14.75.76,4.32,1.77,8.6,1.84,13,0,3.75-1.57,7.18-2.16,10.81a18,18,0,0,1-9.86,7.34c-9.18,2.09-18.38,4.1-27.53,6.33a8.88,8.88,0,0,1-5.74-.52,134.33,134.33,0,0,0-21.76-6.75c-7.84-1.25-15.46-3.56-23.38-4.57a226.58,226.58,0,0,0-48.77-.88,176.8,176.8,0,0,0-34.74,6.44c-5.76,1.08-11.13,3.35-16.49,5.6a10.81,10.81,0,0,1-6.7.52c-8.32-1.61-16.33-4.59-24.81-5.37C36.19,199.49,32.25,195.15,29,189.91Z"/><path class="cls-43" d="M273.94,124c-.54-1.49-1.85-1.19-2.94-1.19q-45.57,0-91.15.14a2.65,2.65,0,0,1-1.8.74q-31.19-.39-62.37,0a2.65,2.65,0,0,1-1.8-.74l-71.69-.16c-6,0-11.95-.06-17.92,0-1.49,0-3.39-.89-4.39,1.17-.68-.72-.91-1.59.26-1.82A24.52,24.52,0,0,1,24.6,122c27.95,0,55.89,0,83.84-.06,1.89,0,4.52,1.26,5.47-1.87l2,0c2.41.93,4.92.41,7.37.42q24.6.09,49.2,0c1.79,0,3.65.42,5.38-.43l2,0c.78,2.91,3.21,1.87,5,1.87,15.47.09,30.95,0,46.42,0,13.15,0,26.3,0,39.44.07C271.88,122,274.47,120.69,273.94,124Z"/><path class="cls-44" d="M177.84,120.09c-1.37,1.36-3.12.93-4.74.93q-26.23,0-52.47,0c-1.61,0-3.37.43-4.74-.93Z"/><path class="cls-4" d="M175.29,227.35a512.63,512.63,0,0,1-56.94.07c2.83-8.67,7.09-13.83,16.38-14.16,10.31-.37,20.54-.72,30.74,1.15a6.05,6.05,0,0,1,4.22,2.32A34.42,34.42,0,0,1,175.29,227.35Z"/><path class="cls-38" d="M145.06,260c.49,3.21-.74,4.27-4.06,4-9.76-.78-19.54-1.27-29.32-1.82-1.57-.09-3.08,0-3.05-2.19,2.4-7,3.14-7.65,10.24-7.06,6.74.57,13.46,1.42,20.2,2.13C142.16,255.36,144.37,256.74,145.06,260Z"/><path class="cls-38" d="M185.07,260c0,2.2-1.48,2.1-3,2.19-9.77.55-19.55,1-29.31,1.82-3.33.27-4.53-.83-4.08-4,.73-3.19,2.83-4.63,6-4.94,6.73-.67,13.45-1.54,20.19-2.11C181.93,252.32,182.7,253,185.07,260Z"/><path class="cls-45" d="M176.89,241.26a140,140,0,0,1,16.7-5.36c-.06,4.35-1.44,7.16-5.24,8.51C183.36,246.17,180.51,245.44,176.89,241.26Z"/><path class="cls-45" d="M100.05,235.7,116.58,241c-3.13,4.56-4.31,5-9.9,3.83C102.28,243.9,100.29,241.05,100.05,235.7Z"/><path class="cls-46" d="M226.84,186c-3.87,4.2-6,4.54-11.06,2.71-3.23-1.17-6.63-1.94-9.31-4.2a11,11,0,0,1-3.71-4.57c-.89-2.46-2.36-2.51-3.79-.34-3.41,5.17-11,8-16.76,6.18-4.75-1.5-7-3.06-10.16-7.22-2.22.38-2.85,3.24-5.19,3.44-6,1.44-12,1.76-18,0h0a1.79,1.79,0,0,1-.23-2.15c2.18-1.88,4.76-.77,7.15-.85,4.29-.14,9,.53,11.46-4,2.76-5.13,2.25-10.51-.47-15.63a21.65,21.65,0,0,0-5.93-6.57c-2.49-2-4.61-4.26-5.29-7.54,0-5.39,1.69-8.18,6.65-8.53,4.18-.31,4.79-2.51,5-5.7.34-.72.79-1.27,1.71-1a2,2,0,0,1,2,2c1.19,1.81,3.68,2.13,4.74,4.11,1.08,3.17-.17,6.52.72,9.72A18.18,18.18,0,0,0,182.9,156a22.84,22.84,0,0,1,6.27,6.93c1.74,3.29,2.23,6.71-.49,9.67-2.52,2.74-5.66,3.16-9,1.34-2.28-2.21-2.05-4.27.91-5.31,2.72-1,3.26-2,1.08-4-6-5.47-10.85-11.68-12.8-19.76a1.67,1.67,0,0,0-2.2-1.4c-1.12.24-2.47.31-2.91,1.59s.7,2.09,1.56,2.84c7.33,6.37,11.62,14.27,12,24.1,1.09,8,2.22,8.79,11.25,7.89,4.5-.45,7.34-4.63,6.85-10.33-.21-2.47-.91-4.89-.69-7.42a11,11,0,0,1,1.12-2.93c1.84-1.86,1.61-6.58,6.27-4.58,2.75,4.08,2.33,8.88,2.62,13.39.8,12.29,6,17,18.22,15.63,1.31-.14,2.6-.61,3.88.11A1.69,1.69,0,0,1,226.84,186Z"/><path class="cls-47" d="M226.84,186l-.09-2.2c-.32-.38-.81-.78-.74-1.26,1.71-10.95-1.55-21.76-.92-32.67.07-.54.13-1.09.16-1.63.13-2.16-.68-4.17-1.09-6.24a75.58,75.58,0,0,1-.47-10.42,3.44,3.44,0,0,1,.69-1.47,1,1,0,0,1,1.45-.1c3.81,3.83,3.87,3.89,7.85.09A6.94,6.94,0,0,1,239,128c5.47.11,10.95,0,16.43,0,2,0,4-.15,5,2.27.86,2.15-.34,3.38-1.59,4.79-2.42,2.73-3.3,6.75-7.67,7.86a27,27,0,0,1-4.68,1.1c-3.76.28-4,.81-2.57,4.12a16,16,0,0,0,4.86,6.73c4.6,3.57,6.87,8.71,9.48,13.64.75,1.41.54,2.91.58,4.38a12.91,12.91,0,0,0,1.29,5.66c2.94,6-3.19,15.35-9.9,15.4-2.13,0-4.33.48-6.37-.58.44-1.85,2.27-2,3.5-2.82,6.32-2,7.26-3.29,7.49-9.79.33-8.8-3-16.08-9-22.31-2.4-2.5-4.9-4.92-6.32-8.17-2.91-8.22-.76-11.79,7.69-12,4-.08,5.08-3,7.38-5.83a47.4,47.4,0,0,0-15.08-.05c-4.59.81-7,5.26-6.41,10.8.25,2.3.94,4.53,1.2,6.84a29.59,29.59,0,0,0,7.86,11.31c3.7,3.52,6.71,7.47,7.34,12.7.41,3.38-.4,6.62-3.93,7.8s-7,.8-8.77-3.28c-1-1.95-.93-3.38,1.57-1.91,2.06,1.21,3.92,2,5.84.39,1.37-1.11.59-5.92-1.12-7.74-2.27-2.42-4.62-4.77-7-7.08-1.67-1.62-3.32-3.2-3.76-5.58-2,.36-1.57,1.83-1.47,2.78.55,5.17-1.08,10.38,1.3,15.62.83,1.82-1.38,5-1.78,7.81A4.2,4.2,0,0,1,226.84,186Z"/><path class="cls-48" d="M104.89,161c0,1,0,2,0,3,0,5.71,2.51,7.5,8,5.92,2.29-.66,1.93-2.42,1.94-4,0-6.49.16-13,0-19.46a14.55,14.55,0,0,1,2.07-8.44,1.79,1.79,0,0,1,2.24-.16c1.64,2.3.82,4.68.25,7a9.91,9.91,0,0,0-.41,5.26c.26,6.78-.84,13.61.81,20.33,1.55,6.34,3.52,8.19,8.73,8.41,6.48.29,9.76-1.84,11.77-7.66a46.61,46.61,0,0,0,1.84-7.74,28.81,28.81,0,0,0,.23-16.48,4.66,4.66,0,0,1,0-1.49,19.9,19.9,0,0,0-1.24-5.32c-2.58-8.82-11.58-11.25-18.38-5a7.59,7.59,0,0,1-2.73,2.1c-.88,0-1.39-.35-1.08-1.34-.36-4.34,2.75-6.85,5.93-7.51,6.15-1.26,12.54-1.42,17.51,3.88,1.32,1.41,2.39,3.24,4.55,3.64a1.88,1.88,0,0,1,2.25-.2,4,4,0,0,1,1.13,2.94c-.19,2.51-1.11,5,.2,7.51a19.54,19.54,0,0,0,6.86,10,17.07,17.07,0,0,1,5.47,6.3c1.71,3.73.83,7.69-2.12,9.77-3.22,2.26-7,2-10.21-.79-.22-2.49,1.71-2.94,3.43-3.43,3.78-1.06,3.15-3.18,1.37-5.51-1.62-2.11-4-3.29-6.06-5.15-1.23,5.74,1.89,12.37-4.31,16.54-.75.4-1.55.87-1.71,1.72-1,5.17-5.1,7.28-9.37,8s-9,1.41-12.66-2.45c-1.64-1.73-3.73-1.88-5.38-.42-4.56,4.06-10,4.85-15.77,5.15-7.91.42-9.64-1.48-9.09-9,1.06-1.27.44-2.76.47-4.14,0-1.82,0-3.58,2.29-4.12,3.14,2.11,2.06,5.29,2,8.16-.06,1.94-.33,3.77,2.39,3.91a10.34,10.34,0,0,0,4.75-.4c2.62-.77,5.58.29,8-1.52,1.72-4.61,1.25-5.05-4.72-4.32a4.92,4.92,0,0,1-3.79-1.43c-1.34-2.44-.65-5.23-1.4-7.78a7.32,7.32,0,0,1,1.28-5.15,2.17,2.17,0,0,1,2.4-.6A.89.89,0,0,1,104.89,161Z"/><path class="cls-49" d="M93.69,169c-1.17,1.4-.73,3.09-.8,4.68s0,3-2,3.31v-1a1.2,1.2,0,0,0-2,0c-1.93,7.65-8.32,10.76-14.55,13.71-3.13,1.48-6.42-.37-9.44-1.72-.85-1.13-.36-1.95.6-2.67a3.28,3.28,0,0,1,1.4-.44c14,.27,17.22-7,19-18,.44-2.77,1-5.52,1.34-8.31A21.93,21.93,0,0,0,88.05,148a66.47,66.47,0,0,1-1.29-6.78c-.58-4.95-3.37-8.21-7.25-9A10.31,10.31,0,0,0,68,137.91a36.8,36.8,0,0,0-3.43,11.82c0,2.85-.17,5.62-2.74,7.53-3.57-1.13-1.91-4.25-2.48-6.52-1-2.79.45-6-1.4-8.63a5.87,5.87,0,0,1-.33-2.42c.27-7.25,0-7.32-7.26-7.62-5.15-.22-10.6,1.48-15.37-1.9.31-2.42,2.17-2.12,3.8-2.12,5.48,0,11,0,16.44,0,6,0,6.71.57,8.41,6.77,3.88-5.4,9.06-7.18,15.31-6.84,6,.33,10.49,3.75,12.81,10.59,1.79-1.24,1.17-3.05,1.1-4.51-.13-2.66.86-5.16,3.2-5.55,2.89-.48,6.53-2.37,8.86,1.53l-.15.68a2.84,2.84,0,0,1-1,1,4.23,4.23,0,0,1-1.31.3c-1.6-.09-3.27-.5-4.56.93-1,1-.93,2.28-1.19,3.49-.59,3-.21,6.09-.31,9.13,0,.54,0,1.08,0,1.62a10.7,10.7,0,0,1,.12,3.34,18.19,18.19,0,0,0-.46,10C95.6,163.45,97,166.9,93.69,169Z"/><path class="cls-7" d="M240.94,149.82a42.87,42.87,0,0,0,6.48,7.43c7.26,7.08,10.18,15.76,9.42,25.78-.48,6.22-2.56,8.29-9,9-3.57-.33-7.84,1.75-10.15-2.94-3.48-2.56-2.8-6.25-2.54-9.77,0-.28,1.08-.47,1.65-.71a17.29,17.29,0,0,0,4.64,1.62c4.92,1.07,6.74-.47,6.39-5.57s-3.39-8.46-6.87-11.59c-4-3.58-7.5-7.41-8.47-12.94C235.22,147.56,238.1,149.24,240.94,149.82Z"/><path class="cls-50" d="M35,130.17c6.46,0,12.92-.15,19.39-.11,5.77,0,6.08.45,5.54,6.4-.11,1.28.29,2.7-1,3.66-6.81,1.11-11.17,4.76-12.3,11.81-.1.61-.88.95-1.47,1.26a12.2,12.2,0,0,1-7.93.48,3.86,3.86,0,0,1-1.1-4.91c2.8-6.23,2.92-12.12-1.15-17.84A6.26,6.26,0,0,1,35,130.17Z"/><path class="cls-51" d="M201.59,155c-1.37,0-2.57.29-2.72,2a3.42,3.42,0,0,1-2,3,106,106,0,0,0-7.3-8c-6.18-6.17-6-8.67.8-14.38,2.1-3.9,1.54-4.85-2.33-5.64-5.27-1.08-9.08,2-13.29,4-3.08.4-4.24-1.06-3.87-4a8.73,8.73,0,0,0,5.66-1.35c6.14-4.12,12.59-3.66,19-1,2.78,1.14,4.22-1.11,6.32-1.6a3.78,3.78,0,0,1,.48,2.73c0,.49,0,1,0,1.47a72.79,72.79,0,0,1,.66,11.52,18.24,18.24,0,0,0,.61,5.74C204,151.59,203.82,153.74,201.59,155Z"/><path class="cls-48" d="M66.16,185.91A2.38,2.38,0,0,0,64.9,188c-2.2-.27-2.93-2.6-5.13-3.5-1.49,2.13-.92,3.53,1.17,5.09,3.58,2.66,8.19,3.47,11.48,6.6.8.76,2.41,1,2.12,2.42-.35,1.78-2,1.29-3.28,1.37-4,.27-7.4-2.63-11.46-2.43-.55,0-.4-1.06.14-1.57a2.87,2.87,0,0,1,3.24-.69,16.9,16.9,0,0,0,1.7.56,3.57,3.57,0,0,0,.58.11.39.39,0,0,1-.49-.11c-2.75-1.22-5.43-2.49-8.13-3.74a6.2,6.2,0,0,1-3.23-4.46c.5-3.76-.64-5.88-4.93-5.87a6,6,0,0,1-5.9-4.52,35.67,35.67,0,0,1-.17-17.06,4.16,4.16,0,0,1,2.1-2.65,2.86,2.86,0,0,1,2.36.11c3.3,3.73,1.52,8.27,1.89,12.45s1.28,4.84,5.26,4c2.53-.53,2.55-2.23,2.58-4.1.07-5.16-.22-10.33.16-15.47.17-2.19-.13-5.44,3.93-4.52.29,2.33-.67,4.81.82,7a1.9,1.9,0,0,1,.88,1.22c.09,2-.2,4.09.37,6.11,0,6.39.44,12.72,3.05,18.7A3.62,3.62,0,0,1,66.16,185.91Z"/><path class="cls-52" d="M200.9,130c.31-.67.63-1.33.94-2,1.17,0,2.34,0,3.5,0,4.48.2,7.4,3.06,7.47,7.54.1,6.33.32,12.68-.06,19-.35,5.86,3.28,10.86,2.22,16.82,2.11-.49,1.83-1.63,1.84-2.53,0-5.5,1.22-11.38-.35-16.39-1.87-6-1.18-11.75-1.64-17.61-.21-2.69.24-5.38,2.9-6.28s5.92-1.76,8.11,1.45l-1,0c-1.36,1.58-3.73,1.63-5,3.31-.61,5.54.13,11,.64,16.5.66,6.9,1.83,13.75,1.43,20.72-.19,3.37-1,6.52-4.75,7.17s-6-2-7.41-5.25c-1.64-4-.74-8.18-1.15-12.26.86-8.69,1.73-17.39-.32-26-.6-.43-1.18-.88-1.79-1.29C204.81,131.6,202.34,131.78,200.9,130Z"/><path class="cls-53" d="M113.88,123q33-1.26,66,0c-.38,2.36-2.22,2.08-3.85,2.08q-29.13,0-58.27,0C116.1,125,114.26,125.31,113.88,123Z"/><path class="cls-54" d="M35,130.92a2.12,2.12,0,0,1,.45.23c4.09,3.7,6,7.71,3.07,13.25A12.45,12.45,0,0,0,37.05,153c2.13,4.11.87,8.39.38,12.54a81,81,0,0,0-.25,14.85c.32,5.36,2.86,9.05,8.6,9.79,2.56,1.54,5.53,1.65,8.35,2.29,1.41.73,3.08,1.12,3.77,2.8a11.16,11.16,0,0,1-9.53-.33,9.49,9.49,0,0,0-4.29-.93,11.77,11.77,0,0,1-11.15-11.34c-.07-8.11-.17-16.24,0-24.35.11-4,1.64-7.94,2.76-11.76,1.28-4.36,2.28-8.22-1-11.9C33.38,133.18,33.66,132.08,35,130.92Z"/><path class="cls-53" d="M144.87,174c3.5-6.72,1.15-14.19,2.36-21.15.63,0,1.14-.12,1.22,0,2.07,3.36,5.24,5.56,8.23,8a5.91,5.91,0,0,1,2.24,4.74c.12,3.09-.74,4.79-4.17,4.45-1.46-.15-3-.19-4,1.34-.3,2.87,1,6.09-1.8,8.42,0,.74-.05,1.47-.08,2.2-2.56-.52-1.88-2.58-2-4.24S147.13,174.42,144.87,174Z"/><path class="cls-53" d="M104.89,161v-1c-.21-.26-.57-.49-.61-.77-1.13-9.76-2.12-19.52.61-29.21h0c2.34.46,2,2.32,2,3.93,0,7.46,0,14.92,0,22.37C106.89,158.2,106.9,160,104.89,161Z"/><path class="cls-53" d="M149.13,136.12l-2.27-.09c4.56-7.54,13.07-10.62,21-7.6.68.26.82,1,1,1.6l-1,.91c-.29.4-.66.92-1.11.89A30.26,30.26,0,0,0,149.13,136.12Z"/><path class="cls-53" d="M148.86,182h18a2.17,2.17,0,0,1-2.39,2H151.25A2.18,2.18,0,0,1,148.86,182Z"/><path class="cls-55" d="M237.71,189.12l10.15,2.94c-1.13,1.11-2.72.79-4,1.34l-4.92.66c-3,.86-3.58-.68-3.19-3.2Z"/><path class="cls-56" d="M57.9,195.26c-1.33-.46-2.94,0-4-1.22.57-2,2.27-2.48,4-2.91,3.15.35,5.49,2.28,7.94,4,.25,2.62-2.25.59-2.88,1.7l-3-.85A2.09,2.09,0,0,0,57.9,195.26Z"/><path class="cls-57" d="M235.72,190.86c.75,1.38,1.25,3,3.19,3.2-2.53,1.28-5.3,1.56-8.06,1.89a1.76,1.76,0,0,1,.05-2.74C232.46,192.32,233.91,191.22,235.72,190.86Z"/><path class="cls-58" d="M230.9,193.21l-.05,2.74a7,7,0,0,1-4,1.09c-1.08.63-1.94.8-1.85-.92Z"/><path class="cls-48" d="M88.89,176c.17-.87-.31-2.31,1-2.31s.83,1.44,1,2.31Z"/><path class="cls-59" d="M225,196.12a2.22,2.22,0,0,0,1.85.92,3.65,3.65,0,0,1-4,.69C223.06,196.5,224.14,196.46,225,196.12Z"/><path class="cls-53" d="M118.87,136l.74,1c.63.86.14,1-.63,1l-2.1,0A2,2,0,0,1,118.87,136Z"/><path class="cls-7" d="M210.78,160.21a46,46,0,0,0,.68,11.36,6,6,0,0,0,2,3.86,4.61,4.61,0,0,0,4.19.93,3.15,3.15,0,0,0,2.2-3.49c-.13-3.8-.31-7.6-.51-11.4-.22-4.13-.48-8.25-.73-12.38,2.64-2.85,5.32-2.41,8-.09.65,7.09,1.31,14.17,1.92,21.25.4,4.65.43,9.27-1.82,13.57-7.7,5.64-19.48,1.93-22.75-7.24-1.8-5.05-1.42-10.42-2-15.66-.21-2-.3-3.94-.44-5.91.71-4-1.22-7.94-.57-12a1.86,1.86,0,0,1,1.84.46c2.08,2,3.59,2.1,4.63-1,.33-1,1-2.31,2.55-1.25C211,147.55,209.59,153.93,210.78,160.21Z"/><path class="cls-60" d="M148.94,179.81c0-2.06,0-4.11-.07-6.17a1.93,1.93,0,0,1,1.87-2.25c1.79,1.21,3.84.56,5.76.75,2.29.21,4.57-.65,5.26-2.84s1.13-5-1-6.88-3.89-4.26-6.49-5.92c-3.57-2.27-4.91-6.38-5.65-10.51a1.9,1.9,0,0,1,.61-1.7c2.8-1.88,5.4-1.49,7.85.68,1.27,3.2,3.76,5.35,6.37,7.38,6.37,5,8.48,11.53,7.45,19.32-.65,5-3.16,8.17-7.9,8.92S153.53,181.58,148.94,179.81Z"/><path class="cls-61" d="M179.81,172.8c3.05.57,6.3,1.74,8.43-1.74,1.5-2.46.5-6.56-2.32-9.5-1.7-1.78-3.72-3.26-5.57-4.92-3.15-2.83-5.62-6-5.61-10.57,2-2.51,4.55-2.27,7.21-1.51,5.28,3.81,9.49,8.68,13.47,13.76A3.36,3.36,0,0,1,196,162a21.93,21.93,0,0,1,.84,14c-1,3.49-3.21,5.7-6.92,6.2a23.4,23.4,0,0,1-6.42,0c-7.44-1-8.61-.32-7.57-10C177.54,170.32,178.52,172.58,179.81,172.8Z"/><path class="cls-62" d="M179.81,172.8l-3.88-.59c-.24-7-4.36-12.55-7.17-18.58a6.93,6.93,0,0,0-4.32-3.78,4.79,4.79,0,0,1-3.54-4.34c-.11-1.82.22-3.69,2.49-3.37,2.51.37,4.1-3.06,6.41-1.58,2.1,1.35.29,4.21,1.31,6,2.35,4.1,3.48,8.92,7.37,12.11a41.27,41.27,0,0,1,4.56,4.6c1.36,1.56,4.08,2.62,3.49,5-.71,3-3.61,1.39-5.54,1.71C178.9,170.36,179.08,171.4,179.81,172.8Z"/><path class="cls-63" d="M182.86,146l-8.12,0c-1.76-3.35-.45-6.69,0-10a14.47,14.47,0,0,1,17.16-5.37c2.83,1.1,2,3.37,2.32,5.37s0,3.33-2.37,3.18C187.13,139.22,184.87,142.47,182.86,146Z"/><path class="cls-64" d="M157.05,145l-8.21.06a10.24,10.24,0,0,1-.18-6l.47-2.93c4.13-6.15,9.24-7.57,18.73-5.18.92.87.91,2,1,3.17.19,5,.21,5-4.57,4.42C158.89,137.91,157.65,139,157.05,145Z"/><path class="cls-65" d="M182.86,146c-.12-7.22.62-7.79,9-6.81A20.12,20.12,0,0,0,189,141c-2.71,2.29-2.89,4.92-.47,7.59,2,2.18,4.08,4.25,6.22,6.26a5.72,5.72,0,0,1,2.15,5.18,2.48,2.48,0,0,1-.85,2c-1.6-3.95-4.44-6.94-7.58-9.65A26.84,26.84,0,0,1,182.86,146Z"/><path class="cls-64" d="M240.94,149.82c-2.71,2.67-5.62.27-8.43.34a20.86,20.86,0,0,1-.93-12.59c1.25-4.83,4.13-7.34,9.16-7.46,5.8-.14,11.61,0,17.86,0-1.8,4.06-4.88,6.81-7.38,10-.8,1-2,.8-3.2.58-7.54-1.32-9.1.37-7.3,7.72A14.66,14.66,0,0,1,240.94,149.82Z"/><path class="cls-66" d="M226.65,149l-8,.09c-1.22-5.52-1-11.19-1.7-16.76a1.88,1.88,0,0,1,1-1.64c2.32-.11,4.65-.51,6.94.25,1.6,3.46.72,7.18,1.12,10.76.85,2-.12,4.28.68,6.33A1.1,1.1,0,0,1,226.65,149Z"/><path class="cls-3" d="M224.85,130.94l-6.94-.25c2.22-1.24,4.62-.45,6.94-.63Z"/><path class="cls-7" d="M226.65,148c-1.36-2-.82-4.18-.68-6.33C227,143.72,226.86,145.87,226.65,148Z"/><path class="cls-7" d="M144.05,164c-.94,4-1.22,8.09-3.43,11.71-3.44,5.63-8.85,5.58-14.41,5.16-5-.37-6.54-4-8-8.06-1.83-5.15-1-10.39-1.3-15.6-.13-2.3,0-4.62,0-6.94,1-1.41-.28-3.37,1.14-4.67a7.16,7.16,0,0,1,8.26-.7,4.74,4.74,0,0,1,1.25,3.32c-.26,5.49-.66,11,.38,16.43.15.64,0-.18.12.47.42,1.62-.19,4.16,2.4,4.14,2,0,2.09-2.2,2.46-3.77a27.58,27.58,0,0,0,.89-6.83c-.08-3.78.15-7.56-.21-11.34-.16-1.66-.23-3.3,1.17-4.58,3.2-.17,6.39-.28,8.89,2.27l.41,1.07A115.27,115.27,0,0,1,144.05,164Z"/><path class="cls-7" d="M94.7,150.05c.13-1,.25-2,.37-3.05,2.65-2.3,6.22-3.8,6.47-8.15.06-1,1-3,2.82-1-.12,7.43.24,14.89-1.44,22.22l-.11,4.76a14.61,14.61,0,0,0,.07,8,7.63,7.63,0,0,0,4.05-.07c7.16-.53,7.51,0,5.86,8.24-3.1,2.12-6.74.07-10,1.27-1.64.66-3.49-.25-5.1.68-4.81-.1-4.76-.1-4.44-4.68.22-3.07.28-6.16.41-9.24a45.43,45.43,0,0,0,.24-8.88C95.07,156.85,93.78,153.36,94.7,150.05Z"/><path class="cls-64" d="M143.7,145c-2.95-.34-6.37,1.31-8.64-2a3.15,3.15,0,0,1-1.23-.49c-3.53-3.28-3.78-3.21-6,1.76a1.81,1.81,0,0,1-1.78.83c-2.59,1.21-5.35.86-8.07.89-.39-.11-.56-.28-.53-.53s.12-.42.22-.42l1.28-7a.85.85,0,0,0,.63-1c1.39-5.84,7.19-7.52,13.44-7a11,11,0,0,1,9.64,8.68C143.13,140.78,144.39,142.76,143.7,145Z"/><path class="cls-67" d="M102.92,160c-.7-7.7,1.5-15.3.8-23-1.94-2-1.67-3.95.12-5.87l1-1.12v30Z"/><path class="cls-53" d="M144.05,164l.06-17.92A42.78,42.78,0,0,1,144.05,164Z"/><path class="cls-53" d="M112.79,181a5.44,5.44,0,0,0,.27-.93c1-7.19,1-7.19-6.13-7.31,2.2-1,5.09-1.73,6.31.33A7.11,7.11,0,0,1,112.79,181Z"/><path class="cls-53" d="M102.88,172.82c-1.63-2.66-.33-5.35-.07-8Z"/><path class="cls-53" d="M148.66,139.05c0,2-.51,4,.18,6a4,4,0,0,0-.25,1A7.44,7.44,0,0,1,148.66,139.05Z"/><path class="cls-3" d="M97.72,182.94a9.3,9.3,0,0,1,5.1-.68C101.26,183.47,99.45,182.89,97.72,182.94Z"/><path class="cls-53" d="M117.7,145.05c.11.32.21.63.31.95-.35,1.42-.7,2.84-1.06,4.26C117,148.5,116.38,146.64,117.7,145.05Z"/><path class="cls-7" d="M66.16,185.91c-4.61-4-4.55-9.66-5-15.07-.2-2.14-.08-4.31-.1-6.46.84-2,.05-4.22.58-6.28l.12-1.07L63,149c2.5-2.49,5.19-2.45,8-.64,1.91,2.09,1.14,4.68,1.29,7.09a75.15,75.15,0,0,0-.32,7.65,13.18,13.18,0,0,0,0,7c.5,1.26-.11,3.36,2,3.4,1.89.05,2.17-1.88,2.53-3.2a79.5,79.5,0,0,0,2.26-16C79,151.72,78.74,149,81,147c2.73-1.63,5.46-2.58,8.14.08a55.05,55.05,0,0,1-.08,11.9c-.91,5.79-1.31,11.69-3.4,17.24C82.61,184.37,73.54,188.83,66.16,185.91Z"/><path class="cls-68" d="M60.89,150c-2.62.59-2,2.72-2,4.41-.07,5.95,0,11.9,0,17.85,0,1.62.37,3.31-.63,5.13-2.63-1.08-5.17-2.16-8.11,0-2.15,1.57-3.21-.28-3.21-2.51q0-8.43,0-16.85c-3.22-5.69.84-9.83,3-14.37,2.47-1.93,5.55-.63,8.21-1.56l.75-.07C62.77,143.9,60.13,147.38,60.89,150Z"/><path class="cls-64" d="M89.16,147.15c-2.79-.62-5.38.7-8.08.85a2.37,2.37,0,0,1-1.51-1.39,25,25,0,0,0-.95-2.76c-.41-1.15-.27-2.94-2-2.9s-2,1.84-2.39,3.22c-.21.67-.52,1.31-.69,2-.5,1.3-.39,3.14-2.6,2.87L63,149c-.14-4.61,1.4-8.83,3.42-12.8,2.65-5.19,8-7.31,14-6.05,4.48.93,8,5.51,8.43,11,.16,1.92-.6,4,1,5.71C89.76,147.38,89.53,147.44,89.16,147.15Z"/><path class="cls-66" d="M103.84,131.16l-.12,5.87a3.81,3.81,0,0,0-.81,2.25c-.6,7.15-.6,7.15-7.84,7.72v-1a46.36,46.36,0,0,0,.13-11c-.76-1.52,0-2.79.72-4,2.27-.88,4.6-.36,6.91-.31Z"/><path class="cls-69" d="M50.92,144c-2.32,4.38-5,8.66-4,14H45c-2.11-2.05-1.84-4,.23-5.87.64-.63.54-1.49.71-2.27,2.13-9.33,3.3-10.2,13-9.77V142h0C56.62,144.19,53.2,141.86,50.92,144Z"/><path class="cls-70" d="M89.16,147.15a3.21,3.21,0,0,0,.67-.26c-.25,4,.91,8.15-.75,12.1C88.8,155,89.75,151.1,89.16,147.15Z"/><path class="cls-7" d="M95.19,135a16.54,16.54,0,0,1-.13,11C94.63,142.35,95.12,138.7,95.19,135Z"/><path class="cls-70" d="M94.7,150.05a36,36,0,0,1-.77,10.09C94.17,156.78,93.07,153.31,94.7,150.05Z"/><path class="cls-3" d="M102.82,130.68l-6.91.31C98.15,129.44,100.47,129.79,102.82,130.68Z"/><path class="cls-60" d="M45.21,152.16c-.08,2-.15,3.91-.23,5.87a53.8,53.8,0,0,0-1,16.83c.33,4.51,2.22,5.83,6.56,5.18,5.95-.89,5.94-.89,5.32,5.2a5.33,5.33,0,0,1-.85,2.82c-1.48,4.95-5.56,3.77-9.11,3.85-7.79-.63-10.38-3.09-10.83-11.26a105.35,105.35,0,0,1,2-27.66C39.65,151.52,42.46,152.09,45.21,152.16Z"/><path class="cls-66" d="M209,140.75c-.07.82-.07,1.64-.21,2.45-.31,1.71,1.07,4.47-2.06,4.59-2.48.1-4.92-.68-5.19-3.93,0-.29-.34-.55-.52-.82.41-4.08-1.78-8.12-.17-12.21a21.94,21.94,0,0,1,6.91-.12l1.16,1.32A10.06,10.06,0,0,1,209,140.75Z"/><path class="cls-3" d="M207.76,130.71l-6.91.12a5.29,5.29,0,0,1,.05-.8C203.18,130.27,205.57,129.43,207.76,130.71Z"/><path class="cls-71" d="M45.85,191.91c2.95-1.5,6.49-1.58,9.11-3.85a7,7,0,0,0,2.88,3.07c-.69,1.85-1.82,3.09-4,2.91A18,18,0,0,1,45.85,191.91Z"/><path class="cls-72" d="M62.9,196.84l2.88-1.7c1.84-.09,3,1.1,4.4,2.56C67.45,198.25,65.26,196.55,62.9,196.84Z"/><path class="cls-68" d="M61.59,158.1a15.17,15.17,0,0,1-.58,6.28C61.05,162.27,60.36,160.09,61.59,158.1Z"/><path class="cls-73" d="M209,140.75c0-2.91-.05-5.81-.08-8.72,2.58.64,1.88,2.77,1.89,4.45,0,7.91,0,15.82,0,23.73-1.13-4.34-.86-8.78-1-13.2C209.71,144.92,210.18,142.72,209,140.75Z"/><path class="cls-52" d="M134.65,142l.41,1a79.05,79.05,0,0,1-.09,23.14,28.14,28.14,0,0,1-.84,3.34,3.78,3.78,0,0,1-4.07,2.92c-1.89-.06-2.92-1.27-3.41-3.06-.3-1.11-.9-2.15-.6-3.36a103.35,103.35,0,0,0,0-17.94v-2.94l.86-1.07C128.78,140.56,131.23,139.43,134.65,142Z"/><path class="cls-74" d="M126.07,148.05a41.28,41.28,0,0,1,0,17.94A100.46,100.46,0,0,1,126.07,148.05Z"/><path class="cls-75" d="M134.65,142c-2.88-.51-5.34.58-7.71,2a7.25,7.25,0,0,1,0-1.92c.52-2,1.56-3.78,3.7-4C133.14,138,134.27,139.74,134.65,142Z"/><path class="cls-76" d="M80.67,146l.41,2c-.46,6.93-.59,13.9-1.89,20.75a23.68,23.68,0,0,1-.63,2.92c-.84,2.59-1.94,5.39-5.19,5.08s-3.19-3.25-3.28-5.76a23,23,0,0,0,0-7.94,16.35,16.35,0,0,1,.67-7.05c1.78-3.49,1.41-7.24,1.34-11A.86.86,0,0,1,72.7,144C76.82,139.34,77.73,139.58,80.67,146Z"/><path class="cls-77" d="M72.15,145c1.41,3,.61,6.09.62,9.15,0,1.16-.91,1.63-2,1.81q.06-3.48.14-7C72.26,148,71.47,146.29,72.15,145Z"/><path class="cls-78" d="M70.14,163.05a9,9,0,0,1,0,7.94A30.58,30.58,0,0,1,70.14,163.05Z"/><path class="cls-49" d="M50.92,144c.23-1.6,1.33-2,2.74-2,1.75,0,3.5,0,5.24,0C57,145.9,53.55,143.25,50.92,144Z"/><path class="cls-79" d="M80.67,146c-.43-.22-1.15-.36-1.23-.67-1.08-4-2.82-4.24-5.37-1.13-.14.17-.9-.17-1.37-.27a5.42,5.42,0,0,1,1-3.2A3.56,3.56,0,0,1,77.49,139,2.92,2.92,0,0,1,80,141.71C80.23,143.14,80.43,144.59,80.67,146Z"/></g></g></svg>