<svg xmlns="http://www.w3.org/2000/svg" viewBox="0 0 267.83 319.13"><defs><style>.cls-1{fill:#341734;}.cls-2{fill:#ee3782;}.cls-3{fill:#8d145d;}.cls-4{fill:#fdbfef;}.cls-5{fill:#fefefe;}.cls-6{fill:#e7e6e7;}.cls-7{fill:#fcfafb;}.cls-8{fill:#dedede;}.cls-9{fill:#7a8499;}.cls-10{fill:#f8f7f8;}.cls-11{fill:#f7f7f7;}.cls-12{fill:#8f155d;}.cls-13{fill:#b2a2ab;}.cls-14{fill:#fdfcfc;}.cls-15{fill:#697590;}.cls-16{fill:#6e7792;}.cls-17{fill:#90155e;}.cls-18{fill:#91155e;}.cls-19{fill:#92155e;}.cls-20{fill:#83869c;}.cls-21{fill:#a8a4af;}.cls-22{fill:#9d9caa;}.cls-23{fill:#7f829a;}.cls-24{fill:#9494a5;}.cls-25{fill:#b2a1b0;}.cls-26{fill:#f7f6f7;}.cls-27{fill:#f1f0f1;}.cls-28{fill:#fbf7f9;}.cls-29{fill:#f9f3f7;}.cls-30{fill:#f6ecf2;}.cls-31{fill:#f5ecf2;}.cls-32{fill:#f3e8ef;}.cls-33{fill:#fcbeee;}.cls-34{fill:#fcbded;}.cls-35{fill:#fbbcec;}.cls-36{fill:#eba4d8;}.cls-37{fill:#f7b5e6;}.cls-38{fill:#f7b5e7;}.cls-39{fill:#eba3d6;}.cls-40{fill:#e9a0d4;}.cls-41{fill:#7a1b54;}.cls-42{fill:#d988c0;}.cls-43{fill:#d784bc;}.cls-44{fill:#8e145d;}.cls-45{fill:#8f185f;}.cls-46{fill:#8f175f;}.cls-47{fill:#901a61;}.cls-48{fill:#8c145c;}.cls-49{fill:#8e155d;}.cls-50{fill:#901a60;}.cls-51{fill:#901b61;}.cls-52{fill:#911a61;}.cls-53{fill:#972369;}.cls-54{fill:#ba5897;}.cls-55{fill:#962168;}.cls-56{fill:#f6b3e5;}.cls-57{fill:#a93f82;}.cls-58{fill:#931c64;}.cls-59{fill:#e69acf;}.cls-60{fill:#901961;}.cls-61{fill:#d783bb;}.cls-62{fill:#f0aadd;}.cls-63{fill:#97226a;}.cls-64{fill:#a13277;}.cls-65{fill:#e9e9e9;}.cls-66{fill:#e9e8e9;}.cls-67{fill:#811455;}.cls-68{fill:#841456;}.cls-69{fill:#fefdfe;}.cls-70{fill:#831557;}.cls-71{fill:#e8e8e8;}.cls-72{fill:#fdfcfd;}.cls-73{fill:#e9e8e8;}.cls-74{fill:#fdfdfd;}.cls-75{fill:#7d1653;}.cls-76{fill:#72104c;}.cls-77{fill:#7d2057;}.cls-78{fill:#7b1351;}.cls-79{fill:#a86e91;}.cls-80{fill:#9c5680;}.cls-81{fill:#76104d;}.cls-82{fill:#75134e;}.cls-83{fill:#7e1755;}.cls-84{fill:#a97193;}.cls-85{fill:#9b557e;}.cls-86{fill:#881559;}</style></defs><title>Asset 2</title><g id="Layer_2" data-name="Layer 2"><g id="Layer_1-2" data-name="Layer 1"><path class="cls-1" d="M38,208.55a17.23,17.23,0,0,0-5.75-2.09c-13.46-3-20.63-12-23.28-25-1.44-7.06-1.07-14.11-.34-21.3,1-9.77,2.86-19.34,4.78-29.35-3-3.67-6.13-7.5-9.17-11.42-2.68-3.45-5.17-7-3.8-11.81,1.86-6.58,5.92-9.77,13.2-9.87,7.5-.1,15,0,22.5,0h4.73c-1.74-1.22-2.89-2.76-5.22-2.64-5.45.28-9.91-2.1-11.94-7.25-2-5-1.26-9.83,3.05-13.66a3.14,3.14,0,0,0,.49-.84,16.8,16.8,0,0,0-8.51-9c-4.86-2.28-7-8.5-5.62-13.75,1.22-4.77,6.06-8.59,11.49-8.91a35.15,35.15,0,0,1,8.39.52c1.52-1.46,1-3.27.83-4.78-1.09-8.16,8.87-15.05,17.67-10.44,4,2.08,7.58,4.82,11.35,7.26a5.09,5.09,0,0,0,3.42,1.24c1.51-4.91,3.86-9.76,8.48-13s10.14-2.65,15.63-3c2.33-8.64,9.13-10.7,16.73-11.79,16.41-2.37,32.81-4.76,49.18-7.36,9-1.43,16.12,4,16.7,13.2.11,1.8-.39,3.67.72,5.67,2.55.94,5.41.54,8.16.41,10.33-.5,18.26,4.17,20.85,14.65a17.32,17.32,0,0,0,.66,1.69c4.65-1.9,8.52-5,12.58-7.68a14,14,0,0,1,10.4-2.52,11.83,11.83,0,0,1,9.62,12.22c0,1.29-.33,2.58-.54,4.13,4.55-.18,9-1,13.33.54,5.29,1.87,7.76,5.94,8,11a11,11,0,0,1-6.47,10.94c-1.49.74-3,1.5-4.46,2.26-1.16,2-2.31,4-3.39,5.93.27,1.8,1.76,2.56,2.49,3.85,4.89,8.65-.34,18.53-10.22,18.57-2.77,0-4.56,1.21-6.67,2.59,8.3,0,16.6,0,24.9,0a19.23,19.23,0,0,1,6.86,1c7.14,2.61,10.27,10.68,6.25,17.12-2.27,3.64-5.27,6.82-8,10.17-1.88,2.32-3.77,4.65-5.81,6.84-1.86,2-1.57,4.45-1.16,6.64,2.26,11.89,3.76,23.9,5.47,35.87.63,4.36,1.82,8.69,1,13.32-2.23,12-9.51,18.62-21.18,20.86-1.64.32-3.31.37-4.8,1.66-1.08,2.21-.64,4.77-.5,7.2,1,17.06-5.68,31.5-15.29,44.89C204,279.64,188.12,291.38,171.27,302c-9,5.68-18.63,10.33-28.17,15.09-5.61,2.8-10.79,2.75-16.61,0-16.8-7.85-32.79-17-47.44-28.36-13.53-10.53-25.24-22.66-33.18-38.06-5.43-10.53-8.37-21.65-7.93-33.58C38,214.26,38,211.43,38,208.55Z"/><path class="cls-2" d="M39.74,71.53c-2.05-1.83-5.1-.44-7.38-2s-2.55-4.19-3.68-6.28C19.47,58,19.47,58,18.09,53.74c2.14-5.74,2.72-6.21,8.61-6.16,4.65,0,9.32-.3,13.93.77a3.2,3.2,0,0,0,2.86-.5c1.15-2.39-.67-3.64-1.93-5.14-1.62-2-3.13-4-2.3-6.75,1-3.52,5.1-6.86,9.88-3.86C53.65,34.93,58,38,62.53,40.8c2.09,1.32,4,3,6.63,3.86,2.1-3.14,2.33-6.86,3.51-10.21,2.3-6.51,5.09-8.65,12-9,3.61-.16,7.34.51,10.75-1.25,1.14-7.95,3.14-9.66,11-10.75,11.83-1.64,23.61-3.6,35.4-5.45,4.92-.77,9.81-1.72,14.74-2.38,6.74-.91,9.84,1.73,10.5,8.57.31,3.28.75,6.55,1.18,10.24,5.49.36,10.91.79,16.34,1,7.39.35,10.16,2.62,12.43,9.84,1,3.11,1.18,6.54,3.52,9.61l15.88-10.41c1.25-.82,2.44-1.74,3.75-2.47,3.11-1.71,6.66-1.21,8.57,1.12,1.77,2.17,1.72,5.69-.05,8.36-1.16,1.77-3.09,3-3.54,5.12.82,2.12,2.48,1.91,3.88,1.61,5.11-1.1,10.28-.66,15.43-.71,3.3,0,5.68,1.8,6.36,4.49.8,3.12-.36,5.78-3.44,7.52-2.17,1.23-4.43,2.29-7.09,3.64-.14,6.72-5.35,7.53-11,7.7,0,.35,0,.7,0,1.06l7.18,4.58c4.18,2.67,5.54,5.57,4.22,9-1.13,2.93-4.34,4.28-8.89,3.73-.48-.06-1-.16-1.63-.28-5.89,6.11-11.22-.15-16.89-.94-.1,3.66,1.58,10.08,4.15,15.49H232.7c7.17,0,14.34,0,21.51,0,3,0,5.62.65,7.08,3.62,1.55,3.17.39,5.76-1.68,8.21-4.93,5.85-9.83,11.72-14.71,17.54,0,6.39,1.66,12.35,2.45,18.42,1.32,10.19,3.23,20.3,4.5,30.5,1.44,11.53-4.33,19.32-15.56,21.81-3.23.71-6.44,1.54-9.9,2.37-1.2,4-.57,8.21-.53,12.29a62.13,62.13,0,0,1-7.92,31,105,105,0,0,1-23.21,28.54c-16.52,14.51-35.33,25.41-55.22,34.56a10.63,10.63,0,0,1-9.55.07c-18.75-8.77-36.73-18.83-52.54-32.33-12.14-10.37-22.6-22.1-28.94-37.05a53.18,53.18,0,0,1-4.64-22.75c.19-5.47,0-11,0-16.37-3.32-2.11-6.91-2.25-10.24-3C20.76,198.31,14.86,188.2,14,176.6c-.84-10.82.46-21.54,2.47-32.21.89-4.73,1.85-9.42,3.16-14.43-3.25-5.07-7.57-9.7-11.46-14.65-1.75-2.24-2.83-4.53-2-7.35s3.24-4.35,7.07-4.37c11.17,0,22.34,0,33.5,0a17.8,17.8,0,0,0,5.89-.46C54,98.32,55.46,93.32,57,88c-6.2.42-11.45,7.15-17.44,1.16-1.53.14-3,.38-4.48.37A6.68,6.68,0,0,1,28.6,85c-1.28-3,.1-5.29,2.27-7,2.35-1.84,5-3.23,7.56-4.84A2.34,2.34,0,0,0,39.74,71.53Z"/><path class="cls-3" d="M67.7,260.77c-2.4-1.25-3.71-3.43-4.88-5.73a6.78,6.78,0,0,1,1.37-4.65c4.36-5.58,8.06-11.7,12.44-15.95-4.22,3.15-9.16,7.08-14.46,10.52-1.41.91-2.86,1.76-4.6.77-2.33-.94-2.67-3.29-3.47-5.21a54.3,54.3,0,0,1-3.76-14.93c-.79-7.44-.32-14.89-.28-22.41,3.81-1.4,6.78,1.12,10.51,1C73,196.46,87.45,193.1,102.09,191a195,195,0,0,1,44.15-1.65A182.47,182.47,0,0,1,192,198.71a72.83,72.83,0,0,1,12.71,5.77c3.38,2,6.66,2.78,10.41,1.32a18.68,18.68,0,0,1,3.82-.54c-.06,12.46,1.75,24.81-4.1,36.39-.75,1.48-1.21,3.12-2.71,4.1-1.73.94-3.29.23-4.63-.75-5.59-4.05-11.59-7.59-16.73-13.05,5.64,5.45,9.38,11.76,14,17.36,1.27,1.53,2.32,3.29,1.4,5.47-.19,2.78-2.14,4.35-4.08,5.92a4,4,0,0,1-3.33-1.89c-1.61-2.7-3.65-3.38-6.7-2.36s-3.78,3.43-3.92,6.18c-.17,3.15-.23,6.28-1.84,9.15-1,1.84-2.83,2.74-4.43,3.91-7.16,4.63-15.44,5.3-23.48,5.83-9.11.6-18.24,2-27.41,1.27-11.91-1-24-.77-35.64-3.94-2.57-.7-5.15-1.35-7.37-2.92-4.41-1.74-6.27-5.11-6.18-9.73a21.49,21.49,0,0,0-1.63-8.29,7.91,7.91,0,0,0-6.4-1.87C71.37,257.17,70.94,260.79,67.7,260.77Z"/><path class="cls-3" d="M102.87,106.61H60c-1.56-1.91-.87-3.15-.51-4.4q7.77-26.83,15.54-53.66c1.16-4,2.36-8,3.65-11.92,1.38-4.23,2.35-5,6.85-5,6.32-.09,12.65-.05,19-.06,2.55.63,3.07,2.74,3.64,4.87,2.42,9,4.62,18,6.92,27,.89,3.51,2.64,5.13,6.36,4.59,11.32-1.67,22.65-3.35,34-4.83a11.87,11.87,0,0,0,5.21-2c.06-6.8.36-13.86-.42-21-.36-3.3-1.79-7,1.87-9.55,7.12.17,14.2,1.05,21.35.91,5-.1,6,.67,7.48,5.54C196,54.36,201,71.6,206,88.83c1.61,5.56,3.27,11.1,5.17,17.54l-44.74.28c-1.34-.11-1.61-1.15-1.92-2.16A10.13,10.13,0,0,1,166,98.3c.31-.59.16.19.19-.44,0-.47-.44.17-.73,0-2.83-1.14-2.54-3.66-2.61-5.94-.14-4.64-1.29-9.12-1.32-14.39-9.63,2.38-18.45,2.69-26.38-3.61a29.14,29.14,0,0,1-25.87,3.84,16,16,0,0,0-2.1,8.9c.14,5.18-1.25,10.22-1.22,15.4C105.94,104.13,105.32,106.06,102.87,106.61Z"/><path class="cls-4" d="M162.11,30.7c-.16,9.13,1,18.2,1.18,27.32,0,1.8.63,3.62-.57,6.15-15.48,2.49-31.44,4.76-48,6.71-3.48-13.44-6.84-26.4-10.2-39.35-.52-3.24-2-6.28-2.13-9.24A3.77,3.77,0,0,1,105.82,20c18.1-2.4,36-6,54.49-8C161.52,18.56,161.53,24.66,162.11,30.7Z"/><path class="cls-5" d="M102.87,106.61c1.51-6.5,1.25-13.18,2-19.76.5-4.28.78-8.58,1.18-13.19,4.88,2.19,9.62,3.81,15,3.24s9.9-2.39,13.63-6.34c8.76,7.92,18.23,8,28.66,3.17,1.34,8,1,16.11,2.56,24,1,1.92.62,3.91.29,5.89a5.23,5.23,0,0,0,.29,3.08c-.18.93-.37,1.86-.55,2.78-1.17,1.95-3.11,1.64-4.91,1.64q-26.22,0-52.43,0c-2.15,0-4.48.29-5.27-2.56Z"/><path class="cls-6" d="M87.88,273.82c9.92,4.33,20.45,5.38,31.11,6.05,17,1.06,33.87.74,50.67-2.19a64.94,64.94,0,0,0,12.3-3.9c1.53.55,3.45.55,3.77,2.75-1.78,2.94-4.82,4.45-7.47,6.34-6.06,4.34-12.09,8.78-18.94,11.88-5.59,1.88-11.43,1.71-17.2,2.06-10.13.62-20.2-.63-30.29-1a128.35,128.35,0,0,1-28.19-19C83.84,274,86.58,275,87.88,273.82Z"/><path class="cls-7" d="M23,145.29c-.28-5.77,2.13-11,3.5-16.89L11.71,109.68h91.11a2.51,2.51,0,0,1,.41,3.26c-2.25,2.39-5.24,1.81-8,1.82-21.34.07-42.68,0-64,.06-2.11,0-4.34-.5-6.63,1,1.12,5.16,7.86,7.92,6.87,13.66-.89,5.16-1.62,10.53-4.41,15.22C25.82,145.78,24.52,146.36,23,145.29Z"/><path class="cls-7" d="M167.1,109.72h88.74c-5.68,8-12.21,14.54-17.74,21.84.57,4.32,1.14,8.58,1.71,12.83a2.49,2.49,0,0,1-3.23.58c-4.75-6.51-4.72-13.34-.35-19.64,2.15-3.11,5.6-5.28,6.74-9.34-1.73-1.87-4-1.15-6-1.16-20.76-.06-41.52,0-62.28-.07-2.75,0-5.72.55-8-1.8A2.41,2.41,0,0,1,167.1,109.72Z"/><path class="cls-8" d="M111.83,295.78c2.56-3,6-2.32,9.2-1.91a99.16,99.16,0,0,0,27.53-.05c3.75-.56,7.13,1.29,10.76.93-7.6,5.36-16.22,8.71-24.44,12.85C126.8,304,119,300.58,111.83,295.78Z"/><path class="cls-9" d="M189.83,193.94a201.27,201.27,0,0,0-31-6.89,224.17,224.17,0,0,0-44.71-.88,212.81,212.81,0,0,0-36.18,6.37,2.81,2.81,0,0,1-.49-3.46c3.85-4.11,9.32-4.33,14.22-5.2,30.67-5.48,61.26-5.44,91.57,2.67,3,.8,6.35,1.24,7.57,4.89A2.6,2.6,0,0,1,189.83,193.94Z"/><path class="cls-10" d="M87.88,273.82c-.42,2.41-2.93,1.81-4.24,2.93-6.23-4.42-11.78-9.5-15.94-16l4.4-8c3.66.87,7.22,1.44,10.72,3,.41,4,.71,8,1.25,11.91C84.41,270.2,84.4,273.14,87.88,273.82Z"/><path class="cls-11" d="M185.73,276.53c-1.19-1-3.51-.46-3.77-2.75,2.72-1.85,3.64-4.6,3.86-7.7a63.22,63.22,0,0,1,1.28-10.43c3.21-1.47,6.69-1.89,10.15-3,2.13,2.38,3,5.5,4.84,8-4.17,5.68-8.77,10.9-15,14.43A6.44,6.44,0,0,0,185.73,276.53Z"/><path class="cls-12" d="M243.19,54.71l-9.55,5c-1.3,1.56.36,3-1.06,4.42A163.44,163.44,0,0,1,208.85,67l12.56-6c1.18-2.16-.93-3.83.26-6.26,6.93.34,14.05-1.46,21.31-1Z"/><path class="cls-12" d="M36.83,64.27c-1.48-1.51.25-2.81-.63-4.45L25.13,54.1c4.51-.87,8.06-.05,11.67.28,3.77.34,7.59.07,11.17.07.94,2.51-.78,4.1-.32,6.23,3.6,2.81,8.68,3.36,12.22,7.06Z"/><path class="cls-13" d="M167.1,109.72l-.16,2.87c-1.49,1.84-3.61,1.46-5.55,1.46q-26.47.08-52.94,0c-1.94,0-4.06.38-5.56-1.46,0-1,0-1.94-.07-2.91l.46-1.17c1.77,1.32,3.83.87,5.79.88q28.41,0,56.82,0Z"/><path class="cls-14" d="M57.57,245.73,82,228.23l1,1c-6.65,8.65-13,17.5-20.1,25.84C60.51,252.26,58.05,249.55,57.57,245.73Z"/><path class="cls-14" d="M206.17,254.78l-19.33-25.51c1.58-1.39,2.49,0,3.4.69,7.31,5.23,14.57,10.52,21.85,15.79C211,249.32,209.47,252.64,206.17,254.78Z"/><path class="cls-15" d="M189.83,193.94c.06-.83.11-1.67.17-2.5,2-2.13,4.35-1.18,6.47-.41,2.64,1,5.49,1.65,7.78,3.28,4.65,3.32,9.55,3.25,14.68,1.69,6.95-2.11,14.36-2.6,20.95-6a3.11,3.11,0,0,1,2.43,0,1.78,1.78,0,0,1,.75,2.77c-1.49,2.71-4.07,3.84-6.85,4.5-8.69,2.08-17.4,4.06-26.36,6.13C203.71,199.29,196.65,196.87,189.83,193.94Z"/><path class="cls-16" d="M77.92,189.82l0,2.72c-5.55,2.2-11.21,4.16-16.39,7.18a5.34,5.34,0,0,1-4.28.46c-7.9-1.93-15.82-3.73-23.71-5.66a12,12,0,0,1-5.69-2.84,2.29,2.29,0,0,1,1-2.78c4.34-1.45,7.94,1.8,12.07,2A18.15,18.15,0,0,1,45.77,192c7.61,2.53,15,3.62,22.42-1.16C70.76,189.22,74.38,187.12,77.92,189.82Z"/><path class="cls-17" d="M223.55,85.13l-15.77-6.52c3.5-1.37,6.81.84,10.13-.37,1.49-.91.53-2.86,1.78-4.16,4.93,2.21,9.32,5.31,14.64,8.59H226.1C224.76,83,225.19,84.88,223.55,85.13Z"/><path class="cls-18" d="M36.73,81.58l12.45-7.43c1.74,1.14,1.26,3.07,2.45,4,3.46,1.26,6.8-1.35,10.78-.08-5.57,2.7-10.88,4.86-15.92,6.72-2,.21-1.56-1.83-3.55-2.31H36.86Z"/><path class="cls-19" d="M207.25,57.4c-.22-3.12,2.52-4.52,3.16-7.09,0-1.23-1.63-1.5-2-3l14.82-9.89c-1,4.23-6.92,5.27-4.87,10.42Z"/><path class="cls-18" d="M51.1,47.8c1.69-4.17-2.92-5.5-3.71-9.12,4.92,2.49,9,5.69,13,8.46.44,1.66-1.34,2.08-1.23,3.57.92,2.43,3.12,4.33,4.29,7C58.93,55.17,55.39,51.41,51.1,47.8Z"/><path class="cls-20" d="M243.06,192.77a2.6,2.6,0,0,0-1.29-2.22c-1.61-6.16-3.28-12.3-1.49-18.73,1.53-1.3,2.57-.23,3.63.77,1.19,3.78,1.35,7.74,1.87,11.63C246.21,187.34,245.66,190.46,243.06,192.77Z"/><path class="cls-21" d="M23,145.29l2.71-.77a2.61,2.61,0,0,1,1.55,2.38c-.38,5.54-.22,11.21-3.52,16.13a2.58,2.58,0,0,1-2.73.55,2.53,2.53,0,0,1-.18-3.13A47.84,47.84,0,0,1,23,145.29Z"/><path class="cls-22" d="M243.91,172.59a5.38,5.38,0,0,1-2.78-1c-3.8-3.52-5.12-10.46-3-15.75,1.5-1.25,2.7-1,3.6.74C242.46,161.89,243.81,167.15,243.91,172.59Z"/><path class="cls-23" d="M29,189.36c-.39.77-.77,1.55-1.15,2.32a16.92,16.92,0,0,1-7-13c-.7-1.7-1-3.22,1.46-3.68C27,178.63,28.2,183.9,29,189.36Z"/><path class="cls-24" d="M22.87,175.58c-2,.19-2,1.68-2,3.12a38.44,38.44,0,0,1,0-18.25l.17,2.1a1.88,1.88,0,0,0,1.92,0A10.47,10.47,0,0,1,22.87,175.58Z"/><path class="cls-25" d="M241.74,156.54a5.54,5.54,0,0,0-2.86-.95c-4-3.09-4.62-7.11-1.76-11.14l2.69-.06Q240.77,150.47,241.74,156.54Z"/><path class="cls-5" d="M88.12,259.57c-.88-5.74-1.84-11.44-.57-17.3,1-4.76,2.9-8.8,7.08-11.54a8.45,8.45,0,0,0,3.25-4c-3.45-1.19-8.76-.23-7.86-6.5,3.47-2.8,7.41-2.23,11.5-1.25,2.46-3.24,4.85-6.39,7.25-9.53a10.59,10.59,0,0,1,7.56-4.29,167,167,0,0,1,36.31-.06,11.08,11.08,0,0,1,8,4.46l7.08,9.25c3.93-.55,8.11-1.65,11.73,1.51.55,1.81-.37,3.18-1.14,4.51-1.89,1.53-4.29.79-6.5,1.87,0,1.81,1.25,3,2.59,3.8,6.27,3.91,7.71,10.12,8,16.77a76.69,76.69,0,0,1-.7,9.42c-.48,2.74-2,4-4.87,3.58-2.47-.35-4.92.15-7.39.33a5,5,0,0,1-4.67-2.24c-3.83-5.77-9.29-9.22-16.1-9.36-10.27-.21-20.56-.83-30.82.69A15.57,15.57,0,0,0,106,257.57c-.57,1.53-1.76,2.89-3.22,2.77C97.88,260,92.92,261.25,88.12,259.57Z"/><path class="cls-26" d="M165.85,256.42c.18.83.45,1.83,1.31,1.92a52,52,0,0,0,12.77-.08c.65-.1,1.18-1.06,1.77-1.62.52,3.5-1.33,6.61-1.82,10-.29,2-2.4,3.78-4.9,4.18a3,3,0,0,1-1.36-2.57c-.22-1.25,1-2.5-.08-3.92-4.28.17-7.57,2.53-10.75,5.14-4.26,1.29-8.17.36-11.89-1.82-1.3-2.35-3.51-2.76-5.91-2.77-6.91-.06-13.83,0-20.74,0-2.29,0-4.26.42-5.3,2.75-3.24,3.92-7.37,2.92-11.46,2.06-3.85-1.9-6.94-5.5-11.7-5.36-1.2,1.34-.17,3-.88,4.3s-1.6,2-3.08,1.08c-1.77-.17-2.46-1.49-2.74-2.93-.45-2.36-.66-4.76-1-7.14,2.93-1.7,6.15-.75,9.24-.94,2.13-.13,4.28,0,6.2,0a1.55,1.55,0,0,0,.34-2c2.12-2,4.7-1.24,7.11-1a297.88,297.88,0,0,0,46.66,0C160.4,255.41,163.29,254.49,165.85,256.42Z"/><path class="cls-27" d="M174.94,267.63c0,1.05,0,2.1,0,3.15-3.66,2.16-7.78,2.61-11.86,3.23-2.94.45-4.91-1.67-7.17-2.85-1.34.42-.22,1.47-.87,2.38-3.22,1.09-6.86.82-10.45.93-9.12.29-18.24.23-27.35-.31-2-.11-3.49-.42-3.7-2.82-8,5-14.85,1.61-21.75-1.7A2.21,2.21,0,0,0,94,267.37c1.92-2.17,4.21-1.14,6.44-.77,2.08.34,4,1.76,6.22,1.09,2.19-.37,4.1,1,6.26.94a8.25,8.25,0,0,0,5-1.71c1.74-1.84,3.83-.73,5.66-.47,8.48,1.19,16.9,1.57,25.31-.41a4.23,4.23,0,0,1,2.91.27c3.55,1.58,7.17,2.58,11.05,1.29,2.35.3,4.45-.91,6.73-1.12C171.49,266.31,173.48,265.65,174.94,267.63Z"/><path class="cls-28" d="M210.54,232.06a14,14,0,0,0-7-7.47c3.17-2.08,5.83-4,6.84-7.74,1.8,3.27,3.59,6,7.43,7.28C214.78,226.33,212,228.31,210.54,232.06Z"/><path class="cls-29" d="M72.1,200.39c1.49,3.54,3.32,5.55,6.53,6.67-2.57,1.95-5.14,3.58-6.53,7.32a14.39,14.39,0,0,0-7.1-7.06A13.18,13.18,0,0,0,72.1,200.39Z"/><path class="cls-30" d="M182.79,212.06a14.68,14.68,0,0,0-4.7-4.77c2-1.15,3.59-2.31,4.39-4.46,1.86,1.58,2.71,3.71,5.4,4.16A17.94,17.94,0,0,0,182.79,212.06Z"/><path class="cls-31" d="M55.24,232.13c1.55-1.83,3.61-2.35,3.94-4.65,2.34,1.09,2.83,3.73,5.33,4.23A15.53,15.53,0,0,0,60,236.25C58.52,234.58,57.35,233,55.24,232.13Z"/><path class="cls-32" d="M98.93,207.43l-3.58,3.68c-.6-1.45-2-2.3-3.26-3.84a9.62,9.62,0,0,0,3.36-3.49Z"/><path class="cls-33" d="M200.5,89.9c-.14,9.95-8.86,14.87-17.42,9.82-6.86-4.06-10.58-13.07-8.32-20.17,1.86-5.87,6.88-8.68,12.81-7.19C195,74.22,200.61,81.9,200.5,89.9Z"/><path class="cls-34" d="M77,74.69c4.23-3.15,8.76-4,13.36-1.09,4.44,2.83,5.38,7.32,4.77,12.21-.86,6.93-4.29,12.12-10.85,14.84-7.39,3.07-14.28-1-15.24-9a15.4,15.4,0,0,1,2-10,1.63,1.63,0,0,1,1.87.84c.94,1.58.35,3.15.14,4.8-.48,3.57.22,6.92,2.33,9.24-3.19-3.86-3.16-8.59-.78-13.3,2.31-4.55,5.83-7.62,11.29-7.2-.12,0,0,0-.1,0-2.79-.92-5.23,2-8,.49C77.15,76,76.69,75.53,77,74.69Z"/><path class="cls-35" d="M190.82,57.6c1.26,6-1.74,9.66-4.83,10.79-4.16,1.52-9-.45-12-4.81a13.94,13.94,0,0,1-2.34-5.43c-.73-3.83-.21-7.33,2.92-9.93,2.92-2.42,6.12-2.1,9.3-.4a1.55,1.55,0,0,1-.87,1.73,1.69,1.69,0,0,1-.43.19c-.54.1-.55.15-.19.43,5.49,4.26,6.77,7.34,5.2,12.17,1.21-1.31.39-3.57,2-4.85A1.13,1.13,0,0,1,190.82,57.6Z"/><path class="cls-34" d="M96.78,50.62C99.29,55.51,98.07,60,95,64.11c-2.68,3.64-6.33,5.3-10.89,4.44A9.1,9.1,0,0,1,82,67.47c-.3-.8.15-1.24.78-1.58a2.76,2.76,0,0,1,1.08-.12c-.07,0,.22,0,.22,0a2.55,2.55,0,0,0-.25-.28c-3-3-3.16-6.55-1.44-10,2-4.11,5.31-6.64,10.21-6.32C94.16,49,95.39,50.05,96.78,50.62Z"/><path class="cls-36" d="M96.78,50.62c-.78.28-1.56,1.16-2.33,0-4-1.9-7.32-1.24-10.23,2.11s-3.79,6.86-1.77,10.92c.43.88,1.12,1.69.68,2.78l-1.18,1c-4.21-3.75-5-7.72-2.46-13.22,2.28-5,7.09-8.28,11.6-7.7C93.67,46.87,95.82,48,96.78,50.62Z"/><path class="cls-37" d="M172.85,36.46c1.83-1.72,3.73-1.25,5.35.14a4.64,4.64,0,0,1,1.2,6.27,3.86,3.86,0,0,1-5.39-.43.83.83,0,0,1-.39-1c.48-1.1-.32-1.81-.81-2.63A2.19,2.19,0,0,1,172.85,36.46Z"/><path class="cls-38" d="M93.86,43.49c-2.17.55-4.1.27-4.57-2.26a4.75,4.75,0,0,1,2.47-5c2-1.25,4-1.52,5.29,1.17.45.71,0,1.19-.45,1.66-.76.68-2.07.8-2.17,2.14A5.44,5.44,0,0,1,93.86,43.49Z"/><path class="cls-39" d="M77,74.69l1.18,1c-.13,4-2.1,6.41-6.1,7.07l-1-1.16A12.64,12.64,0,0,1,77,74.69Z"/><path class="cls-40" d="M182.84,48.62l1-.8a11.85,11.85,0,0,1,7,9.78h-1.07C186.33,55.46,184.75,51.92,182.84,48.62Z"/><path class="cls-41" d="M166.15,103.57a21.54,21.54,0,0,1-.29-5.89c.26-1.27-.26-2.64.76-4.43C166.91,97.09,167.61,100.35,166.15,103.57Z"/><path class="cls-42" d="M93.86,43.49l-1-1.77A5.67,5.67,0,0,1,96,38.54l1.1-1.12C98,40.51,96.62,42.36,93.86,43.49Z"/><path class="cls-43" d="M172.85,36.46a2.81,2.81,0,0,0,.79,2c1.18.8,1.11,1.75.34,2.79l0,1.19C171.93,40.77,171,38.89,172.85,36.46Z"/><path class="cls-44" d="M117.32,23.79h11.36c.94,3.61-.07,7.3.64,10.82,1.66,1.36,3.56.65,5.31.77s3.31,0,5,0c1.82-3.77-.24-7.76,1.28-11.64a79.93,79.93,0,0,1,11.33-.08c.41,11.6.33,23.09,0,34.65-4.08.7-7.68.3-11.28.31-1.13-3.72-.29-7.27-.94-10.8a34.06,34.06,0,0,0-10.57-.15c-1,3.51.07,7-.78,10.71a42.27,42.27,0,0,1-11.4,0Z"/><path class="cls-45" d="M127.71,83.42c2.2-.9,3.45-.84,5.06.28v6.09a2.39,2.39,0,0,0,2.81.47c1.23-2.05-.21-4.56,1-6.69,1.29-1.14,2.64-1.11,4.22-.14,1.27,6.14.32,12.45.92,18.55-1.56,2-3.25,1.46-5,1-1.26-2.56-.12-5.17-.93-7.51-.58-.85-1.42-.65-2.37-.54-1.47,2.33,0,5.19-.93,7.44-1.21,1.38-2.54,1.09-4.44.8C126.26,96.68,128.28,90,127.71,83.42Z"/><path class="cls-46" d="M154.49,94.58l-4.55.33c-1.18,1.17-.65,2.22-.14,3.29,1.59,1.16,3.62,0,5.38,1,1.06.93,1.12,2.14.4,3.69-3.45,1.09-7,.22-11.15.55-.81-7-.46-13.5-.69-20.12,3.71-1,7-.61,10-.44,1.44,1,1.32,2.09,1,3.41-1.47,1.3-3.46.47-5.17,1-.86.76-.71,1.7-.39,2.72,1.47,1,3.24.12,4.94.75C155.29,91.7,155.26,92.89,154.49,94.58Z"/><path class="cls-47" d="M116.91,87.84c-1.53-1-4.14-1.4-2.41-4.54,3.45-1.06,7.14-.69,10.69-.22,2.06,3.27-.6,3.77-2.42,4.65-1.08,5-.42,10-1,14.64-1.48,1.32-2.89,1.23-4.66.57C116.08,98.18,117.41,93.25,116.91,87.84Z"/><path class="cls-48" d="M237.12,144.45c.34,3.75.39,7.55,1.76,11.14.09,5.41,1.51,10.64,2.25,16a103.22,103.22,0,0,0,1.27,10.27,15.08,15.08,0,0,1-.63,8.73,15.89,15.89,0,0,1-8.71,4.36c-6.19,1.13-12.28,2.84-18.4,4.35a10.35,10.35,0,0,1-8.09-1.16A55.41,55.41,0,0,0,190,191.44c-8.59-3.74-17.78-5.16-26.89-6.8C148.15,182,133,182,118,182.79a152.18,152.18,0,0,0-40,7,81.28,81.28,0,0,0-19,7.83c-9.85-3.15-20.39-3.92-30-8.29-3.65-3.88-5.3-8.64-6.11-13.78q0-6.5,0-13l2.79-18.07a80.71,80.71,0,0,1,4.45-16.45L18.07,112.76H96.4c2.16,0,4.33-.11,6.49-.16,12.75.06,25.49.16,38.24.18,8.6,0,17.21-.12,25.81-.18l71.27.16c3.43,0,6.85,0,11.39,0l-14.91,18Q235.91,137.6,237.12,144.45Z"/><path class="cls-49" d="M155.77,210.7c4.93,5.81,7.12,9.73,8,14.2-.69,1.48-2,1.53-3.39,1.53q-26.24,0-52.46,0a5.16,5.16,0,0,1-1.36-.37,3.55,3.55,0,0,1-.3-4.26,66.26,66.26,0,0,1,6.4-10.11,4.6,4.6,0,0,1,3.48-1.69,200.26,200.26,0,0,1,37.85.22A9.45,9.45,0,0,1,155.77,210.7Z"/><path class="cls-49" d="M165.85,256.42c-3.09,1.46-6.48,1.7-9.75,1.9-15.46.95-30.92,1.35-46.36-.49a31.37,31.37,0,0,1-5.84-1.2c0-.49-.31-1.23-.09-1.44,4.25-4,8.45-8.07,14.88-8.07,10.8,0,21.61-.27,32.4.06C157.54,247.38,162.48,250.87,165.85,256.42Z"/><path class="cls-50" d="M162.15,245.11a67.38,67.38,0,0,1,12.42-9.24c3.88,5.33,3.21,7.93-2.5,10a49.08,49.08,0,0,1-5.16,1.64C164.92,248.05,163.4,247.27,162.15,245.11Z"/><path class="cls-45" d="M93.17,243.5c-.56-4.21-.56-4.21,1.32-7.8A63.17,63.17,0,0,1,107.17,245C103.85,248.54,99.33,248,93.17,243.5Z"/><path class="cls-50" d="M151.78,266.31a8.25,8.25,0,0,1-4.68,2.42,92.79,92.79,0,0,1-25.19,0c-1.6-.2-2.65-1.26-4-1.77-1.36-1-1-2.27-.57-4.06,11.37.05,22.85.56,33.92-.22C152.69,264.1,151.75,265.22,151.78,266.31Z"/><path class="cls-51" d="M106.65,267.69c-.68,2.33-2.39,2.29-4.24,1.79-2.8-.74-5.49-1.91-8.42-2.11-2.81-1.9-2.21-3.95,0-6.63C98.31,262.87,103.86,262.49,106.65,267.69Z"/><path class="cls-51" d="M174.94,267.63c-2.81-.09-5.3,1.23-7.95,1.84-1.87.43-3.6.59-4.16-1.87,2.76-4.11,9.53-6.79,13.86-5.43C177.15,264.31,177.46,266.41,174.94,267.63Z"/><path class="cls-52" d="M187.9,99c6.19-4,7.85-8.1,5.67-13.85-2.39-6.28-6.83-8.32-15.56-7,2-3.4,5-4.44,8.55-4,8,1,14.19,11.4,11.37,19C196.26,97.7,193.23,99.47,187.9,99Z"/><path class="cls-53" d="M189,90.69c-1.57,2.47-3.62,2.12-5.53.65s-3.07-3.59-2.28-6.14c.9-2.91,3.06-3.08,6.63-.66-.05.2-.11.4-.16.6-.85,1.48.48,2.1,1.2,3A2.26,2.26,0,0,1,189,90.69Z"/><path class="cls-54" d="M189,90.69c-.16-.86-.14-1.81-1.18-2.18a2.88,2.88,0,0,1,.08-4l-.08,0C189.79,86.29,190.88,88.21,189,90.69Z"/><path class="cls-45" d="M72,82.79a38.1,38.1,0,0,1,6.1-7.07c4.08-1.71,8.13-3,11.85.75.22,1-.06,1.48-1.16,1.17a10.7,10.7,0,0,0-11.6,4.9C73,88.81,74.4,94.61,81,98.75c-5.23.92-9.23-2.13-10.1-7.66C70.48,88.21,71.31,85.51,72,82.79Z"/><path class="cls-55" d="M83,83.56c3.36-1.15,5.21-.23,5.46,2.69a6.58,6.58,0,0,1-4.26,6,3.06,3.06,0,0,1-3.49-1.16,4.24,4.24,0,0,1,0-5.42C83.13,86.78,83,85.16,83,83.56Z"/><path class="cls-56" d="M83,83.56c.13.09.26.2.4.28,1.43.77,2.39,1.72,1.54,3.51a2.19,2.19,0,0,1-2.36,1.37c-1.74-.24-1.6-1.79-1.85-3Z"/><path class="cls-57" d="M88.82,77.64,90,76.47a3,3,0,0,1,1.88,2.69C90.36,79.26,89.62,78.39,88.82,77.64Z"/><path class="cls-58" d="M182.84,48.62a18,18,0,0,1,6.91,9c-.2,6.25-1.36,8-6.78,9,3.7-3.23,4.64-6.67,2.72-10.7-2.06-4.34-5.66-5.75-10.72-5.32C177.44,47.51,180.23,48.44,182.84,48.62Z"/><path class="cls-53" d="M182.91,57.63c.06,1.33.19,2.67-1.11,3.7-1.92.89-3.47.21-4.52-1.57a3.45,3.45,0,0,1,.14-4.17c1-1.19,2.17-1.43,3.36-.2C180,57.53,182.07,57,182.91,57.63Z"/><path class="cls-59" d="M182.91,57.63l-2.42,1.47c-2.4-1.51-1.22-2.62.29-3.71Z"/><path class="cls-60" d="M83.13,66.43C78.41,60.8,79,54.5,84.72,50.19c3.33-2.52,6.11-2.4,9.73.43-3.78-.25-7.26.19-9.73,3.61-2.8,3.87-2.46,7.93,1.13,11.37.08,1.77-.82,1.64-2,1A1.49,1.49,0,0,0,83.13,66.43Z"/><path class="cls-53" d="M88.84,55.67c1-1.69,2.13-1.18,3.16-.15,1.44,1.43,1,3,0,4.46-.92,1.31-2.14,2.13-3.78,1.58-1.24-.41-2.51-1-2.24-2.73.18-1.15,1-1.11,1.83-1C88.79,57.42,89.55,56.89,88.84,55.67Z"/><path class="cls-61" d="M83.88,66.62c.74-.19,1.69,0,2-1,1.08.08,2.28-.4,3.33.86A3.72,3.72,0,0,1,83.88,66.62Z"/><path class="cls-62" d="M88.84,55.67c1.29.52,1.72,1.51.9,2.59-.61.82-1.6,1.12-1.94-.43Z"/><path class="cls-63" d="M174,41.25l-.34-2.79c3-1.31,3.22.52,3.3,2.55C175.82,42.09,174.9,41.52,174,41.25Z"/><path class="cls-64" d="M96,38.54c0,2.07-1.09,3.09-3.12,3.18C92.06,38.5,92.81,37.73,96,38.54Z"/><path class="cls-65" d="M213.13,158.58c.87,6.82,1.74,13.64,2.64,20.75-3.33.13-5.8-1.15-9-2.16-2.07-12-3.72-24.22-5.12-36.48,2.67-3.34,5.53-2.3,8.42-.36l1.1,2.93,7.86,1.06c1.07-.41.85-1.2,1.08-1.77,2.08-2.5,5.21-2.41,8-3.24,1.15,7.17,2.34,14.34,3.43,21.53,1.15,7.54,2.21,15.1,3.27,22.66a16.24,16.24,0,0,1,0,2.31c-.83,1.19-1.93.59-2.84.78-2.8-.2-6.09.37-6.09-4-1.23-8.33-2-16.74-3.94-25a5.69,5.69,0,0,0-6.35-2.69C214.12,155.72,213.86,157.3,213.13,158.58Z"/><path class="cls-66" d="M166.94,136.56c3.47,11,6.47,22.07,9.61,33.89l-9.15-1.32c-2.13-3.64-2.07-7.66-3.79-11.33-3.14-.29-6.36-1.05-9.79-.67-1.46,3.15-.74,6.68-2.23,10a15.8,15.8,0,0,1-9-.51c1.19-10.58,3.37-20.92,5.14-31.32,2.8.32,5.72-.52,8.41.91,2.49,3.05-.38,7,1.84,11,1.37-3.85-1.47-7.17.59-10.08C161.23,134.85,164.06,135.41,166.94,136.56Z"/><path class="cls-67" d="M64.89,171.59c-1.74-1.52-.55-5.26-4.7-5.49.45,4.5-2,8.31-2.74,12.64-1,1.27-4,.56-3.24,3.86,2.35,1.91,5.93,3,7.45,6.36.29.65,0,1.3-.44,2.17a20.32,20.32,0,0,1-9.86-.66,47.33,47.33,0,0,0-11.76-2.84c-5.78-.39-7.61-2.41-9.93-7.79-2-4.53-1.68-9-1.78-13.53,0-1.82-.16-3.63,1.27-5.16a3.16,3.16,0,0,0,.66-2.32C29,152.47,31,146.44,32,140.32a35.2,35.2,0,0,1,2.73-8.27c1.14-2.56,1.73-4.53-.12-6.81a2.73,2.73,0,0,1,0-3.66c4.56,1.66,6,4.08,4.8,8.68s-3.22,9.1-4,13.88c-.73,7.59-2.74,15-2.48,22.72-.27,2.11-.83,4.21-.19,6.35.72,7.3,1.18,7.88,7.74,9.8,3.49,1.6,7.56,1.24,10.89,3.29a19.61,19.61,0,0,1,2.75,1.08,21.3,21.3,0,0,0-2.21-.9c-2.54-1-5.46-1.49-5.49-5.13A3.49,3.49,0,0,1,48,178.94c5.79-2.51,6.76-7.27,7.09-13,.42-7.24,2.71-14.32,2.43-21.67a9.82,9.82,0,0,1-.25-1.42,2.25,2.25,0,0,1,.58-1.28,6.43,6.43,0,0,1,5.27,1.75,21.85,21.85,0,0,1,2.73-7.76,1.29,1.29,0,0,1,1.62.2c1.19,1.19,1.06,2.71,1.06,4.2-1,9.65-2,19.29-1.32,29a3.56,3.56,0,0,1-.78,2.3A1.18,1.18,0,0,1,64.89,171.59Z"/><path class="cls-68" d="M64.89,171.59l1.35-.15c1.69-1.54,3.49-.39,5.23-.19,8.06.88,15.18-2.44,17.77-9.84,3.38-9.66,6.1-19.65,3.77-30.13-1.08-5.76-2.94-7.89-7.42-8.47-6.79-.87-11.29,1.3-14.07,6.76-1.16,2.27-1.34,5.29-4.54,6H65.89c-.34-8.92,9.22-19.36,20-18,5.25.65,10.49,5.8,12,12.3.15.62,0,1.34.83,2,2-1.85,1.11-4.27,1.15-6.38,0-2.43,1.48-3.93,2.85-5.68,2.49-.06,5-1,7.2.76-8.09,3.79-5.29,11.35-6.1,17.66a151.51,151.51,0,0,1-1.59,20.86c-.31,1.8-.47,3.71-2.57,4.51l-1.24,1.24c-1.18-1.63.27-4-1.88-5.66-1.14,3.69-3.39,6.61-5.31,9.64-2.13,3.37-6.13,5.21-9.93,6.8-3.15,1.31-6.37,3.32-9.74,1.33-1.64-1-3.37-1.16-4.86-1.71A5.33,5.33,0,0,1,64.89,171.59Z"/><path class="cls-65" d="M99.65,163.59q1.13-13,2.26-26c2.71-2.7,5.64-2.75,8.74-.73,1.82,3.35.09,6.8.26,10.2s-.35,6.95.34,10.35a5.23,5.23,0,0,0,5.55,1.25c1.66-.46,3.44-1.43,5,.24.47,3,1.49,6-1,8.63-5.86,1.93-11.92,1.08-17.9,1.26l-2.67-.26C99.18,166.79,100.06,165.12,99.65,163.59Z"/><path class="cls-69" d="M33.77,143.56c.2-5.82,2.85-10.89,4.92-16.56-1.6-1.36-2.61-3.55-4.07-5.42l.23-1a116.91,116.91,0,0,1,25,.09c1.39.91,2.72,1.86,2.36,3.84,1.22,5.28-.17,7.16-5.21,7.1-8.16-.11-8.76.33-11.21,8.42a5.72,5.72,0,0,1-2.94,3.77C39.81,144.68,36.71,147.16,33.77,143.56Z"/><path class="cls-70" d="M42.77,142.56c.83-1.3.9-2.83,1.31-4.26,2-6.9,5.78-9.42,13-8.67,1,.11,1.94.38,2.72.53,3-1.07,1.54-3.86,2.48-5.65l1.05-2a3.93,3.93,0,0,1,2.24,2.08c-1.31,3.11-2.73,6.21-5.47,8.64-1.82.7-3.82.3-5.78.36-5.23.16-6.51,1.64-6,7.26,3,1.49,6.37.43,9.57.76,0,.26,0,.52,0,.79-.77,1.71-2.32,2.45-3.92,3.12-5.49,1.64-5.83,2.52-2.83,7.33,2.18,3.51.67,15.53-2.31,18.39-3.37,3.22-9.22,2.4-10.08-2.13C37,160,37.32,150.78,42.77,142.56Z"/><path class="cls-71" d="M191.13,155.56c.15,5.9,2,11.69,1.66,17.89a31.45,31.45,0,0,1-9.1-2.06c-1.18-10.8-2.39-21.82-3.59-32.83,3.26-3.29,6.28-1.32,9.32.41C191.71,144.32,191,150,191.13,155.56Z"/><path class="cls-72" d="M188.75,139.56c-2.95.25-5.68-1.42-8.65-1-1-3-1-6.14-1.29-9.12-2.47-1.12-4.94,0-7.36-1.23a12.75,12.75,0,0,1-.74-6.1c1-1.51,2.26-1.32,3.39-1.32,5.31,0,10.62,0,15.93,0a5.48,5.48,0,0,1,4.84,2c3.25,4.48,2.53,6.34-3.29,8.8C189,133.68,192.15,137.73,188.75,139.56Z"/><path class="cls-73" d="M136.88,137.56c.31,9.57.63,19.13.94,28.59-3.6,1.35-6.48.8-9.89.53V153.49c0-9.14-.06-18.28,0-27.42,0-1.51-.88-3.34.94-4.53,1.94,1,2.25,2.81,2.1,4.59C130.55,131.23,131.76,135.37,136.88,137.56Z"/><path class="cls-14" d="M155.74,136.56c-4.79,1.7-5.82,1.53-8-1.28a68.33,68.33,0,0,1,2.51-14.07,41.8,41.8,0,0,1,12-.09,71.4,71.4,0,0,1,4.64,15.44c-.21.8-.44,1.41-1.56,1.3-2.06-.21-4.14-.21-6.21-.3C157.91,137.63,157.05,136.31,155.74,136.56Z"/><path class="cls-74" d="M228.1,139.31c-.2.91-.41,1.83-.63,2.82-2.53.78-4.95.35-7.33.42a195.86,195.86,0,0,1-3.48-21c5.22-.55,10-.22,15-.24-.94,2.93-3.47,4.34-4.5,6.78C226.36,131.87,228.31,135.49,228.1,139.31Z"/><path class="cls-14" d="M210.1,140.33c-2.77.93-5.63-.16-8.42.36l-1.86-8.11c-3.73-5.16-3.85-6.72-.86-11a17.39,17.39,0,0,1,8.49.26C208.47,128,209.83,134.09,210.1,140.33Z"/><path class="cls-14" d="M110.72,137.56l-8.81,0c.5-5.57-.88-11.33,1.22-16.71l6.78-.31c1.16.69,2.07,1.46,2,3s0,3.24,0,4.86C110.45,131.37,112.5,134.71,110.72,137.56Z"/><path class="cls-14" d="M136.88,137.56c-2.45-.12-5,.41-7.55-.56-.89-5.2-.2-10.35-.43-15.46,2.29-1.54,4.72-.55,7.61-.59C137.7,126.53,137.35,132,136.88,137.56Z"/><path class="cls-75" d="M199,121.58a57.09,57.09,0,0,0,.86,11,9.8,9.8,0,0,1-1.44-.37c-3.93-1.62-6.14-.51-6.36,3.62-.24,4.81,0,9.64-.09,14.45,0,1.78.54,3.69-.8,5.28q-1.19-8-2.38-16c.64-3.2-.7-6.24-.89-9.39,2.17-1.48,4.72.14,7-1.26V122.7C195.93,121.22,197.52,121.67,199,121.58Z"/><path class="cls-76" d="M104.28,113.86h61.49v.5h-61.6Z"/><path class="cls-77" d="M110.72,137.56c.52-3-.06-6.16,1.16-9.09v27.58c1.29,2,2.61,2.4,4.52,1.92s3.94-1.17,5.44.92l-11.68.51C109.21,152,110.82,144.77,110.72,137.56Z"/><path class="cls-78" d="M231.93,187.57a1.64,1.64,0,0,1,1.56,1.54c-7.64.68-14.6,4.72-22.91,4.47l1.36-2c3.67-2.38,8-3.09,11.94-4.85C226.63,186.4,229.43,185.47,231.93,187.57Z"/><path class="cls-79" d="M231.93,187.57,224,188.65c-2.27.22-3.43-.66-3.06-3.08l4.94-3c1.26,2.51,4.53,2,6.09,4A2.49,2.49,0,0,1,231.93,187.57Z"/><path class="cls-41" d="M102.92,168.78c5.94-.75,11.88-1.53,17.9-1.26.38.33.65.71.4,1.95C115.22,169.3,109.07,170.48,102.92,168.78Z"/><path class="cls-80" d="M220.94,185.57a6.86,6.86,0,0,0,3.06,3.08c-3.79,1.92-8,2-12.06,3C214.16,188.45,217.82,187.42,220.94,185.57Z"/><path class="cls-81" d="M59.87,120.67l-25-.09c-.29-.65.09-1,.63-1q11.13,0,22.27,0A2.54,2.54,0,0,1,59.87,120.67Z"/><path class="cls-82" d="M213.13,158.58c-.25-1.47-.51-2.93-.76-4.4,5.38-1.13,8.13-.14,9.57,3.41-1.61,0-2.24-1.92-4.88-1.85C216,155.83,215,158,213.13,158.58Z"/><path class="cls-56" d="M187.94,84.5l-.08,4c-3,.76-3.59-.87-3.71-3C185.38,83.91,186.69,84.35,187.94,84.5Z"/><path class="cls-83" d="M155.74,136.56c.36-1.48-.1-3.19,1.5-4.8.7,2.1,1.32,4,1.93,5.8L162,149.28c-2.87-.07-5.26.11-7.81-.87Z"/><path class="cls-65" d="M42.77,142.56c-.86,6.57-1.77,13.14-2.59,19.73-.39,3.16-.31,6.28,1.71,8.88,2.44,1.05,4.35,0,6.56-1.2.74-5.16,1.51-10.51,2.25-15.7-1.45-1.35-3.18.26-4.65-1.18-.46-2.45.57-5,1-7.54,1.89-2.09,4.59-1.55,6.92-2.18,1.63-.74,3.51.25,5.11-.72,1.44.79,1.3,2,1.1,3.41q-1.86,13.26-3.5,26.56a7.87,7.87,0,0,1-4,6c-1.82,1.12-3.73,2.12-5.6,3.17-1.45,3.34-4.37,2.9-7.16,2.82-6.66-.57-8.47-2.42-8.94-9.08-.05-.65-.16-1.3-.25-1.95a13,13,0,0,1-.05-5.91c.69-8.07.81-16.22,3.12-24.08C36.87,144.12,39.72,142.38,42.77,142.56Z"/><path class="cls-65" d="M95.1,130.24c.1.13.29.26.3.4.95,11.57.18,23-4.93,33.57-3.12,6.48-11.3,10.41-18.37,9.77-2.31-.21-3.91-1.69-5.86-2.54-2.3-5.73-1.47-11.71-1.33-17.6a55.71,55.71,0,0,1,2-14.27c2.47-2.72,5.37-2.43,8.39-1.2,3.7,3.57,1.34,7.83,1.19,11.78-.13,3.57-1.36,7.16.88,10.38,2.89.48,3.32-1.6,3.91-3.23a40.72,40.72,0,0,0,2.44-12.2c.14-2.73.58-5.3,2.65-7.31,1.61-1.19,3.78-1.11,5.29-2.27C93.22,133.91,92.57,131.06,95.1,130.24Z"/><path class="cls-74" d="M95.1,130.24c-.51,2.51.26,5.15-.7,7.8-2.54,1-5.16.34-7.68.61-3.57-1-1.5-5.44-4.36-7.12-4.12,1-2.4,7.14-6.7,8l-8.7,0c0-1.33,0-2.66,0-4,.78-2.13,1.51-4.29,2.35-6.4,3.12-7.79,13.8-11.46,21.08-7.18A9.51,9.51,0,0,1,95.1,130.24Z"/><path class="cls-84" d="M39.89,184.58l7.16-2.82c1.6,1.77,3.83,2.63,5.72,4,.55,1-.15,1.39-.9,1.73A46.18,46.18,0,0,1,39.89,184.58Z"/><path class="cls-85" d="M51.87,187.47l.9-1.73a9.59,9.59,0,0,1,4.48,2.45A6,6,0,0,1,51.87,187.47Z"/><path class="cls-48" d="M30.65,167.64c0,2,0,3.94.05,5.91A5.21,5.21,0,0,1,30.65,167.64Z"/><path class="cls-48" d="M59,142.65a9.44,9.44,0,0,1-5.11.72c1.12-1.14,2.67-.63,4-1Z"/><path class="cls-86" d="M75.66,139.55c.71-2.38,1.33-4.78,2.15-7.12s2.22-4.14,5.07-3.88,3.06,2.57,3.28,4.76c.19,1.78.38,3.56.56,5.34-1,6.4-1,12.95-2.92,19.21-1.52,5-3.44,6.29-8.71,5.52C72.36,155.49,75.22,147.52,75.66,139.55Z"/></g></g></svg>