<svg
  xmlns="http://www.w3.org/2000/svg"
  viewBox="0 0 132.18 133.04"
>
  <defs>
    <style>.cls-1 {
        fill: #351734;
    }

    .cls-2 {
        fill: #b20c34;
    }

    .cls-3 {
        fill: #f5f5f5;
    }

    .cls-4 {
        fill: #381d39;
    }

    .cls-5 {
        fill: #f4f3f2;
    }
    </style>
  </defs>
  <title>Asset 9</title>
  <g
    id="Layer_2"

  >
    <g
      id="Layer_1-2"

    >
      <path d="M132,67V46c0-7.16-.44-14.36.1-21.48,1-13.11-8.84-24.12-23.33-24.3C80.63-.11,52.47,0,24.32.21,10.32.33.15,10.56.09,24.09q-.19,42.48,0,85a23.28,23.28,0,0,0,6.8,16.61c5.57,5.78,12.55,7.25,20,7.29q35,.2,70,0c5.46,0,11-.37,16.38-.93A21,21,0,0,0,132,111C132,96.33,132,81.67,132,67Z"/>
      <path
        class="cls-1"
        d="M132,67c0,14.66,0,29.32,0,44a21,21,0,0,1-18.78,21c-5.43.56-10.92.91-16.38.93q-35,.15-70,0c-7.43,0-14.41-1.51-20-7.29a23.28,23.28,0,0,1-6.8-16.61q-.16-42.48,0-85C.15,10.56,10.32.33,24.32.21,52.47,0,80.63-.11,108.78.24c14.49.18,24.32,11.19,23.33,24.3-.54,7.12-.1,14.32-.1,21.48ZM5.9,66.51q0,21.49,0,43c0,10.56,6.82,17.57,17.45,17.61q43,.15,85.94,0c10.73,0,17.66-7.23,17.67-18q0-42.46,0-84.94C127,13.05,120,6,108.85,6Q66.13,5.94,23.4,6C12.85,6,5.94,13,5.91,23.54Q5.87,45,5.9,66.51Z"
      />
      <path
        class="cls-2"
        d="M5.9,66.51q0-21.48,0-43C5.94,13,12.85,6,23.4,6q42.73-.07,85.45,0C120,6,127,13.05,127,24.11q0,42.47,0,84.94c0,10.82-6.94,18-17.67,18q-43,.15-85.94,0c-10.63,0-17.42-7-17.45-17.61Q5.87,88,5.9,66.51Zm13.92,0c0,13.66.14,27.33-.07,41-.07,4.44,1.63,5.79,5.87,5.77q40.72-.16,81.46,0c4.19,0,6-1.27,6-5.73q-.21-41,0-82c0-4.48-1.73-5.75-5.93-5.74q-40.73.16-81.46,0c-4.7,0-6,1.77-5.92,6.22C20,39.54,19.82,53,19.82,66.53Z"
      />
      <path
        class="cls-3"
        d="M19.82,66.53c0-13.49.14-27-.08-40.48-.07-4.45,1.22-6.24,5.92-6.22q40.73.24,81.46,0c4.2,0,6,1.26,5.93,5.74q-.22,41,0,82c0,4.46-1.78,5.75-6,5.73q-40.72-.16-81.46,0c-4.24,0-5.94-1.33-5.87-5.77C20,93.86,19.82,80.19,19.82,66.53ZM66.38,29.07C47.7,29,34.8,51.42,44.19,68c6.06,10.71,12.67,21.1,19.11,31.58,2.29,3.73,3.71,3.75,6,.06,6.47-10.47,13.13-20.84,19.2-31.54C97.89,51.52,85.07,29.12,66.38,29.07Z"
      />
      <path
        class="cls-4"
        d="M66.38,29.07c18.69.05,31.51,22.45,22.1,39-6.07,10.7-12.73,21.07-19.2,31.54-2.27,3.69-3.69,3.67-6-.06C56.86,89.11,50.25,78.72,44.19,68,34.8,51.42,47.7,29,66.38,29.07ZM75.54,54a9.15,9.15,0,0,0-9.31-9,9.14,9.14,0,1,0,.22,18.28A9.14,9.14,0,0,0,75.54,54Z"
      />
      <path
        class="cls-5"
        d="M75.54,54a9.14,9.14,0,0,1-9.09,9.24,9.14,9.14,0,1,1-.22-18.28A9.15,9.15,0,0,1,75.54,54Z"
      />
    </g>
  </g>
</svg>
