<svg
  xmlns="http://www.w3.org/2000/svg"
  viewBox="0 0 132.01 132.94"
>
  <defs>
    <style>.cls-1 {
        fill: #351734;
    }

    .cls-2 {
        fill: #b20c34;
    }

    .cls-3 {
        fill: #f5f5f5;
    }

    .cls-4 {
        fill: #381d39;
    }
    </style>
  </defs>
  <title>Asset 10</title>
  <g
    id="Layer_2"

  >
    <g
      id="Layer_1-2"

    >
      <path d="M132,66.46c0-15,.06-30-.06-45a18.55,18.55,0,0,0-1.38-7.21C126.12,4.3,117.83.13,107.37.08q-41-.18-82,0C10.25.11.1,10.31.05,25.49q-.11,41,.07,82a29.37,29.37,0,0,0,2,10.66c4.46,11,13.67,14.75,24.79,14.78q35.74.11,71.47,0a152,152,0,0,0,15.38-.92c9.93-1.06,18.19-10.43,18.21-20.51C132,96.45,132,81.46,132,66.46Z"/>
      <path
        class="cls-1"
        d="M132,66.46c0,15,0,30,0,45,0,10.08-8.28,19.45-18.21,20.51a152,152,0,0,1-15.38.92q-35.73.15-71.47,0c-11.12,0-20.33-3.74-24.79-14.78a29.37,29.37,0,0,1-2-10.66q-.24-41-.07-82C.1,10.31,10.25.11,25.41.07q41-.12,82,0c10.46.05,18.75,4.22,23.18,14.19a18.55,18.55,0,0,1,1.38,7.21C132.05,36.48,132,51.47,132,66.46Zm-126.11,0q0,21.24,0,42.49c0,11.2,6.81,18.09,18,18.11q42.49.09,85,0C120,127,127,120,127,109q0-42.49,0-85c0-11.22-6.8-18.06-18-18.08q-42.48-.06-85,0c-11.19,0-18,6.86-18.07,18C5.85,38.11,5.88,52.27,5.88,66.43Z"
      />
      <path
        class="cls-2"
        d="M5.88,66.43c0-14.16,0-28.32,0-42.48,0-11.18,6.88-18,18.07-18q42.5,0,85,0c11.23,0,18,6.86,18,18.08q0,42.48,0,85C127,120,120,127,108.86,127q-42.48.1-85,0c-11.19,0-18-6.91-18-18.11Q5.85,87.67,5.88,66.43ZM113,66.75c0-13.83-.08-27.66.05-41.48,0-3.72-1-5.51-5.06-5.5q-41.49.15-83,0c-3.95,0-5.23,1.59-5.22,5.38q.14,41.23,0,82.47c0,4.17,1.6,5.57,5.6,5.56q41-.12,82,0c4.4,0,5.78-1.68,5.71-6C112.84,93.74,113,80.25,113,66.75Z"
      />
      <path
        class="cls-3"
        d="M113,66.75c0,13.5-.12,27,.07,40.48.07,4.28-1.31,6-5.71,6q-41-.16-82,0c-4,0-5.62-1.39-5.6-5.56q.18-41.24,0-82.47c0-3.79,1.27-5.39,5.22-5.38q41.47.15,83,0c4,0,5.1,1.78,5.06,5.5C112.88,39.09,113,52.92,113,66.75ZM83.23,55.14,71.9,54.91,72,55V44.31H61.4V55H50.89V44.48H40.37V54.91H51V65.22H40.35V75.7H51.12V65.85H61.6V75.6H72.36V65.78h9.86c.16,3.53.31,6.76.46,9.9H92.87V65H83.09c0-3.72,0-6.85,0-10h9.81V44.39H82.2C82.56,48.16,82.9,51.65,83.23,55.14Zm-55-10.83V95.66h6.92V44.31Zm70.07-.07V95.57h6.75V44.24Z"
      />
      <path
        class="cls-1"
        d="M71.9,54.91l11.33.23-.14-.09V65h9.78V75.68H82.68c-.15-3.14-.3-6.37-.46-9.9H72.36V75.6H61.6V65.85H51.12V75.7H40.35V65.22H51V54.91l-.1.1H61.4V44.31H72V55H62.11v9.87H71.9Z"
      />
      <path
        class="cls-4"
        d="M28.25,44.31h6.92V95.66H28.25Z"
      />
      <path
        class="cls-4"
        d="M98.32,44.24h6.75V95.57H98.32Z"
      />
      <path
        class="cls-4"
        d="M51,54.91H40.37V44.48H50.89V55Z"
      />
      <path
        class="cls-1"
        d="M83.23,55.14c-.33-3.49-.67-7-1-10.75H92.89V55h-9.8Z"
      />
      <path
        class="cls-3"
        d="M71.9,54.91v10H62.11V55H72Z"
      />
    </g>
  </g>
</svg>
